<?xml version="1.0" encoding="utf-8"?>
<!-- Generator: Adobe Illustrator 24.0.1, SVG Export Plug-In . SVG Version: 6.00 Build 0)  -->
<svg version="1.1" id="Layer_1" xmlns="http://www.w3.org/2000/svg" xmlns:xlink="http://www.w3.org/1999/xlink" x="0px" y="0px"
	 viewBox="0 0 1600 1200" style="enable-background:new 0 0 1600 1200;" xml:space="preserve">
<style type="text/css">
	.st0{fill:#FFFFFF;}
	.st1{fill:#FF7900;}
	.st2{fill:#B1B1B1;}
	.st3{fill:#4E4E4E;}
</style>
<path class="st0" d="M1156,668.9c-0.4-1.2-0.9-2.3-1.6-3.3c-0.2-0.3-0.4-0.5-0.6-0.8c-0.3-0.5-0.7-1-1.1-1.5
	c-2.1-2.6-5.3-4.2-8.4-5.1c-1.9-0.6-4-0.9-5.9-1.1c-3.2-0.3-6.5,0.2-9.7,0.7c-4.1,0.7-8.1,1.6-12.1,2.7c-4.7,1.3-9.3,2.7-14,4.2
	c-4.9,1.6-9.8,3.3-14.7,5.1c-4.8,1.7-9.6,3.5-14.3,5.4c-4.3,1.7-8.6,3.4-12.9,5.1c-3.4,1.4-6.8,2.8-10.2,4.2c-2.4,1-4.7,2-7.1,3
	c-0.5-30.9-2.5-61.7-5.8-92.4c-0.5-4.9-1.1-9.8-1.8-14.7c-0.1-1-0.3-2-0.4-3c0,0,0,0,0,0c0,0,0-0.1,0-0.1c0-0.2-0.1-0.7-0.1-0.8
	c-0.1-1.1-0.3-2.1-0.4-3.2c-1.4-11.1-3.1-22.1-5.1-33c-6.4-33.9-16.6-67.1-31.4-98.3c-18.7-39.4-45.3-75.2-79.6-102.5
	c-26.7-21.3-56.5-39.3-89.2-49.7c-22.7-7.2-46.6-10.7-70.4-9.3c-24.7,1.4-49,7.9-71.3,18.7c-2.3,1.1-4.6,2.3-6.9,3.5
	c4.1-10.8,8.2-21.6,12.2-32.5c4.9-13.2,9.6-26.4,13.9-39.7c3.6-11.1,7.1-22.3,10-33.6c1.3-5,2.3-10,2.8-15.1c0.4-4.4,0.3-8.9-1.5-13
	c-0.7-1.7-1.8-3.2-3.2-4.4c-2.1-1.8-4.6-2.4-7.3-2.3c-2.9,0.1-5.5,0.9-8.1,2.2c-2.2,1.1-4,2.8-5.7,4.5c-4.4,4.2-8.7,8.4-12.5,13.2
	c-3.9,4.8-7.4,9.9-10.6,15.1c-6.6,10.5-12.3,21.6-18.3,32.4c-6.5,11.8-12.9,23.7-18.4,36c-5.7,12.6-10.8,25.5-15.8,38.5
	c-4.6,12.1-9,24.2-12.7,36.6c-0.1-0.2-0.1-0.4-0.2-0.6c-0.5-2.1-1.2-4.1-1.9-6.1c-1-2.8-2-5.6-3.5-8.2c-1.5-2.5-4-5.5-7.3-5.2
	c-2.8,0.3-4.8,2.3-6.2,4.6c-1.3,2.2-2.3,4.6-3.1,7c-0.5,1.6-1,3.1-1.4,4.7c0,0.1-0.1,0.3-0.1,0.4c-3.4,14-6.8,28-10.2,42.1
	c-3.3,13.7-6.7,27.3-9.5,41.1c-4.8,23.4-8.3,47.3-7.1,71.3c0.5,9.8,1.8,19.5,3.8,29c-3,13.7-4.9,27.7-5.7,41.8
	c-1.2,21.2,0.1,42.5,4,63.3c4.3,23.3,11.8,46,22.1,67.3c8.2,17,18.3,33,30,47.9c8,10.3,16.8,20,26.3,28.9c0.5,0.5,1,1,1.6,1.5
	c-7.9,18.9-12.1,39.2-12.7,59.7c-0.7,22,2.7,44.2,9.7,65.2c7,21.1,17.5,40.9,31.2,58.4c13.8,17.6,30.8,32.7,49.6,44.8
	c18.9,12.2,39.7,21.5,61.3,27.8c21.7,6.3,44.3,9.6,66.9,9.8c21.5,0.2,43-2.7,63.7-8.6c20.3-5.8,39.9-14.6,57.4-26.6
	c17.2-11.8,32.3-26.7,43.4-44.5c6.1-9.7,12.6-21.3,11.9-33.1c-0.3-5.4-2.2-10.5-6.1-14.3c-3.4-3.2-7.7-5.3-12.4-5.8
	c-4.3-0.4-8.6,1.1-11.6,4.2c-0.1,0.2-0.3,0.3-0.4,0.5c-1.4,1.2-2.8,2.4-4.2,3.5c-1,0.8-1.9,1.6-2.9,2.3c-0.5,0.4-1,0.8-1.5,1.1
	c0,0-0.1,0.1-0.1,0.1c0,0,0,0,0,0c0,0,0,0,0,0c0,0,0,0,0,0v0c0,0,0,0,0,0c0,0,0,0,0,0c0,0,0,0,0,0c0,0-0.1,0.1-0.1,0.1
	c-0.3,0.2-0.6,0.4-0.9,0.7c-4.9,3.7-10,7.3-15.1,10.7c-13.2,8.7-27.2,16.2-41.8,22.3c-18.2,7.5-37.3,12.9-56.8,15.8
	c-14.6,2.1-29.7,3-44.5,3.2c-15.6,0.2-31.3-0.8-46.6-4c-17.2-3.7-33.8-10.1-48.5-20c-15.8-10.7-28.9-25.3-38.2-41.9
	c-8.3-14.8-13.5-31.2-16.1-48c-2.2-13.8-2.6-27.8-1.6-41.7c0.2-2.8,0.4-5.6,0.7-8.3c0.1-1.3,0.3-2.5,0.4-3.8c0-0.2,0.1-0.4,0.1-0.6
	c0,0,0,0,0,0v0c0,0,0,0,0-0.1v0c0,0,0,0,0,0v0c0,0,0,0,0,0c0,0,0,0,0-0.1c0-0.1,0-0.2,0-0.3c0.1-0.6,0.2-1.1,0.2-1.7
	c0.5-3.1,1-6.2,1.6-9.3c8.8,2.6,17.8,4.6,26.8,6c10.3,1.6,20.8,2.6,31.2,3c10.3,0.4,20.7,0.2,31-0.4c10.4-0.6,20.8-1.6,31.2-2.9
	c10.4-1.3,20.8-2.9,31.1-4.7c1.2-0.2,2.3-0.4,3.5-0.6c1.3,4.4,2.7,8.8,4,13.2c4.2,13.9,8.4,28.1,17.4,39.7c2.2,2.7,4.6,5.8,7.7,7.5
	c3.2,1.8,7.1,1.8,9.9-0.7c2.1-1.8,3.1-4.6,3.5-7.3c0.5-3.2,0.2-6.2-0.3-9.3c-2.7-16.2-5.8-32.3-9.3-48.3c-0.2-0.9-0.4-1.8-0.6-2.8
	c9.1-2.6,18.2-5.1,27.3-7.7c9.5-2.7,19-5.3,28.4-8c9.5-2.7,19-5.3,28.6-8c9.5-2.7,19-5.3,28.5-8c9.4-2.6,18.8-5.3,28.1-7.9
	c1.1-0.3,2.1-0.6,3.2-0.9c0.2,10.9,0.2,21.9-0.7,32.7c-0.3,4.1-0.6,6.8-1.2,10.3c-1.3,7.7-2.5,15.5-1.5,23.3
	c1.2,9.5,7.4,18.7,18.3,17.1c7.8-1.2,11.9-9.2,14.4-15.8c3.7-9.8,5.1-20.3,6.3-30.6c1.5-12.5,2.2-25.1,2.8-37.6
	c0.1-2.9,0.2-5.9,0.3-8.8c1.7-0.6,3.4-1.1,5.1-1.7c3.4-1.1,6.7-2.2,10.1-3.4c4.2-1.4,8.4-2.9,12.6-4.4c4.7-1.7,9.4-3.4,14.1-5.2
	c5-1.9,9.9-3.8,14.9-5.8c5.1-2.1,10.2-4.2,15.3-6.4c4.6-2,9.1-4.1,13.5-6.3c3.9-2,7.8-4.1,11.6-6.3c3.2-2,6.4-4.1,9.3-6.6
	c2.1-1.8,4.2-3.9,5.5-6.3C1156.6,676,1157.1,672.3,1156,668.9z M1001.7,697.9c-5.7,2.1-11.5,3.8-17.4,5c-1.7,0.4-3.5,0.7-5.2,1
	c-0.9,0.1-1.8,0.3-2.7,0.4c-0.1,0-0.1,0-0.2,0c0,0,0,0,0,0c-0.1,0-0.1,0-0.1,0c0,0,0,0,0,0c0,0,0,0,0,0c-0.1,0-0.2,0-0.3,0
	c-0.5,0.1-1,0.1-1.6,0.2c-3.7,0.4-7.4,0.7-11.1,0.8c-1.3,0-2.7,0-4,0c0.1-0.1,0.2-0.2,0.2-0.3c2-2.2,3.8-4.7,5.6-7.1
	c4.1-5.6,8.1-11.2,11.9-17c3.7-5.7,7.2-11.5,10.4-17.6c3.2-6.3,6.1-12.8,8.3-19.4c0.8-2.2,1.5-4.5,2.1-6.8c2,20.2,3.8,40.3,5,60.6
	C1002.3,697.8,1002,697.8,1001.7,697.9z"/>
<g>
	<g>
		<g>
			<path d="M952,710.9c9.1,0.6,18.1,0.2,27.1-1.2c4.5-0.7,9-1.6,13.4-2.8c3.6-1,7.1-2.3,10.7-3.4c6.6-2,13.4-3.3,20-4.9
				c4.6-1.1,9.2-2.3,13.8-3.4c2.3-0.6,4.8-1,7.1-1.7c5.3-1.8,9.5-4,14.8-6.2c20.3-8.3,40.9-16.5,62.2-21.9c4.1-1,8.3-2,12.3-2.3
				c1.5-0.1,3.1-0.2,4.7-0.1c0.1,0,1.1,0.1,0.7,0.1c-0.3,0,0.9,0.2,1.1,0.2c1.4,0.3,2.9,0.6,4.2,1.2c1.4,0.5,2.7,1.3,3.7,2.3
				c0.6,0.6,1,1.2,1.5,1.8c-0.1-0.1-0.1-0.3,0.2,0.3c1.3,2.4,1.6,4.9,0.3,7.4c-0.8,1.5-1,1.7-2.2,2.9c-1.1,1.2-2.4,2.3-3.6,3.2
				c-7.5,5.8-16.5,10.2-25.1,14.2c-10.7,5-21.7,9.4-32.7,13.6c-10.1,3.8-20.2,7.4-30.4,10.9c-5.5,1.9-11,4.1-16.7,5.5
				c-8.3,2.1-16.6,4-25,6c-10.1,2.4-20.1,5.2-30.1,8c-38.8,10.9-77.6,21.8-116.4,32.6c-18.6,5.2-37.3,10-56.4,13
				c-37.2,5.8-75.8,9-113.2,2.5c-8.9-1.5-17.7-3.7-26.4-6.4c-3.6-1.1-5.1,4.5-1.6,5.6c36.8,11.5,76.1,11.8,114.1,7.7
				c9.7-1,19.4-2.4,29-3.9c5.7-0.9,11.4-1.6,16.9-3c8.7-2.2,17.5-4.3,26.2-6.5c14.9-3.7,29.7-8.2,44.5-12.4
				c19.9-5.6,39.7-11.1,59.6-16.7c15.4-4.3,30.7-9.1,46.2-12.9c9-2.2,18-4.3,26.9-6.5c14.5-3.5,28.5-8.7,42.6-13.8
				c11.5-4.2,22.9-8.5,34.1-13.3c10.1-4.3,20.3-8.9,29.7-14.6c6.2-3.8,14.7-8.9,16.3-16.6c2.6-11.9-10.2-18.8-20.4-18.5
				c-9.4,0.3-18.8,3.2-27.7,6c-11.3,3.5-22.5,7.5-33.5,11.8c-8.7,3.4-17.3,6.8-25.9,10.5c-2.1,0.9-4.3,1.8-6.4,2.7
				c-0.6,0.2,0.9-0.2,0.2-0.1c-0.3,0-0.7,0.2-1.1,0.3c-1.4,0.4-2.8,0.7-4.3,1.1c-9.4,2.3-18.9,4.6-28.3,7c-10,2.5-19.7,6.1-29.9,7.7
				c-8.9,1.4-17.9,1.8-26.9,1.2C948.3,704.8,948.3,710.6,952,710.9L952,710.9z"/>
		</g>
	</g>
	<path d="M1121.3,678.8c-0.6-2.2-2.6-3.7-4.8-4c-1.7-0.3-3.5-0.3-5.3-0.1c-2.1,0.3-4.2,0.8-5.7,2.4c-1,1.1-1.8,2.6-2,4.1
		c-0.5,0.4-0.9,0.9-1.1,1.5c-0.4,2.2,0.2,4.3,1.9,5.8c1.5,1.3,3.5,2.2,5.5,2c2.1-0.2,4-1,5.7-2.2c1.6-1.1,3.1-2.4,4.3-4
		C1121.1,682.9,1121.9,680.8,1121.3,678.8z"/>
	<g>
		<g>
			<path d="M1127,673.3c3.8,0,3.8-5.8,0-5.8C1123.2,667.4,1123.2,673.3,1127,673.3L1127,673.3z"/>
		</g>
	</g>
	<g>
		<g>
			<path d="M1133.4,678.3c3.8,0,3.8-5.8,0-5.8C1129.6,672.5,1129.6,678.3,1133.4,678.3L1133.4,678.3z"/>
		</g>
	</g>
	<g>
		<g>
			<path d="M1134,685.6c0.2,0,0.4,0,0.6,0c0.4,0,0.8-0.1,1.1-0.3c0.4-0.1,0.7-0.3,0.9-0.6c0.3-0.3,0.5-0.6,0.6-0.9
				c0.2-0.3,0.3-0.7,0.3-1.1c0-0.3-0.1-0.5-0.1-0.8c-0.1-0.5-0.4-0.9-0.8-1.3c-0.2-0.2-0.4-0.3-0.6-0.5c-0.5-0.3-0.9-0.4-1.5-0.4
				c-0.2,0-0.4,0-0.6,0c-0.4,0-0.8,0.1-1.1,0.3c-0.4,0.1-0.7,0.3-0.9,0.6c-0.3,0.3-0.5,0.6-0.6,0.9c-0.2,0.3-0.3,0.7-0.3,1.1
				c0,0.3,0.1,0.5,0.1,0.8c0.1,0.5,0.4,0.9,0.8,1.3c0.2,0.2,0.4,0.3,0.6,0.5C1133,685.5,1133.5,685.6,1134,685.6L1134,685.6z"/>
		</g>
	</g>
</g>
<g>
	<path class="st0" d="M997.2,605.4c11.5,109.1,11.8,157.9,8.1,179.1c-1,5.7-5.4,27.8,4.6,34.9c2.8,2,6.6,2.7,9.6,2
		c13.8-3.2,17.5-38.5,19.2-62.2c6.5-93.5-6.1-181.5-6.1-181.5l0,0"/>
	<g>
		<path d="M994.3,605.4c2.4,23.1,4.6,46.2,6.5,69.3c1.3,16.9,2.5,33.8,3.1,50.7c0.5,11.7,0.7,23.4,0.4,35c-0.1,4.2-0.3,8.3-0.6,12.5
			c-0.1,1.7-0.3,3.4-0.5,5.2c-0.1,0.8-0.2,1.5-0.3,2.3c-0.1,0.4-0.3,0.7,0-0.1c-0.1,0.2-0.1,0.4-0.1,0.5c0,0.4-0.1,0.7-0.2,1.1
			c-0.8,5.3-1.8,10.6-2.1,16c-0.4,7.5,0.1,16.6,5.7,22.2c3.6,3.6,9.4,5.3,14.3,3.9c2.9-0.8,5.4-2.7,7.3-5.1
			c4.9-6.1,7.1-14.1,8.8-21.6c2.1-9.2,3.2-18.7,4-28c1-11.4,1.7-22.8,2.1-34.3c0.9-24.3,0.7-48.7-0.3-73
			c-0.8-18.6-2.1-37.2-3.8-55.8c-0.9-9.4-1.9-18.9-3.2-28.2c-0.1-0.4-0.1-0.8-0.2-1.2c-0.2-1.6-2.2-2.4-3.6-2c-1.7,0.5-2.3,2-2,3.6
			c0.1,0.4,0.1,0.9,0.2,1.3c0.1,0.8-0.1-0.7,0-0.1c0,0.3,0.1,0.6,0.1,0.9c0.1,0.7,0.2,1.4,0.3,2.2c0.6,4.6,1.1,9.3,1.6,13.9
			c1.7,16.2,3.1,32.5,4,48.8c1.3,22.8,1.9,45.7,1.7,68.6c-0.2,12.6-0.6,25.2-1.3,37.8c-0.6,9.7-1.3,19.5-2.5,29.1
			c-1.1,8.2-2.6,17.2-5.5,25.2c-0.3,0.8-0.6,1.6-0.9,2.4c-0.3,0.8,0.1-0.3-0.1,0.2c-0.1,0.2-0.2,0.4-0.3,0.6
			c-0.2,0.4-0.4,0.9-0.6,1.3c-0.7,1.4-1.6,2.7-2.4,4.1c-0.4,0.6,0.3-0.3,0,0c-0.1,0.1-0.2,0.3-0.3,0.4c-0.2,0.2-0.4,0.5-0.6,0.7
			c-0.2,0.2-0.4,0.4-0.7,0.7c-0.2,0.2-1.1,0.9-0.5,0.4c-0.5,0.3-0.9,0.7-1.5,0.9c-0.2,0.1-1.1,0.4-0.3,0.2c-0.3,0.1-0.6,0.2-1,0.3
			c-1.8,0.5-4,0.2-5.9-0.6c-0.6-0.3-1.2-0.6-1.7-1c-0.5-0.3-0.1-0.1,0,0c-0.2-0.2-0.4-0.3-0.6-0.5c-0.2-0.2-0.5-0.5-0.7-0.7
			c-0.2-0.2-0.3-0.4-0.5-0.6c0.3,0.4,0-0.1-0.1-0.2c-0.4-0.6-0.8-1.3-1.1-2c0-0.1-0.4-0.9-0.1-0.3c-0.1-0.2-0.1-0.3-0.2-0.5
			c-0.2-0.5-0.3-0.9-0.5-1.4c-0.3-0.8-0.5-1.7-0.6-2.6c-0.2-1.2-0.2-1.2-0.3-2.3c-0.4-3.8-0.2-7.6,0.1-11.3c0.1-0.8,0.2-1.7,0.3-2.5
			c0-0.2,0-0.3,0.1-0.5c-0.1,0.7,0-0.1,0-0.2c0.1-0.4,0.1-0.8,0.2-1.1c0.2-1.3,0.4-2.5,0.6-3.8c1.2-6.8,1.8-13.7,2.1-20.7
			c0.5-10.6,0.3-21.2,0-31.8c-0.4-15.4-1.4-30.8-2.5-46.2c-1.5-21.3-3.5-42.6-5.6-63.9c-0.6-6.1-1.2-12.2-1.9-18.3
			c-0.2-1.6-1.2-2.9-2.9-2.9C995.7,602.5,994.1,603.8,994.3,605.4L994.3,605.4z"/>
	</g>
</g>
<g>
	<g>
		<g>
			<g>
				<path d="M678.4,309.4c7.7-20.4,15.5-40.8,22.7-61.4c6.3-18,12.6-36.2,16.8-54.9c2.3-10,5.5-32.2-11.1-30.9
					c-7.9,0.6-13.9,7.1-19,12.5c-6.5,6.8-12.1,14.4-17,22.4c-5.1,8.1-9.5,16.6-14.2,24.9c-5.1,9.2-10.2,18.3-14.9,27.6
					c-9.6,19-17.6,38.8-25.1,58.7c-7,18.5-12.6,37.4-17.5,56.6c-4.6,17.7-9.1,35.3-13.7,53c-5.4,21-10.8,41.9-16.2,62.9
					c-3.3,12.6-6.5,25.3-9.8,37.9c-5.2,20.2-6.9,41.8-6.7,62.6c0.5,39,9.7,77.7,26.9,112.7c12.5,25.5,29.2,49,49.1,69.3
					c3,3.1,6.1,6.1,9.3,9c2.8,2.5,6.9-1.6,4.1-4.1c-17.3-16-32.4-34.3-44.9-54.3c-19.8-32-32.6-68.3-37-105.8
					c-3.2-28-2-56.5,3.9-84.1c1.9-9,4.5-17.8,6.8-26.7c4.9-19.2,9.9-38.3,14.8-57.5c5-19.5,10.1-39.1,15.1-58.6
					c2.3-8.9,4.6-17.9,6.9-26.8c5.2-20.1,12.4-39.6,20.1-58.9c7.7-19.3,16-38.1,25.9-56.3c9-16.6,17.6-33.9,28.8-49.1
					c5.1-6.9,11.1-14,18-19.3c2.4-1.9,6.5-3.7,9.6-2.5c2.3,0.9,3.3,3.8,3.7,6c1.2,6.7-0.7,14.1-2.3,20.6c-2,8-4.3,15.8-6.7,23.7
					c-6.4,20.4-13.7,40.5-21.1,60.5c-3.6,9.6-7.3,19.2-10.9,28.8C671.4,311.4,677.1,312.9,678.4,309.4L678.4,309.4z"/>
			</g>
		</g>
	</g>
	<g>
		<g>
			<path d="M691.3,194.2c3.8,0,3.8-5.8,0-5.8C687.6,188.4,687.6,194.2,691.3,194.2L691.3,194.2z"/>
		</g>
	</g>
	<g>
		<g>
			<path d="M701.1,193.4c3.8,0,3.8-5.8,0-5.8C697.4,187.5,697.4,193.4,701.1,193.4L701.1,193.4z"/>
		</g>
	</g>
	<g>
		<g>
			<path d="M703.8,202.2c3.8,0,3.8-5.8,0-5.8C700,196.4,700,202.2,703.8,202.2L703.8,202.2z"/>
		</g>
	</g>
	<path d="M696.7,213c-0.8-2.1-2.3-3.6-4.4-4.4c-1.6-0.5-3.3-0.4-4.9,0.1c-0.5-0.1-1-0.2-1.5,0c-1.8,0.7-3.5,1.8-4.8,3.3
		c-1.3,1.5-2.3,3.3-2.7,5.2c-0.5,2.2-0.3,4.4,0.6,6.5c0.8,2,2.7,3.6,4.8,4c4.3,0.8,8.2-2,10.7-5.2c1-1.3,1.7-2.8,2.1-4.4
		C697.2,216.5,697.3,214.6,696.7,213z"/>
</g>
<g>
	<path class="st1" d="M666.5,599.8c-1.8-1.7-8.6-9.9-12.8-12c-4,1.3-6.3,4.3-6.4,7.7c0,0.2,0.3,10.5,1.6,18.3
		c0.9,5.3,5,19.8,10.2,19.5c4.6-0.2,8-4.8,8.7-10.8C669.5,608.8,667.9,601.1,666.5,599.8z"/>
	<g>
		<g>
			<path d="M643.3,591.9c-0.9,11.4,1.2,23.6,5.9,34.1c2.2,4.9,6.4,11.1,12.7,9.2c5.5-1.7,7.6-8,8.6-13.1c1.6-7.6,2.1-15.4,1.4-23.2
				c-0.1-1.6-1.2-2.9-2.9-2.9c-1.5,0-3.1,1.3-2.9,2.9c0.6,5.9,0.5,12-0.5,17.9c-0.4,2.7-0.9,5.5-1.8,8c-0.3,0.9-0.6,1.6-1.1,2.4
				c-0.1,0.2-0.3,0.5-0.5,0.7c-0.4,0.5-0.2,0.3-0.1,0.2c-0.2,0.2-0.4,0.4-0.5,0.6c-0.1,0.1-0.2,0.2-0.3,0.3c0.2-0.1,0.1-0.1,0,0
				c-0.7,0.5-1.1,0.6-1.8,0.5c-0.5-0.1-1.2-0.5-1.7-1.1c-1.6-1.6-2.6-3.8-3.4-5.9c-2-4.5-3.3-9.4-4.1-14.2c-1-5.4-1.3-11-0.9-16.5
				c0.1-1.6-1.4-2.9-2.9-2.9C644.5,588.9,643.4,590.3,643.3,591.9L643.3,591.9z"/>
		</g>
	</g>
</g>
<g>
	<path class="st0" d="M602.5,380.7c4.7-21.8,1.6-36.8-1.5-45.5c-1.3-3.8-4.2-11.9-7.9-11.9c-4.9,0-8.1,13.9-8.2,14.6
		c-4.6,18.8-9.2,37.6-13.7,56.4c-13.5,55.7-18.8,96.2-5.9,139.9c5.4,18.3,17.3,58.6,46.4,64.3c17.7,3.5,34-7.3,41.9-13.5
		c8.9,8.8,34.5,31.9,66.3,29.3c53.6-4.3,78.6-77.8,84.7-95.5c18.3-53.7,6.3-102.2-1.1-124.9c-5.3,11.9-10.7,23.7-16,35.6"/>
</g>
<g>
	<path class="st2" d="M697.3,586.6c-2.2-4.3-5.4-7.9-9.1-10.8c-7.2-5.6-18.1-8.5-26.6-4.5c-3.6,1.7-5.9,5.2-6.4,9
		c-0.7,0.7-1.1,1.9-0.7,2.9c0.5,1.3,1,2.5,1.6,3.6c0.6,1.6,1.5,3,2.6,4.2c2.7,3.7,6.1,6.7,9.8,9.3c0.4,0.7,1.2,1.2,2,1.3
		c1.3,0.8,2.5,1.5,3.9,2.2c7.5,3.8,21.2,9.3,25-2.5C701.1,596.4,699.5,590.9,697.3,586.6z"/>
	<path class="st2" d="M654.6,575.5c-1.5-1.3-3.2-2.2-5.1-2.9c-7.3-2.5-14.8,0.5-21.2,4c-3.2,1.8-6.4,3.8-8.5,7.1
		c-2,3.2-2.7,7.3-1.1,10.8c1.3,2.9,4.2,4.9,7.2,5.6c3.8,0.9,7.6-0.2,11.1-1.9c4.8-2.3,10-5.2,13.9-9.3c2.6-2,4.5-5,5-8.4
		C656.2,578.7,656.3,576.9,654.6,575.5z"/>
</g>
<path class="st3" d="M740.8,512.1c-1.3-7.7-6-15-13.3-18.1c-5.8-2.5-12.3-2.5-18.5-1.3c-12.9,0.2-26.2,5.4-31.8,17.8
	c-3.1,6.8-3.2,14.2,0.1,21c2.9,6,7.8,10.9,13.5,14.2c11,6.3,25.6,7,36.2-0.5C737.3,537.8,742.9,524.6,740.8,512.1z"/>
<path class="st3" d="M686.7,391.3c-3.5-4.8-8.5-8.1-13.6-11c-5-2.8-10.7-4.8-16.4-2.9c-5,1.7-8.9,5.5-11.8,9.8
	c-3,4.6-4.7,9.9-6.9,14.8c-1.1,2.5-2.3,4.9-3.9,7.1c-1.5,2.1-3.5,3.9-5.4,5.6c-3.9,3.3-8.1,6.4-11.2,10.5
	c-6.4,6.4-10.5,15.1-10.1,24.3c0.4,10,6.2,19.8,15.1,24.5c10.3,5.5,22.4,3,32.2-2.3c9.4-5,17.4-12.5,23.6-21
	c6.1-8.3,10.4-18,12.4-28.1C692.7,412.5,693.1,400.1,686.7,391.3z"/>
<g>
	<path class="st2" d="M897.6,326.6c-70.5-55.7-162.9-48-159.7-37.4C752.1,353.6,858.5,373.2,897.6,326.6z"/>
	<path class="st2" d="M1025.8,537.3c0.3-5.8-6.4-28.9-9.4-40.2c-1.5-5.6-8.6-28.3-10.7-33.5c-2-4.9-4.7-8.6-6.2-13.5
		c-1-3.4-2.6-10-5.3-11.4c-2.7-1.4-6.1-0.7-7.7,2c-8.5,14.9-11.6,32.2-9.1,49.1c2.2,15.1,9.6,29.4,20.1,40.3
		c6.6,6.9,14.6,12,22.7,16.9c2.5,1.5,6.3,0.6,7.7-2C1029.3,542.3,1025.8,537.3,1025.8,537.3z"/>
</g>
<g>
	<path class="st2" d="M871,398.8c-0.7-2.7-2.4-4.9-4.5-6.6c-1.6-2.2-3.8-4-6.6-5.2c-6-2.6-13.1-2.1-17.9,2.6
		c-4.8,4.8-5.9,11.6-5.9,18.1c0,6.3,0.1,14,5.5,18.3c0.4,0.3,0.8,0.6,1.2,0.9c0.9,0.7,2,1.3,3.1,1.6c5.6,1.9,10.8-1.3,14.4-5.4
		c4.3-3.8,7.6-8.8,9.6-14.2C871.1,405.8,871.9,402.2,871,398.8z"/>
	<path class="st2" d="M909.4,420.1c-0.2-2.4-1.5-4-3.7-4.9c-1.2-0.5-2.6-0.7-3.9-0.8c-2.7,0-5.4,0.8-7.6,2.3c-0.7,0.5-1.3,1-1.9,1.5
		c-2.5,1.7-4.7,4.1-5.1,7.1c-0.4,3.1,0.9,6.2,3.3,8.2c2.6,2.2,6.1,2.8,9.4,1.8c3.2-0.9,5.8-3.2,7.5-6
		C908.8,426.7,909.7,423.2,909.4,420.1z"/>
	<path class="st2" d="M991.2,571.5c-0.3-0.4-0.6-0.8-0.9-1.2c-1.8-3.8-4.6-7.2-8.1-9.6c-0.6-0.4-1.2-0.7-1.8-1.1
		c-4.4-3.7-10.9-6.1-15.4-1.1c-0.6,0.7-1.1,1.4-1.5,2.1c-0.5,0.4-0.9,0.9-1.3,1.4c-1.9,2.5-2.5,5.5-2.8,8.6
		c-0.3,3.6-0.5,7.5-0.2,11.3c-0.4,3.4,0.4,6.9,2.1,9.9c1.2,3.1,3,5.9,5.5,8.3c3.9,3.6,9.1,5.9,14.6,5.1c4.9-0.7,8.9-3.5,11.5-7.6
		C998.2,589.7,996.5,579.2,991.2,571.5z"/>
</g>
<g>
	<g>
		<g>
			<path d="M662.6,705.3c3.5,7.4,9.5,13.7,16.8,17.4c1.4,0.7,3.2,0.4,4-1c0.7-1.3,0.4-3.3-1-4c-1.7-0.9-3.3-1.9-4.8-3
				c0,0-0.7-0.6-0.2-0.2c-0.2-0.1-0.3-0.3-0.5-0.4c-0.4-0.3-0.7-0.6-1.1-0.9c-0.7-0.6-1.4-1.3-2-2c-0.7-0.7-1.3-1.4-1.9-2.1
				c-0.1-0.2-0.3-0.3-0.4-0.5c-0.2-0.3,0.2,0.3-0.1-0.1c-0.3-0.4-0.6-0.8-0.9-1.3c-1.1-1.6-2-3.2-2.8-4.9c-0.6-1.4-2.8-1.8-4-1
				C662.2,702.2,661.9,703.8,662.6,705.3L662.6,705.3z"/>
		</g>
	</g>
	<g>
		<g>
			<path d="M668.5,723.4c6-6.5,12-12.9,18-19.4c1.1-1.2,1.1-3,0-4.1c-1.1-1.1-3.1-1.2-4.1,0c-6,6.5-12,12.9-18,19.4
				c-1.1,1.2-1.1,3,0,4.1C665.4,724.5,667.4,724.6,668.5,723.4L668.5,723.4z"/>
		</g>
	</g>
</g>
<g>
	<g>
		<path d="M1035.5,577.7c-1.5-11.9-3.2-23.9-5.4-35.7c-3.3-17.6-7.5-34.9-12.9-52c-6.6-20.9-14.9-41.3-25.1-60.7
			c-11.4-21.5-25.2-41.8-41.5-59.9c-14.9-16.6-31.9-30.8-50.1-43.5c-15.7-11-32.3-20.7-50-28.3c-23.7-10.2-49.1-16.5-74.9-17.3
			c-28.5-0.9-57,5-83,16.7c-21,9.5-40.2,22.8-57,38.5C624.3,346.2,614,358,605,370.7c-1.2,1.7-2.4,3.4-3.5,5.1c-2.1,3.1,3,6.1,5,3
			c7-10.6,14.7-20.1,23.5-29.4c14.4-15.2,30.9-28.5,49.1-38.9c23.5-13.4,50-21.8,77-23.8c26.4-2,52.8,2.1,77.8,10.8
			c19.4,6.8,37.7,16.4,54.9,27.7c16.2,10.6,31.7,22.4,45.6,36c17.5,17.1,32.4,36.5,44.9,57.5c11.3,19,20.5,39.1,27.9,59.9
			c6.2,17.6,11.2,35.6,15.1,53.8c1.6,7.3,2.9,14.7,4.1,22.1c0.5,3.1,1,6.2,1.4,9.3c0.2,1.4,0.4,2.8,0.6,4.3c0,0.3,0.1,0.6,0.1,0.9
			c0,0,0-0.1,0,0.4c0.1,0.7,0.2,1.3,0.3,2c0.3,2.2,0.6,4.3,0.8,6.5c0.2,1.6,1.2,2.9,2.9,2.9C1034,580.6,1035.7,579.3,1035.5,577.7
			L1035.5,577.7z"/>
	</g>
</g>
<g>
	<g>
		<g>
			<path d="M644.4,561c0.5,2.7,0.8,5.5,1.6,8.1c0.7,2.4,1.9,4.8,4.1,6.2c2.3,1.5,5.5,1.3,7.7-0.3c2.2-1.6,3.6-4.1,4.4-6.7
				c0.9-3,1.2-6.3,1.1-9.4c0-1.5-1.3-3-2.9-2.9c-1.6,0.1-3,1.3-2.9,2.9c0,1.2,0,2.4-0.1,3.6c0,0.3-0.1,0.6-0.1,0.9
				c-0.1,0.5,0.1-0.5,0,0c0,0.1,0,0.2-0.1,0.4c-0.1,0.6-0.2,1.1-0.3,1.7c-0.1,0.5-0.2,0.9-0.3,1.4c-0.1,0.2-0.1,0.4-0.2,0.6
				c0,0.1-0.1,0.3-0.1,0.4c-0.1,0.4,0.2-0.5,0.1-0.1c-0.2,0.4-0.4,0.9-0.7,1.3c-0.1,0.2-0.3,0.4-0.4,0.6c0,0.1-0.3,0.3,0,0
				c0.3-0.3-0.1,0.1-0.1,0.2c-0.1,0.2-0.3,0.3-0.5,0.5c0,0-0.2,0.2-0.2,0.2c0,0,0.5-0.3,0.2-0.2c-0.2,0.1-0.4,0.2-0.5,0.3
				c-0.3,0.2,0-0.2,0.2-0.1c0,0-0.3,0.1-0.3,0.1c-0.1,0-0.3,0-0.3,0.1c0.1-0.1,0.6,0,0.3-0.1c-0.1,0-0.2,0-0.3,0c-0.5,0,0.2,0,0.2,0
				c0-0.1-0.5-0.1-0.6-0.2c-0.3,0,0.3,0.1,0.3,0.1c0-0.1-0.2-0.1-0.3-0.2c0,0-0.3-0.2-0.3-0.2c0,0,0.5,0.4,0.3,0.2
				c-0.1-0.1-0.3-0.3-0.4-0.4c0,0-0.2-0.3-0.2-0.3c0,0,0.3,0.5,0.2,0.2c-0.1-0.2-0.3-0.4-0.4-0.6c-0.1-0.2-0.2-0.4-0.3-0.6
				c0-0.1-0.1-0.2-0.1-0.3c-0.2-0.3,0.2,0.5,0.1,0.2c-0.1-0.4-0.3-0.8-0.4-1.3c-0.8-2.6-1.1-5.4-1.6-8.1c-0.3-1.5-2.2-2.5-3.6-2
				C644.8,557.9,644.1,559.4,644.4,561L644.4,561z"/>
		</g>
	</g>
	<g>
		<g>
			<path d="M651,575.6c0,3,0,5.9,0,8.9c0,1.5,1.3,3,2.9,2.9c1.6-0.1,2.9-1.3,2.9-2.9c0-3,0-5.9,0-8.9c0-1.5-1.3-3-2.9-2.9
				C652.3,572.8,651,574,651,575.6L651,575.6z"/>
		</g>
	</g>
</g>
<g>
	<g>
		<path d="M692.8,527.2c5.7,3.8,13.2,4.9,19.8,3c6.1-1.8,11.4-6.2,14.3-11.8c1.7-3.3-3.3-6.3-5-3c-2.3,4.3-6.1,7.7-10.8,9.1
			c-5.2,1.6-10.8,0.6-15.3-2.4c-1.3-0.9-3.2-0.3-4,1C690.9,524.6,691.5,526.3,692.8,527.2L692.8,527.2z"/>
	</g>
</g>
<g>
	<g>
		<path d="M583.6,522.7c4.3,5.3,11.1,8.6,18,8.6c6.9,0.1,13.7-3.1,18.1-8.3c1-1.2,1.2-3,0-4.1c-1-1-3.1-1.2-4.1,0
			c-3.5,4.1-8.6,6.6-14,6.6c-5.4-0.1-10.4-2.7-13.8-6.9c-1-1.2-3.1-1-4.1,0C582.4,519.8,582.6,521.5,583.6,522.7L583.6,522.7z"/>
	</g>
</g>
<g>
	<g>
		<path d="M995.4,618.7c-1.9,13.7-6,27-12.2,39.4c-6,12.1-13.5,23.2-21.4,34.1c-1.2,1.6-2.3,3.2-3.5,4.7c-0.6,0.8-1.1,1.5-1.7,2.3
			c0.4-0.5,0.2-0.2-0.1,0.1c-0.2,0.2-0.4,0.4-0.6,0.7c-1,1.1-2,2.2-3,3.3c-0.5,0.5-1,1-1.5,1.5c-0.2,0.2-0.4,0.4-0.7,0.6
			c-0.2,0.1-0.9,0.7-0.2,0.2c-1.3,0.9-1.9,2.5-1,4c0.7,1.2,2.7,2,4,1c4.4-3.3,7.8-7.9,11-12.2c4.1-5.6,8.2-11.2,12-17.1
			c7.6-11.6,14.2-23.8,18.8-37c2.7-7.8,4.6-15.8,5.7-23.9c0.2-1.6-0.4-3.1-2-3.6C997.6,616.3,995.6,617.1,995.4,618.7L995.4,618.7z"
			/>
	</g>
</g>
<g>
	<g>
		<g>
			<path d="M884.2,560.1c-0.4,1.7-1,3.4-1.6,5c-0.3,0.8-0.6,1.6-1,2.5c-0.3,0.6,0.3-0.6,0,0c-0.1,0.2-0.2,0.5-0.3,0.7
				c-0.2,0.4-0.4,0.8-0.6,1.2c-0.3,0.7-0.5,1.5-0.3,2.3c0.2,0.7,0.7,1.4,1.3,1.7c1.3,0.7,3.3,0.4,4-1c1.6-3.5,3-7,4-10.7
				c0.4-1.5-0.5-3.2-2-3.6C886.3,557.7,884.6,558.5,884.2,560.1L884.2,560.1z"/>
		</g>
	</g>
	<g>
		<g>
			<path d="M899.7,544.1c-0.4,2.4-0.8,4.7-1.1,7.1c-0.1,0.8-0.1,1.5,0.3,2.3c0.4,0.6,1.1,1.2,1.7,1.3c0.7,0.2,1.6,0.1,2.3-0.3
				c0.6-0.4,1.2-1,1.3-1.7c0.4-2.4,0.8-4.7,1.1-7.1c0.1-0.8,0.1-1.5-0.3-2.3c-0.4-0.6-1.1-1.2-1.7-1.3c-0.7-0.2-1.6-0.1-2.3,0.3
				C900.4,542.7,899.8,543.3,899.7,544.1L899.7,544.1z"/>
		</g>
	</g>
	<g>
		<g>
			<path d="M916.6,518.7c0,2.2,0,4.3,0,6.5c0,0.7,0.3,1.5,0.9,2.1c0.5,0.5,1.3,0.9,2.1,0.9c1.6-0.1,2.9-1.3,2.9-2.9
				c0-2.2,0-4.3,0-6.5c0-0.7-0.3-1.5-0.9-2.1c-0.5-0.5-1.3-0.9-2.1-0.9C917.9,515.9,916.6,517.1,916.6,518.7L916.6,518.7z"/>
		</g>
	</g>
	<g>
		<g>
			<path d="M926.6,552.5c0,1.8,0,3.6,0,5.3c0,0.7,0.3,1.5,0.9,2.1c0.5,0.5,1.3,0.9,2.1,0.9c0.8,0,1.5-0.3,2.1-0.9
				c0.5-0.6,0.9-1.3,0.9-2.1c0-1.8,0-3.6,0-5.3c0-0.7-0.3-1.5-0.9-2.1c-0.5-0.5-1.3-0.9-2.1-0.9c-0.8,0-1.5,0.3-2.1,0.9
				C927,551,926.6,551.7,926.6,552.5L926.6,552.5z"/>
		</g>
	</g>
	<g>
		<g>
			<path d="M913.7,585.1c0,0.7-0.1,1.5-0.2,2.2c0-0.3,0.1-0.5,0.1-0.8c-0.2,1.3-0.4,2.6-0.8,3.9c-0.2,0.6-0.4,1.2-0.6,1.9
				c-0.1,0.3-0.2,0.6-0.3,0.9c0,0.1-0.1,0.2-0.1,0.3c-0.1,0.2,0,0.1,0.1-0.3c-0.1,0.1-0.2,0.4-0.2,0.5c-0.3,0.7-0.5,1.4-0.3,2.3
				c0.2,0.7,0.7,1.4,1.3,1.7c1.3,0.7,3.3,0.4,4-1c1.7-3.7,2.6-7.5,2.8-11.5c0.1-1.5-1.4-3-2.9-2.9
				C914.9,582.3,913.8,583.5,913.7,585.1L913.7,585.1z"/>
		</g>
	</g>
	<g>
		<g>
			<path d="M898.3,589.1c-0.4,2.4-0.7,4.7-1.1,7.1c-0.1,0.8-0.1,1.5,0.3,2.3c0.4,0.6,1.1,1.2,1.7,1.3c0.7,0.2,1.6,0.1,2.3-0.3
				c0.6-0.4,1.2-1,1.3-1.7c0.4-2.4,0.7-4.7,1.1-7.1c0.1-0.8,0.1-1.5-0.3-2.3c-0.4-0.6-1.1-1.2-1.7-1.3c-0.7-0.2-1.6-0.1-2.3,0.3
				C899,587.7,898.4,588.3,898.3,589.1L898.3,589.1z"/>
		</g>
	</g>
	<g>
		<g>
			<path d="M852.6,621.7c-0.2,0.4-0.3,0.9-0.5,1.3c-0.1,0.3-0.1,0.2,0.1-0.2c0,0.1-0.1,0.2-0.1,0.3c-0.1,0.2-0.2,0.4-0.3,0.6
				c-0.4,0.8-0.8,1.7-1.2,2.5c-0.9,1.6-1.9,3.2-3.1,4.7c-0.4,0.6-0.5,1.6-0.3,2.3c0.2,0.7,0.7,1.4,1.3,1.7c0.7,0.4,1.5,0.5,2.3,0.3
				c0.8-0.2,1.3-0.7,1.7-1.3c2.4-3.3,4.3-6.9,5.8-10.7c0.3-0.7,0.1-1.7-0.3-2.3c-0.4-0.6-1.1-1.2-1.7-1.3
				C854.6,619.2,853.2,620.1,852.6,621.7L852.6,621.7z"/>
		</g>
	</g>
	<g>
		<g>
			<path d="M862.5,642.9c-1.4,2.6-2.7,5.2-4.1,7.8c-0.4,0.7-0.5,1.5-0.3,2.3c0.2,0.7,0.7,1.4,1.3,1.7c1.3,0.7,3.2,0.4,4-1
				c1.4-2.6,2.7-5.2,4.1-7.8c0.4-0.7,0.5-1.5,0.3-2.3c-0.2-0.7-0.7-1.4-1.3-1.7C865.1,641.2,863.2,641.5,862.5,642.9L862.5,642.9z"
				/>
		</g>
	</g>
	<g>
		<g>
			<path d="M830,597c-0.7,0.6-1.4,1.1-2.1,1.8c-0.7,0.7-1.2,1.4-1.8,2.1c-1,1.3-1.7,2.7-2.3,4.3c-0.3,0.7,0,1.7,0.3,2.3
				c0.4,0.6,1.1,1.2,1.7,1.3c0.7,0.2,1.6,0.1,2.3-0.3c0.2-0.2,0.4-0.3,0.6-0.5c0.4-0.4,0.6-0.8,0.8-1.3c0-0.1,0.1-0.2,0.1-0.3
				c-0.1,0.2-0.2,0.5-0.3,0.7c0.5-1.2,1.2-2.3,1.9-3.3c-0.2,0.2-0.3,0.4-0.5,0.6c0.8-1,1.7-1.9,2.7-2.7c-0.2,0.2-0.4,0.3-0.6,0.5
				c0,0,0.1,0,0.1-0.1c0.3-0.2,0.6-0.4,0.8-0.8c0.3-0.3,0.4-0.6,0.5-1c0.2-0.7,0.1-1.6-0.3-2.3c-0.4-0.6-1-1.2-1.7-1.3
				C831.6,596.6,830.6,596.6,830,597L830,597z"/>
		</g>
	</g>
	<g>
		<g>
			<path d="M904.2,641.8c-0.4,1.3-0.8,2.6-1.4,3.9c0.1-0.2,0.2-0.5,0.3-0.7c-0.6,1.4-1.2,2.7-2,3.9c-0.8,1.3-0.3,3.3,1,4
				c1.4,0.7,3.2,0.4,4-1c1.6-2.6,2.8-5.5,3.6-8.5c0.4-1.5-0.5-3.2-2-3.6C906.2,639.4,904.6,640.2,904.2,641.8L904.2,641.8z"/>
		</g>
	</g>
	<g>
		<g>
			<path d="M757.9,697.5c3.4-1.4,6.7-2.7,10.1-4.1c0.7-0.3,1.3-0.6,1.7-1.3c0.4-0.6,0.5-1.6,0.3-2.3c-0.2-0.7-0.7-1.4-1.3-1.7
				c-0.6-0.3-1.5-0.6-2.3-0.3c-3.4,1.4-6.7,2.7-10.1,4.1c-0.7,0.3-1.3,0.6-1.7,1.3c-0.4,0.6-0.5,1.6-0.3,2.3
				c0.2,0.7,0.7,1.4,1.3,1.7C756.3,697.6,757.2,697.8,757.9,697.5L757.9,697.5z"/>
		</g>
	</g>
	<g>
		<g>
			<path d="M771.5,710c3.1-1,6-2.6,8.5-4.8c0.5-0.5,0.9-1.4,0.9-2.1c0-0.7-0.3-1.6-0.9-2.1c-0.6-0.5-1.3-0.9-2.1-0.9
				c-0.8,0-1.5,0.3-2.1,0.9c-0.3,0.2-0.6,0.5-0.9,0.7c0.2-0.2,0.4-0.3,0.6-0.5c-1.4,1.1-2.9,2-4.6,2.7c0.2-0.1,0.5-0.2,0.7-0.3
				c-0.6,0.2-1.2,0.5-1.7,0.6c-0.7,0.2-1.4,0.7-1.7,1.3c-0.4,0.6-0.5,1.6-0.3,2.3C768.4,709.4,770,710.5,771.5,710L771.5,710z"/>
		</g>
	</g>
	<g>
		<g>
			<path d="M802,719.5c0.2-0.2,0.5-0.4,0.8-0.6c-0.2,0.2-0.4,0.3-0.6,0.5c1.1-0.9,2.3-1.6,3.6-2.1c-0.2,0.1-0.5,0.2-0.7,0.3
				c0.5-0.2,0.9-0.4,1.4-0.5c0.7-0.2,1.4-0.7,1.7-1.3c0.4-0.6,0.5-1.6,0.3-2.3c-0.2-0.7-0.7-1.4-1.3-1.7c-0.7-0.4-1.5-0.5-2.3-0.3
				c-2.6,0.8-5,2.2-7,4c-0.5,0.5-0.9,1.4-0.9,2.1c0,0.7,0.3,1.6,0.9,2.1c0.6,0.5,1.3,0.9,2.1,0.9C800.7,720.3,801.4,720,802,719.5
				L802,719.5z"/>
		</g>
	</g>
	<g>
		<g>
			<path d="M845.5,722.7c2.7-3.5,5.4-6.9,8.1-10.4c0.5-0.6,0.9-1.2,0.9-2.1c0-0.7-0.3-1.6-0.9-2.1c-0.6-0.5-1.3-0.9-2.1-0.9
				c-0.7,0-1.6,0.3-2.1,0.9c-2.7,3.5-5.4,6.9-8.1,10.4c-0.5,0.6-0.9,1.2-0.9,2.1c0,0.7,0.3,1.6,0.9,2.1c0.6,0.5,1.3,0.9,2.1,0.9
				C844.2,723.6,845.1,723.3,845.5,722.7L845.5,722.7z"/>
		</g>
	</g>
	<g>
		<g>
			<path d="M845.7,682c1.6-1.8,3.1-3.6,4.7-5.4c0.5-0.6,0.9-1.3,0.9-2.1c0-0.7-0.3-1.6-0.9-2.1c-0.6-0.5-1.3-0.9-2.1-0.9
				c-0.7,0-1.6,0.3-2.1,0.9c-1.6,1.8-3.1,3.6-4.7,5.4c-0.5,0.6-0.9,1.3-0.9,2.1c0,0.7,0.3,1.6,0.9,2.1c0.6,0.5,1.3,0.9,2.1,0.9
				C844.4,682.8,845.2,682.5,845.7,682L845.7,682z"/>
		</g>
	</g>
</g>
<g>
	<g>
		<g>
			<path d="M577.4,590.9c2.1-2.4,4.3-4.7,6.6-6.8c1.2-1.1,2.3-2.1,3.5-3.1c0.3-0.2,0.6-0.5,0.9-0.7c0.2-0.1,0.3-0.3,0.5-0.4
				c0.2-0.2,0.2-0.2,0,0c0.7-0.5,1.4-1,2-1.5c1.2-0.9,2-2.6,1-4c-0.8-1.2-2.7-2-4-1c-5.4,3.9-10.4,8.4-14.8,13.5c-1,1.2-1.2,3,0,4.1
				C574.4,591.9,576.3,592.1,577.4,590.9L577.4,590.9z"/>
		</g>
	</g>
	<g>
		<g>
			<path d="M570.7,577.7c2-2,4.1-3.9,6.3-5.7c1.1-0.9,2.1-1.8,3.2-2.7c0.3-0.2,0.5-0.4,0.8-0.6c0.2-0.1,0.3-0.3,0.5-0.4
				c0.2-0.2,0.2-0.2,0,0c0.6-0.4,1.2-0.9,1.8-1.3c0.6-0.5,1.1-1,1.3-1.7c0.2-0.7,0.1-1.6-0.3-2.3c-0.8-1.2-2.7-2-4-1
				c-4.8,3.6-9.4,7.4-13.7,11.6c-1.1,1.1-1.1,3.1,0,4.1C567.7,578.7,569.5,578.8,570.7,577.7L570.7,577.7z"/>
		</g>
	</g>
	<g>
		<g>
			<path d="M567,562.7c0.4-0.4,0.9-0.8,1.4-1.2c-0.2,0.2-0.4,0.3-0.6,0.5c1.5-1.1,3-2,4.7-2.8c0.6-0.3,1.2-1.1,1.3-1.7
				c0.2-0.7,0.1-1.6-0.3-2.3c-0.4-0.6-1-1.2-1.7-1.3c-0.3,0-0.5-0.1-0.8-0.1c-0.5,0-1,0.1-1.5,0.4c-2.5,1.1-4.7,2.6-6.7,4.4
				c-0.5,0.5-0.9,1.4-0.9,2.1c0,0.7,0.3,1.6,0.9,2.1c0.6,0.5,1.3,0.9,2.1,0.9C565.8,563.5,566.4,563.3,567,562.7L567,562.7z"/>
		</g>
	</g>
</g>
<g>
	<g>
		<g>
			<path d="M738.2,590.8c6.9,4.7,13.3,10,19.3,15.9c1.1,1.1,3,1.1,4.1,0c1.1-1.1,1.1-3,0-4.1c-6.3-6.2-13.2-11.8-20.5-16.8
				c-1.3-0.9-3.2-0.2-4,1C736.3,588.2,736.9,589.9,738.2,590.8L738.2,590.8z"/>
		</g>
	</g>
	<g>
		<g>
			<path d="M754.6,586.3c4.7,3.6,9.4,7.2,14.1,10.8c1.2,0.9,3.3,0.2,4-1c0.8-1.5,0.3-3-1-4c-4.7-3.6-9.4-7.2-14.1-10.8
				c-1.2-0.9-3.3-0.2-4,1C752.7,583.8,753.3,585.3,754.6,586.3L754.6,586.3z"/>
		</g>
	</g>
	<g>
		<g>
			<path d="M763.5,577.2c6.1,1.6,11.5,3.7,16.9,6.6c1.4,0.7,3.2,0.4,4-1c0.7-1.4,0.4-3.2-1-4c-5.8-3.1-12-5.5-18.3-7.2
				c-1.5-0.4-3.2,0.5-3.6,2C761.1,575.1,761.9,576.8,763.5,577.2L763.5,577.2z"/>
		</g>
	</g>
</g>
<g>
	<g>
		<g>
			<path d="M762.1,627.5c8.2,13.5,15.6,27.4,22.3,41.7c6.7,14.2,12.6,28.7,18.2,43.4c5.6,14.8,10.7,29.8,15.5,44.9
				c4.8,15.1,9.4,30.3,14,45.4c4.1,13.7,8.4,27.8,17.3,39.3c2.2,2.8,4.7,5.9,7.9,7.6c3.1,1.7,6.9,1.6,9.6-0.7
				c4.5-3.8,4.2-10.9,3.3-16.1c-2.7-16.2-5.8-32.4-9.3-48.4s-7.5-32-11.9-47.8c-4.4-15.8-9.2-31.6-14.4-47.1
				c-5.2-15.6-10.9-31-17-46.3c-1.5-3.7-3-7.4-4.5-11.2c-0.6-1.5-1.9-2.5-3.6-2c-1.4,0.4-2.6,2.1-2,3.6c6.1,14.9,11.9,30,17.3,45.2
				c5.3,15.1,10.3,30.4,14.8,45.8c4.5,15.5,8.7,31,12.4,46.7c3.7,15.6,7,31.3,9.9,47.1c0.7,4,1.4,8,2.1,12.1
				c0.6,3.4,1.1,5.5,0.9,8.9c0,0.3,0,0.6-0.1,0.9c0,0.3,0,0,0,0c0,0.1,0,0.3-0.1,0.4c-0.1,0.6-0.3,1.2-0.4,1.9
				c-0.1,0.3-0.2,0.5-0.3,0.8c0.2-0.5-0.2,0.3-0.2,0.4c-0.1,0.1-0.4,0.7-0.3,0.5c0.1-0.2-0.3,0.3-0.4,0.4c-0.3,0.3,0.2-0.1-0.2,0.1
				c-0.2,0.1-0.7,0.3-0.2,0.1c-0.2,0.1-0.5,0.2-0.7,0.2c0.5-0.1-0.3,0-0.4,0c-1.3-0.1-2.6-1.2-3.5-2.1c-10-9.5-14.6-23.2-18.6-36.1
				c-4.5-14.6-8.8-29.3-13.4-43.9c-4.7-14.8-9.6-29.6-14.9-44.2c-5.3-14.6-11-29-17.3-43.2c-6.3-14.1-13.2-28-20.9-41.4
				c-1.9-3.3-3.8-6.5-5.8-9.8C765.2,621.3,760.2,624.2,762.1,627.5L762.1,627.5z"/>
		</g>
	</g>
	<path class="st3" d="M866.1,839.1c-0.2-23.4-12-48.9-10.4-71.4c-4.2-19.4-31.9-26-42.9-39.4c-4.1,3.9,3.1,9.9,5.6,12.6
		c2.6,9.5,5.2,19,7.8,28.6c2.6,9.9,5.2,19.7,7.8,29.4c3.6,15.1,9.2,25.9,13.6,32.9c3.1,4.9,10,15.6,14.6,14.2
		C864.4,845.3,865.5,842,866.1,839.1z"/>
</g>
<g>
	<g>
		<path class="st0" d="M670.9,785.4c-1.9,8-19.7,88.9,32.7,144.5c45.4,48.1,111.2,43.2,145.9,40.6c73.1-5.4,122.8-43.8,141.9-60
			c6.7-7.4,20.4-1.9,23.8,7.5c3.4,9.4-0.3,19.9-4.9,28.7c-29.3,55.8-94.9,85.2-157.8,87.2c-67.5,2.2-136.8-24.4-180.5-75.8
			s-58.3-128-30.4-189.5"/>
		<g>
			<path d="M668.1,784.7c-1.7,7.1-2.7,14.5-3.5,21.7c-1.4,14-1.5,28.1,0.1,42.1c2,17.9,6.7,35.4,14.6,51.5
				c9,18.3,22.3,34.3,38.6,46.6c15.2,11.4,32.9,19,51.4,23.4c16.4,3.8,33.4,5.2,50.2,5c16-0.2,32.3-1.2,48.1-3.6
				c20.5-3.1,40.4-9,59.5-17.2c15.1-6.5,29.5-14.5,43-23.8c5.2-3.6,10.3-7.3,15.3-11.2c2-1.5,3.9-3.1,5.8-4.7
				c2.1-1.8,3.9-3.9,6.8-4.4c3.5-0.6,7.3,0.9,10.1,3c3.4,2.7,5.2,6.5,5.5,10.8c0.8,10.9-5.4,21.4-10.9,30.3
				c-10.2,16.2-23.8,30.1-39.4,41.2c-15.9,11.3-33.6,19.7-52.2,25.6c-18.7,5.9-38.2,9.3-57.8,10c-20.8,0.7-41.6-1.2-61.9-5.9
				c-20.3-4.6-39.9-11.9-58.2-21.7c-18.3-9.8-35.2-22.2-49.7-37.1c-14.4-14.6-26.2-31.6-35-50.1c-8.7-18.3-14.5-38.1-16.9-58.2
				c-2.4-20.1-1.5-40.5,3.1-60.2c2.3-9.5,5.4-18.9,9.4-27.8c0.6-1.4,0.4-3.1-1-4c-1.3-0.7-3.3-0.4-4,1c-8.5,18.9-13.3,39.3-14.4,60
				c-1.1,20.7,1.5,41.6,7.1,61.5c5.7,19.9,14.5,39,26.2,56c11.9,17.4,26.7,32.6,43.5,45.4c16.8,12.8,35.5,23,55.2,30.6
				c19.8,7.7,40.6,12.6,61.7,15c20.4,2.3,41.1,1.9,61.5-1.2c19.8-3,39.2-8.8,57.4-17.2c17.8-8.2,34.5-19.2,48.6-32.9
				c7-6.8,13.3-14.3,18.8-22.3c6-8.8,12-18.7,14.2-29.2c2-10.1-0.4-20.9-10-26.1c-3.8-2-8.1-3-12.3-2.1c-3.6,0.7-6,3.1-8.7,5.3
				c-9.3,7.9-19.1,14.9-29.6,21.5c-15.1,9.4-31.1,17.3-47.8,23.3c-20.1,7.2-41.1,11.5-62.4,13.1c-14.5,1.1-28.9,1.8-43.4,1.1
				c-17.7-0.9-35.3-3.8-51.9-10c-18.8-7-35.7-18.4-49.1-33.4c-13-14.5-22.2-31.9-27.6-50.5c-4.6-15.7-6.6-32-6.5-48.4
				c0-6.6,0.4-13.2,1-19.7c0.5-5,1-8.6,1.9-13.6c0.4-2.4,0.9-4.7,1.4-7C674.6,782.6,668.9,781,668.1,784.7L668.1,784.7z"/>
		</g>
	</g>
	<path class="st3" d="M1014.4,927.6c3-13.3-9.3-23.2-21.9-17.2c-13.8,16.1-39.4,27.3-59.3,38.8c-16,9.6-12.3,33.5-10.8,49.6
		c-0.7,7.5-8.9,13-6.4,21.1c5.2,5.8,57.5-26.6,61.4-31.4c3.6-4.5,8.6-7.6,11.8-12.3C1000.7,962.6,1014.2,946.4,1014.4,927.6z"/>
</g>
<g>
	<g>
		<path d="M605.3,381.4c3-14,3.7-28.8-0.1-42.7c-1.4-5.2-3.2-11.1-6.6-15.3c-1.7-2.1-4.4-3.6-7.1-2.7c-2.4,0.8-4.1,3.1-5.3,5.2
			c-1.9,3.5-3.1,7.4-4,11.2c-2.3,9.4-4.6,18.8-6.9,28.2c-4.4,18.2-9.1,36.3-12.9,54.7c-6.3,30.6-10,61.9-4.9,93
			c1.9,11.7,5.1,23.2,8.9,34.4c3.6,10.7,8,21.4,14.3,30.9c6.3,9.6,14.9,18.2,26,21.9c14.5,4.8,29.9-0.2,42.2-8.2
			c2.3-1.5,4.6-3.2,6.8-4.9c-1.4,0-2.8,0-4.1,0c16.4,16.2,37.8,29.6,61.4,30.4c11.4,0.4,22.8-2.5,32.8-7.9
			c9.2-4.9,17.2-11.9,24.1-19.6c13.1-14.7,22.5-32.4,30.1-50.5c8.4-20.2,14.5-41.2,16.4-63c2.3-26-0.9-52.5-8.3-77.5
			c-0.6-1.9-1.2-3.9-1.8-5.8c-0.7-2.2-4.2-3.2-5.3-0.7c-5.3,11.9-10.7,23.7-16,35.6c-0.6,1.4-0.4,3.1,1,4c1.3,0.7,3.3,0.4,4-1
			c5.3-11.9,10.7-23.7,16-35.6c-1.8-0.2-3.6-0.5-5.3-0.7c7.3,22.4,11.1,45.8,10.6,69.4c-0.4,16.3-2.9,32.4-7.6,48
			c-2,6.7-4.4,13.3-6.9,19.8c-0.7,1.7-1.4,3.4-2.1,5.1c-0.2,0.5-0.4,0.9-0.6,1.4c0,0.1-0.4,0.9-0.1,0.3c-0.1,0.2-0.2,0.5-0.3,0.7
			c-0.4,1-0.8,2-1.3,3c-1.8,4-3.7,8-5.7,12c-4.5,8.8-9.6,17.2-15.6,25c-11.9,15.7-28.4,29.2-48.6,31.9c-23.4,3.1-46.3-9.2-63.2-24.7
			c-1.2-1.1-2.5-2.3-3.6-3.5c-1.2-1.2-2.9-1-4.1,0c-0.4,0.3-1.8,1.3-2.6,2c-1.2,0.8-2.4,1.6-3.6,2.4c-2.8,1.8-5.6,3.4-8.6,4.7
			c-6.6,3-13.8,4.7-21,4.1c-11-0.9-19.8-7.6-26.5-16c-6.5-8.2-11.2-18.3-14.9-28c-3.6-9.7-6.7-19.7-9-29.7
			c-6.5-28.2-5-57.3-0.1-85.6c2.9-17.1,7-33.9,11.1-50.7c3.9-16.1,7.7-32.3,11.8-48.4c0.5-1.9,1.1-3.8,1.8-5.7
			c0.4-1.1,0.6-1.7,1.3-2.9c0.2-0.4,0.5-0.8,0.7-1.2c0.1-0.2,0.3-0.5,0.5-0.7c0.2-0.3,0.2-0.3,0,0c0.1-0.1,0.2-0.2,0.3-0.4
			c0.2-0.2,0.3-0.3,0.5-0.5c-0.5,0.5,0,0,0.1,0c0.5-0.3-0.5-0.1,0,0c0.5,0-0.4-0.1-0.2,0c0,0,0.9,0.2,0.1,0c0.7,0.2-0.4-0.3,0.2,0.1
			c0.7,0.5-0.4-0.4,0.3,0.2c0.1,0.1,0.7,0.7,0.6,0.6c1.7,2.2,2.7,4.9,3.6,7.4c3.9,10.8,4.9,21.9,3.9,33.3c-0.4,4-1.1,8-1.9,12
			C598.9,383.6,604.5,385.1,605.3,381.4L605.3,381.4z"/>
	</g>
</g>
</svg>
