<?xml version="1.0" encoding="utf-8"?>
<!-- Generator: Adobe Illustrator 25.2.3, SVG Export Plug-In . SVG Version: 6.00 Build 0)  -->
<svg version="1.1" id="Layer_1" xmlns="http://www.w3.org/2000/svg" xmlns:xlink="http://www.w3.org/1999/xlink" x="0px" y="0px"
	 viewBox="0 0 1600 1200" style="enable-background:new 0 0 1600 1200;" xml:space="preserve">
<style type="text/css">
	.st0{fill:#FFFFFF;}
	.st1{fill:#FF7900;}
	.st2{fill:none;stroke:#000000;stroke-width:6.551;stroke-linecap:round;stroke-linejoin:round;}
	.st3{fill:none;stroke:#FFA400;stroke-width:6.551;stroke-linecap:round;stroke-linejoin:round;}
	.st4{fill:#FFA400;}
</style>
<g>
	<path id="Group_1_32_" class="st0" d="M1038.3,426.6c-82.3-62.9-206.2-77.2-310.6-57.7c-70,13-139.7,42.3-195.2,85.8
		c-57.5,45.2-99.7,113.1-108.6,188.7"/>
	<polygon id="Shape_1" class="st0" points="977,411 777,465 481,562 613,686 858,649 925,617 997,458 	"/>
	<g id="Butt_white">
		<path id="Group_2_29_" class="st0" d="M426.8,616.4c-2,9.5-7.1,54.2,4.1,105.2c6,27.7,21.4,54.5,36.7,75.7"/>
		<polygon id="Group_1_33_" class="st0" points="448.2,586.1 426.9,619.9 429,681.8 464.2,792 530.4,790.5 		"/>
	</g>
	<g id="Leg_white">
		<path id="Group_2_30_" class="st0" d="M516.1,593.7c17.3-15.3,40.7-22,63.6-24.8c39.7-4.8,81.5,1.5,115.7,22.4
			c34.1,20.9,59.6,57.3,62.7,97.1c3.1,39.9-18.6,81.8-55,98.3"/>
		<path id="Group_1_34_" class="st0" d="M537.1,571.2l-97,24.5l-7.5,54.5l26.5,116.5c0,0,39.2,12.1,69.7,24.9s57.1,20.1,76.5,24.4
			c0,0,76.8,16.8,132.4-6c3.1-1.3,10.8-4.5,11.8-10.4c0.7-4.1-2.3-7.8-3.2-9c-9.9-12.3-39.9-4.6-43.2-3.8l-44-87.7L537.1,571.2z"/>
	</g>
	<g id="Paws_white">
		<path id="Group_3_24_" class="st0" d="M985.3,611.3c0,0,30.3,27.2,36.2,32.9c5.9,5.7,15,14.4,26.4,24.5
			c36.6,32.6,76.6,71.7,103,104.1c5.9,7.3,11.7,18.2,5.4,25.2c-2.6,2.9-6.8,3.6-9.8,4c-9.3,1.2-16.5-3.1-19.1-4.8"/>
		<path id="Group_2_31_" class="st0" d="M1034,584.8c0,0,5.3,4.3,36.9,30s63.5,51.1,95.7,76.2c8.8,6.9,17.8,13.8,28.3,17.7
			c3.8,1.4,8.7,2.2,11.6-0.6c1.5-1.4,2.2-3.5,2.5-5.6c2.7-15.9-10.4-29.8-22.4-40.5c-31.4-27.9-63.8-54.5-97.1-80l-36.9-26.9"/>
		<path id="Group_1_36_" class="st0" d="M758.7,677.8c46-7.7,84.4-9.3,111.9-9.3c36.1,0.1,59.2,1.2,86.5,9.1
			c16.2,4.7,30.8,11.8,70.4,39.6c26.1,18.3,60.9,44.6,99.9,80.1l-2.8-5.2l-20.2-49.4L991.3,611.9l-273.5,18.5l38.5,47.7L758.7,677.8
			"/>
	</g>
	<g id="Tail_base_2">
		<path id="Group_2_32_" class="st0" d="M494.5,767.6c0,0-44.4,6.3-29.9,27.2c45.8,66.4,112.9,99.3,130.4,107.5
			c5.9,3,14.4,7.1,24.9,11.2c10.6,4.2,29.1-16.4,29.1-16.4l-69-49.5L494.5,767.6z"/>
		<path id="Group_3_25_" class="st0" d="M518.5,768.1l-26,22.5l136,113.5l51-15c0,0-1-8.9-29.6-19.3c-28.6-10.3-49.2-24.4-75-41.9
			c-21.1-14.4-37.6-27.9-49.1-37.8L518.5,768.1z"/>
	</g>
	<g id="Tail_mid_2">
		<path id="Group_2_33_" class="st0" d="M834.5,866.3c-22.5,13-51.1,15.4-79.2,17.8c-55,4.7-95.9-9.5-104.2-12.5
			c-28.6-10.3-29.9,31.3-29.9,31.3l241-2.5l-13-22.5C849.3,877.9,857.1,853.3,834.5,866.3z"/>
		<path id="Group_1_37_" class="st0" d="M616.8,881.9c0,0-6.1,29.3,4.4,33.4c10.6,4.2,53.5,19.4,118.5,18.9
			c43-0.3,78.7-0.7,118.3-22.4c30.3-16.6,18.4-27.5,18.4-27.5l-136.5,8.5L616.8,881.9z"/>
	</g>
	<path id="Group_2_34_" class="st0" d="M860,910.7c31.6-18.6,55.1-40.1,70.4-70.9c7.9-15.9,13.8-27.8,19.9-44.5
		c6.6-18.2,10.4-39.5,2.3-57.9c-6.1-13.9-20.1-25.2-35.3-26.6c-17.4-1.6-30,11.4-35.4,26.7c-7,19.6-0.8,39.2-3.6,59.7
		c-1.7,12.6-9.3,34.4-23.8,55.2c-5.6,8-9.3,11.7-16.8,16.7"/>
</g>
<g>
	<path class="st1" d="M503.7,601.7c-3.4-4.6-7.9-7.6-13.2-9.7c-4.6-1.8-9.5-2.7-14.2-4.3c-1.3-0.4-2.7-0.9-4-1.4
		c-0.2-0.1-0.5-0.2-0.7-0.3c-0.1,0-0.4-0.1-0.6-0.2c-0.1,0-0.1-0.1-0.1-0.1c-0.4-0.2-0.8-0.4-1.2-0.5c-2.4-1.1-4.8-2.3-7.1-3.7
		s-4.5-2.8-6.7-4.3c-0.5-0.4-1-0.7-1.5-1.1c1,0.8-0.5-0.4-0.8-0.7c-1.1-0.9-2.2-1.8-3.2-2.8c-2.4-2.2-6.5-2.6-8.9,0
		c-2.2,2.4-12.8,45.8-17.4,59c-1.4,3.9,2.2,8,6.1,8c21.3-0.4,42.7-4.4,62.7-11.8c2.6-1,5.4-1.8,7.7-3.3c2.8-1.8,4.8-4.3,5.9-7.5
		C508.1,611.9,506.8,605.9,503.7,601.7z"/>
</g>
<g>
	<g id="ZZZ_2">
		<path id="Group_3_23_" class="st2" d="M1070.1,350.6c20.1-5.2,40.1-10.3,60.2-15.5c-3,7.4-6.9,15.8-12.1,24.6
			c-4.7,8.1-9.6,15.1-14.2,21.1c18.9-5.2,37.8-10.4,56.8-15.7"/>
		<path id="Group_2_28_" class="st2" d="M1137.6,275.2c18.5-3.3,37-6.5,55.6-9.8c-14.1,14.1-28.2,28.2-42.2,42.3
			c12.3,0.3,24.5,0.6,36.8,0.9c5.2,0.1,10.4,0.2,15.6,0.4"/>
		<path id="Group_1_31_" class="st2" d="M1224.6,269.6c7.7,0.1,15.3,0.1,23,0.2c7.4,0.1,14.8,0.1,22.3,0.2
			c-4.8,3.7-10,8.1-15.3,13.1c-5.4,5.1-10,10.2-14,14.9c13.7-0.5,27.4-1,41.1-1.5"/>
	</g>
	<g id="Paws">
		<path id="Group_3" class="st2" d="M985.3,611.3c0,0,30.3,27.2,36.2,32.9s15,14.4,26.4,24.5c36.6,32.6,76.6,71.7,103,104.1
			c5.9,7.3,11.7,18.2,5.4,25.2c-2.6,2.9-6.8,3.6-9.8,4c-9.3,1.2-16.5-3.1-19.1-4.8"/>
		<path id="Group_2" class="st2" d="M1034,584.8c0,0,5.3,4.3,36.9,30s63.5,51.1,95.7,76.2c8.8,6.9,17.8,13.8,28.3,17.7
			c3.8,1.4,8.7,2.2,11.6-0.6c1.5-1.4,2.2-3.5,2.5-5.6c2.7-15.9-10.4-29.8-22.4-40.5c-31.4-27.9-63.8-54.5-97.1-80l-36.9-26.9"/>
		<path id="Group_1" class="st2" d="M757.8,676.9c46-7.7,84.4-9.3,111.9-9.3c36.1,0.1,57.9,0.3,85.5,9.1c15.6,5,32.6,12.6,72.2,40.4
			c26.1,18.3,60.9,44.6,99.9,80.1"/>
	</g>
	<g id="Belly_fur_top">
		<path id="Group_3_1_" class="st3" d="M898.9,642.3c3.7,0.7,7.5,0.9,11.3,0.6"/>
		<path id="Group_2_1_" class="st3" d="M875.1,652.2c3.3,0,6.6,0,10,0"/>
		<path id="Group_1_2_" class="st3" d="M871.1,617.1c6.9,0.3,13.7,0.7,20.6,1"/>
	</g>
	<g id="Belly_fur_mid">
		<path id="Group_2_2_" class="st3" d="M847.8,634.3c4.2-0.3,8.4,0,12.6,0.7"/>
		<g id="Group_1_3_">
			<path id="Group_4" class="st3" d="M840.5,646.2c5.3,0,10.6,0,15.9,0"/>
			<path id="Group_3_2_" class="st3" d="M813.3,609c6.2-1.9,12.7-2.8,19.2-2.7"/>
			<path id="Group_2_3_" class="st3" d="M816,623.8c4.6-0.3,9.3-0.5,13.9-0.8"/>
			<path id="Group_1_4_" class="st3" d="M814,654.3c4.4-0.6,8.8-0.7,13.3-0.5"/>
		</g>
	</g>
	<g id="Belly_fur_bottom">
		<path id="Group_4_1_" class="st3" d="M780.2,648.7c3.9,1.4,8.2,1.4,12-0.2"/>
		<path id="Group_3_3_" class="st3" d="M763.5,633.5c4.9-1.4,9.7-2.8,14.6-4.2"/>
		<path id="Group_2_4_" class="st3" d="M756.2,662.8c4.8-2.4,10-4.2,15.3-5.2"/>
		<path id="Group_1_5_" class="st3" d="M751.7,647.7c2.8-2,5.9-3.6,9.2-4.8"/>
	</g>
	<g id="Leg_spots">
		<g id="Group_3_4_">
			<path id="Group_4_2_" class="st1" d="M636.1,572.4c-0.2,0.5-0.5,0.9-0.7,1.4c-1.1-2.8-3.4-5.2-6.4-5.9c-2.6-0.6-5.3-0.3-7.6,1.1
				c-0.2,0.1-0.3,0.2-0.5,0.3c-7.2-0.7-14.4-0.3-21.6,0.8c-1.4,0.2-2.7,1-3.7,2c0-0.6,0-1.2,0-1.9c-0.1-3-4.9-3-4.7,0
				c0.5,11.9-1.6,23.6-3.1,35.3c-0.7,5.7-1.4,11.5-1.4,17.3c0,5.2,0,10.9,1.9,15.8c1.7,4.4,5.1,8,10.2,8c5,0.1,9.6-3.1,12.6-6.8
				c6.7-8.1,9.1-19.1,12.7-28.8c4.7-12.5,10.2-24.6,16.5-36.4C641.6,572.1,637.5,569.7,636.1,572.4z"/>
			<path id="Group_3_5_" class="st2" d="M597.4,616.2c4.2,0,8.4,0,12.6,0"/>
			<path id="Group_2_5_" class="st2" d="M599.4,599.3c7.3-0.3,14.6-0.5,21.9-0.8"/>
			<path id="Group_1_6_" class="st2" d="M601.4,583c7.9-1.2,15.9-2.2,23.9-2.8"/>
		</g>
		<g id="Group_2_6_">
			<path id="Group_6" class="st1" d="M739.2,634.5c-0.6-1-2.2-1.6-3.2-0.8l-1.5,1.1c0.2-0.7,0.3-1.5,0.3-2.3c0-3.1-1.8-6.7-4.7-8.2
				c-0.7-0.3-1.3-0.7-1.9-1.1c-0.1-0.1-0.3-0.2-0.3-0.3c-1.1-1-2.1-2.2-3.1-3.3c0,0-0.1-0.2-0.2-0.3l-0.1-0.1c-0.5-0.7-1-1.3-1.5-2
				c-1.3-1.8-2.7-3.6-4.1-5.3c-4.7-5.6-10.6-10.4-17-14.2c-1.8-1.1-3.9-1.4-5.9-1.1c0.3-0.2,0.5-0.4,0.8-0.7c1-0.8,0.8-2.5,0-3.3
				c-1-1-2.3-0.8-3.3,0c-19.7,15.6-37.7,33.5-53.3,53.2c-4.1,5.2-8.3,11.1-8,18c0,0.5,0.2,0.9,0.4,1.2c0,0.1,0,0.3,0,0.4
				c0.8,7.6,4.6,14.4,10.8,18.9c6.3,4.7,15,6.1,22.6,3.9c4.1-1.2,7.8-3.5,11.3-5.9c3.8-2.7,7.6-5.6,11.4-8.3
				c7.8-5.7,15.5-11.4,23.3-17.1c8.8-6.4,17.6-12.9,26.4-19.3C739.4,636.9,739.9,635.7,739.2,634.5z"/>
			<path id="Group_5" class="st2" d="M643.2,667.4c5,3,9.8,6.4,14.3,10.2"/>
			<path id="Group_4_3_" class="st2" d="M657.4,655c5.8,2.6,11.2,6.2,16,10.5"/>
			<path id="Group_3_6_" class="st2" d="M669.3,642.3c7.7,3.5,14.9,8.1,21.4,13.5"/>
			<path id="Group_2_7_" class="st2" d="M684.3,627.6c5-0.7,9.4,3.2,13,6.9c2.7,2.8,5.4,5.6,8.1,8.3"/>
			<path id="Group_1_7_" class="st2" d="M701.3,615.5c5.3,5.3,10.7,10.6,16,15.9"/>
		</g>
		<g id="Group_1_8_">
			<path id="Group_4_4_" class="st1" d="M757.8,694.7c-2.3,0.1-4.7,0.2-7,0.3c-1.2-0.2-2.5-0.2-3.7,0.3c0,0,0,0-0.1,0
				c-7.4,0.6-14.8,1.6-22.2,3c-5.4,1-10.8,2.3-16.1,3.8c-4.3,1.2-8.7,2.6-12.7,4.6c-3.5,1.8-6.6,4.1-9.1,7.1c-3.4,3.4-5,8-5.5,12.7
				c-0.6,5-0.8,10.7,2.5,14.8c3.3,4,8.6,6.6,13.3,8.6c5.2,2.2,10.6,3.9,15.9,5.7c6.5,2.2,13.1,4.4,19.6,6.6c2.5,0.8,3.7-2.4,2.3-3.9
				c2.1-0.7,4-2.1,5.3-4.1c8-12.2,13.7-26,16.7-40.2c0.3-1.3,0.3-2.7,0.1-4c0.2-0.3,0.3-0.6,0.5-0.8c2-2.8,1.5-6.9-0.2-9.7
				c0.1,0,0.2,0,0.3,0C760.9,699.4,760.9,694.7,757.8,694.7z"/>
			<path id="Group_3_7_" class="st2" d="M701,716.7c2,6.3,1.7,13.2-0.8,19.3"/>
			<path id="Group_2_8_" class="st2" d="M720.7,714.4c0.4,7.3,0,14.7-1.2,21.9"/>
			<path id="Group_1_9_" class="st2" d="M738.6,716.1c0.3,6.2,0.1,12.4-0.6,18.6"/>
		</g>
	</g>
	<g id="Leg_outline">
		<path id="Group_2_9_" class="st2" d="M516.1,594.6c17.3-15.3,40.7-22,63.6-24.8c39.7-4.8,81.5,1.5,115.7,22.4
			c34.1,20.9,59.6,57.3,62.7,97.1s-18.6,81.8-55,98.3"/>
		<path id="Group_1_10_" class="st2" d="M528.7,792.4c30.5,12.9,57.1,20.1,76.5,24.4c0,0,76.8,16.8,132.4-6
			c3.1-1.3,10.8-4.5,11.8-10.4c0.7-4.1-2.3-7.8-3.2-9c-9.9-12.3-39.9-4.6-43.2-3.8"/>
	</g>
	<g id="Tail_tip">
		<g id="Group_1_11_">
			<path id="Group_4_5_" class="st1" d="M928.6,846c0.6,5.1-3.8,10.4-12.6,20.6c-7.3,8.5-11.1,12.8-14.8,13.2
				c-6.8,0.7-8.6-6-21.2-13.8c-14-8.6-25.4-8.8-25.5-13.6c-0.1-2.3,2.5-2.3,6.4-7.3c6.1-7.7,4.5-13.2,9.2-16.3
				c2.9-1.9,5.8-1.3,12.1-0.5c24.5,3.1,27.9-0.5,36.2,4.8C921.1,835,927.8,839.3,928.6,846z"/>
			<path id="Group_3_8_" class="st2" d="M869.5,854.4c3.7-4.8,7.2-9.8,10.5-14.9"/>
			<path id="Group_2_10_" class="st2" d="M882.2,855.1c3.1-4.4,6.3-8.8,9.4-13.2"/>
			<path id="Group_1_12_" class="st2" d="M898.9,861.2c6-4.6,11-10.6,14.5-17.3"/>
		</g>
		<path id="Group_2_11_" class="st2" d="M859.6,912.5c30.3-16.6,55.3-42.1,72.8-71.7c9-15.3,16.3-31.8,20.9-49
			c5-18.7,6.9-40.3-2.8-57.8c-7.3-13.3-22.2-23.3-37.6-23.3c-17.4,0-28.9,14-32.9,29.8c-5.2,20.2,0.6,41.1-2.2,61.6
			c-0.3,2.3-4.5,27.4-20.5,47c-6.1,7.6-13.3,13.4-21.1,17.9"/>
	</g>
	<g id="Tail_mid">
		<g id="Group_4_6_">
			<path id="Group_4_7_" class="st1" d="M696.9,882.3c-13.8-2.5-36.1-12.1-41.5,6.6c-1,7.4-26.4,30.9-15.9,32.1
				c8.3,6.4,24.9,11.6,33.2,5.3c2.7,1.6,3.2,8,7.3,4.1C686.6,916.5,700.8,896.7,696.9,882.3z"/>
			<path id="Group_3_9_" class="st2" d="M651.9,912.7c7.1,2.2,14.4,3.6,21.9,3.9"/>
			<path id="Group_2_12_" class="st2" d="M662.6,900.2c4.1,5.3,13.3,3.2,18,8"/>
			<path id="Group_1_13_" class="st2" d="M674.4,890.5c5.1,2,10.1,4.1,15.2,6.1"/>
		</g>
		<g id="Group_3_10_">
			<path id="Group_4_8_" class="st1" d="M811.9,900.7c9.9,16.1,22.6,18.3,21.1,23.3c-0.8,2.9-5.3,3-35.1,7.5
				c-11.1,1.7-12.4,1.9-14.9,1.2c-17.3-5.2-25.7-39.7-16.2-48c1.2-1.1,6.9-1.9,18.2-3.5c11-1.6,12.1-1.5,13.6-1
				C805.5,882.8,805.6,890.5,811.9,900.7z"/>
			<path id="Group_3_11_" class="st2" d="M776.7,910.7c7.4-0.5,14.8-1.6,22-3.4"/>
			<path id="Group_2_13_" class="st2" d="M788.8,922.7c5.9-0.5,11.7-1.8,17.3-3.7"/>
			<path id="Group_1_14_" class="st2" d="M773.4,895c7.7,1.2,15.5,1.5,23.3,1"/>
		</g>
		<path id="Group_2_14_" class="st2" d="M836.3,866.9c-22.5,13-51.1,15.4-79.2,17.8c-55,4.7-95.9-9.5-104.2-12.5"/>
		<path id="Group_1_15_" class="st2" d="M622.9,915.9c10.6,4.2,53.5,19.4,118.5,18.9c43-0.3,78.7-0.7,118.3-22.4"/>
	</g>
	<g id="Tail_base">
		<g id="Group_1_16_">
			<path id="Group_4_9_" class="st1" d="M568.6,877.4c-4.6,4.4-4.3,6.2-7.3,7c-3.7,1-7.3-0.9-24.9-15.7c-9.2-7.7-11.1-9.6-10.8-12.1
				c0.5-4.3,6.9-4.8,15.6-9.9c17.1-10.1,17.6-23.2,26.9-23.1c2.9,0,2.1,1.2,18.2,12.5c8.6,6.1,12,8,13,12.3
				c1.2,5.3-2.3,10.3-3.5,11.9C589,869.9,579.7,866.7,568.6,877.4z"/>
			<path id="Group_3_12_" class="st2" d="M556.6,849.5c4.7,5,9.9,9.3,15.7,13"/>
			<path id="Group_2_15_" class="st2" d="M567.2,840.8c6.5,5.8,13.6,11,21.1,15.4"/>
			<path id="Group_1_17_" class="st2" d="M547.5,857.3c4.8,5,9.6,9.9,14.6,14.6"/>
		</g>
		<path id="Group_2_16_" class="st2" d="M467.6,797.2c45.8,66.4,112.9,99.3,130.4,107.5c5.9,3,14.4,7.1,24.9,11.2"/>
		<path id="Group_3_13_" class="st2" d="M652.9,872.2c-28.6-10.3-49.2-24.4-75-41.9c-21.1-14.4-37.6-27.9-49.1-37.8"/>
	</g>
	<g id="Back_spots">
		<g id="Group_5_1_">
			<path id="Group_4_10_" class="st1" d="M899.9,364.5c-1.4-0.6-6.4,0.8-7.6,0.3c-1.5-0.6-35.4-5.2-38-4.3c-3.4,1.1-5.1,4.3-4.4,7.7
				c0.1,0.3,0.1,0.6,0.2,0.9v0.1c0.1,0.6,0.1,1.1,0.1,1.7c0.1,1.4,0.1,2.7,0,4.1c0,0.7-0.1,1.4-0.2,2c0,0.2-0.1,0.9-0.1,1
				c-0.2,1.3-0.4,2.7-0.7,4c-1,5.3-2.4,10.5-3.2,15.8c-0.8,5.8-1.3,11.7-1.1,17.5c0.2,5.5,1,11.3,4,16.1c3.1,5,8,8.4,13.9,9.1
				c5.7,0.6,11.6-2.2,15.5-6.2c3.6-3.7,5.9-8.3,7.9-13c2.3-5.3,4.4-10.7,6.2-16.1c3.9-11.5,6.7-23.3,8.3-39
				C901,365.2,900.4,364.7,899.9,364.5z"/>
			<path id="Group_3_14_" class="st2" d="M855,415.6c5.3,0,10.6,0.3,15.9,1.1"/>
			<path id="Group_2_17_" class="st2" d="M859.7,401c5.1-0.2,10.3,0.3,15.3,1.4"/>
			<path id="Group_1_18_" class="st2" d="M861,381.6c6.9-0.5,13.7-1,20.6-1.5"/>
		</g>
		<g id="Group_4_11_">
			<path id="Group_5_2_" class="st1" d="M788,420c-0.4-6.2-1.5-12.5-3.2-18.5c-2-6.6-5-12.8-7.9-19c-0.7-1.4-1.3-2.8-1.9-4.2l0,0
				c-0.2-0.4-0.3-0.8-0.5-1.3c-0.3-0.7-0.5-1.3-0.7-2c-0.5-1.5-1-3.1-1.3-4.6c-0.2-0.7-0.3-1.4-0.4-2.1c0,0,0,0,0-0.1
				c0-0.5-0.1-1-0.1-1.5c-0.2-3.3-2.7-6.5-6.3-6.3c-2.8,0.1-26.7,7-34.2,7c-2,0-3.7,0.9-4.9,2.5c-0.2,0.3-0.4,0.6-0.5,0.8
				c-2-1.8-5.3-2.1-7.5-0.7c-3.1,2-3.7,5.4-2.3,8.6c9.9,21.4,18.6,45.4,38.5,59.6c4.3,3.1,9.3,5.8,14.5,7c6.3,1.5,13.9,0.3,17-6.1
				c1.6-3.2,1.8-6.7,2-10.2C788.2,426,788.2,423,788,420z"/>
			<path id="Group_4_12_" class="st2" d="M754.7,432c6-3.2,12.3-5.9,18.8-8.2"/>
			<path id="Group_3_15_" class="st2" d="M746.8,415.7c4.8-3.8,10.2-7,16-9.2"/>
			<path id="Group_2_18_" class="st2" d="M744,397.4c5.3-2.8,10.7-5.7,16-8.5"/>
			<path id="Group_1_19_" class="st2" d="M733.4,387.1c7.5-3.5,15.1-7,22.6-10.5"/>
		</g>
		<g id="Group_3_16_">
			<path id="Group_5_3_" class="st1" d="M695.3,452.3c-2.2-7.4-6.2-14-10.5-20.3c-4.5-6.6-9-13.2-13.5-19.7
				c-2.6-3.8-5.2-7.5-7.7-11.3c-2.7-3.9-5.3-9.4-10.3-10.7c-5.5-1.5-10.4,2.1-15.1,4.5c-4,2.1-7.9,4.2-11.9,6.3
				c-0.7,0.3-1.2,0.8-1.6,1.3c-1.6-0.1-3.2,0.2-4.6,1c-4.1,2.3-4.2,9.1,0.2,11.2c0.4,0.2,0.8,0.3,1.2,0.4c0.4,0.6,0.8,1.2,1.2,1.8
				c1.2,1.7,2.3,3.4,3.5,5.1c2.2,3.2,4.4,6.5,6.6,9.7c4.5,6.7,8.9,13.4,13.3,20.1c3.9,6,7.7,12.1,12,17.8c2.4,3.1,4.8,6.1,7.6,8.9
				c2.6,2.6,5.6,5.3,8.9,6.9c5,2.5,10.3,2.2,14.7-1.4c3-2.4,4.8-6,6.1-9.5C697.8,467.4,697.4,459.3,695.3,452.3z"/>
			<path id="Group_4_13_" class="st2" d="M634.6,410.9c6.5-4.1,13.4-7.4,20.7-9.8"/>
			<path id="Group_3_17_" class="st2" d="M645.8,422.9c6.2-2.7,12.7-4.9,19.3-6.6"/>
			<path id="Group_2_19_" class="st2" d="M656.5,446.2c4-2.6,8.5-4.3,13.3-4.8"/>
			<path id="Group_1_20_" class="st2" d="M670.5,464.8c5-1.6,10.1-2.7,15.3-3.3"/>
		</g>
		<g id="Group_2_20_">
			<path id="Group_5_4_" class="st1" d="M617.1,482c-4.9-4.8-10.9-8.5-16.8-11.8c-15.6-8.7-31.3-17.1-47-25.7
				c-2.9-1.6-7-0.8-8.6,2.3c-0.5,1-8,5.3-10.6,7.5c-4.4,3.6-8.7,7.5-13.1,11.2c-1.2,1-1.8,2.6-1.8,4.2c-1.2,0.2-2.3,0.8-3.2,1.7
				c-2.2,2.4-2.6,6.5,0,8.9c21.5,19.9,45.6,41.1,76.6,41.8c13.1,0.3,32.6-3.8,34.4-19.7C627.7,494.6,622.4,487.1,617.1,482z"/>
			<path id="Group_4_14_" class="st2" d="M528.7,476.3c6.3-7.2,14.2-13,22.9-16.9"/>
			<path id="Group_3_18_" class="st2" d="M544.5,484.9c5-5.3,10.7-9.9,16.9-13.7"/>
			<path id="Group_2_21_" class="st2" d="M564.2,495.3c3-3.5,7-6.3,11.4-7.8"/>
			<path id="Group_1_21_" class="st2" d="M586.2,510.6c5.8-3.2,12.1-5.7,18.6-7.4"/>
		</g>
		<g id="Group_1_22_">
			<path id="Group_5_5_" class="st1" d="M437.6,627.5c0.2-0.5,0.4-1.1,0.6-1.6c0.5,0.4,0.9,0.8,1.5,1.1c0.1,0.1,0.2,0.3,0.3,0.4
				C439.3,627.4,438.5,627.5,437.6,627.5z"/>
			<path id="Group_4_15_" class="st2" d="M444.9,598.6c-1.7,9.1-3.4,18.3-5.2,27.4"/>
			<path id="Group_3_19_" class="st2" d="M456.8,603c-0.7,6.2-0.5,12.5,0.6,18.7"/>
			<path id="Group_2_22_" class="st2" d="M470.4,606.2c-0.4,4.4,1.2,9,4.3,12.2"/>
			<path id="Group_1_23_" class="st2" d="M483.3,605.5c0.5,2.2,1.9,4.2,3.9,5.4"/>
		</g>
	</g>
	<g id="Butt">
		<g id="Group_1_24_">
			<path id="Group_6_1_" class="st1" d="M547.3,693.1c-3.3-8.2-11.2-12-19.7-12c-7.9,0-15.6,2.6-23.2,4.5
				c-8.7,2.2-17.4,4.5-26.2,6.7c-4.1,1-8.2,2-12.3,2.8c-1,0.2-2,0.4-3.1,0.5c-0.4,0.1-0.8,0.1-1.2,0.2c-0.2,0-0.5,0.1-0.7,0.1
				c-2,0.2-4.1,0.4-6.1,0.5s-4,0-6-0.1c-0.5,0-1-0.1-1.5-0.1c-0.1,0-0.3,0-0.5,0c0.1,0,0.1,0,0.2,0c-0.9,0-2-0.3-2.9-0.5
				c-1.7-0.4-4.1-0.8-5.6-1.7c0.4,0.2,0.5,0.3,0.6,0.3c-0.1-0.1-0.7-0.4-0.8-0.5c-0.5-0.2-1-0.5-1.5-0.8c-1-0.5-1.9-1.1-2.8-1.7
				c-1.3-0.9-2.9-1-4.4-0.7c-1.7,0.4-0.8,14.3-0.7,15.2c1.2,9.5,15.3,56.3,17.4,57.3c1.3,0.6,2.9,0.8,4.4,0.5
				c8.7-1.9,16.8-5.7,24.7-9.7c8-4,15.9-8.1,23.8-12.1c8-4.1,16.1-8.2,24.1-12.3c6.9-3.5,14.2-7.1,19.2-13.3
				C547.7,709.8,550.5,700.9,547.3,693.1z"/>
			<path id="Group_5_6_" class="st2" d="M443.8,711.8c1.4,7.3,4,14.5,7.6,21c1.3,2.4,3.1,5,5.8,5.6"/>
			<path id="Group_4_16_" class="st2" d="M461.7,711.8c1.6,3,3.3,6.1,4.9,9.1c1.1,2.1,2.3,4.2,4,5.8s4.2,2.7,6.5,2.1"/>
			<path id="Group_3_20_" class="st2" d="M482,705.3c3.6,6.9,8,14.6,15.5,16.4"/>
			<path id="Group_2_23_" class="st2" d="M504.1,699.2c2.7,5.7,6.7,10.8,11.6,14.8"/>
			<path id="Group_1_25_" class="st2" d="M527.1,694.5c1.5,3.3,3.2,6.4,5.3,9.3"/>
		</g>
		<path id="Group_2_24_" class="st2" d="M426.1,619.7c-2.1,9.3-8.1,52.3,6.7,104.4c8,27.9,20.3,52.2,34.7,73.2"/>
	</g>
	<path id="Group_1_26_" class="st2" d="M1028.9,421.4c-83.1-62.4-196.1-71.7-298.2-52.2c-68.4,13-135.3,38.3-190.7,80.5
		c-55.4,42.1-98.7,102-113.9,170"/>
	<path id="Group_1_1_" class="st0" d="M849.9,498.7c-5.9-4.2-11.9-8.5-17.8-12.7c-5.2-3.7-10.3-7.3-15.5-11
		c-0.3,4.5-0.4,10.1,0.4,16.4c0.5,4.1,1.3,7.7,2.1,11c0.6,2.2,1.1,4.3,1.6,6.5C837.3,587.7,913.3,650,994,650.3
		c14.7,0,29.5-1.8,43.3-6.9c48.4-17.9,74.5-75.1,68.3-126.3c-6.2-51.3-38.4-96.2-77-130.5c0.2,11.2,0.3,22.5,0.5,33.7"/>
	<g id="Face">
		<g id="Group_2_25_">
			<path id="Group_8" class="st4" d="M1102.6,499.5c-0.9-7.1-3.8-14.3-9.7-18.7c-5.3-4-11.9-5.6-18.4-5.1
				c-16.6,1.2-27.9,15-34.3,29.2c-3.1,4.1-5.6,8.6-6.3,13.8c-0.5,3.7-0.3,7.6,1.4,11.1c1.8,3.8,4.8,6.5,8.3,8.7
				c12.9,8.3,30.2,9.7,43.4,1.3c6.1-3.9,10.9-9.8,13.3-16.6C1102.7,515.8,1103.6,507.3,1102.6,499.5z"/>
			<path id="Group_7" class="st4" d="M1040.9,583.5c-0.5-1.2-1-2-1.9-2.9c-1-1.1-2.2-2.1-3.6-2.6c-1.9-0.7-3.4-1-5.4-1
				c-0.4,0-0.8,0-1.2,0.1c-0.9,0.1-1.8,0.3-2.7,0.6c-2.8,1-5.3,2.9-6.9,5.4c-0.9,1.3-1.5,2.7-1.8,4.3c0,0.2-0.1,0.4-0.1,0.7
				c-0.8,2.4-0.6,5.2,0.6,7.5c0.7,1.3,1.5,2.5,2.7,3.4c1.5,1.2,2.9,1.8,4.7,2.3c0.4,0.1,0.7,0.2,1.1,0.2c0.9,0.1,1.8,0.2,2.7,0.1
				c1.7-0.2,3-0.6,4.5-1.4c2.7-1.4,4.7-3.5,6.3-6.1c0.7-1.1,1.1-2.5,1.5-3.8c0.2-0.7,0.2-1.3,0.3-2c0-0.7,0.1-1.4,0-2.1
				C1041.4,585.3,1041.3,584.4,1040.9,583.5z"/>
			<path id="Group_6_2_" class="st4" d="M1059.8,570.3c-0.1-0.5-0.2-1-0.4-1.5c-0.3-0.6-0.6-1.4-1-1.9c-1-1.2-1.8-1.9-3.1-2.7
				c-0.6-0.3-1.3-0.5-1.9-0.7c-0.2-0.1-0.4-0.1-0.6-0.1c-0.9-0.1-1.8-0.2-2.7-0.1c-0.7,0.1-1.4,0.3-2.1,0.4
				c-0.2,0.1-0.4,0.1-0.6,0.2c-0.6,0.3-1.3,0.6-1.9,1c-0.4,0.2-0.7,0.6-1.1,0.9c-0.4,0.3-0.8,0.7-1.1,1.1c-0.5,0.6-0.9,1.3-1.3,1.9
				c-0.4,0.7-0.6,1.5-0.8,2.2c-0.1,0.2-0.2,0.3-0.3,0.5c-0.5,1-0.7,2.1-0.6,3.2c0.1,0.7,0.2,1.5,0.5,2.2c0,0.1,0.1,0.2,0.1,0.3
				c0.3,1.5,0.9,2.9,2.1,3.9c0.6,0.6,1.3,1,2.1,1.2c0.4,0.2,0.8,0.3,1.3,0.4c0.6,0.2,1.1,0.4,1.7,0.6c0.5,0.1,1,0.1,1.4,0.1
				c0.5,0,1,0.1,1.4,0c0.1,0,0.2,0,0.3,0c0.6-0.1,1.3-0.2,1.9-0.4c0.2-0.1,0.4-0.1,0.6-0.2c0.7-0.3,1.4-0.6,2-1.1
				c0.6-0.4,1.1-0.9,1.6-1.4c0.2-0.2,0.3-0.3,0.4-0.5c0.6-0.8,1.2-1.6,1.5-2.5s0.7-1.8,0.8-2.8c0.1-0.7,0.2-1.5,0.1-2.3
				C1060.1,571.3,1059.9,570.8,1059.8,570.3z"/>
			<path id="Group_5_7_" class="st2" d="M930.5,563.6c7.8,4.3,16.3,8.5,25.2,7.6s17.6-9,15.7-17.7"/>
			<path id="Group_4_17_" class="st2" d="M1052.7,526.3c7,2.6,15.5,1.1,21.1-3.8s8.3-13.1,6.7-20.4"/>
			<path id="Group_3_21_" class="st2" d="M1024.2,565.6c2.4,3.6,8.1,4.4,11.4,1.6c3.3-2.7,3.6-8.4,0.6-11.5"/>
			<path id="Group_2_26_" class="st2" d="M1037.5,569c2.8,6.7,5.6,14,3.8,21.1c-1.8,7-10.7,12.5-16.6,8.2"/>
			<path id="Group_1_27_" class="st2" d="M1041.8,581.1c2.7,3.5,8.3,4.4,11.9,1.9s4.7-8.1,2.3-11.8"/>
		</g>
		<g id="Group_1_28_">
			<path id="Group_6_3_" class="st1" d="M1040.9,436.5c-5.3-9.1-15.6-14.6-25.9-15.3c-12.7-0.8-24.9,4.1-36.2,9.4
				c-11.5,5.4-22.8,11.3-33.7,17.9c-1.3,0.8-2.6,1.6-3.9,2.4c-5.8,1.9-11,6-14.9,10.6c-2.6,3.1-4.8,6.6-6.7,10.2
				c-0.8,0.8-1.7,1.5-2.5,2.3c-3.8,3.7-7.2,8-7.6,13.4c-0.4,4.9,1.4,9.7,4.3,13.6c3,3.9,7,7,11.7,8.6c5.8,2,11.9,2.2,18,1.6
				s12.2-2,18.2-3.3c6.5-1.3,13-2.6,19.5-3.9c11.9-2.4,24.4-4.2,34.5-11.6c9-6.6,15.4-15.9,21.2-25.3c3-4.9,6.4-10.1,7.1-15.9
				C1044.7,446,1043.5,441,1040.9,436.5z"/>
			<path id="Group_5_8_" class="st2" d="M931.6,478.6c3.8,2.8,7.6,5.6,11.4,8.4"/>
			<path id="Group_4_18_" class="st2" d="M948.3,468.7c2.3,2.6,5.1,4.8,8.2,6.4"/>
			<path id="Group_3_22_" class="st2" d="M967.6,458.7c2.5,2.7,5,5.4,7.5,8.2c0.5,0.5,1,1,1.7,1.1s1.4-0.6,1.1-1.2"/>
			<path id="Group_2_27_" class="st2" d="M987.5,449.3c2.2,4.2,5.4,7.9,9.4,10.6"/>
			<path id="Group_1_29_" class="st2" d="M1012.8,439.4c2.8,3.6,5.7,7.3,8.5,10.9"/>
		</g>
	</g>
	<path id="Group_1_30_" class="st2" d="M849.9,498.7c-5.9-4.2-11.9-8.5-17.8-12.7c-5.2-3.7-10.3-7.3-15.5-11
		c-0.3,4.5-0.4,10.1,0.4,16.4c0.5,4.1,1.3,7.7,2.1,11c0.6,2.2,1.1,4.3,1.6,6.5c2.3,10.8,5.6,21.3,10,31.3
		c27.5,63.4,93.6,109.9,163.2,110.1c14.7,0,29.5-1.8,43.3-6.9c48.4-17.9,74.5-75.1,68.3-126.3c-6.2-51.3-38.4-96.2-77-130.5
		c0.2,11.2,0.3,22.5,0.5,33.7"/>
</g>
</svg>
