<svg xmlns="http://www.w3.org/2000/svg" height="1200" width="1600" version="1.1" xmlns:xlink="http://www.w3.org/1999/xlink" xmlns:svgjs="http://svgjs.com/svgjs"><rect fill="#e9e9e9" width="1600" height="1200"></rect><g><path d="M1114.27 436.85H1427.31C1449.12 436.85 1466.73 455.83 1466.73 479.15V815C1466.73 838.4 1449.05 857.29 1427.31 857.29H1114.27C1092.46 857.29 1074.84 838.32 1074.84 815V479.23C1074.77 455.83 1092.46 436.85 1114.27 436.85Z" fill="#cecece" opacity="1" stroke-width="4" stroke="none"></path></g><g><path d="M539.15 579.86H169.21C144.16 579.86 123.91 600.11 123.91 625.16V972.73C123.91 997.79 144.16 1018.04 169.21 1018.04H539.15C564.21 1018.04 584.46 997.79 584.46 972.73V625.16C584.46 600.19 564.12 579.86 539.15 579.86Z" fill="#cecece" opacity="1" stroke-width="4" stroke="none"></path><path d="M173.12 659.16C183.41 659.16 191.74 650.83 191.74 640.54 191.74 630.25 183.41 621.91 173.12 621.91 162.84 621.91 154.49 630.25 154.49 640.54 154.49 650.83 162.84 659.16 173.12 659.16Z" fill="#ffffff" opacity="1" stroke-width="4" stroke="none"></path><path d="M227.21 659.16C237.5 659.16 245.84 650.83 245.84 640.54 245.84 630.25 237.5 621.91 227.21 621.91 216.93 621.91 208.58 630.25 208.58 640.54 208.58 650.83 216.93 659.16 227.21 659.16Z" fill="#ffffff" opacity="1" stroke-width="4" stroke="none"></path><path d="M281.38 659.16C291.67 659.16 300.01 650.83 300.01 640.54 300.01 630.25 291.67 621.91 281.38 621.91 271.1 621.91 262.76 630.25 262.76 640.54 262.76 650.83 271.1 659.16 281.38 659.16Z" fill="#ffffff" opacity="1" stroke-width="4" stroke="none"></path></g><g><path d="M405.55 399.02H250.45C241.91 399.02 234.94 392.05 234.94 383.51V274.38C234.94 265.84 241.91 258.87 250.45 258.87H292.37C297.88 258.87 302.94 261.8 305.75 266.52L310.58 274.72C313.39 279.44 318.45 282.36 323.95 282.36H405.66C414.2 282.36 421.17 289.33 421.17 297.87V383.51C421.17 392.05 414.2 399.02 405.55 399.02 405.66 399.02 405.66 399.02 405.55 399.02Z" fill="#a0d5ff" opacity="1" stroke-width="4" stroke="none"></path><path d="M539.51 169.08H445.22C445.22 169.08 434.32 224.82 467.14 254.38H561.43C528.61 224.82 539.51 169.08 539.51 169.08Z" fill="#61b7ff" opacity="1" stroke-width="4" stroke="none"></path><path d="M407.35 120.86H313.05C313.05 120.86 302.15 176.61 334.97 206.16H429.26C396.33 176.61 407.35 120.86 407.35 120.86Z" fill="#30a1ff" opacity="1" stroke-width="4" stroke="none"></path></g><g><path d="M1335.39 574.26H1314.84L1311.01 562.29C1308.07 553.26 1299.71 547.16 1290.46 547.16H1245.52C1236.04 547.16 1227.91 553.26 1224.97 562.29L1221.13 574.26H1200.58C1176.65 574.26 1157.45 593.68 1157.45 617.39V700.49C1157.45 724.42 1176.87 743.62 1200.58 743.62H1335.62C1359.55 743.62 1378.75 724.2 1378.75 700.49V617.39C1378.52 593.68 1359.1 574.26 1335.39 574.26ZM1270.13 689.42C1251.39 689.42 1236.26 674.29 1236.26 655.55 1236.26 636.81 1251.39 621.68 1270.13 621.68 1288.88 621.68 1304 636.81 1304 655.55 1304 674.29 1288.88 689.42 1270.13 689.42Z" fill="#61b7ff" opacity="1" stroke-width="4" stroke="none"></path></g><g><path d="M356.35 872.17V936.15" stroke="#3c74a3" stroke-width="4" stroke-linecap="round" stroke-linejoin="round" opacity="1" fill="none"></path><path d="M382.84 784.03C382.84 784.03 405.05 747.97 412.57 719.37L382.54 706.42C375.24 703.26 370.42 696.04 370.42 688.06H342.57C342.57 696.04 337.83 703.26 330.45 706.42L300.42 719.29C307.95 747.9 330.15 783.95 330.15 783.95L382.84 784.03Z" fill="#1f2123" opacity="1" stroke-width="4" stroke="none"></path><path d="M382.84 784.03C382.84 784.03 405.05 747.97 412.57 719.37L387.96 708.83 356.5 754.75 325.03 708.83 300.42 719.37C307.95 747.97 330.15 784.03 330.15 784.03 330.15 784.03 289.88 826.25 285.37 879.32H427.63C423.11 826.25 382.84 784.03 382.84 784.03Z" fill="#30a1ff" opacity="1" stroke-width="4" stroke="none"></path><path d="M406.33 716.66C406.33 716.66 392.18 759.64 360.71 784.03 360.71 784.03 385.33 834.16 392.33 879.32H427.63C423.11 826.18 382.84 784.03 382.84 784.03 382.84 784.03 405.05 747.97 412.57 719.37L406.33 716.66Z" fill="#3c74a3" opacity="0.3" stroke-width="4" stroke="none"></path><path d="M330.15 784.03H382.84" stroke="#3c74a3" stroke-width="4" stroke-linecap="round" stroke-linejoin="round" opacity="1" fill="none"></path></g><g><path d="M1121.64 1024.13C1146.86 1020.55 1164.41 997.19 1160.83 971.96 1157.25 946.73 1133.89 929.19 1108.66 932.77 1083.43 936.35 1065.88 959.71 1069.47 984.94 1073.05 1010.16 1096.4 1027.71 1121.64 1024.13Z" fill="#a0a0a0" opacity="1" stroke-width="4" stroke="none"></path><path d="M1241.68 1102.48C1260.38 1099.83 1273.39 1082.52 1270.73 1063.82 1268.08 1045.12 1250.77 1032.11 1232.07 1034.77 1213.37 1037.42 1200.36 1054.73 1203.02 1073.43 1205.67 1092.13 1222.98 1105.14 1241.68 1102.48Z" fill="#a0d5ff" opacity="1" stroke-width="4" stroke="none"></path></g><g><path d="M640.16 249.06C628.88 249.06 619.73 239.91 619.73 228.63 619.73 217.35 628.88 208.21 640.16 208.21 651.44 208.21 660.58 217.35 660.58 228.63 660.58 239.91 651.44 249.06 640.16 249.06Z" fill="#a0a0a0" opacity="1" stroke-width="4" stroke="none"></path><path d="M679.84 162.1C668.56 162.1 659.42 152.96 659.42 141.67 659.42 130.39 668.56 121.25 679.84 121.25 691.12 121.25 700.27 130.39 700.27 141.67 700.27 152.96 691.12 162.1 679.84 162.1Z" fill="#30a1ff" opacity="1" stroke-width="4" stroke="none"></path></g><g><path d="M1088.25 204.95L1061.02 163.34 1103.29 185.65 1117.83 110.88 1133.45 190.66 1200.37 157.91 1151.58 215.31 1212.4 274.79 1137.96 247.72 1132.28 330.85 1106.21 255.41 1040.38 293.5 1086.42 230.26 1019.83 209.04 1088.25 204.95Z" fill="#a0a0a0" opacity="1" stroke-width="4" stroke="none"></path></g></svg>