<svg xmlns="http://www.w3.org/2000/svg" height="1200" width="1600" version="1.1" xmlns:xlink="http://www.w3.org/1999/xlink" xmlns:svgjs="http://svgjs.com/svgjs"><rect fill="#e9e9e9" width="1600" height="1200"></rect><g><path d="M451.81 206.5C539.27 192.88 689.83 295.4 805.97 293.97 922.83 292.54 1004.56 187.15 1085.57 172.81 1166.59 158.47 1246.17 234.46 1260.51 319.78 1274.84 405.81 1223.23 501.16 1166.59 568.55 1110.67 635.23 1049.73 673.94 987.35 710.51 924.98 747.79 860.46 782.2 760.09 809.44 659.72 835.97 523.5 855.33 443.92 799.41 363.62 743.49 339.97 613 340.68 481.81 340.68 351.32 364.34 220.84 451.81 206.5Z" fill="#d7e4ef" opacity="1" stroke-width="4" stroke="#00000000"></path></g><g><path d="M1319.49 899.86H280.51L75.98 1080.45H1524.02L1319.49 899.86Z" fill="#d7e4ef" opacity="1" stroke-width="4" stroke="#00000000"></path><path d="M1274.09 945.7H326.12L246.76 1034.61H1353.34L1274.09 945.7Z" fill="#d7e4ef" opacity="1" stroke-width="4" stroke="#00000000"></path></g><g><path d="M990.24 991.33V961.63H641.77V991.33H600.03V318.52H1031.55V991.33H990.24Z" fill="#cdcdce" opacity="1" stroke-width="4" stroke="#00000000"></path><path d="M990.67 358.02H641.34V796.52H990.67V358.02Z" fill="#dcdcdc" opacity="1" stroke-width="4" stroke="#00000000"></path><path d="M793.53 796.52L811.94 358.02H816.65V796.52H793.53Z" fill="#cdcdce00" opacity="0" stroke="#00000000" stroke-width="4"></path><path d="M990.67 835.6H641.34V922.03H990.67V835.6Z" fill="#dcdcdc" opacity="1" stroke-width="4" stroke="#00000000"></path><path d="M816.65 358.02L816.01 796.31" stroke="#000000" stroke-width="4" stroke-linecap="round" stroke-linejoin="round" opacity="1" fill="none"></path><path d="M815.47 887.48C810.55 887.48 806.48 883.66 806.48 878.82 806.48 873.97 810.44 870.15 815.47 870.15 820.5 870.15 824.46 873.97 824.46 878.82 824.46 883.66 820.39 887.48 815.47 887.48Z" fill="#060606" opacity="1" stroke-width="4" stroke="#00000000"></path><path d="M851.43 613.36C856.28 613.36 860.21 609.58 860.21 604.91 860.21 600.24 856.28 596.45 851.43 596.45 846.58 596.45 842.65 600.24 842.65 604.91 842.65 609.58 846.58 613.36 851.43 613.36Z" fill="#060606" opacity="1" stroke-width="4" stroke="#00000000"></path><path d="M780.58 613.36C785.43 613.36 789.36 609.58 789.36 604.91 789.36 600.24 785.43 596.45 780.58 596.45 775.73 596.45 771.8 600.24 771.8 604.91 771.8 609.58 775.73 613.36 780.58 613.36Z" fill="#060606" opacity="1" stroke-width="4" stroke="#00000000"></path></g><g><path d="M1213.22 828.39L1219.96 811.62C1204.11 810.09 1192.15 799.94 1192.15 788.04 1192.15 776.25 1203.52 766.36 1219.18 764.52L1209.19 734.2 1265.32 734.17 1255.37 764.56C1271.02 766.36 1282.38 776.25 1282.38 788.04 1282.38 799.94 1270.41 810.09 1254.55 811.66L1261.35 828.39H1213.22Z" fill="#61a8ff" opacity="1" stroke-width="4" stroke="#00000000"></path><path d="M1260.31 654.06C1267.51 654.06 1273.35 648.22 1273.35 641.02 1273.35 633.82 1267.51 627.98 1260.31 627.98 1253.11 627.98 1247.27 633.82 1247.27 641.02 1247.27 648.22 1253.11 654.06 1260.31 654.06Z" fill="#61a8ff" opacity="1" stroke-width="4" stroke="#00000000"></path><path d="M1256.47 710.27C1255.45 710.3 1254.45 710.02 1253.59 709.46 1248 705.64 1252.45 689.35 1263.52 673.15 1272.87 659.45 1284.11 649.88 1290.85 649.88 1291.87 649.85 1292.88 650.14 1293.73 650.69 1299.32 654.51 1294.87 670.8 1283.81 687 1274.45 700.7 1263.21 710.27 1256.47 710.27Z" fill="#ffffff" opacity="1" stroke-width="4" stroke="#00000000"></path><path d="M1160.68 739.61C1157.38 739.61 1155.26 738.82 1154.56 737.34 1152.3 732.59 1164.88 721.88 1182.6 713.46 1194.18 707.95 1205.72 704.53 1212.7 704.53 1216 704.53 1218.12 705.31 1218.82 706.79 1219.92 709.1 1217.6 712.85 1212.3 717.36 1207 721.87 1199.36 726.6 1190.78 730.68 1179.19 736.18 1167.66 739.61 1160.68 739.61Z" fill="#dadada" opacity="1" stroke-width="4" stroke="#00000000"></path><path d="M1284.35 736.71C1289.34 736.71 1293.38 732.67 1293.38 727.68 1293.38 722.69 1289.34 718.65 1284.35 718.65 1279.36 718.65 1275.32 722.69 1275.32 727.68 1275.32 732.67 1279.36 736.71 1284.35 736.71Z" fill="#61a8ff" opacity="1" stroke-width="4" stroke="#00000000"></path><path d="M1164.63 711.16C1169.62 711.16 1173.66 707.12 1173.66 702.13 1173.66 697.15 1169.62 693.1 1164.63 693.1 1159.64 693.1 1155.6 697.15 1155.6 702.13 1155.6 707.12 1159.64 711.16 1164.63 711.16Z" fill="#61a8ff" opacity="1" stroke-width="4" stroke="#00000000"></path><path d="M1237.26 745.24C1221.92 745.24 1209.31 734.31 1209.19 734.2L1265.32 734.15C1265.23 734.29 1252.69 745.24 1237.26 745.24Z" fill="#000000" opacity="1" stroke-width="4" stroke="#00000000"></path><path d="M1293.37 651.04C1257.3 693.62 1242.27 733.19 1237.26 744.21" stroke="#000000" stroke-width="4" stroke-linecap="round" stroke-linejoin="round" opacity="1" fill="none"></path><path d="M1155.11 737.2C1172.14 724.17 1206.71 706.64 1218.73 706.64 1228.25 706.64 1232.76 743.71 1232.76 743.71" stroke="#000000" stroke-width="4" stroke-linecap="round" stroke-linejoin="round" opacity="1" fill="none"></path><path d="M1255.3 763.75H1245.28" stroke="#df85af00" stroke-width="4" stroke-linecap="round" stroke-linejoin="round" opacity="1" fill="none"></path><path d="M1255.3 812.34H1245.28" stroke="#df85af00" stroke-width="4" stroke-linecap="round" stroke-linejoin="round" opacity="1" fill="none"></path></g><g><path d="M1159.27 991.29C1154.05 991.29 1149.65 987.31 1149.16 982.09L1145.92 950.93H1172.61L1169.38 982.09C1168.88 987.31 1164.49 991.29 1159.27 991.29Z" fill="#3c74a3" opacity="1" stroke-width="4" stroke="#00000000"></path><path d="M1315.31 991.29C1310.09 991.29 1305.7 987.31 1305.2 982.09L1301.97 950.93H1328.66L1325.42 982.09C1324.93 987.31 1320.53 991.29 1315.31 991.29Z" fill="#3c74a3" opacity="1" stroke-width="4" stroke="#00000000"></path><path d="M1145.92 950.93L1147.5 966.43H1171.03L1172.61 950.93H1145.92Z" fill="#30a1ff00" opacity="0" stroke="#00000000" stroke-width="4"></path><path d="M1328.66 950.93H1301.97L1303.55 966.43H1327.08L1328.66 950.93Z" fill="#30a1ff00" opacity="0" stroke="#00000000" stroke-width="4"></path><path d="M1346.23 943.55H1128.35C1120.56 943.55 1114.18 937.17 1114.18 929.38V853.14C1114.18 845.35 1120.56 838.97 1128.35 838.97H1346.23C1354.02 838.97 1360.4 845.35 1360.4 853.14V929.38C1360.4 937.25 1354.02 943.55 1346.23 943.55Z" fill="#30a1ff" opacity="1" stroke-width="4" stroke="#00000000"></path><path d="M1114.18 891.51V853.14C1114.18 845.35 1120.56 838.97 1128.35 838.97H1346.23C1354.02 838.97 1360.4 845.35 1360.4 853.14V860.85L1114.18 891.51Z" fill="#30a1ff00" opacity="0" stroke="#00000000" stroke-width="4"></path><path d="M1348.63 825.46H1125.95C1111.95 825.46 1100.59 836.81 1100.59 850.82V931.62C1100.59 945.62 1111.95 956.98 1125.95 956.98H1348.63C1362.63 956.98 1373.99 945.62 1373.99 931.62V850.82C1373.99 836.81 1362.63 825.46 1348.63 825.46ZM1353.27 926.73C1353.27 932.28 1348.79 936.76 1343.24 936.76H1131.34C1125.79 936.76 1121.31 932.28 1121.31 926.73V855.71C1121.31 850.16 1125.79 845.68 1131.34 845.68H1343.32C1348.88 845.68 1353.35 850.16 1353.35 855.71V926.73H1353.27Z" fill="#2c485b" opacity="1" stroke-width="4" stroke="#00000000"></path><path d="M1277.69 936.84H1196.81C1186.53 936.84 1178.24 928.8 1178.24 918.77 1178.24 908.83 1186.53 900.71 1196.81 900.71H1277.69C1287.97 900.71 1296.25 908.75 1296.25 918.77 1296.25 928.72 1287.88 936.84 1277.69 936.84Z" fill="#ffffff" opacity="1" stroke-width="4" stroke="#00000000"></path><path d="M1277.69 900.71H1196.81C1186.53 900.71 1178.24 892.67 1178.24 882.64 1178.24 872.7 1186.53 864.58 1196.81 864.58H1277.69C1287.97 864.58 1296.25 872.61 1296.25 882.64 1296.25 892.67 1287.88 900.71 1277.69 900.71Z" fill="#ffffff" opacity="1" stroke-width="4" stroke="#00000000"></path><path d="M1192 900.71H1282.58" stroke="#d7c3cf00" stroke-width="4" stroke-linecap="round" stroke-linejoin="round" opacity="1" fill="none"></path></g><g><path d="M539.63 172.12H422.24V319.2H539.63V172.12Z" fill="#323232" opacity="1" stroke-width="4" stroke="#00000000"></path><path d="M422.24 319.2H539.63L519.84 299.42 478.07 281.18 442.07 299.42 422.24 319.2Z" fill="#32323200" opacity="0" stroke="#00000000" stroke-width="4"></path><path d="M519.84 191.95H442.07V299.42H519.84V191.95Z" fill="#ffffff" opacity="1" stroke-width="4" stroke="#00000000"></path><path d="M519.8 191.95L539.63 172.12" stroke="#e5976300" stroke-width="4" stroke-linecap="round" stroke-linejoin="round" opacity="1" fill="none"></path><path d="M519.8 299.37L539.63 319.2" stroke="#e5976300" stroke-width="4" stroke-linecap="round" stroke-linejoin="round" opacity="1" fill="none"></path><path d="M442.07 191.95L422.24 172.12" stroke="#e5976300" stroke-width="4" stroke-linecap="round" stroke-linejoin="round" opacity="1" fill="none"></path><path d="M442.07 299.37L422.24 319.2" stroke="#e5976300" stroke-width="4" stroke-linecap="round" stroke-linejoin="round" opacity="1" fill="none"></path><path d="M488.66 237.04C488.66 227.66 496.41 222.51 496.41 213.22H465.41C465.41 222.46 473.16 227.66 473.16 237.04 473.16 246.43 456.22 253.12 456.22 278.05H505.65C505.65 253.17 488.66 246.43 488.66 237.04Z" fill="#30a1ff" opacity="1" stroke-width="4" stroke="#00000000"></path></g><g><path d="M337.43 513.66V988.82" stroke="#000000" stroke-width="4" stroke-linecap="round" stroke-linejoin="round" opacity="1" fill="none"></path><path d="M383.77 988.82H291.09" stroke="#000000" stroke-width="4" stroke-linecap="round" stroke-linejoin="round" opacity="1" fill="none"></path><path d="M261.86 529.84L295.14 429.75C295.22 429.5 295.39 429.42 295.64 429.42H379.13C379.39 429.42 379.55 429.59 379.64 429.75L413 529.76C413.08 530.09 412.83 530.43 412.49 530.43H262.37C262.03 530.51 261.69 530.18 261.86 529.84Z" fill="#30a1ff" opacity="1" stroke-width="4" stroke="#00000000"></path><path d="M357.14 530.43L347.03 435.4 367.17 436.16 390.25 530.43H357.14Z" fill="#30a1ff00" opacity="0" stroke="#00000000" stroke-width="4"></path><path d="M284.69 530.43L307.69 431.61 327.4 432.03 317.8 530.43H284.69Z" fill="#30a1ff00" opacity="0" stroke="#00000000" stroke-width="4"></path><path d="M337.43 445.42C313 445.42 298.17 432.37 295.64 429.92 295.64 429.92 294.97 429.25 295.22 429.25L379.55 429.08C379.72 429.08 379.22 429.75 379.22 429.75 376.77 432.03 362.11 445.42 337.43 445.42Z" fill="#ffffff" opacity="1" stroke-width="4" stroke="#00000000"></path><path d="M306.01 437.84L284.69 530.43" stroke="#e7973500" stroke-width="4" stroke-linecap="round" stroke-linejoin="round" opacity="1" fill="none"></path><path d="M326.23 444.58L317.8 530.43" stroke="#e7973500" stroke-width="4" stroke-linecap="round" stroke-linejoin="round" opacity="1" fill="none"></path><path d="M368.94 437.84L390.25 530.43" stroke="#e7973500" stroke-width="4" stroke-linecap="round" stroke-linejoin="round" opacity="1" fill="none"></path><path d="M348.72 444.58L357.14 530.43" stroke="#e7973500" stroke-width="4" stroke-linecap="round" stroke-linejoin="round" opacity="1" fill="none"></path></g><g><path d="M1328.21 412.63H1141.75C1136.1 412.63 1132.76 408.6 1131.99 404.58 1131.22 400.55 1132.76 395.59 1137.98 393.36L1234.42 353.36C1234.85 353.19 1235.28 353.19 1235.71 353.36L1332.06 393.36C1337.29 395.59 1338.83 400.64 1337.97 404.58 1337.2 408.6 1333.86 412.63 1328.21 412.63ZM1235.02 356.87L1139.27 396.61C1135.58 398.16 1134.9 401.5 1135.33 403.98 1135.84 406.38 1137.81 409.29 1141.75 409.29H1328.21C1332.15 409.29 1334.12 406.46 1334.63 404.07 1335.15 401.58 1334.38 398.24 1330.69 396.61L1235.02 356.87Z" fill="#2c485b" opacity="1" stroke-width="4" stroke="#00000000"></path><path d="M1235.11 355.59C1234.17 355.59 1233.4 354.82 1233.4 353.88V338.54C1233.4 337.6 1234.17 336.83 1235.11 336.83H1241.88C1245.99 336.83 1249.84 335.2 1252.75 332.29 1255.66 329.38 1257.29 325.53 1257.29 321.41 1257.29 312.93 1250.35 306 1241.88 306 1235.45 306 1230.23 311.22 1230.23 317.65 1230.23 318.59 1229.46 319.36 1228.51 319.36 1227.57 319.36 1226.8 318.59 1226.8 317.65 1226.8 309.34 1233.57 302.57 1241.88 302.57 1252.24 302.57 1260.72 311.05 1260.72 321.41 1260.72 326.47 1258.75 331.18 1255.24 334.78 1251.64 338.37 1246.93 340.26 1241.96 340.26H1236.91V353.88C1236.82 354.82 1236.05 355.59 1235.11 355.59Z" fill="#2c485b" opacity="1" stroke-width="4" stroke="#00000000"></path><path d="M1235.02 434.56L1193.65 368.09 1158.37 382.31 1149.8 552.75H1320.24L1311.68 382.31 1276.39 368.09 1235.02 434.56Z" fill="#323232" opacity="1" stroke-width="4" stroke="#00000000"></path><path d="M1257.29 530.48C1270.77 530.48 1281.7 519.55 1281.7 506.07 1281.7 492.59 1270.77 481.66 1257.29 481.66 1243.81 481.66 1232.88 492.59 1232.88 506.07 1232.88 519.55 1243.81 530.48 1257.29 530.48Z" fill="#161616" opacity="1" stroke-width="4" stroke="#00000000"></path><path d="M1201.62 482.52C1215.1 482.52 1226.03 471.59 1226.03 458.11 1226.03 444.63 1215.1 433.7 1201.62 433.7 1188.14 433.7 1177.21 444.63 1177.21 458.11 1177.21 471.59 1188.14 482.52 1201.62 482.52Z" fill="#161616" opacity="1" stroke-width="4" stroke="#00000000"></path><path d="M1312.11 462.82C1298.66 462.82 1287.7 473.78 1287.7 487.23 1287.7 500.68 1298.66 511.64 1312.11 511.64 1314.16 511.64 1316.13 511.38 1318.1 510.87L1315.7 463.08C1314.51 462.91 1313.31 462.82 1312.11 462.82Z" fill="#161616" opacity="1" stroke-width="4" stroke="#00000000"></path><path d="M1265.86 431.13C1279.3 431.13 1290.27 420.17 1290.27 406.72 1290.27 393.87 1280.33 383.25 1267.48 382.4L1244.7 418.97C1249.07 426.51 1257.12 431.13 1265.86 431.13Z" fill="#161616" opacity="1" stroke-width="4" stroke="#00000000"></path><path d="M1178.92 419.57C1178.92 407.32 1169.84 396.96 1157.68 395.41L1155.2 443.98C1168.47 443.55 1178.92 432.76 1178.92 419.57Z" fill="#161616" opacity="1" stroke-width="4" stroke="#00000000"></path><path d="M1198.19 528.77C1184.92 528.77 1174.04 539.48 1173.78 552.75H1222.6C1222.35 539.48 1211.47 528.77 1198.19 528.77Z" fill="#161616" opacity="1" stroke-width="4" stroke="#00000000"></path></g></svg>