<?xml version="1.0" encoding="utf-8"?>
<!-- Generator: Adobe Illustrator 25.2.3, SVG Export Plug-In . SVG Version: 6.00 Build 0)  -->
<svg version="1.1" id="Layer_1" xmlns="http://www.w3.org/2000/svg" xmlns:xlink="http://www.w3.org/1999/xlink" x="0px" y="0px"
	 viewBox="0 0 1600 1200" style="enable-background:new 0 0 1600 1200;" xml:space="preserve">
<style type="text/css">
	.st0{fill:#FF7900;}
	.st1{fill:#FFFFFF;}
	.st2{fill:#4E4E4E;}
	.st3{fill:#B1B1B1;}
	.st4{fill:#FFA400;}
</style>
<path class="st0" d="M603.9,573.6c-2.1-1.6-4.9-1.7-7.2-0.5c-3.9,2-33.5,9.9-33.6,9.8c-3.4-0.6-7.2,1.9-8,5.6c-0.8,3.3,1,7.2,4.6,8
	c2.2,0.5,36.7,16.8,38.3,16.7c1.7-0.1,3.4-0.6,4.6-1.9c1.2-1.3,1.9-2.8,1.9-4.6c0-2.7,1.5-23.7,1.8-26.2
	C606.5,577.8,605.9,575.1,603.9,573.6z"/>
<path class="st0" d="M1056.3,595.7c-1.7-3.2-32.3-17.4-35.1-17.7c-2.5-0.2-5,1.8-6,4c-1.1,2.6,6.6,20.5,7.7,22.4
	c1.6,2.9,5,4.6,8.3,4.4c2.3-0.1,21.3-3.3,22.8-4.2C1057,602.7,1058.1,599,1056.3,595.7z"/>
<path class="st1" d="M1021.9,602.7c-0.1-0.4,0-0.8,0.1-1.2c-7.8-26-16.7-51.7-26.7-77c-11.1-28-23.4-55.4-37-82.3
	c-7.1-14.1-14.5-28-21.8-42c-7.9-15.1-15.8-30.2-24.2-45c-1-1.9-2.1-3.7-3.1-5.6c-0.4-0.7-0.7-1.4-1.1-2.1c0,0-0.1,0-0.1,0
	c-15.6-27.6-31.2-55.3-46.9-82.8c-16.9-29.5-33.9-58.9-51.3-88c-2.2-3.7-4.4-7.4-6.7-11.1c-0.7-1.1-2.1-0.5-2.3,0.6
	c-1.8,13.5-3.7,27-5.1,40.5c-0.6,5.6-0.5,11.3-3.1,16.5c-0.8,1.5-1.8,3-3.3,3.8c-2.1,1-4.7,0.2-6.9,0c-5.5-0.6-11.1-1.2-16.6-1.6
	c-19.7-1.6-39.5-1.7-59.1-0.3c-3,0.1-6.1,0.3-9.1,0.5c-5.8,0.5-11.6,1.2-17.3,2.3c-15.6,2.2-31,5.5-46.2,9.8
	c-3.2,0.9-6.3,2.4-9.6,0.8c-2.6-1.3-4.8-3.5-6.3-5.9c-1.5-2.4-2.3-5-3.3-7.6c-1-2.6-1.9-5.2-2.9-7.9c-3.9-10.7-7.8-21.5-11-32.5
	c-0.4-1.4-2.3-1-2.4,0.3c-2.5,31.4-4.1,63-4.5,94.5c-0.3,25.1,0.1,50.2,1.3,75.3c1.2,25.3,3.4,50.6,5.3,75.9
	c2.1,27.9,3.7,55.9,4.2,83.9c0.6,30.7,0.2,61.5-1.1,92.1c0,0.9-0.1,1.8-0.1,2.7c1.2,3.7,1.9,7.4,2.3,11.2c1.9,0.9,3.7,1.8,5.6,2.6
	c11.1,5.1,22.2,10,33.4,14.7c10.9,4.6,21.9,9,33,13.2c10.3,3.9,20.7,7.6,31.1,11.2c0.4,0.4,0.9,0.7,1.5,0.9c1.5,0.4,2.9,0.8,4.4,1.1
	c0,0,0,0,0,0c0.4,0.2,0.8,0.3,1.3,0.2c21.7-2.1,43.3-4.5,64.9-7.2c22.7-2.9,45.4-6,68.1-9.5c23.5-3.6,47-7.6,70.4-12
	c22.9-4.3,45.7-8.8,68.5-13.8c11.8-2.6,23.6-5.2,35.4-7.9C1023,610.3,1022.5,606.5,1021.9,602.7z"/>
<g>
	<path class="st2" d="M735.9,224.1c-0.2,0.5-0.5,0.9-0.8,1.4c-0.3,0.5-0.6,1.1-0.9,1.7c-3.2,6.2-5.6,12.9-9.2,18.9
		c-3.8,6.4-9,11.9-16.1,14.7c-6.7,2.7-14.5,2.3-21.3,0.1c-13-4.2-22.1-14.5-30.1-25c-0.2-0.4-0.8-1.2-1.4-2.3
		c-0.2-0.4-0.5-0.8-0.7-1.3c8.2-1.8,16.6-3.3,24.9-4.5c5.7-1.1,11.5-1.8,17.3-2.3c3-0.2,6.1-0.4,9.1-0.5
		C716.5,224.3,726.2,224,735.9,224.1z"/>
	<path class="st3" d="M935.4,398c0,0.1-0.1,0.3-0.2,0.4c-0.2,0.5-0.4,1-0.6,1.5c-0.8,1.8-1.8,3.4-3,5c-3.8,4.8-9.4,7.5-15.3,8.2
		c-21.1,2.7-38.1-16.8-41.7-36c-1.6-8.9-1-19.3,5.5-26.2c7-7.4,17-6.3,25.9-3.6c0.6,0.2,1.2,0.4,1.8,0.6c0.2,0.1,0.3,0.1,0.5,0.2
		c0.3,0.5,0.6,1.1,0.9,1.6c1,1.9,2.1,3.7,3.1,5.6C920.4,369.3,927.9,383.6,935.4,398z"/>
	<path class="st3" d="M1008.6,560.3c-0.6-0.2-1.2-0.4-1.8-0.5c-0.6-0.2-1.3-0.4-1.9-0.6c-10.1-6.7-19.5-14-27.8-22
		c-30.1-28.8-53.2-71.3-28-105c0.5-0.5,1-0.9,1.6-1.4c0.4-0.3,0.8-0.7,1.2-1c2.1,4.1,4.3,8.3,6.4,12.5c13.6,26.9,25.9,54.3,37,82.3
		C1000,536.4,1004.4,548.3,1008.6,560.3z"/>
</g>
<g>
	<g>
		<path d="M607.7,614.4c1.4-29.1,2-58.2,1.7-87.3c-0.3-29-1.6-57.9-3.7-86.8c-1.8-25.1-4-50.2-5.4-75.4c-1.4-25.2-2-50.4-1.9-75.6
			c0.2-30.3,1.4-60.7,3.5-90.9c0.3-4.4,0.7-8.8,1-13.2c-2.1,0.3-4.3,0.6-6.4,0.9c3,10.2,6.6,20.3,10.2,30.3c1.8,4.9,3.5,10,5.5,14.8
			c1.9,4.7,5.2,9.1,9.9,11.4c5.6,2.7,10.8,0.2,16.4-1.3c5.7-1.6,11.4-3,17.1-4.2c11.4-2.5,22.9-4.5,34.4-5.8
			c23.3-2.7,46.8-3.1,70.2-1.6c5.8,0.4,11.6,0.9,17.4,1.5c4.4,0.5,9.9,2.2,14.1-0.2c6.1-3.5,7.4-12,7.9-18.3
			c1.1-15.5,3.5-30.9,5.6-46.2c-2,0.5-4,1.1-6.1,1.6c17.5,29.1,34.6,58.4,51.5,87.9c17.1,29.9,34.1,59.8,50.9,89.8
			c16.4,29.1,32,58.7,47.3,88.4c14,27.1,26.9,54.8,38.4,83.1c10.6,26.1,20.1,52.8,28.4,79.8c1.2,4,2.4,8,3.6,12.1
			c1.2,4,7.5,2.3,6.3-1.7c-8.2-28.1-17.7-55.8-28.5-83.1c-11.1-28.1-23.5-55.8-37.2-82.8c-7.1-14.1-14.5-28-21.8-42
			c-7.9-15.1-15.8-30.2-24.2-45c-17.1-30.2-34.1-60.4-51.3-90.5c-16.9-29.5-33.9-58.9-51.3-88c-2.2-3.7-4.4-7.4-6.7-11.1
			c-1.8-3-5.7-1.4-6.1,1.6c-1.8,13.5-3.7,27-5.1,40.5c-0.6,5.5-0.3,10.5-2.8,15.5c-0.6,1.1-1.3,2.5-2.6,3.1
			c-1.7,0.7-4.1-0.1-5.9-0.3c-5.5-0.6-11.1-1.2-16.6-1.6c-44.5-3.5-89.3,0.2-132.3,12.4c-2.6,0.7-5.4,2.2-8,1c-2.3-1-4.3-3-5.6-5.2
			c-1.4-2.2-2.2-4.7-3.1-7.2c-1-2.6-1.9-5.2-2.9-7.9c-3.9-10.7-7.9-21.5-11-32.5c-1.1-3.7-6.1-2.7-6.4,0.9
			c-2.6,31.4-4.1,63-4.5,94.5c-0.3,25.1,0.1,50.2,1.3,75.3c1.2,25.3,3.4,50.6,5.3,75.9c2.1,27.9,3.7,55.9,4.2,83.9
			c0.6,30.7,0.2,61.5-1.1,92.1c-0.1,2.5-0.2,5-0.3,7.5C601,618.6,607.5,618.6,607.7,614.4L607.7,614.4z"/>
	</g>
</g>
<g>
	<g>
		<path d="M549,590.8c19.3-6.5,38.5-13,57.8-19.5c1.7-0.6,2.8-2.2,2.3-4c-0.4-1.6-2.3-2.8-4-2.3c-19.3,6.5-38.5,13-57.8,19.5
			c-1.7,0.6-2.8,2.2-2.3,4C545.5,590.2,547.3,591.4,549,590.8L549,590.8z"/>
	</g>
</g>
<g>
	<g>
		<path d="M1015,581.1c14.5,6.4,28.9,12.7,43.4,19.1c1.6,0.7,3.5,0.5,4.5-1.2c0.8-1.4,0.5-3.7-1.2-4.5
			c-14.5-6.4-28.9-12.7-43.4-19.1c-1.6-0.7-3.5-0.5-4.5,1.2C1013,578,1013.3,580.4,1015,581.1L1015,581.1z"/>
	</g>
</g>
<path class="st0" d="M548.7,601.6c0.4-2.7-2.3-5.7-4.8-6.3c-2.7-0.6-91.1,101.1-89.9,104.7c11,0,85.2-7.7,86-9
	c3.4-0.4,4.2-5.2,4.4-8.7C545.4,665,547.6,609.9,548.7,601.6z"/>
<g>
	<g>
		<path d="M545.8,585.4c-12.7,14.9-25.3,29.8-38,44.7c-12.7,14.9-25.3,29.8-38,44.7c-7.1,8.4-14.2,16.7-21.4,25.1
			c-0.9,1-1.2,2.3-0.7,3.6c0.5,1.1,1.7,2.2,3,2c24.5-3.3,49.1-6.6,73.6-9.9c6.9-0.9,13.8-1.9,20.7-2.8c1.7-0.2,3.3-1.3,3.3-3.3
			c0-1.6-1.5-3.5-3.3-3.3c-24.5,3.3-49.1,6.6-73.6,9.9c-6.9,0.9-13.8,1.9-20.7,2.8c0.8,1.9,1.5,3.7,2.3,5.6
			c12.7-14.9,25.3-29.8,38-44.7c12.7-14.9,25.3-29.8,38-44.7c7.1-8.4,14.2-16.7,21.4-25.1c1.1-1.3,1.3-3.3,0-4.6
			C549.3,584.2,547,584,545.8,585.4L545.8,585.4z"/>
	</g>
</g>
<path class="st0" d="M1082.9,976.1c-0.3-2.9-6-241.6-8.9-240.1c-0.4-0.1-10.2,2.9-10.6,2.9c-3.9,0.1-252.2,60-252.4,60.1
	c-0.1-0.1-80.6-123.6-82.4-128.3c-1.2-3.2-6.6-6.7-10.6-7.7c-4,9-2.7,362.8-1,365c1.7,2.2,359.1-45.4,359.4-45.4
	C1079.7,982.8,1083.2,979.5,1082.9,976.1z"/>
<g>
	<g>
		<path d="M1070.2,736.4c1.4,32.1,2.8,64.2,4.2,96.2c1.4,31.9,2.8,63.8,4.2,95.7c0.8,18,1.6,35.9,2.4,53.9c0.1,1.8,1.4,3.3,3.3,3.3
			c1.7,0,3.3-1.5,3.3-3.3c-1.4-32.1-2.8-64.2-4.2-96.2c-1.4-31.9-2.8-63.8-4.2-95.7c-0.8-18-1.6-35.9-2.4-53.9
			c-0.1-1.8-1.4-3.3-3.3-3.3C1071.8,733.1,1070.2,734.6,1070.2,736.4L1070.2,736.4z"/>
	</g>
</g>
<g>
	<g>
		<path d="M714.8,1034.5c48-6.4,96.1-12.7,144.1-19.1c48-6.4,96.1-12.7,144.1-19.1c27.1-3.6,54.1-7.2,81.2-10.8
			c1.7-0.2,3.3-1.3,3.3-3.3c0-1.6-1.5-3.5-3.3-3.3c-48,6.4-96.1,12.7-144.1,19.1c-48,6.4-96.1,12.7-144.1,19.1
			c-27.1,3.6-54.1,7.2-81.2,10.8c-1.7,0.2-3.3,1.3-3.3,3.3C711.6,1032.8,713.1,1034.7,714.8,1034.5L714.8,1034.5z"/>
	</g>
</g>
<path class="st4" d="M716,669c0.1-2.9-3.4-5.9-6.1-6.7C703.6,660.4,557,595,550,590c-1.9-1.4-4,7-3.8,9.6
	c0.2,2.5-1.2,303.4-2.2,313.4c-0.4,3.8-0.3,6.9,2.1,9.8c1.8,2.2,162.7,104,163.3,104.1c0.9,0,1.7-0.2,2.5-0.6
	C713.1,1025.8,715.7,678.6,716,669z"/>
<g>
	<path class="st4" d="M716.1,661.5c-0.4,123.2-0.8,246.4-1.2,369.7"/>
	<g>
		<path d="M712.8,661.5c-0.2,48.2-0.3,96.4-0.5,144.6c-0.2,48-0.3,95.9-0.5,143.9c-0.1,27.1-0.2,54.1-0.3,81.2c0,4.2,6.5,4.2,6.5,0
			c0.2-48.2,0.3-96.4,0.5-144.6c0.2-48,0.3-95.9,0.5-143.9c0.1-27.1,0.2-54.1,0.3-81.2C719.3,657.3,712.8,657.3,712.8,661.5
			L712.8,661.5z"/>
	</g>
</g>
<g>
	<path class="st4" d="M548.1,587.7c1.7,0.9,3.4,1.9,5.1,2.8c53.2,29.1,107.6,52.6,162.8,71c-1.6-0.4-3.2-0.8-4.8-1.2"/>
	<g>
		<path d="M546.5,590.5c21.2,11.8,42.9,22.8,65,33c21.8,10.1,43.9,19.4,66.3,27.8c12.4,4.7,24.8,9.1,37.4,13.3
			c0.6-2.1,1.2-4.2,1.7-6.3c-1.6-0.4-3.2-0.8-4.8-1.2c-4.1-1-5.8,5.2-1.7,6.3c1.6,0.4,3.2,0.8,4.8,1.2c4.1,1,5.7-5,1.7-6.3
			c-22.4-7.5-44.5-15.7-66.2-24.8c-21.9-9.1-43.4-18.9-64.6-29.6c-12.2-6.1-24.3-12.5-36.3-19.2
			C546.1,582.8,542.8,588.5,546.5,590.5L546.5,590.5z"/>
	</g>
</g>
<g>
	<path class="st4" d="M548.1,587.7c-1.7,111.4-3.3,222.8-5,334.3"/>
	<g>
		<path d="M544.9,587.7c-0.6,43.6-1.3,87.2-1.9,130.8c-0.6,43.4-1.3,86.7-1.9,130.1c-0.4,24.5-0.7,48.9-1.1,73.4
			c-0.1,4.2,6.5,4.2,6.5,0c0.6-43.6,1.3-87.2,1.9-130.8c0.6-43.4,1.3-86.7,1.9-130.1c0.4-24.5,0.7-48.9,1.1-73.4
			C551.5,583.5,545,583.5,544.9,587.7L544.9,587.7z"/>
	</g>
</g>
<g>
	<path class="st4" d="M543.2,921.9c40.5,27.8,83.1,55.6,127.8,82.9c14.7,9,29.3,17.8,43.8,26.3"/>
	<g>
		<path d="M541.5,924.8c21.4,14.7,43,29.1,64.8,43.2c22.5,14.6,45.2,28.9,68.1,42.8c12.9,7.8,25.8,15.6,38.8,23.2
			c3.6,2.1,6.9-3.5,3.3-5.6c-23.2-13.7-46.2-27.6-69.1-41.9c-22.4-14-44.6-28.4-66.7-43c-12-8-24-16.1-35.9-24.3
			c-1.5-1-3.6-0.3-4.5,1.2C539.4,921.9,540.1,923.8,541.5,924.8L541.5,924.8z"/>
	</g>
</g>
<path class="st4" d="M1173.5,692.7c-52.5-34.7-102.7-89.7-104.7-89.9c-1.6-1-3.6-1.2-5.6-0.4c-1.6,0.7-148.1,41.6-332,58.5
	c-4.9,0.4-10.7,3.3-8.1,7.1c6.4,9.4,78.6,120.1,83.7,127.6c3.3,4.7,362.3-81.6,371.4-95.8C1179.8,697.2,1176.2,694.5,1173.5,692.7z"
	/>
<g>
	<g>
		<path d="M716.7,663c11.6,17.7,23.2,35.5,34.8,53.2c11.6,17.7,23.2,35.5,34.8,53.2c6.5,10,13.1,20,19.6,30c1,1.5,2.9,2.1,4.5,1.2
			c1.5-0.9,2.1-3,1.2-4.5c-11.6-17.7-23.2-35.5-34.8-53.2c-11.6-17.7-23.2-35.5-34.8-53.2c-6.5-10-13.1-20-19.6-30
			c-1-1.5-2.9-2.1-4.5-1.2C716.4,659.4,715.7,661.5,716.7,663L716.7,663z"/>
	</g>
</g>
<g>
	<g>
		<path d="M1060.7,602.6c16.8,10.3,29.9,25.3,43.7,39.2c14.6,14.7,30.3,28.3,46.8,40.8c9.3,7,18.8,13.7,28.6,19.9
			c1.5,0.9,3.6,0.3,4.5-1.2c0.9-1.6,0.3-3.5-1.2-4.5c-17.3-11-33.8-23.2-49.3-36.6c-7.8-6.7-15.4-13.8-22.8-21
			c-7-7-13.8-14.2-20.9-21.1c-8.1-7.8-16.6-15.2-26.2-21.1C1060.4,594.7,1057.2,600.4,1060.7,602.6L1060.7,602.6z"/>
	</g>
</g>
<g>
	<g>
		<path d="M809.6,800.9c25-5,50-10.3,75-15.8c25.6-5.7,51.1-11.6,76.5-17.9c25-6.1,49.8-12.5,74.7-19.1
			c24.1-6.5,48.2-13.2,72.2-20.1c23.3-6.7,46.5-13.7,69.6-20.9c2.8-0.9,5.6-1.7,8.4-2.6c4-1.3,2.3-7.5-1.7-6.3
			c-23,7.2-46.1,14.3-69.3,21c-23.9,7-47.8,13.7-71.8,20.2c-24.7,6.7-49.5,13.1-74.4,19.3c-25.4,6.3-50.9,12.3-76.5,18.1
			c-25,5.6-50.1,11-75.2,16.1c-3,0.6-6.1,1.2-9.1,1.8C803.7,795.4,805.5,801.7,809.6,800.9L809.6,800.9z"/>
	</g>
</g>
<path class="st2" d="M803.7,904.3c-1.5-2-11.2-10-12.3-13.1c-2.1-5.8-10.9-6.6-12.6,0c0,0-10.2,15.4-10.9,16.1
	c-2.4,2.4-4.5,9.3-1.9,11.7c2.6,2.4,7.6-0.2,10.3-1.9c0.2,0.2,0.7,37.3,0.7,38.8c-0.3,6.5,4,10.1,9,6.1c1.2-0.3,5.3-3.4,6.2-4.3
	c1.2-1.3,1.9-2.8,1.9-4.6v-1.9c0-0.9,0.4-38.1,0.7-38c2.6,1.3,5.8,1.1,7.9-1C804.5,910.4,805.4,906.6,803.7,904.3z"/>
<g>
	<g>
		<path d="M772.6,918.9c-0.1,7.7,0,15.5,0.2,23.2c0.1,4,0.3,7.9,0.4,11.9c0.1,1.8,0.2,3.6,0.3,5.4c0.1,2,0.1,4,0.5,5.9
			c0.4,1.8,1.6,3.4,3.5,3.9c2.2,0.5,4.3-0.8,6.3-1.6c3.4-1.4,6.8-2.7,10.2-4.1c1.9-0.8,3.4-2,3.9-4c0.5-2.1-0.3-4.6-0.6-6.7
			c-0.5-3.6-0.9-7.2-1.2-10.8c-0.7-8.6-0.8-17.3-0.3-25.9c0.1-1.8-1.6-3.3-3.3-3.3c-1.8,0-3.2,1.5-3.3,3.3
			c-0.4,6.9-0.4,13.9-0.1,20.8c0.2,3.5,0.5,7,0.9,10.5c0.2,1.7,0.4,3.5,0.7,5.2c0.1,0.8,0.2,1.6,0.3,2.4c0.1,0.9,0.1,2,0.5,2.9
			c-0.1-0.2,0,0.3,0,0.3c0.1-0.2,0.1-0.3,0.2-0.5c0.5-0.5,0.6-0.6,0.1-0.3c0.4-0.1-0.3,0.1-0.3,0.1c-0.4,0.2-0.9,0.4-1.3,0.5
			c-1.6,0.7-3.3,1.3-4.9,2c-1.5,0.6-3,1.2-4.5,1.8c-0.7,0.3-1.5,0.5-2.1,0.8c-0.1,0-0.2,0.1-0.4,0.1c1,0,1.8,0.3,2.1,1.1
			c0,0.1,0,0.2,0,0.2c0-0.3,0-0.5-0.1-0.8c-0.5-6.9-0.8-13.8-0.9-20.7c-0.2-7.9-0.3-15.8-0.2-23.7
			C779.2,914.7,772.7,914.7,772.6,918.9L772.6,918.9z"/>
	</g>
</g>
<g>
	<g>
		<path d="M773.4,913.1c-4.1,2.3-8.1,4.7-12.2,7c1.6,0.9,3.3,1.9,4.9,2.8c-0.5-5,2.1-9.5,4.4-13.7c2.5-4.7,5.2-9.3,8-13.8
			c1.4-2.2,2.8-4.4,4.2-6.6c0.7-1.1,1.4-2.3,2.2-3.3c0.1-0.1,0.2-0.1,0.2-0.2c0-0.2,0.4-0.1-0.5,0c-0.2,0-0.4,0-0.6,0.1
			c-0.6-0.4-0.7-0.5-0.4-0.2c0.1,0.1,0.5,0.6,0.3,0.3c1.8,2.2,3.3,4.6,4.9,6.9c1.6,2.3,3.3,4.6,4.9,6.9c3.7,5.1,7.4,10.3,11,15.4
			c0.4-1.5,0.8-3,1.2-4.5c-3.6,1.6-7.7,1.6-11.4,0.4c-1.7-0.5-3.6,0.6-4,2.3c-0.5,1.8,0.6,3.5,2.3,4c5.5,1.8,11.2,1.3,16.4-1
			c1.5-0.7,2.1-3.1,1.2-4.5c-3.7-5.1-7.4-10.3-11-15.4c-1.8-2.5-3.6-5-5.4-7.5c-1.8-2.5-3.4-5.2-5.4-7.5c-2.4-2.7-6.1-2.6-8.4,0.2
			c-2,2.3-3.5,5.1-5.1,7.6c-3.2,5-6.3,10.1-9.2,15.3c-3.2,5.7-7,12-6.4,18.9c0.2,2.4,2.6,4.1,4.9,2.8c4.1-2.3,8.1-4.7,12.2-7
			C780.3,916.6,777.1,911,773.4,913.1L773.4,913.1z"/>
	</g>
</g>
<g>
	<g>
		<path d="M834.2,924.3c11.8-1.6,23.4-4.2,34.8-7.7c2-0.6,3.5-2.8,2.8-5c-0.7-2-2.8-3.5-5-2.8c-11.4,3.5-23,6.1-34.8,7.7
			c-2.1,0.3-3.4,3.1-2.8,5C830,923.8,831.9,924.6,834.2,924.3L834.2,924.3z"/>
	</g>
</g>
<g>
	<g>
		<path d="M844.2,938.6c9.9-1.7,19.6-4.3,29-7.9c1.6-0.6,2.8-2.2,2.3-4c-0.4-1.6-2.4-2.9-4-2.3c-9.4,3.6-19.1,6.3-29,7.9
			c-1.7,0.3-2.7,2.4-2.3,4C840.7,938.2,842.4,938.9,844.2,938.6L844.2,938.6z"/>
	</g>
</g>
<g>
	<g>
		<path class="st1" d="M621.3,288.3c2.3-1.8,5.6-4.2,10-6.3c12.5-6.1,24-5.4,26.3-5.2c14,1,23.6,7.7,27.2,10.6
			c-3,3.5-9.8,10.5-20.7,13.4C641.2,306.9,622.4,289.3,621.3,288.3z"/>
	</g>
	<path class="st2" d="M833.7,263.5c-11.6-13.7-31.1-17.2-48-14c-9.7,1.8-19,5.8-27.7,10.4c-8,4.3-18.1,9.8-18.4,20.1
		c0,0.9,0.1,1.7,0.2,2.6c-0.1,4.5,1.4,9.1,3.8,13c4.7,7.6,12.5,12.9,20.7,16.1c18.7,7.4,39.5,2.7,57-5.6c7.5-3.6,15.1-8.7,18.4-16.7
		C843.6,280.4,839.7,270.6,833.7,263.5z"/>
	<g>
		<path class="st1" d="M806.9,291c-25.7,13.2-53.4-3.4-55.5-4.7c2.1-2.1,5.2-4.9,9.3-7.6c3.2-2.1,13.4-8.5,28-10.4
			c17.3-2.2,30.9,3.3,36.6,6C822,279.2,816.2,286.2,806.9,291z"/>
	</g>
	<path class="st2" d="M885.9,638.2c7.3-0.7,14.5-1.4,21.7-2.8c5.5-1.1,11-2.6,16.3-4.4c4.2-14.3,4.6-29.7,1.1-44.2
		c-3.4-14.6-11-28-21.2-38.9c-4.8-5-10.2-9.4-16-13.2c-2.1,3-5,5.5-7.1,8.6c-2.8,4.2-4.7,8.9-6.5,13.6c-3.4,9-6.2,18.2-8.1,27.7
		c-1.9,9.5-3.5,19.2-3.5,29c0,9.2,1.5,18.1,2.9,27.2C872.2,640.5,879,638.9,885.9,638.2z"/>
	<path class="st3" d="M719.3,332.9c3-2.6,4.1-6.8,4.1-10.6c0-1-0.1-2.1-0.4-3c-0.6-1.6-1.8-2.7-3.4-3.4c-1.3-0.5-2.9-0.6-4.3-0.6
		c-2.4-0.8-5-0.6-7.4,0.4c-1.5,0.7-2.7,1.7-3.5,3c-1.8,1.8-3.2,4.1-3.8,6.4c-0.8,3.4-0.4,7.3,2.1,9.9c3.1,3.1,7.9,2.8,11.7,1.2
		c1.4-0.6,2.8-1.5,3.9-2.5c0.2-0.2,0.4-0.3,0.6-0.5C719,333.1,719.2,333,719.3,332.9z"/>
	<path class="st3" d="M743.9,320.8c-0.2-1.6-1.1-3.1-2.1-4.4c-2.1-2.5-5.4-3.9-8.5-3.9c-2.7-0.1-5.5,1-7.4,2.9
		c-0.4,0.1-0.9,0.4-1.2,0.8c-2.1,2.4-2.7,5.3-2.1,8.4c0.5,2.8,2.4,5.3,4.9,6.6c1.7,0.9,3.6,1.3,5.5,1.2c1.6,0.1,3.2-0.3,4.7-1
		c2.4-1,4.4-2.8,5.5-5.2C743.9,324.5,744.2,322.7,743.9,320.8z"/>
	<path class="st3" d="M901.3,442.3c-0.3-0.9-0.7-1.8-1.2-2.6c-0.7-1.4-1.6-2.7-3-3.7c-1.8-1.2-4-1.4-6-1c-0.2,0-0.4,0-0.7,0
		c-3.7,0-7,2.2-8.8,5.4c-1.8,3.2-2,7.2-0.1,10.4c1.8,3.2,5.2,5,8.8,5.4C897.6,457,903.2,449.2,901.3,442.3z"/>
	<g>
		<g>
			<path d="M623.6,290.6c0,0,0.8-0.6,0.3-0.3c0.2-0.1,0.4-0.3,0.5-0.4c0.5-0.4,1-0.7,1.4-1c1.1-0.8,2.2-1.5,3.4-2.2
				c2.5-1.5,5.2-2.8,8-3.7c4.8-1.7,9.5-2.7,14.2-3c2.9-0.2,5.9-0.1,8.8,0.3c2.6,0.4,5.3,1,7.8,1.8c2.3,0.7,3.9,1.4,5.9,2.3
				c1.9,0.9,3.7,1.9,5.5,3c0.7,0.4,1.4,0.9,2.1,1.4c0.3,0.2,0.6,0.4,0.9,0.6c0.1,0.1,0.2,0.1,0.3,0.2c0.7,0.5-0.4-0.3,0,0
				c0-1.5,0-3.1,0-4.6c-6.7,7.8-16,13.2-26.5,13.7c-9.9,0.5-19-3-27.2-8.6c-0.8-0.5-1.5-1-2.2-1.6c-0.1-0.1-0.3-0.2-0.4-0.3
				c0.8,0.6,0.2,0.1,0,0c-0.3-0.2-0.6-0.4-0.8-0.7c-0.6-0.5-1.2-1-1.7-1.5c-3-2.9-7.6,1.7-4.6,4.6c5.1,4.9,11.4,8.6,17.9,11.2
				c12,4.9,25.6,4.7,37.2-1.5c5-2.7,9.4-6.3,13.1-10.6c1-1.2,1.5-3.5,0-4.6c-6.9-5.4-14.9-9.2-23.5-10.7c-8.9-1.6-18-0.9-26.6,1.9
				c-6.6,2.2-12.6,5.5-18,9.8c-1.4,1.1-1.1,3.5,0,4.6C620.4,291.9,622.2,291.7,623.6,290.6z"/>
		</g>
	</g>
	<g>
		<g>
			<path d="M649.3,280.5c0.1,0.1,0.1,0.3,0.2,0.4c0.3,0.7-0.3-0.7,0-0.1c0.2,0.5,0.3,0.9,0.5,1.4c0.2,0.5,0.3,1.1,0.4,1.6
				c0.1,0.3,0.1,0.6,0.2,0.9c0.1,0.4-0.1-0.6,0-0.2c0,0.2,0,0.4,0.1,0.6c0.1,0.7,0.1,1.3,0,2c0,0.4-0.1,0.8-0.1,1.2
				c0,0.5,0.1-0.6,0-0.1c0,0.2-0.1,0.3-0.1,0.5c-0.2,1.2-0.6,2.3-1,3.4c-0.3,0.7-0.1,1.9,0.3,2.5c0.4,0.7,1.2,1.3,1.9,1.5
				c1.9,0.4,3.3-0.6,4-2.3c2.2-5.4,1.7-11.4-0.8-16.6c-0.7-1.5-3.1-2.1-4.5-1.2C648.9,277,648.5,278.8,649.3,280.5L649.3,280.5z"/>
		</g>
	</g>
	<g>
		<g>
			<path d="M805.3,288.1c-2.3,1.2-4.7,2.1-7.2,2.8c-2.1,0.6-4.7,1.2-6.7,1.4c-2.4,0.3-4.9,0.4-7.3,0.3c-1.1,0-2.1-0.1-3.2-0.2
				c-0.5,0-1.1-0.1-1.6-0.2c-0.7-0.1-0.9-0.1-1.3-0.2c-4.1-0.6-8.1-1.6-12-2.9c-1.7-0.6-3.3-1.2-4.9-1.8c-0.5-0.2,0.7,0.3,0,0
				c-0.2-0.1-0.3-0.1-0.5-0.2c-0.3-0.1-0.7-0.3-1-0.4c-0.6-0.3-1.3-0.6-1.9-0.9c-1.6-0.8-3.2-1.6-4.7-2.6c0.2,1.7,0.4,3.4,0.7,5.1
				c3.3-3.2,6.9-6.1,10.8-8.5c3.8-2.3,7.5-4,11.3-5.4c11.5-4.1,23.9-4.7,35.5-1.9c2.5,0.6,5,1.4,7.5,2.3c0.6,0.2,1.1,0.4,1.7,0.7
				c0.3,0.1,1.6,0.7,0.8,0.3c0.8,0.3,1.6,0.7,2.4,1.1c-0.4-1.5-0.8-3-1.2-4.5c-0.4,0.6-0.9,1.3-1.3,1.9c-0.2,0.3-0.5,0.6-0.7,0.9
				c-0.3,0.4,0.5-0.6-0.1,0.2c-0.1,0.2-0.3,0.3-0.4,0.5c-1.2,1.5-2.5,2.9-3.9,4.3C812.9,283.5,809.3,286,805.3,288.1
				c-1.6,0.8-2,3-1.2,4.5c0.9,1.6,2.9,2,4.5,1.2c8-4.1,14.6-10.4,19.5-17.9c0.9-1.4,0.4-3.7-1.2-4.5c-9.5-4.5-19.9-7-30.4-6.9
				c-11.9,0-23.9,3.3-34.2,9.3c-4.8,2.8-9.3,6.2-13.2,10.1c-1.5,1.5-1.1,4,0.7,5.1c4.2,2.6,8.8,4.6,13.4,6.2
				c8.6,3.1,18,4.7,27.1,3.8c6.4-0.6,12.6-2.4,18.3-5.3c1.6-0.8,2-3,1.2-4.5C808.8,287.7,806.9,287.3,805.3,288.1z"/>
		</g>
	</g>
	<g>
		<g>
			<path d="M787.7,271.8c0.7,1.1,1.3,2.3,1.8,3.6c-0.3-0.7,0,0.1,0.1,0.2c0.1,0.3,0.2,0.7,0.4,1c0.2,0.6,0.4,1.2,0.5,1.8
				s0.3,1.2,0.4,1.8c0.1,0.3,0.1,0.7,0.2,1.1c0,0.2,0.2,1,0,0.2c0.2,1.3,0.2,2.7,0.2,4c0,1.7,1.5,3.3,3.3,3.3
				c1.8-0.1,3.2-1.4,3.3-3.3c0.1-5.9-1.5-11.8-4.6-16.9c-0.9-1.5-3-2.1-4.5-1.2C787.4,268.3,786.7,270.2,787.7,271.8L787.7,271.8z"
				/>
		</g>
	</g>
	<g>
		<g>
			<path d="M710,304.8c-0.5,5.1,4.2,9.4,9,10.1c5.4,0.7,9.8-2.9,11.5-7.8c0.9-2.5,0.9-5.4,0.1-7.9c-0.5-1.6-2.3-2.8-4-2.3
				c-1.6,0.5-2.8,2.3-2.3,4c0.1,0.4,0.2,0.8,0.3,1.2c0,0.1,0,0.2,0,0.3c0,0,0-0.7-0.1-0.4c0,0.2,0,0.5,0,0.7c0,0.4,0,0.8,0,1.2
				c0,0.6,0.1-0.7,0-0.1c0,0.2-0.1,0.4-0.1,0.6c-0.1,0.4-0.2,0.8-0.3,1.1c0,0.1-0.1,0.2-0.1,0.3c-0.1,0.4,0.3-0.6,0.1-0.3
				c-0.1,0.2-0.2,0.4-0.3,0.6c-0.2,0.3-0.4,0.7-0.6,1c-0.2,0.3,0.2-0.3,0.2-0.3c-0.1,0-0.1,0.1-0.2,0.2c-0.2,0.2-0.3,0.4-0.5,0.5
				c-0.1,0.1-0.3,0.2-0.4,0.4c-0.2,0.2,0.3-0.2,0.3-0.2c-0.1,0-0.2,0.2-0.3,0.2c-0.1,0.1-0.3,0.2-0.5,0.3c-0.1,0.1-0.8,0.4-0.3,0.2
				c0.5-0.2-0.2,0.1-0.3,0.1c-0.2,0.1-0.3,0.1-0.5,0.1c-0.1,0-0.2,0-0.3,0c-0.3,0.1,0.4-0.1,0.4-0.1c-0.2,0-0.5,0-0.7,0
				c-0.2,0-0.4,0-0.5,0c-0.6,0,0.8,0.2,0.1,0c-0.4-0.1-0.8-0.2-1.2-0.4c-0.3-0.1,0.4,0.2,0.4,0.2c-0.1-0.1-0.2-0.1-0.2-0.1
				c-0.2-0.1-0.3-0.2-0.5-0.3c-0.2-0.1-0.4-0.2-0.5-0.3c-0.4-0.3,0.5,0.5,0,0c-0.3-0.3-0.6-0.7-0.9-0.9c0,0,0.4,0.6,0.2,0.3
				c-0.1-0.1-0.2-0.2-0.2-0.4c-0.1-0.2-0.2-0.4-0.3-0.5c-0.2-0.3,0.2,0.4,0.2,0.4c0-0.1-0.1-0.3-0.1-0.4c-0.1-0.2-0.1-0.4-0.1-0.6
				c0-0.1-0.1-0.4,0,0.1c0.1,0.6,0,0,0-0.1c0-0.2,0-0.5,0-0.7c0.2-1.7-1.6-3.3-3.3-3.3C711.4,301.6,710.2,302.9,710,304.8L710,304.8
				z"/>
		</g>
	</g>
	<g>
		<g>
			<path d="M718.1,314.1c0.4,2.7,0.8,5.5,0.7,8.5c0,1.6-0.1,2.3-0.6,3.9c-0.4,1.3-0.7,2-1.4,3.1c-0.3,0.6,0.3-0.3-0.2,0.2
				c-0.2,0.2-0.4,0.4-0.6,0.6c-0.2,0.2-0.4,0.4-0.6,0.6c-0.1,0.1-0.8,0.6-0.2,0.2c-0.5,0.3-0.9,0.6-1.4,0.9
				c-0.1,0.1-0.9,0.4-0.2,0.1c-0.3,0.1-0.5,0.2-0.8,0.3c-0.3,0.1-0.5,0.2-0.8,0.2c-0.2,0-1,0.1-0.2,0.1c-0.5,0-1-0.1-1.5,0
				c-0.2,0-0.2,0,0.2,0c-0.1,0-0.3,0-0.4-0.1c-0.2-0.1-0.5-0.2-0.8-0.2c-0.2-0.1-0.2-0.1,0.2,0.1c-0.1-0.1-0.2-0.1-0.4-0.2
				c-0.3-0.2-0.5-0.3-0.8-0.5c-1.4-1-3.6-0.3-4.5,1.2c-1,1.6-0.3,3.4,1.2,4.5c5.3,3.8,12.8,1.1,16.6-3.7c4.9-6.2,3.8-14.4,2.7-21.7
				c-0.3-1.7-2.5-2.7-4-2.3C718.5,310.6,717.8,312.4,718.1,314.1L718.1,314.1z"/>
		</g>
	</g>
	<g>
		<g>
			<path d="M718.8,324c0.6,7,6,12.8,13.1,13.6c6.8,0.8,13.5-4,15.4-10.5c0.5-1.7-0.6-3.6-2.3-4c-1.7-0.5-3.5,0.6-4,2.3
				c-0.1,0.3-0.2,0.6-0.3,0.9c0.2-0.6-0.2,0.3-0.2,0.4c-0.1,0.2-0.3,0.5-0.4,0.7c-0.1,0.1-0.5,0.8-0.4,0.6c0.2-0.3-0.3,0.3-0.3,0.4
				c-0.2,0.2-0.4,0.5-0.7,0.7c-0.2,0.2-0.5,0.4-0.7,0.6c0.4-0.3-0.1,0-0.2,0.1c-0.5,0.3-1,0.6-1.5,0.8c-0.8,0.4,0.5-0.1-0.4,0.1
				c-0.3,0.1-0.6,0.2-0.9,0.3c-0.3,0.1-0.5,0.1-0.8,0.2c-0.4,0.1,0.4,0-0.2,0c-0.6,0-1.2,0-1.9,0c0.5,0,0,0-0.2,0
				c-0.3-0.1-0.6-0.1-0.9-0.2c-0.2-0.1-0.5-0.2-0.7-0.2c0.6,0.2-0.3-0.1-0.3-0.2c-0.5-0.3-1-0.6-1.4-0.9c-0.2-0.1-0.2-0.1,0,0
				c-0.1-0.1-0.2-0.2-0.4-0.3c-0.2-0.2-0.4-0.3-0.6-0.5c-0.2-0.2-0.4-0.4-0.6-0.7c-0.6-0.7,0.3,0.4-0.2-0.3
				c-0.3-0.4-0.6-0.9-0.8-1.3c-0.1-0.1-0.4-0.9-0.2-0.3c-0.1-0.3-0.2-0.6-0.3-0.9c-0.1-0.3-0.1-0.6-0.2-0.9c-0.2-0.7,0,0.4-0.1-0.3
				c-0.2-1.8-1.4-3.3-3.3-3.3C720.5,320.7,718.7,322.2,718.8,324L718.8,324z"/>
		</g>
	</g>
	<g>
		<g>
			<path d="M642.1,531.4c3.1,26.9,2.8,54,2,81c-0.2,7.5-0.5,14.9-0.6,22.4c-0.1,4.2,6.4,4.2,6.5,0c0.7-26.6,2-53.3,0.6-79.9
				c-0.4-7.8-1.1-15.7-2-23.4c-0.2-1.7-1.4-3.3-3.3-3.3C643.8,528.1,641.9,529.6,642.1,531.4L642.1,531.4z"/>
		</g>
	</g>
	<g>
		<g>
			<path d="M684,647.9c6.1-26.8,8.8-54.3,8.7-81.7c0-7.6-0.3-15.3-0.7-22.9c-0.1-1.8-1.4-3.3-3.3-3.3c-1.7,0-3.4,1.5-3.3,3.3
				c1.6,26.8,0.7,53.9-3.4,80.4c-1.2,7.5-2.6,15-4.3,22.5c-0.4,1.7,0.5,3.5,2.3,4C681.7,650.7,683.6,649.7,684,647.9L684,647.9z"/>
		</g>
	</g>
	<g>
		<g>
			<path d="M776.4,543.2c0.9,28.2,2.5,56.4,4.6,84.5c0.6,7.9,1.3,15.9,2,23.8c0.2,1.8,1.4,3.3,3.3,3.3c1.6,0,3.4-1.5,3.3-3.3
				c-2.6-28.1-4.5-56.3-5.7-84.5c-0.4-8-0.7-15.9-0.9-23.9c-0.1-1.8-1.5-3.3-3.3-3.3C777.9,539.9,776.3,541.4,776.4,543.2
				L776.4,543.2z"/>
		</g>
	</g>
	<g>
		<g>
			<path d="M835.4,645.4c-0.4-17.6-0.9-35.3-1.3-52.9c-0.1-5.1-0.3-10.1-0.4-15.2c0-1.8-1.5-3.3-3.3-3.3c-1.7,0-3.3,1.5-3.3,3.3
				c0.4,17.6,0.9,35.3,1.3,52.9c0.1,5.1,0.3,10.1,0.4,15.2c0,1.8,1.5,3.3,3.3,3.3C833.9,648.6,835.4,647.1,835.4,645.4L835.4,645.4z
				"/>
		</g>
	</g>
	<g>
		<g>
			<g>
				<path d="M714.7,501.4c0,4.1,0,8.3,0,12.4c0,1.7,1.5,3.3,3.3,3.3c1.8-0.1,3.3-1.4,3.3-3.3c0-4.1,0-8.3,0-12.4
					c0-1.7-1.5-3.3-3.3-3.3C716.2,498.2,714.7,499.6,714.7,501.4L714.7,501.4z"/>
			</g>
		</g>
		<g>
			<g>
				<path d="M724.1,477.5c0.4,1,0.7,2.1,1,3.2c0.1,0.6,0.3,1.2,0.4,1.8c0,0.2,0.1,0.6,0.1,0.8c-0.1-0.4-0.1-0.5,0-0.1
					c0,0.1,0,0.3,0,0.4c0.1,1.1,0.2,2.2,0.1,3.3c0,0.6,0,1.1-0.1,1.7c0,0.3,0,0.5-0.1,0.8c0,0.2-0.2,1.3,0,0.4
					c-0.1,0.9-0.2,1.7,0.3,2.5c0.4,0.7,1.2,1.3,1.9,1.5c1.5,0.4,3.8-0.5,4-2.3c0.8-5.3,0.4-10.6-1.4-15.7c-0.6-1.6-2.2-2.8-4-2.3
					C724.8,474,723.5,475.8,724.1,477.5L724.1,477.5z"/>
			</g>
		</g>
		<g>
			<g>
				<path d="M745.6,476.7c0,4.6,0,9.3,0,13.9c0,1.7,1.5,3.3,3.3,3.3c1.8-0.1,3.3-1.4,3.3-3.3c0-4.6,0-9.3,0-13.9
					c0-1.7-1.5-3.3-3.3-3.3C747.1,473.5,745.6,474.8,745.6,476.7L745.6,476.7z"/>
			</g>
		</g>
		<g>
			<g>
				<path d="M743.9,525.5c0.6,4.6,1.3,9.2,1.9,13.9c0.1,0.7,0.9,1.6,1.5,1.9c0.7,0.4,1.7,0.6,2.5,0.3c0.8-0.3,1.5-0.7,1.9-1.5
					c0.4-0.8,0.5-1.6,0.3-2.5c-0.6-4.6-1.3-9.2-1.9-13.9c-0.1-0.7-0.9-1.6-1.5-1.9c-0.7-0.4-1.7-0.6-2.5-0.3
					c-0.8,0.3-1.5,0.7-1.9,1.5C743.8,523.9,743.8,524.6,743.9,525.5L743.9,525.5z"/>
			</g>
		</g>
		<g>
			<g>
				<path d="M728.7,560.9c-1.8,5-2.2,10.4-1.4,15.7c0.1,0.8,0.9,1.6,1.5,1.9c0.7,0.4,1.7,0.6,2.5,0.3c0.8-0.3,1.5-0.7,1.9-1.5
					c0.4-0.8,0.5-1.6,0.3-2.5c0.1,0.9,0-0.1,0-0.3c0-0.3-0.1-0.6-0.1-0.9c0-0.5-0.1-1-0.1-1.5c0-1.2,0-2.3,0.1-3.5
					c0-0.2,0.1-1.1,0-0.3c0-0.3,0.1-0.5,0.1-0.8c0.1-0.5,0.2-1.1,0.3-1.6c0.3-1.1,0.6-2.2,1-3.3c0.6-1.6-0.7-3.6-2.3-4
					C730.8,558.2,729.3,559.2,728.7,560.9L728.7,560.9z"/>
			</g>
		</g>
		<g>
			<g>
				<path d="M711.6,557.1c0.3,2.3,0.3,4.6,0.1,6.9c0,0.2,0,0.6-0.1,0.8c0.1-0.4,0.1-0.5,0-0.1c0,0.1,0,0.3-0.1,0.4
					c-0.1,0.5-0.2,1.1-0.3,1.6c-0.3,1.2-0.6,2.3-1,3.5c-0.6,1.6,0.6,3.6,2.3,4c1.8,0.4,3.4-0.6,4-2.3c1.6-4.7,2.2-9.9,1.6-14.8
					c-0.1-0.9-0.3-1.6-1-2.3c-0.6-0.6-1.5-1-2.3-1C713.2,553.9,711.3,555.3,711.6,557.1L711.6,557.1z"/>
			</g>
		</g>
		<g>
			<g>
				<path d="M748.4,591.2c0.5,4.1,1,8.3,1.5,12.4c0.1,0.9,0.3,1.6,1,2.3c0.6,0.6,1.5,1,2.3,1c0.8,0,1.7-0.3,2.3-1
					c0.5-0.6,1.1-1.5,1-2.3c-0.5-4.1-1-8.3-1.5-12.4c-0.1-0.9-0.3-1.6-1-2.3c-0.6-0.6-1.5-1-2.3-1c-0.8,0-1.7,0.3-2.3,1
					C748.9,589.5,748.3,590.4,748.4,591.2L748.4,591.2z"/>
			</g>
		</g>
		<g>
			<g>
				<path d="M722.4,608.2c0,5.7,0,11.3,0,17c0,1.7,1.5,3.3,3.3,3.3c1.8-0.1,3.3-1.4,3.3-3.3c0-5.7,0-11.3,0-17
					c0-1.7-1.5-3.3-3.3-3.3C723.9,605,722.4,606.4,722.4,608.2L722.4,608.2z"/>
			</g>
		</g>
		<g>
			<g>
				<path d="M703.8,619c0,3.1,0,6.2,0,9.3c0,1.7,1.5,3.3,3.3,3.3c1.8-0.1,3.3-1.4,3.3-3.3c0-3.1,0-6.2,0-9.3c0-1.7-1.5-3.3-3.3-3.3
					C705.3,615.9,703.8,617.2,703.8,619L703.8,619z"/>
			</g>
		</g>
		<g>
			<g>
				<path d="M744.1,631.4c0,5.7,0,11.3,0,17c0,1.7,1.5,3.3,3.3,3.3c1.8-0.1,3.3-1.4,3.3-3.3c0-5.7,0-11.3,0-17
					c0-1.7-1.5-3.3-3.3-3.3C745.6,628.2,744.1,629.6,744.1,631.4L744.1,631.4z"/>
			</g>
		</g>
		<g>
			<g>
				<path d="M703.8,453.4c0,5.7,0,11.3,0,17c0,1.7,1.5,3.3,3.3,3.3c1.8-0.1,3.3-1.4,3.3-3.3c0-5.7,0-11.3,0-17
					c0-1.7-1.5-3.3-3.3-3.3C705.3,450.3,703.8,451.6,703.8,453.4L703.8,453.4z"/>
			</g>
		</g>
		<g>
			<g>
				<path d="M741,414.8c0,3.6,0,7.2,0,10.8c0,1.7,1.5,3.3,3.3,3.3c1.8-0.1,3.3-1.4,3.3-3.3c0-3.6,0-7.2,0-10.8
					c0-1.7-1.5-3.3-3.3-3.3C742.5,411.6,741,412.9,741,414.8L741,414.8z"/>
			</g>
		</g>
		<g>
			<g>
				<path d="M765.6,448.2c0.5,1.6,1,3.1,1.5,4.7c0.3,0.8,0.8,1.5,1.5,1.9c0.4,0.2,0.8,0.4,1.2,0.4c0.4,0.1,0.9,0.1,1.3-0.1
					c0.8-0.3,1.5-0.7,1.9-1.5c0.4-0.8,0.6-1.7,0.3-2.5c-0.5-1.6-1-3.1-1.5-4.7c-0.3-0.8-0.8-1.5-1.5-1.9c-0.4-0.2-0.8-0.4-1.2-0.4
					c-0.4-0.1-0.9-0.1-1.3,0.1c-0.8,0.3-1.5,0.7-1.9,1.5C765.6,446.4,765.4,447.4,765.6,448.2L765.6,448.2z"/>
			</g>
		</g>
		<g>
			<g>
				<path d="M731.7,442.6c0,3.6,0,7.2,0,10.8c0,1.7,1.5,3.3,3.3,3.3c1.8-0.1,3.3-1.4,3.3-3.3c0-3.6,0-7.2,0-10.8
					c0-1.7-1.5-3.3-3.3-3.3C733.2,439.4,731.7,440.8,731.7,442.6L731.7,442.6z"/>
			</g>
		</g>
	</g>
	<g>
		<g>
			<path d="M787.7,350.1c0.6,0.2,1.2,0.4,1.8,0.7c-0.3-0.1-0.5-0.2-0.8-0.3c0.9,0.4,1.7,0.8,2.5,1.3c0.4,0.2,0.8,0.5,1.2,0.7
				c0.2,0.1,0.4,0.3,0.6,0.4c0.1,0.1,0.2,0.1,0.3,0.2c0.3,0.2-0.7-0.5-0.2-0.1c0.7,0.6,1.4,1.2,2,1.8c0.3,0.3,0.7,0.7,1,1.1
				c0.1,0.1,0.6,0.7,0.2,0.3c-0.3-0.4-0.1-0.1,0,0c0.1,0.1,0.2,0.2,0.3,0.3c0.5,0.7,1.1,1.3,1.9,1.5c0.8,0.2,1.8,0.1,2.5-0.3
				c1.4-0.9,2.2-3,1.2-4.5c-3.2-4.4-7.5-7.7-12.7-9.3c-1.6-0.5-3.6,0.6-4,2.3C785.1,347.9,786,349.6,787.7,350.1L787.7,350.1z"/>
		</g>
	</g>
	<g>
		<g>
			<path d="M799.3,336c4.8,2.5,10.2,3.8,15.6,3.5c1.7-0.1,3.3-1.4,3.3-3.3c-0.1-1.7-1.4-3.4-3.3-3.3c-1.2,0.1-2.3,0.1-3.5,0
				c-0.3,0-0.7-0.1-1-0.1c-0.7-0.1,0.6,0.1-0.1,0c-0.6-0.1-1.1-0.2-1.7-0.3c-1.1-0.2-2.3-0.6-3.4-1c-0.2-0.1-0.5-0.2-0.7-0.3
				c-0.2-0.1-0.3-0.1-0.5-0.2c0.4,0.2,0.4,0.2,0.1,0c-0.5-0.2-1.1-0.5-1.6-0.8c-1.5-0.8-3.6-0.4-4.5,1.2
				C797.3,333.1,797.7,335.2,799.3,336L799.3,336z"/>
		</g>
	</g>
	<g>
		<g>
			<path d="M814.9,319.7c4.6-0.5,9.3-1,13.9-1.5c0.9-0.1,1.6-0.3,2.3-1c0.6-0.6,1-1.5,1-2.3c-0.1-1.6-1.4-3.5-3.3-3.3
				c-4.6,0.5-9.3,1-13.9,1.5c-0.9,0.1-1.6,0.3-2.3,1c-0.6,0.6-1,1.5-1,2.3C811.7,318,813.1,319.8,814.9,319.7L814.9,319.7z"/>
		</g>
	</g>
	<g>
		<g>
			<path d="M633.3,344.1c4.2-4.6,8.3-9.2,12.5-13.8c1.1-1.3,1.3-3.4,0-4.6c-1.2-1.1-3.4-1.3-4.6,0c-4.2,4.6-8.3,9.2-12.5,13.8
				c-1.1,1.3-1.3,3.4,0,4.6C629.9,345.2,632.1,345.4,633.3,344.1L633.3,344.1z"/>
		</g>
	</g>
	<g>
		<g>
			<path d="M650.7,348.1c1.1-2.1,2.4-4.2,3.8-6.2c0.7-1,1.3-1.9,2-2.8c0.1-0.1,0.2-0.2,0.3-0.3c-0.1,0.1-0.4,0.5-0.1,0.1
				c0.2-0.3,0.4-0.5,0.6-0.8c0.4-0.5,0.8-1,1.2-1.4c0.6-0.7,1-1.4,1-2.3c0-0.8-0.4-1.8-1-2.3c-1.2-1.1-3.4-1.4-4.6,0
				c-3.3,3.9-6.3,8.2-8.8,12.7c-0.8,1.5-0.4,3.6,1.2,4.5C647.8,350.1,649.8,349.7,650.7,348.1L650.7,348.1z"/>
		</g>
	</g>
	<g>
		<g>
			<path d="M671.2,360.7c2-3.6,4-7.3,6-10.9c0.8-1.5,0.4-3.6-1.2-4.5c-1.5-0.8-3.6-0.4-4.5,1.2c-2,3.6-4,7.3-6,10.9
				c-0.8,1.5-0.4,3.6,1.2,4.5C668.3,362.7,670.3,362.3,671.2,360.7L671.2,360.7z"/>
		</g>
	</g>
	<g>
		<g>
			<path d="M868.5,637c-3.3-17.4-2.8-36,0.9-53.3c3.8-17.8,10.9-34.5,21-49.7c5.6-8.4,12.2-16.1,19.7-23c1.3-1.2,1.2-3.4,0-4.6
				c-1.3-1.3-3.3-1.2-4.6,0c-13.7,12.8-24.7,28.5-32.4,45.6c-7.8,17.3-12.3,36-13.1,54.9c-0.5,10.7,0.3,21.4,2.3,31.9
				c0.3,1.7,2.4,2.7,4,2.3C868,640.5,868.8,638.7,868.5,637L868.5,637z"/>
		</g>
	</g>
</g>
<g>
	<g>
		<path d="M716.1,664.8c21.7-2.1,43.3-4.5,64.9-7.2c22.7-2.9,45.4-6,68.1-9.5c23.5-3.6,47-7.6,70.4-12c22.9-4.3,45.7-8.8,68.5-13.8
			c21.7-4.7,43.3-9.7,64.9-15c2.6-0.6,5.1-1.3,7.7-1.9c4.1-1,2.3-7.3-1.7-6.3c-21.3,5.3-42.7,10.3-64.1,15.1
			c-22.5,5-45.1,9.6-67.7,13.9c-23.3,4.4-46.7,8.5-70.2,12.2c-22.6,3.6-45.3,6.9-68,9.8c-21.6,2.8-43.2,5.3-64.9,7.5
			c-2.6,0.3-5.2,0.5-7.8,0.8c-1.8,0.2-3.3,1.4-3.3,3.3C712.8,663.2,714.3,665,716.1,664.8L716.1,664.8z"/>
	</g>
</g>
</svg>
