<?xml version="1.0" encoding="utf-8"?>
<!-- Generator: Adobe Illustrator 25.2.3, SVG Export Plug-In . SVG Version: 6.00 Build 0)  -->
<svg version="1.1" id="Layer_1" xmlns="http://www.w3.org/2000/svg" xmlns:xlink="http://www.w3.org/1999/xlink" x="0px" y="0px"
	 viewBox="0 0 1600 1200" style="enable-background:new 0 0 1600 1200;" xml:space="preserve">
<style type="text/css">
	.st0{fill:#B1B1B1;}
	.st1{fill:none;stroke:#000000;stroke-width:5.2;stroke-linecap:round;stroke-linejoin:round;}
	.st2{fill:#4E4E4E;}
	.st3{fill:#FF7900;}
	.st4{fill:#FFA400;}
</style>
<g id="Bowl">
	<path id="Group_12" class="st0" d="M1356.1,840.3c-2.9-7-5.7-14-8.2-21.1c0.2-4.4-1.5-8.9-5.1-11.8c-3.4,4.3-9.6,6-15.3,6
		c-1.9,0-54.7,11.6-64.5,9.7c-8.5,3.8-80.3,2.7-106.6-4.9c-4.6-2-20.7-4.8-22.2-5.8c-1.1-0.7-2.3-1.1-3.3-1.3c0-0.1,0-0.1,0-0.2
		c-3.7-1-6.9-2.9-9.9-5.8c-0.8-0.7-1.2-1.5-1.4-2.4c-0.3-0.3-0.6-0.7-0.8-1c-4,1.1-7.5,4.3-7.3,9.1c0.2,4.9,0.1,9.7-0.3,14.5
		c-1.2,5.5-3.2,10.9-4.4,16c-0.9,3.8-1.6,7.6-1.8,11.3c-1.6,4-3.6,8-6,11.8c-2.4,3.9-0.3,10.3,4.6,11.2c1.8,0.3,11.3,7.3,12.1,7.7
		c3.8,2.2,7.6,4.1,11.8,5.5c4.7,2.2,9.5,4.3,14.5,6.1c9.9,3.6,20.1,6.6,30.4,8.1c1.8,0.3,32.3,3.6,34.5,3.9c2,0.3,35.5,3.1,47.8,1.3
		c1.1-0.2,55.4,1.1,77.8-13.4c4.7-3.1,29.9-15.3,31.7-28.6C1365.2,857.5,1359.4,848.4,1356.1,840.3z"/>
	<path id="Group_7" class="st1" d="M1112.9,799.2c-3.5,23-8.2,45.9-14,68.5c0.2-0.7,0.4-1.4,0.6-2.1"/>
	<path id="Group_6" class="st1" d="M1346.4,805.9c5.4,21,11.9,41.7,19.6,61.9"/>
	<path id="Group_5" class="st1" d="M1099.6,875c38,29.2,88.9,34.3,136.8,35c36.5,0.5,74.8-1.3,106.5-19.3
		c9.3-5.3,18.3-12.4,22.2-22.4"/>
	<path id="Group_9" class="st1" d="M1113.1,769.7c18.5-16.6,43.8-23.4,68.4-27.4c47.1-7.7,97.6-7,140.1,14.8
		c8.8,4.5,17.3,10.1,22.7,18.4c5.4,8.3,6.8,19.7,1.3,27.8c-6.3,9.2-18.7,11.4-29.8,12.9"/>
	<path id="Group_8" class="st1" d="M1112.5,771.6c-7,10.1-2.3,24.8,7,32.8s21.8,10.9,33.8,13.2c25.3,4.8,51,8.3,76.8,8.6
		c31.3,0.4,62.6-3.7,92.7-12.2"/>
	<path id="Group_11" class="st2" d="M1329.8,776.7c-5.8-9.2-70.8-27.6-108.4-25.6c-12.7,0.7-26.2-0.6-38.7,1.7
		c-12.5,2.4-24.7,6.3-36.6,10.9c-0.9,0.4-12.1,4.3-14.4,8.3c-3.9,2.7-6,8.1-5.4,12.6c2.3,17.5,31.2,21.3,41.6,23.1
		c16.8,3,33.7,5.4,50.7,6.5c16.1,1,95.7-10.2,102.9-17c0.3-0.3,2.7-1.8,3.6-2.3C1331.2,791.1,1333.7,782.9,1329.8,776.7z"/>
	<path id="Group_10" class="st1" d="M1219.9,751.2c-25.6-0.6-51.2,3.5-75.3,12c-9.4,3.3-20.1,9.4-20.4,19.4
		c-0.4,10.9,11.6,17.6,22.1,20.8c52.1,16.1,108.5,11,161.7-0.7c9.5-2.1,20.7-6.1,22.4-15.7c1.1-5.9-2.2-11.8-6.9-15.6
		c-4.7-3.7-10.5-5.6-16.2-7.3c-25.7-7.5-52.3-12.1-79-13.6"/>
	<g id="Group_13">
		<path id="Group_4" class="st1" d="M1167.3,859c-1.1-2.6-5.1-2.7-7.2-0.8c-2.1,1.9-2.7,4.9-2.9,7.7c-0.4,6.2,1,13,5.8,16.9
			s13.3,3.2,15.8-2.4"/>
		<path id="Group_3" class="st1" d="M1194.3,867.1c1.2-1.8-1.6-4-3.5-3.2c-2,0.8-2.8,3.1-3.3,5.1c-1,4-1.5,8.1-1.6,12.2
			c0,1.1,0,2.3,0.7,3.2c2,2.9,6.8-0.2,7.4-3.7c0.6-3.5-0.4-7.4,1.5-10.4c4.5,5.5,9.5,11.3,16.5,12.5c7,1.2,15.2-5.5,12.5-12"/>
		<path id="Group_2" class="st1" d="M1225.8,853.7c1.7,6.9,3.7,14.2,8.8,19.3c5.1,5,14.4,6.5,19.1,1.2"/>
		<path id="Group_1" class="st1" d="M1221.7,869.8c11.3-2.9,22.2-7.6,32.1-13.9"/>
	</g>
</g>
<g id="Tail_Top">
	<g id="Group_2_8_">
		<path id="Group_5_1_" class="st3" d="M301.6,621.7c3.7-0.4,5.9,2,7.9,4.8c3.9,5.4,8,11.1,14.4,13.7c0.6,0.2,1,0.6,1.3,1.1
			c0,0,0,0,0.1,0c1.4,0.1,2.4,1.7,2.2,3c-0.2,1.5-1.6,2.3-3,2.2c-2.9-0.1-5.5,1.4-7.8,3.1c-2.6,2-4.8,4.3-7,6.6
			c-5.2,5.2-10.3,10.4-15.5,15.7c-1.3,1.3-3,1.4-4.2,0c-3.2-3.6-6.6-7.2-10-10.7c-1.4-0.9-2.5-2-3.3-3.1c-0.1-0.2-0.3-0.4-0.4-0.6
			c-0.7-0.7-1.4-1.4-2.1-2.1c-1.3-1.3-2.6-2.5-3.9-3.8c-1.5-1.5-3.2-3-2.8-5.4c0.3-1.5,1.3-2.6,2.4-3.6c1.5-1.3,3.2-2.5,4.8-3.7
			c6-4.6,12.2-9,18.5-13.2C295.7,624.1,298.4,622.1,301.6,621.7z"/>
		<path id="Group_4_1_" class="st1" d="M294.1,661.4c-5.4-3.6-9.9-8.6-13-14.3"/>
		<path id="Group_3_5_" class="st1" d="M297,652.9c-4.1-2.9-7.8-6.6-10.7-10.7"/>
		<path id="Group_2_9_" class="st1" d="M304.5,645.3c-4.8-3-8.6-7.6-10.8-12.8"/>
		<path id="Group_1_8_" class="st1" d="M312.4,638.4c-2.5-2.9-5.4-5.4-8.6-7.6"/>
	</g>
	<g id="Group_1_9_">
		<path id="Group_6_1_" class="st3" d="M246.9,525.8c1.4,9,5.5,17,12.6,22.3c7.6,5.7,16.8,8.8,25.7,11.8c1.4,0.5,1.9,2.2,1.4,3.5
			c-0.5,1.1-1.5,1.6-2.6,1.6c-0.2,1.2-0.3,2.4-0.4,3.7c1,0.4,1.7,1.4,1.6,2.7c-0.1,1.4-0.3,2.7-0.6,4.1c-0.1,0.8-0.2,1.6-0.4,2.5
			c-0.1,0.8-0.3,1.4-0.6,2c-0.2,0.7-0.4,1.4-0.6,2.2c-0.1,0.2-0.1,0.4-0.2,0.5c0.8,0.5,1.4,1.4,1.5,2.3c0.7,0.3,1.2,0.9,1.4,1.7
			c0.2,0.8,0,1.8-0.6,2.4c0.1,0.3,0.2,0.6,0.2,0.9c0.7,0.6,1.1,1.6,1,2.5c-0.2,1.5-1.6,2.3-3,2.2c-8.6-0.5-17.2-0.5-25.9,0
			c-3.8,0.2-7.5,0.6-11.3,0.3c-3.2-0.3-9.3-1.5-9.4-5.6c-0.1-1.4,0.8-2.7,2.2-2.9c-0.1-0.2-0.2-0.5-0.3-0.8c0-0.2-0.1-0.4-0.1-0.6
			c-0.3-0.2-0.5-0.5-0.6-0.8c-0.6-1.3-0.6-2.9,0.1-4.2c0-0.1,0-0.2,0-0.3c-0.3-0.3-0.4-0.7-0.4-1.2c0-2.7,0.1-5.4,0.4-8
			c-2.1-0.6-3-3-2.7-5c0.3-2.6,1.4-5.2,2.1-7.7c0.4-1.6,0.9-3.2,1.3-4.8c-0.4-0.5-0.7-1.2-0.5-2c1.2-4.5,2.3-9,3.5-13.5
			c0.2-0.9,0.8-1.7,1.7-2.1C242.3,532.5,246,519.7,246.9,525.8z"/>
		<path id="Group_5_2_" class="st1" d="M251,589.4c-0.5-7.4,0-14.8,1.4-22"/>
		<path id="Group_4_2_" class="st1" d="M258.6,583.5c0.2-4.5,0.3-8.9,0.5-13.4"/>
		<path id="Group_3_6_" class="st1" d="M267.7,581.2c-0.4-4.9,0-9.9,1-14.8"/>
		<path id="Group_2_10_" class="st1" d="M277.3,579.2c-0.3-3.4-0.2-6.8,0.4-10.2"/>
		<path id="Group_1_10_" class="st1" d="M241,573.1c0-3.9,0.6-7.7,1.7-11.4"/>
	</g>
	<path id="Group_3_7_" class="st1" d="M284.1,666.8c-36.3-30.6-52.5-76.8-47.9-113.2c2.3-18.7,9.9-30.4,12.9-34.6
		c4.3-6.1,14.4-20.4,30.8-22.3c2.8-0.3,14.6-1.7,21.1,5.9c5.8,6.7,4.1,16.3,3.5,19.3c-2,11.3-9,14.5-14.6,24.5
		c-7.7,13.8-6,28.4-5.3,35.2c2.5,22.4,16,37.1,29.2,50.1"/>
</g>
<g>
	<path class="st3" d="M963.3,764C963.3,763.9,963.3,763.9,963.3,764c-1.1,0.1-2.2-0.1-3.4-0.8c-3.7-2.3-7-5.2-9.2-9
		c-4.1-4.2-8-8.5-11.3-13.3c-4.8-5.2-7.5-12.6-9.9-19.1c-2-5.4-4.1-10.7-7.4-15.5c-3-4.3-6.9-8-11.4-10.7c-4.2-2.5-9.3-4.1-13.8-1.3
		c-3.7,2.4-4.9,7.1-5.1,11.3c-0.2,5,0.8,10.2,1.9,15c1.2,5.4,2.8,10.7,4.9,15.9c4.1,10.1,9.9,19.6,17,27.9c0.3,0.3,0.6,0.5,0.9,0.7
		c0,0,0,0.1,0.1,0.1c0.7,0.8,1.4,1.7,2.2,2.5c0.1,0.1,0.2,0.2,0.3,0.3c0.2,0.2,0.4,0.5,0.6,0.7c1.5,2.1,3,4.1,4.7,6
		c1.1,1.2,2.1,2.2,3.4,2.7c0.4,0.3,0.8,0.5,1.2,0.7c2.7,1.5,5.3,0.6,6.7-1.3c1.1-0.3,2.1-0.9,2.8-1.7c1.1-0.4,2-1.2,2.6-2.2
		c0,0,0,0,0,0c2.3,0.3,4.8-0.6,6-2.4c1.7,0.3,3.4-0.3,4.6-1.3c2.5,0.4,4.4-1.1,5.2-3.1c0.5,0.4,1.1,0.7,1.6,1.1
		c3.1,2.1,6,0.4,7.2-2.3C965,764.7,964.1,764.5,963.3,764z M904.8,736.8c-0.1,0-0.1,0.1-0.2,0.1c-0.1-0.3-0.2-0.5-0.3-0.8
		c0.1,0,0.1,0,0.2,0c0.3,0.1,0.5,0.2,0.8,0.2C905.2,736.5,905,736.6,904.8,736.8z M913.8,750.4c-0.5,0.2-0.9,0.5-1.2,1
		c-0.7-1-1.3-2.1-2-3.1c0.3,0.2,0.6,0.4,0.9,0.5c0.1,0.2,0.3,0.3,0.4,0.5c0.7,0.8,1.6,1,2.4,0.9c0,0,0,0,0,0c0,0,0,0,0,0
		C914.2,750.3,914,750.4,913.8,750.4z"/>
	<path class="st3" d="M867.9,797.4c0.8-0.6,1.8-1.1,3.1-1.3c1.9-0.2,3.8-0.7,5.6-1.2c0.6-0.5,1.3-0.9,2.2-1.1
		c0.5-0.1,1.1-0.3,1.6-0.4c0-1.2-0.5-2.4-1.7-3.5c-4.5-4.1-9.1-8.3-13.6-12.4c-0.1-0.2-0.3-0.4-0.5-0.5
		c-9.1-8.3-13.4-20.3-17.3-31.7c-1.8-5.3-3.5-10.6-5.8-15.7c-2.2-5-5.2-9.8-10.1-12.5c-4.5-2.5-9.9-2.5-14.2,0.4
		c-4.1,2.8-6.2,7.6-7.5,12.2c-1.5,5.3-2.3,10.9-3,16.4c-0.7,5.7-1.2,11.3-1.3,17c-0.2,7.8,0,15.6,0.8,23.4
		c0.9,5.9,1.9,11.8,2.6,17.8c2,1.8,5.4,2,7.4-0.1c0.4-0.4,0.8-0.8,1.1-1.2c1.3,0.5,2.8,0.5,4.1-0.1c1,0.3,2,0.3,3,0
		c1.5,0.7,3.4,0.4,4.8-0.5c1.2,0.2,2.4,0,3.5-0.6c1.8,0.6,3.9,0.1,5.3-1.2c1.4,0.1,2.7-0.2,3.7-1c1.3,0.1,2.7-0.3,3.8-1.2
		c0.7,0.1,1.5,0,2.3-0.2c1,0.9,2.1,1.3,3.3,1.3c2.3,2.2,5.1,1.2,6.8-1c0.9-0.1,1.8-0.5,2.5-1c1,0.2,2.1,0,3-0.3
		c1.1,0.4,2.2,0.3,3.2-0.1C867.3,797.1,867.6,797.3,867.9,797.4z"/>
	<path class="st3" d="M753.6,691.3c-0.8-0.9-1.8-1.7-2.8-2.4c-3.6-4.3-9.7-5.5-15.2-3.6c-7,2.4-11.1,9.2-14,15.6
		c-6.4,14.2-9.6,29.7-11.6,45.1c-0.9,6.6-1.5,13.3-2.1,20c-1,8.4-1.9,16.8-2.9,25.2c0,0.4,0,0.8,0.1,1.1c-1.1,2.8-0.2,6.3,3.3,7.1
		c0,0,0.1,0,0.1,0c0.7,0.4,1.5,0.6,2.4,0.5c0,0,0,0,0,0c6.7,1.5,13.5,2.6,20.3,3.3c0.7,0.4,1.5,0.7,2.3,0.7c1.8,2.1,5.3,2.5,7.5,1
		c0.1,0,0.2,0.1,0.3,0.1c3.3,1.2,7.9-0.5,7.4-4.8c-0.2-2.1-0.5-4.2-0.7-6.2c0-0.6,0-1.2,0-1.8c0-0.6-0.2-1.2-0.3-1.7
		c0.2-0.4,0.3-0.9,0.2-1.4c-0.2-1.9-0.3-3.7-0.4-5.6c-0.5-11.6,0.7-23.2,2.3-34.8c1.4-5.4,2.7-10.8,4.1-16.2
		c1.8-7.2,4.1-14.4,4.8-21.8C759.4,704,758.5,696.5,753.6,691.3z"/>
	<path class="st3" d="M683.2,621.4c0.5-0.4,1.1-0.6,1.9-0.5c5.7,0.8,11.5,1.6,17.2,2.4c4.5,0.6,9.2,1.8,12.1,5.6
		c0.2,0.3,0.4,0.7,0.5,1.1c0.1-0.1,0.2-0.2,0.4-0.3c0.9-2.9,5.7-2,5.1,1.2c-1.8,11.1-3.6,22.3-5.5,33.4c-1.4,8-3.1,16.2-6.3,23.7
		c-1.2,4.1-2.7,8.2-5.3,11.5c-2.3,2.9-5.8,5-9.5,5.3c-4.2,1.4-9.1,0.6-12.9-1.9c-5.4-3.6-7.9-10.5-8.1-16.7
		c-0.2-6.8,1.7-13.3,3.2-19.8c1.5-6.6,2.7-13.3,3.4-20.1c0.8-7.5,0.8-14.9,0-22.4C678.9,621.5,681.5,620.5,683.2,621.4z"/>
	<path class="st3" d="M623.9,622.7c0.4,0,0.8,0,1.3,0.2c0.4-0.5,1-0.9,1.7-0.9c9.2,0,18.5,0,27.7,0.1c0.4,0,0.8,0.1,1.1,0.2
		c0.3-1,0.5-2,0.8-3c0.4-1.4,2.3-1.9,3.5-1.4c1.5,0.6,1.8,2.1,1.4,3.5c-2.4,8.3-4.3,16.8-5.7,25.4c-1.1,7.1-2,14.4-4.6,21.2
		c-1.4,3.8-3.5,7.3-6.3,10.2c-0.5,0.5-1.1,0.9-1.8,1c-2.3,2.2-5.9,2.8-8.9,2.1c-4.4-1.1-7.4-4.7-9-8.8c-1.7-4.4-2.2-9.3-2.4-14.1
		c-0.3-5.1-0.4-10.2-0.6-15.3l-0.6-17.3C621.5,624.2,622.4,622.9,623.9,622.7z"/>
	<path class="st3" d="M695.2,479.1c0.8,0.4,1.5,1.2,1.6,2.2c1.2-1.1,2.5-2.2,4.1-2.5c2-0.4,4.1,0.7,5.9,1.4
		c3.8,1.4,7.3,3.2,10.8,5.3c0.7,0.4,1.5,0.9,2.2,1.4c0.7-0.3,1.4-0.4,2.2-0.1c1.4,0.6,1.4,2.9,1.4,3.5c0.1,3.8-3.2,6.9-5.7,9.2
		c-2.7,2.5-3.8,2.8-6.3,5.6c-1.3,1.5-2.3,2.9-2.9,3.8c-0.1,0.3-2.3,5.8-8.1,6.9c-4.1,0.8-7.9-1-9.7-3.1c-2.4-2.8-3.4-7-3.5-10.6
		c0-0.4,0-0.7,0-1.1c-1.1-1-1.7-2.5-1.7-4c0-2.1,0.8-4.1,1.5-6.1c1.3-3.6,2.9-7.1,4.8-10.4C692.4,479.3,693.8,478.4,695.2,479.1z"/>
	<path class="st3" d="M628.2,504.8c0.3,0.7,0.5,1.3,0.7,2c-8.6,2-16.8,5.3-24.3,10.1c-0.6,0.4-1,1.1-1,1.9c-0.4,0.2-0.8,0.5-1.2,0.7
		c-0.1-0.1-0.1-0.2-0.2-0.3c-0.8-1.2-2.6-1.3-3.7-0.5c-0.6,0.5-0.9,1.1-1,1.7c-1-0.3-2.3,0.1-2.9,0.9c-1,1.2-0.5,2.7,0.5,3.7
		c3.1,3.1,4.9,7.3,6.8,11.2c1.9,3.9,3.7,8.2,7.1,11.1c3.4,2.9,8,3.3,11.8,0.7c0.7-0.5,1.3-1,2-1.5c2.5-1,4.7-2.8,6.6-4.7
		c2.4-2.4,4.4-5,6-7.9c1,0.1,2-0.4,2.5-1.5c1.9-4.4,0.7-9.7-0.2-14.2c-1-5.3-2.5-10.5-4.5-15.5C631.9,499.7,626.9,501.7,628.2,504.8
		z M606.7,526.4c-0.4-0.6-0.7-1.2-1.1-1.7c0.2,0.2,0.5,0.4,0.7,0.5C606.4,525.6,606.6,526,606.7,526.4
		C606.8,526.4,606.7,526.4,606.7,526.4z"/>
	<path class="st4" d="M876.7,478.8c-0.4,0-0.8-0.1-1.3-0.1c-0.1,0-0.1,0-0.2,0c0,0,0,0,0,0c-0.2,0-0.4-0.1-0.5-0.1
		c-0.8-0.1-1.7-0.3-2.5-0.6c-0.8-0.2-1.6-0.5-2.4-0.8c-0.2-0.1-0.3-0.2-0.5-0.2c0.7,0.2,0,0-0.2-0.1c-0.4-0.2-0.8-0.4-1.1-0.6
		c-1.2-0.6-2.9-0.4-3.6,1c-0.6,1.2-0.4,3,1,3.6c3.6,1.8,7.4,2.9,11.4,3.1c1.4,0.1,2.7-1.3,2.7-2.7
		C879.3,479.9,878.2,478.9,876.7,478.8z"/>
	<path class="st4" d="M913.2,484.5c-1.4,0.1-2.7,0-4.1-0.1c-1.2-0.2-2.5-0.5-3.7-0.9c-1.3-0.4-3,0.5-3.3,1.9
		c-0.3,1.5,0.4,2.8,1.9,3.3c2.9,0.9,6.1,1.4,9.1,1.2c1.4-0.1,2.7-1.2,2.7-2.7C915.8,485.8,914.7,484.4,913.2,484.5z"/>
	<path class="st4" d="M1000.2,463.3c-0.5-0.5-1.2-0.8-1.9-0.8c-0.7,0-1.4,0.3-1.9,0.8c-1.5,1.5-3,3-4.5,4.5
		c-0.5,0.5-0.8,1.2-0.8,1.9c0,0.7,0.3,1.4,0.8,1.9c0.5,0.5,1.2,0.8,1.9,0.8c0.7,0,1.4-0.3,1.9-0.8c1.5-1.5,3-3,4.5-4.5
		c0.5-0.5,0.8-1.2,0.8-1.9C1001,464.6,1000.7,463.8,1000.2,463.3z"/>
	<path class="st4" d="M1030.1,454.6c-1.3-0.7-2.9-0.3-3.6,1c-0.5,0.9-1.1,1.8-1.7,2.7c-0.3,0.4-0.6,0.9-0.9,1.3
		c-0.1,0.2-0.3,0.4-0.4,0.5c-0.1,0.1-0.2,0.2-0.2,0.3c-1.3,1.6-2.8,3.2-4.3,4.6c-1,1-1,2.8,0,3.8c1.1,1,2.7,1,3.8,0
		c3.3-3.1,6.1-6.7,8.4-10.5C1031.7,457.1,1031.3,455.3,1030.1,454.6z"/>
	<path class="st4" d="M1041.8,481.4c-0.2-0.6-0.6-1.3-1.2-1.6c-0.6-0.3-1.4-0.5-2-0.3c-0.2,0.1-0.4,0.2-0.6,0.3
		c-0.4,0.2-0.7,0.6-1,1c-1.3,1.7-2.6,3.4-3.9,5.1c-0.4,0.5-0.4,1.5-0.3,2c0.2,0.6,0.6,1.3,1.2,1.6c0.6,0.3,1.4,0.5,2,0.3
		c0.2-0.1,0.4-0.2,0.6-0.3c0.4-0.2,0.7-0.6,1-1c1.3-1.7,2.6-3.4,3.9-5.1C1042,482.9,1042,482,1041.8,481.4z"/>
	<path class="st4" d="M1001,501c-0.2-0.6-0.6-1.3-1.2-1.6c-1.2-0.6-2.9-0.4-3.6,1c-0.8,1.5-1.7,2.9-2.7,4.3
		c-0.7,0.9-1.5,1.8-2.3,2.6c-1,1-1.1,2.8,0,3.8c1.1,1,2.7,1,3.8,0c2.3-2.3,4.4-5.1,5.9-8C1001,502.4,1001.2,501.7,1001,501z"/>
	<path class="st4" d="M1024.5,515c-0.2-0.6-0.6-1.3-1.2-1.6c-0.6-0.3-1.4-0.5-2-0.3c-0.7,0.2-1.2,0.6-1.6,1.2c-2.2,3-4.4,6-6.6,9.1
		c-0.4,0.5-0.4,1.4-0.3,2c0.2,0.6,0.6,1.3,1.2,1.6c0.6,0.3,1.4,0.5,2,0.3c0.7-0.2,1.2-0.6,1.6-1.2c2.2-3,4.4-6,6.6-9.1
		C1024.6,516.5,1024.6,515.6,1024.5,515z"/>
	<path class="st4" d="M958.4,544.8c-0.4-1.4-1.8-2.2-3.3-1.9c-3.4,0.9-6.7,1.8-10.1,2.7c-1.3,0.4-2.3,1.9-1.9,3.3
		c0.4,1.4,1.8,2.2,3.3,1.9c3.4-0.9,6.7-1.8,10.1-2.7C957.8,547.7,958.8,546.2,958.4,544.8z"/>
	<path class="st4" d="M953.3,524.6c-0.4-1.4-1.8-2.2-3.3-1.9c-1.8,0.5-3.7,0.9-5.6,1.1c-1.1,0.1-2.1,0.2-3.2,0.3
		c-1.4,0.1-2.7,1.2-2.7,2.7c0.1,1.4,1.2,2.7,2.7,2.7c3.5-0.2,6.9-0.7,10.3-1.6C952.8,527.5,953.7,525.9,953.3,524.6z"/>
	<path class="st4" d="M961.4,502.4c-5.4,0.3-10.9,0.2-16.3-0.4c-1.4-0.1-2.7,1.3-2.7,2.7c0.1,1.6,1.2,2.5,2.7,2.7
		c5.4,0.5,10.8,0.7,16.3,0.4c1.4-0.1,2.7-1.2,2.7-2.7C964,503.6,962.9,502.3,961.4,502.4z"/>
	<path class="st4" d="M887.4,510.2c-4.3,0.4-8.6,0.9-12.9,1.3c-1.4,0.1-2.7,1.1-2.7,2.7c0.1,1.3,1.2,2.8,2.7,2.7
		c4.3-0.4,8.6-0.9,12.9-1.3c1.4-0.1,2.7-1.1,2.7-2.7C890,511.6,888.9,510.1,887.4,510.2z"/>
	<path class="st4" d="M910.1,530.8c-0.2-0.6-0.6-1.3-1.2-1.6c-0.7-0.4-1.3-0.4-2-0.3c-3.9,0.5-7.9,1.1-11.8,1.6
		c-0.6,0.1-1.3,0.7-1.6,1.2c-0.3,0.6-0.5,1.4-0.3,2c0.2,0.6,0.6,1.3,1.2,1.6c0.7,0.4,1.3,0.4,2,0.3c3.9-0.5,7.9-1.1,11.8-1.6
		c0.6-0.1,1.3-0.7,1.6-1.2C910.2,532.3,910.3,531.4,910.1,530.8z"/>
	<path class="st4" d="M924,510.6c-0.5-0.5-1.1-0.7-1.9-0.8c-2.4-0.2-4.9-0.4-7.3-0.5c-0.6,0-1.4,0.3-1.9,0.8
		c-0.5,0.5-0.8,1.2-0.8,1.9c0,0.7,0.3,1.4,0.8,1.9c0.5,0.5,1.1,0.7,1.9,0.8c2.4,0.2,4.9,0.4,7.3,0.5c0.6,0,1.4-0.3,1.9-0.8
		c0.5-0.5,0.8-1.2,0.8-1.9C924.8,511.8,924.5,511.1,924,510.6z"/>
	<path class="st4" d="M721.3,539.3c-0.5-0.5-1.2-0.8-1.9-0.8c-0.8,0-1.3,0.3-1.9,0.8c-2.9,2.3-5.8,4.6-8.7,6.9
		c-0.5,0.4-0.8,1.3-0.8,1.9c0,0.7,0.3,1.4,0.8,1.9c0.5,0.5,1.2,0.8,1.9,0.8c0.8,0,1.3-0.3,1.9-0.8c2.9-2.3,5.8-4.6,8.7-6.9
		c0.5-0.4,0.8-1.3,0.8-1.9C722.1,540.5,721.8,539.7,721.3,539.3z"/>
	<path class="st4" d="M709.1,562.3c-0.8-1.2-2.4-1.7-3.6-1c-2.6,1.6-5,3.5-7.1,5.7c-0.5,0.5-0.8,1.2-0.8,1.9c0,0.7,0.3,1.4,0.8,1.9
		c0.5,0.5,1.2,0.8,1.9,0.8c0.7,0,1.4-0.3,1.9-0.8c1.1-1.2,2.2-2.2,3.5-3.2c0.8-0.6,1.7-1.2,2.5-1.7c0.6-0.3,1-0.9,1.2-1.6
		C709.5,563.7,709.4,562.9,709.1,562.3z"/>
	<path class="st4" d="M687,560.4c-0.5-0.5-1.2-0.8-1.9-0.8c-0.8,0-1.3,0.3-1.9,0.8c-3,2.4-5.5,5.4-7.4,8.8c-0.7,1.2-0.3,2.9,1,3.6
		c1.2,0.7,2.9,0.4,3.6-1c0.6-1.2,1.4-2.3,2.2-3.4c1.3-1.6,2.7-3.1,4.3-4.3c0.5-0.4,0.8-1.3,0.8-1.9
		C687.8,561.6,687.5,560.8,687,560.4z"/>
	<path class="st4" d="M757.7,501.6c-0.4-1.3-1.9-2.4-3.3-1.9c-5,1.8-9.6,4.9-12.9,9c-0.5,0.6-0.8,1.1-0.8,1.9c0,0.7,0.3,1.4,0.8,1.9
		c1,0.9,2.8,1.2,3.8,0c0.7-0.9,1.6-1.8,2.4-2.6c0.4-0.4,0.9-0.8,1.3-1.1c0.1-0.1,0.2-0.2,0.3-0.3c0.2-0.1,0.6-0.4,0.8-0.6
		c0.9-0.7,1.9-1.3,2.9-1.8c0.5-0.3,1.1-0.6,1.6-0.8c0.1,0,0.5-0.2,0.1-0.1c-0.4,0.1,0.1-0.1,0.2-0.1c0.3-0.1,0.6-0.2,0.9-0.3
		C757.2,504.4,758.2,503.1,757.7,501.6z"/>
	<path class="st4" d="M785.1,509.9c-0.4-1.3-1.9-2.3-3.3-1.9c-3.4,1.2-6.7,2.3-10.1,3.5c-1.3,0.5-2.3,1.8-1.9,3.3
		c0.4,1.3,1.9,2.3,3.3,1.9c3.4-1.2,6.7-2.3,10.1-3.5C784.6,512.7,785.6,511.3,785.1,509.9z"/>
	<path class="st4" d="M766.1,529.6c-0.2-0.6-0.6-1.3-1.2-1.6c-0.6-0.3-1.4-0.5-2-0.3c-2.8,1.1-5.6,2.2-8.4,3.3
		c-0.7,0.3-1.2,0.6-1.6,1.2c-0.3,0.6-0.5,1.4-0.3,2c0.2,0.6,0.6,1.3,1.2,1.6c0.6,0.3,1.4,0.5,2,0.3c2.8-1.1,5.6-2.2,8.4-3.3
		c0.7-0.3,1.2-0.6,1.6-1.2C766.2,531.1,766.3,530.2,766.1,529.6z"/>
	<path class="st4" d="M775,551.9c-0.2-0.6-0.6-1.3-1.2-1.6c-0.6-0.3-1.4-0.5-2-0.3c-2,0.8-4.1,1.5-6.1,2.3c-0.7,0.2-1.2,0.6-1.6,1.2
		c-0.3,0.6-0.5,1.4-0.3,2c0.2,0.6,0.6,1.3,1.2,1.6c0.6,0.3,1.4,0.5,2,0.3c2-0.8,4.1-1.5,6.1-2.3c0.7-0.2,1.2-0.6,1.6-1.2
		C775.1,553.3,775.2,552.5,775,551.9z"/>
	<path class="st4" d="M824.1,534.2c-4.3,0.2-8.6,0.5-12.9,0.7c-1.4,0.1-2.7,1.2-2.7,2.7c0.1,1.4,1.2,2.7,2.7,2.7
		c4.3-0.2,8.6-0.5,12.9-0.7c1.4-0.1,2.7-1.2,2.7-2.7C826.6,535.5,825.5,534.1,824.1,534.2z"/>
	<path class="st4" d="M828.3,517.4c-0.2-0.6-0.6-1.3-1.2-1.6c-0.7-0.4-1.3-0.4-2-0.3c-3,0.5-6,1-9,1.5c-0.6,0.1-1.3,0.7-1.6,1.2
		c-0.3,0.6-0.5,1.4-0.3,2c0.2,0.6,0.6,1.3,1.2,1.6c0.7,0.4,1.3,0.4,2,0.3c3-0.5,6-1,9-1.5c0.6-0.1,1.3-0.7,1.6-1.2
		C828.4,518.9,828.5,518.1,828.3,517.4z"/>
	<path class="st4" d="M808.4,485.5c-4.1,0.2-8.2,0.5-12.3,0.7c-1.4,0.1-2.7,1.2-2.7,2.7c0.1,1.4,1.2,2.7,2.7,2.7
		c4.1-0.2,8.2-0.5,12.3-0.7c1.4-0.1,2.7-1.2,2.7-2.7C811,486.8,809.8,485.5,808.4,485.5z"/>
	<path class="st4" d="M851.6,492.5c-4-1.2-8.2-1.9-12.4-2c-1.4,0-2.7,1.2-2.7,2.7c0.1,1.5,1.2,2.6,2.7,2.7c1,0,1.9,0.1,2.9,0.2
		c0.5,0,1,0.1,1.5,0.2c0,0,0.1,0,0.1,0c0,0,0.1,0,0.1,0c0.2,0,0.4,0.1,0.7,0.1c1.9,0.3,3.8,0.8,5.7,1.3c1.3,0.4,3-0.5,3.3-1.9
		C853.8,494.4,853,493,851.6,492.5z"/>
	<path class="st4" d="M861.7,525.6c-0.4-0.6-0.9-1.1-1.6-1.2c-0.2,0-0.5-0.1-0.7-0.1c-0.4,0-0.8,0.1-1.1,0.3c-1,0.4-2,0.7-3,0.8
		c-1.1,0.1-2.1,0.1-3.2,0c-0.6-0.1-1.5,0.4-1.9,0.8c-0.5,0.5-0.8,1.2-0.8,1.9c0,0.7,0.3,1.4,0.8,1.9c0.2,0.1,0.4,0.3,0.5,0.4
		c0.4,0.2,0.9,0.4,1.3,0.4c3,0.4,5.9-0.2,8.6-1.4c0.6-0.3,1.1-1,1.2-1.6C862.1,527,862,526.2,861.7,525.6z"/>
	<path class="st4" d="M800.9,527.9c-0.4-1.2-1.9-2.4-3.3-1.9l-12.3,5.1c-0.7,0.3-1.2,0.6-1.6,1.2c-0.3,0.6-0.5,1.4-0.3,2
		c0.4,1.2,1.9,2.4,3.3,1.9c4.1-1.7,8.2-3.4,12.3-5.1c0.7-0.3,1.2-0.6,1.6-1.2C800.9,529.4,801.1,528.6,800.9,527.9z"/>
	<path class="st4" d="M807.2,564.7c-4.4-0.5-8.9,0.1-13,1.7c-1.3,0.5-2.3,1.8-1.9,3.3c0.4,1.2,1.9,2.4,3.3,1.9c1-0.4,2-0.7,3-1
		c0.5-0.1,1-0.2,1.5-0.3c0.2,0,0.4-0.1,0.7-0.1c0,0,0.4-0.1,0.5-0.1c0.2,0,0.5-0.1,0.5-0.1c0.2,0,0.4,0,0.7-0.1c0.5,0,1-0.1,1.6-0.1
		c1,0,2.1,0,3.1,0.2c1.4,0.2,2.7-1.3,2.7-2.7C809.8,565.7,808.7,564.8,807.2,564.7z"/>
	<path class="st4" d="M1084.7,406.4c-0.6-4.1-5.2-4.9-8.6-4.9c-1.7,0-3.3,0.3-4.8,1c-1.6,0.8-2.8,2.4-3.3,4.1
		c-0.6,1.2-1,2.5-1.1,3.7c-0.2,2.9,1.5,5.7,3.9,7.3c1.1,0.8,2.3,1.3,3.6,1.5c0.7,0.3,1.5,0.5,2.4,0.5c0.6,0,1.2-0.2,1.8-0.4
		c1.4-0.3,2.6-0.9,3.7-2C1085,414.5,1085.2,410.1,1084.7,406.4z"/>
	<path class="st4" d="M1059.9,401.7c-1.3-1.5-3.3-2.3-5.2-2.5c-2-0.1-3.9,0.8-5.3,2.1c-1.3,1.3-2.1,3-2.5,4.7c0,0,0,0.1,0,0.1
		c-0.3,0.5-0.6,0.9-0.8,1.5c-0.8,2-0.1,4.5,1.6,5.8c3.3,2.7,8.4,2.1,11.5-0.7c1.6-1.4,2.4-3.4,2.6-5.5
		C1062.1,405.3,1061.3,403.3,1059.9,401.7z"/>
	<path class="st4" d="M1141.9,380.3c-4.8-11-18.6-14.4-29.5-14.7c-6.6-0.2-13.7,0.6-19.9,3.1c-5.5,2.2-9.9,6.7-10.1,12.6
		c-0.3,0.4-0.5,0.9-0.5,1.5c0.1,4.4,0.4,9.3,3,13.1c0.8,1.1,1.7,2.1,2.8,2.9c1.6,2.9,5,4.8,8,5.9c0.8,0.3,1.5,0.5,2.3,0.6
		c0.3,0.2,0.6,0.3,0.9,0.5c9.5,4.4,20.7,4.8,30.3,0.4C1139,401.8,1146.6,391,1141.9,380.3z M1132.1,392.8c-0.3,0.4-0.6,0.7-0.8,1
		c0,0-0.1,0.1-0.1,0.1c-0.1,0-0.1,0.1-0.1,0.1c-0.4-0.1-0.9-0.2-1.5,0c-0.9,0.2-1.8,0.5-2.7,0.7c-0.4,0-0.9,0.1-1.3,0.3l-1.4,0.7
		c-0.3-1.1-1.4-1.7-2.5-1.9c-0.4,0-0.9,0-1.3,0c-1.9,0-3.8,0.1-5.7,0.3c-0.3-0.1-0.5-0.2-0.8-0.2c0-1.2-0.9-2.4-2.6-2.5
		c-2.4-0.3-4.7-0.4-7.1-0.3c0,0-0.1-0.1-0.1-0.1c-1.6-0.8-3.2-1.2-5-1.4c-0.3-0.1-0.6-0.2-0.9-0.3c-0.4-0.2-0.9-0.1-1.4,0
		c-0.2-0.3-0.4-0.6-0.7-0.9c-0.4-0.4-0.8-0.8-1.3-1.1c-0.6-1.3-1.5-2.6-2.6-3.6c-0.9-0.8-2.1-1-3.1-0.4c-0.1,0-0.3,0-0.4-0.1
		c0-0.8,0-1.5,0.2-2.3c0.1-0.8,0-1.7-0.5-2.3c0.3-0.6,0.7-1.2,1.2-1.7c0.6,0.6,1.4,0.8,2.4,0.6c4-1,8.2-1.6,12.3-2
		c3.7,0,7.5,0.4,11.2,0.9c2,0.3,4,0.6,6,0.9c1.8,0.3,3.6,0.7,5.1,1.6c2.3,1.4,4.3,3.3,6.2,5.3c0,0,0,0,0,0c-0.2,1.8-0.2,4.6,1,6.2
		C1133.3,391.3,1132.7,392.1,1132.1,392.8z"/>
	<path class="st3" d="M1114.6,334.9c-0.5-0.2-1-0.3-1.5-0.3c-4.2-0.2-7.7-1.4-11.2-3.6c-2.2-1.4-4.6-0.8-6.2,0.7
		c-1.8-0.6-3.7-1.2-5.6-1.6c-0.4-0.3-0.9-0.6-1.4-0.7c-4.5-1.4-8.9-1-13.1,0.9c-5.4-2.1-11-2.6-16.9-1.8c-2.8,0.4-6.8,0.6-10.1,1.9
		c-0.2-0.1-0.3-0.1-0.5-0.2c-2.8-1.2-4.9,0.3-5.9,2.4c-2-5.5-11.2-2.7-10,3.7c3.6,19.1,27.1,21.4,42.7,22.9
		c17.2,1.6,35.2-1.9,45.8-16.7C1123.8,338,1118.8,333.8,1114.6,334.9z"/>
	<g>
		<g>
			<path d="M1054.4,711.6c-28.9,20.3-59.7,37.9-92,52.1c-44.2,19.4-91.5,32.3-139.5,37.2c-32.5,3.3-65.5,2.2-97.8-2.3
				c-26.8-3.8-53.4-10-79-19c-17.2-6.1-34.5-13.7-49.1-24.9c-26.6-20.5-38.5-54.9-39-88c0-3.3,0-6.5,0.2-9.8c0.2-3.4-5.2-3.4-5.3,0
				c-1.6,34.2,8,71.4,33.5,95.6c11.3,10.7,25.2,18.5,39.4,24.7c24.3,10.7,50.3,17.9,76.4,22.9c37.1,7.2,75.4,9.9,113.1,6.8
				c45.5-3.7,90.5-14.7,132.9-31.5c35.3-14,69-32,100.4-53.2c2.9-2,5.8-4,8.7-6C1059.9,714.2,1057.2,709.6,1054.4,711.6
				L1054.4,711.6z"/>
		</g>
	</g>
	<g>
		<g>
			<path d="M764.1,712.6c5.8-12.1,6.3-25.8,2.6-38.6c-3.7-12.9-11.3-24.6-21.5-33.3c-11.2-9.4-24.8-15.5-38.9-19
				c-15.1-3.7-30.8-4.4-46.3-3.7c-17.4,0.8-34.7,3.3-52,4.9c-2.2,0.2-4.4,0.4-6.6,0.6c0.6,1.5,1.3,3,1.9,4.5
				c14.8-14.4,29.8-28.7,44.2-43.5c12.5-12.8,24.4-26.5,33-42.2c4.8-8.8,8.4-18.3,10.3-28.1c0.3-1.4-0.4-2.9-1.9-3.3
				c-1.3-0.4-3,0.4-3.3,1.9c-3.3,17-11.9,32.4-22.4,46c-11.2,14.4-24.5,27.1-37.5,39.8c-8.7,8.5-17.5,17.1-26.2,25.6
				c-1.6,1.5-0.5,4.7,1.9,4.5c17-1.3,33.8-3.8,50.8-5c15.2-1.1,30.6-1.2,45.7,1.6c13.7,2.5,27,7.2,38.5,15.2
				c10.4,7.3,18.7,17.4,23.4,29.2c4.5,11.5,5.6,24.3,1.5,36c-0.5,1.4-1.1,2.7-1.7,4c-0.6,1.3-0.4,2.9,1,3.6
				C761.7,714.3,763.5,713.9,764.1,712.6L764.1,712.6z"/>
		</g>
	</g>
	<g>
		<g>
			<path d="M555.8,653.7c-2.6-2-6.1-2.2-9.2-2.1c-0.8,0-1.5,0-2.3,0c-0.3,0-0.6,0-1,0c-0.2,0-1-0.1-0.9-0.1c-0.4,0-0.7-0.1-1-0.2
				c-0.1,0-0.8-0.2-0.6-0.2c-0.7-0.3-1-0.5-1.4-1c-0.8-0.9-0.9-1.9-0.7-3c0.3-1.6,1.1-3.1,2-4.5c2.2-3.4,5.4-6.3,8.1-9.3
				c12.6-13.7,25.2-27.4,37.7-41.1c12.6-13.7,25.2-27.4,37.7-41.1c12.5-13.6,24.8-27.4,37.5-40.8c2.6-2.8,5.4-5.4,8.8-7.1
				c0.1,0,0.9-0.4,0.5-0.2c-0.4,0.2,0.3-0.1,0.4-0.1c0.5-0.2,1-0.4,1.5-0.5c1.4-0.4,2.3-0.5,3.7-0.6c2.8,0,5.6,0.9,7.2,3.4
				c0.8,1.2,1.1,2.2,1.4,3.6c0,0.2,0.1,0.8,0.1,0.7c0-0.2,0.1,0.5,0.1,0.7c0,0.5,0.1,1,0,1.6c0,0.6,0,1.2-0.1,1.7
				c-0.2,1.4,1.4,2.7,2.7,2.7c1.6,0,2.5-1.2,2.7-2.7c0.7-5.5-1.2-11.5-5.9-14.8c-5.4-3.8-13.2-2.6-18.6,0.7
				c-3.6,2.2-6.5,5.2-9.4,8.3c-3.3,3.5-6.5,7.1-9.8,10.7c-6.6,7.2-13.3,14.5-19.9,21.7c-13.3,14.5-26.6,29-39.9,43.5
				c-13.3,14.4-26.5,28.9-39.8,43.3c-3.1,3.4-6.5,6.7-9.4,10.4c-2.4,3-4.7,6.7-4.7,10.7c0,4,2.7,7.2,6.5,8.3
				c3.2,0.9,6.6,0.3,9.9,0.7c1.2,0.1,2.3,0.5,3.4,1.3c1.1,0.9,3,0.2,3.6-1C557.6,655.9,557,654.6,555.8,653.7L555.8,653.7z"/>
		</g>
	</g>
	<g>
		<g>
			<path d="M791.3,460.2c-18.5,4.6-36.3,12-52.7,21.7c-16.5,9.7-31.6,21.7-44.7,35.6c-7.4,7.9-14.1,16.4-19.9,25.4
				c-1.9,2.9,2.7,5.5,4.6,2.7c10.2-15.6,22.8-29.4,37.1-41.3c14.3-11.8,30.4-21.6,47.5-29c9.5-4.1,19.4-7.5,29.5-10
				C796,464.5,794.6,459.3,791.3,460.2L791.3,460.2z"/>
		</g>
	</g>
	<g>
		<g>
			<path d="M954.1,483.2c-15.5-8.2-31.8-15-48.6-20.1c-16.7-5-33.9-8.3-51.3-9.2c-9.8-0.5-19.7-0.3-29.5,0.8
				c-1.4,0.2-2.7,1.1-2.7,2.7c0,1.3,1.2,2.8,2.7,2.7c17-1.8,34.3-1.2,51.1,1.6c16.9,2.8,33.5,7.7,49.4,14c9,3.6,17.7,7.7,26.2,12.2
				C954.4,489.4,957.1,484.8,954.1,483.2L954.1,483.2z"/>
		</g>
	</g>
	<g>
		<g>
			<path d="M728,491.4c-4.2-5.3-9.7-9.4-16-11.8c-6.5-2.4-13.7-2.6-20.5-1.7c-13.4,1.8-26.1,7.5-38.5,12.8
				c-13.4,5.7-26.6,11.8-39.6,18.2c-11.5,5.6-22.8,11.4-34.1,17.4c-7.4,3.9-14.8,7.9-22.2,12c-0.5,0.3-1.1,0.6-1.6,0.9
				c-3,1.7-0.3,6.3,2.7,4.6c6.5-3.6,13.1-7.2,19.7-10.7c10.7-5.7,21.4-11.2,32.2-16.6c12.7-6.3,25.4-12.3,38.4-18
				c6.5-2.8,13-5.6,19.5-8.1c5.7-2.2,11.5-4.4,17.4-5.8c6.2-1.5,12.9-2.4,19.2-1.3c6.6,1.1,12.6,4.2,17.2,9.1
				c0.9,0.9,1.7,1.9,2.5,2.9c0.9,1.1,2.8,0.9,3.8,0C729.1,494,728.9,492.5,728,491.4L728,491.4z"/>
		</g>
	</g>
	<g>
		<g>
			<path d="M559.1,542.7c9.1-14.6,16.9-30,23.1-46c5.2-13.4,9.7-27.4,12-41.6c1.4-8.6,2.5-18.4-0.7-26.7c-0.9-2.3-2-4.3-3.5-6.2
				c-4.5-5.7-12.1-10.7-19.6-9.8c-7.3,0.9-11.6,7.1-14.3,13.4c-3.5,8-5.9,16.5-8.5,24.8c-4,12.8-7.8,25.8-11.3,38.8
				c-1.9,7-3.6,14.2-5.8,21.1c-0.4,1.2-0.8,2.4-1.2,3.5c-0.1,0.3-0.2,0.5-0.3,0.8c-0.1,0.2-0.4,1-0.2,0.5c0.2-0.5-0.1,0.3-0.2,0.5
				c-0.1,0.2-0.2,0.5-0.3,0.7c-0.9,1.8-1.9,3.6-3.1,5.3c-0.1,0.2-0.3,0.4-0.4,0.6c-0.2,0.3,0.4-0.6,0.1-0.2
				c-0.1,0.1-0.2,0.3-0.3,0.4c-0.3,0.4-0.7,0.8-1.1,1.3c-1.8,2-3.6,3.9-5.4,6c-4.6,5.4-8.3,11.2-11.7,17.4
				c-2.1,3.8-4.2,7.6-5.7,11.6c-1.3,3.5-2.2,7.8-0.1,11.3c2.1,3.7,6.8,4.6,10.7,5.2c4.8,0.7,9.6,0.5,14.5-0.2
				c4.5-0.6,9-1.7,13.5-2.7c-1-0.4-2-0.8-3-1.2c8.5,13.6,16.9,27.1,25.4,40.7c1.8,2.9,6.4,0.2,4.6-2.7
				c-8.5-13.6-16.9-27.1-25.4-40.7c-0.6-1-1.8-1.5-3-1.2c-8.5,2-17.5,4.2-26.3,2.7c-1.7-0.3-3.6-0.6-5.1-1.4
				c-1.1-0.6-1.6-1.6-1.7-2.7c-0.3-3.7,1.8-7.5,3.4-10.6c3.1-6.1,6.4-12.1,10.4-17.6c2.9-3.9,6.5-7.3,9.5-11.1
				c2.9-3.5,4.9-7.4,6.5-11.6c2.1-5.7,3.5-11.7,5.1-17.5c2.9-10.8,5.8-21.5,9-32.1c2.4-8,4.9-15.9,7.4-23.9
				c1.2-3.8,2.4-7.6,3.9-11.3c1.2-2.9,2.6-6.1,4.5-8.4c1.7-2.1,3.6-3.5,6.2-3.9c3.5-0.5,7,1.1,9.9,3c1.4,1,2.8,2.1,4,3.4
				c0.5,0.6,1,1.1,1.5,1.7c0.5,0.6-0.3-0.4,0,0c0.5,0.7,1,1.4,1.4,2.2c0.3,0.5,0.5,1,0.7,1.4c0.2,0.5-0.2-0.5-0.1-0.1
				c0,0.1,0.1,0.3,0.2,0.4c0.1,0.3,0.2,0.6,0.3,0.9c0.5,1.4,0.8,2.9,1,4.3c0,0.2,0.1,0.3,0.1,0.5c0,0.1,0,0.2,0.1,0.4
				c0,0-0.1-0.6,0-0.3c0.1,0.5,0.1,1,0.2,1.4c0.1,1,0.1,2,0.2,3.1c0.1,2.4-0.1,4.8-0.3,7.2c-1.2,13.2-5.2,26.8-9.7,39.5
				c-5,14.4-11.4,28.3-18.8,41.6c-2.2,3.9-4.5,7.8-6.9,11.6C552.7,543,557.3,545.6,559.1,542.7L559.1,542.7z"/>
		</g>
	</g>
	<g>
		<g>
			<path d="M923,742.6c-1,0.5-2,0.9-3,1.3c0.5-0.2-0.1,0-0.2,0.1c-0.3,0.1-0.6,0.2-0.9,0.4c-0.5,0.2-0.9,0.4-1.4,0.6
				c-2,0.8-4,1.5-6,2.1c-1.3,0.4-2.3,1.9-1.9,3.3c0.4,1.3,1.8,2.3,3.3,1.9c4.4-1.4,8.6-3.1,12.8-5c1.3-0.6,1.7-2.5,1-3.6
				C925.8,742.3,924.4,742,923,742.6L923,742.6z"/>
		</g>
	</g>
	<g>
		<g>
			<path d="M921.2,730.2c-1.2,0.6-2.3,1.1-3.5,1.6c-0.2,0.1-0.3,0.1-0.5,0.2c0.2-0.1,0.2-0.1-0.1,0.1c-0.3,0.1-0.5,0.2-0.8,0.3
				c-0.6,0.3-1.3,0.5-1.9,0.7c-2.5,0.9-5,1.7-7.5,2.3c-1.4,0.3-2.3,1.9-1.9,3.3c0.5,1.4,1.8,2.2,3.3,1.9c5.4-1.3,10.7-3.3,15.7-5.8
				c1.2-0.6,1.7-2.5,1-3.6C924,729.9,922.5,729.5,921.2,730.2L921.2,730.2z"/>
		</g>
	</g>
	<g>
		<g>
			<path d="M916.7,719.6c-2.2,0.9-4.4,1.6-6.6,2.1c-1.1,0.3-2.2,0.5-3.3,0.7c-0.3,0.1-0.6,0.1-0.9,0.1c-0.1,0-1,0.1-0.4,0.1
				c-0.6,0.1-1.2,0.1-1.8,0.2c-1.4,0.1-2.7,1.1-2.7,2.7c0.1,1.3,1.2,2.8,2.7,2.7c4.9-0.5,9.8-1.6,14.4-3.4c1.3-0.5,2.3-1.8,1.9-3.3
				C919.6,720.2,918.1,719,916.7,719.6L916.7,719.6z"/>
		</g>
	</g>
	<g>
		<g>
			<path d="M910,705.3c-1.9,0.4-3.9,0.8-5.9,1.1c-0.2,0-0.5,0.1-0.7,0.1c-0.1,0-0.2,0-0.3,0c0.3,0,0.3,0,0,0
				c-0.5,0.1-0.9,0.1-1.4,0.2c-1,0.1-2,0.2-3,0.3c-1.4,0.1-2.7,1.1-2.7,2.7c0.1,1.3,1.2,2.8,2.7,2.7c4.3-0.3,8.5-0.9,12.7-1.9
				c1.4-0.3,2.3-1.9,1.9-3.3C912.8,705.7,911.5,704.9,910,705.3L910,705.3z"/>
		</g>
	</g>
	<g>
		<g>
			<path d="M847.5,774.1c-7,2.4-14.1,4.3-21.3,5.8c-1.4,0.3-2.2,2-1.9,3.3c0.4,1.5,1.9,2.1,3.3,1.9c7.2-1.4,14.3-3.4,21.3-5.8
				c1.4-0.5,2.3-1.8,1.9-3.3C850.4,774.7,848.9,773.7,847.5,774.1L847.5,774.1z"/>
		</g>
	</g>
	<g>
		<g>
			<path d="M840.4,764.1c-0.3,0.2-0.7,0.3-1,0.5c0.4-0.2-0.4,0.2-0.4,0.2c-0.6,0.2-1.2,0.5-1.8,0.7c-1.2,0.4-2.4,0.7-3.6,1
				c-0.6,0.1-1.2,0.2-1.8,0.3c0.4-0.1-0.6,0.1-0.7,0.1c-0.3,0-0.6,0.1-0.8,0.1c-1.3,0.1-2.6,0.1-3.9,0.1c-1.4-0.1-2.7,1.3-2.7,2.7
				c0.1,1.5,1.2,2.6,2.7,2.7c5.8,0.2,11.5-1,16.8-3.5c1.3-0.6,1.7-2.5,1-3.6C843.2,763.7,841.8,763.4,840.4,764.1L840.4,764.1z"/>
		</g>
	</g>
	<g>
		<g>
			<path d="M836.8,754.5c-2.2,0.8-4.5,1.4-6.8,1.8c-0.3,0.1-0.6,0.1-0.9,0.2c-0.1,0-0.2,0-0.3,0c-0.2,0-0.1,0,0.3,0
				c-0.1,0.1-1.3,0.1-1.4,0.1c-0.7,0,0-0.1,0,0c0,0-0.7-0.2-0.7-0.2c0.4,0.2,0.4,0.2,0.2,0.1c-0.1-0.1-0.2-0.1-0.3-0.2
				c0.3,0.3,0.4,0.3,0.2,0.1c-0.1-0.1-0.2-0.2-0.2-0.3c-0.9-1.1-2.8-1-3.8,0c-1,1.1-1,2.6,0,3.8c1.8,2.2,4.9,2.1,7.4,1.7
				c2.6-0.4,5.2-1.1,7.6-2c1.3-0.4,2.3-1.8,1.9-3.3C839.7,755,838.2,754,836.8,754.5L836.8,754.5z"/>
		</g>
	</g>
	<g>
		<g>
			<path d="M832.9,741.6c-3.4,0.3-6.8,0.6-10.2,0.9c-0.7,0.1-1.4,0.3-1.9,0.8c-0.5,0.5-0.8,1.2-0.8,1.9c0.1,1.3,1.2,2.8,2.7,2.7
				c3.4-0.3,6.8-0.6,10.2-0.9c0.7-0.1,1.4-0.3,1.9-0.8c0.5-0.5,0.8-1.2,0.8-1.9C835.5,743,834.4,741.5,832.9,741.6L832.9,741.6z"/>
		</g>
	</g>
	<g>
		<g>
			<path d="M828.9,727.4c-2.6,0.3-5.2,0.3-7.7,0.1c-0.6-0.1-1.4,0.3-1.9,0.8c-0.5,0.5-0.8,1.2-0.8,1.9c0,0.7,0.3,1.4,0.8,1.9
				c0.5,0.5,1.1,0.7,1.9,0.8c2.6,0.2,5.2,0.2,7.7-0.1c0.7-0.1,1.3-0.2,1.9-0.8c0.5-0.5,0.8-1.2,0.8-1.9c0-0.7-0.3-1.4-0.8-1.9
				C830.3,727.8,829.6,727.3,828.9,727.4L828.9,727.4z"/>
		</g>
	</g>
	<g>
		<g>
			<path d="M735.2,782c-6.2,0.3-12.4,0.2-18.7-0.2c-1.4-0.1-2.7,1.3-2.7,2.7c0,1.5,1.2,2.5,2.7,2.7c6.2,0.5,12.4,0.6,18.7,0.2
				c1.4-0.1,2.7-1.2,2.7-2.7C737.8,783.2,736.6,781.9,735.2,782L735.2,782z"/>
		</g>
	</g>
	<g>
		<g>
			<path d="M735.1,770.7c-6.2,0.2-12.3-0.2-18.4-1.3c-1.4-0.2-2.9,0.4-3.3,1.9c-0.4,1.3,0.4,3,1.9,3.3c6.6,1.1,13.2,1.6,19.8,1.5
				c1.4,0,2.7-1.2,2.7-2.7C737.8,771.9,736.6,770.6,735.1,770.7L735.1,770.7z"/>
		</g>
	</g>
	<g>
		<g>
			<path d="M732.4,755c-1.3,0.1-2.6,0.1-3.9,0.1c-0.6,0-1.3-0.1-1.9-0.1c-0.3,0-0.6-0.1-0.8-0.1c0.4,0.1-0.4-0.1-0.5-0.1
				c-2.5-0.4-5-1.1-7.3-2.1c-1.3-0.5-3,0.6-3.3,1.9c-0.4,1.6,0.5,2.7,1.9,3.3c5,2.1,10.5,2.9,15.9,2.5c1.4-0.1,2.7-1.1,2.7-2.7
				C735,756.3,733.9,754.8,732.4,755L732.4,755z"/>
		</g>
	</g>
	<g>
		<g>
			<path d="M733.4,740.4c-1.1,0-2.2,0-3.3-0.1c-0.2,0-0.3,0-0.5-0.1c0.3,0,0.3,0,0,0c-0.2,0-0.5-0.1-0.7-0.1
				c-0.6-0.1-1.2-0.2-1.7-0.4c-1.1-0.3-2.1-0.6-3.2-1c-0.1,0-0.2-0.1-0.3-0.1c0.3,0.1,0.3,0.1,0,0c-0.3-0.1-0.5-0.2-0.8-0.4
				c-0.5-0.3-1.1-0.5-1.6-0.8c-1.2-0.7-3-0.3-3.6,1c-0.7,1.3-0.3,2.9,1,3.6c4.5,2.6,9.6,3.9,14.7,3.8c1.4,0,2.7-1.2,2.7-2.7
				C736,741.7,734.9,740.4,733.4,740.4L733.4,740.4z"/>
		</g>
	</g>
	<g>
		<g>
			<path d="M735,725.3c-0.4,0,0.2,0,0.2,0C735.1,725.3,735,725.3,735,725.3c-0.3-0.1-0.5-0.1-0.8-0.1c-0.4-0.1-0.8-0.2-1.2-0.3
				c-0.4-0.1-0.8-0.3-1.3-0.4c-0.1,0-0.2-0.1-0.3-0.1c0.1,0,0.5,0.2,0.2,0.1c-0.2-0.1-0.4-0.2-0.6-0.3c-0.8-0.4-1.5-0.8-2.2-1.3
				c-0.2-0.1-0.3-0.2-0.5-0.4c0.1,0.1,0.4,0.4,0.2,0.1c-0.1-0.1-0.2-0.1-0.2-0.2c-0.4-0.3-0.7-0.6-1-1c-1-1-2.8-1.1-3.8,0
				c-1,1.1-1.1,2.7,0,3.8c1.5,1.5,3.2,2.7,5,3.6c2.1,1,4.2,1.6,6.5,1.9c0.6,0.1,1.5-0.4,1.9-0.8c0.5-0.5,0.8-1.2,0.8-1.9
				c0-0.7-0.3-1.4-0.8-1.9C736.3,725.6,735.7,725.4,735,725.3L735,725.3z"/>
		</g>
	</g>
	<g>
		<g>
			<path d="M742.4,709.1c-3.2-2-6.3-3.9-9.5-5.9c-1.2-0.7-3-0.3-3.6,1c-0.7,1.3-0.3,2.8,1,3.6c3.2,2,6.3,3.9,9.5,5.9
				c1.2,0.7,3,0.3,3.6-1C744,711.4,743.7,709.9,742.4,709.1L742.4,709.1z"/>
		</g>
	</g>
	<g>
		<g>
			<path d="M747.3,693.5c-0.7-0.2-1.3-0.4-2-0.7c0.2,0.1,0.4,0.2,0.6,0.3c-1.5-0.6-2.9-1.4-4.1-2.4c0.2,0.1,0.4,0.3,0.5,0.4
				c-0.6-0.5-1.1-0.9-1.7-1.4c-1-1-2.8-1.1-3.8,0c-1,1-1.1,2.7,0,3.8c2.5,2.4,5.6,4.2,8.9,5.2c1.3,0.4,3-0.5,3.3-1.9
				C749.5,695.3,748.7,693.9,747.3,693.5L747.3,693.5z"/>
		</g>
	</g>
	<g>
		<g>
			<path d="M695,693.7c-2.9-1.4-5.9-2.5-9.1-3.1c-0.7-0.1-1.4-0.1-2,0.3c-0.6,0.3-1.1,1-1.2,1.6c-0.3,1.3,0.4,3,1.9,3.3
				c2.3,0.4,4.5,1.1,6.6,2c-0.2-0.1-0.4-0.2-0.6-0.3c0.6,0.3,1.2,0.5,1.8,0.8c1.2,0.6,2.9,0.4,3.6-1
				C696.6,696.1,696.3,694.3,695,693.7L695,693.7z"/>
		</g>
	</g>
	<g>
		<g>
			<path d="M702.4,684.5c-5.9-2.6-12.1-4.2-18.5-4.8c-1.4-0.1-2.7,1.3-2.7,2.7c0.1,1.5,1.2,2.5,2.7,2.7c2.7,0.2,5.3,0.7,8,1.4
				c2.6,0.7,5.4,1.6,7.7,2.7c1.3,0.6,2.9,0.4,3.6-1C704,687,703.8,685.1,702.4,684.5L702.4,684.5z"/>
		</g>
	</g>
	<g>
		<g>
			<path d="M706.8,675.6c-7.2-3.1-14.6-5.8-22.2-8c-3.3-1-4.7,4.1-1.4,5.1c7.1,2.1,14.1,4.6,20.9,7.5c1.3,0.6,2.8,0.4,3.6-1
				C708.4,678.1,708.2,676.2,706.8,675.6L706.8,675.6z"/>
		</g>
	</g>
	<g>
		<g>
			<path d="M709.8,663.2c-3.6-2.6-7.7-4.6-11.9-5.9c-2.1-0.6-4.3-1.1-6.5-1.4c-1-0.1-2-0.2-2.9-0.3c-0.3,0-0.8-0.1-1.1-0.3
				c-0.1,0-0.4-0.3-0.3-0.1c-0.8-1.2-2.3-1.7-3.6-1c-1.2,0.7-1.8,2.5-1,3.6c1.5,2.1,3.5,2.8,6,3c2.2,0.3,4.3,0.5,6.4,1.1
				c4.4,1.2,8.5,3.2,12.2,5.8c1.2,0.8,3,0.2,3.6-1C711.6,665.5,711,664.1,709.8,663.2L709.8,663.2z"/>
		</g>
	</g>
	<g>
		<g>
			<path d="M709.6,646.8c-6.2-1.4-12.4-3-18.6-4.8c-1.4-0.4-2.9,0.5-3.3,1.9c-0.4,1.4,0.5,2.9,1.9,3.3c6.1,1.8,12.3,3.4,18.6,4.8
				c1.4,0.3,2.9-0.4,3.3-1.9C711.8,648.7,711,647.1,709.6,646.8L709.6,646.8z"/>
		</g>
	</g>
	<g>
		<g>
			<path d="M709.8,634.1c-4.1-0.9-8.3-1.9-12.4-2.8c-1.4-0.3-2.9,0.4-3.3,1.9c-0.3,1.4,0.4,2.9,1.9,3.3c4.1,0.9,8.3,1.9,12.4,2.8
				c1.4,0.3,2.9-0.4,3.3-1.9C712,636.1,711.3,634.5,709.8,634.1L709.8,634.1z"/>
		</g>
	</g>
	<g>
		<g>
			<path d="M644.8,662.2c-4.5-0.6-9-0.8-13.5-0.6c-1.4,0.1-2.7,1.2-2.7,2.7c0.1,1.4,1.2,2.7,2.7,2.7c4.5-0.2,9,0,13.5,0.6
				c1.4,0.2,2.7-1.3,2.7-2.7C647.4,663.3,646.3,662.4,644.8,662.2L644.8,662.2z"/>
		</g>
	</g>
	<g>
		<g>
			<path d="M644.8,651.9c-4.9-1.6-10.2-2.1-15.3-1.4c-1.4,0.2-2.7,1.1-2.7,2.7c0.1,1.3,1.2,2.9,2.7,2.7c2.4-0.3,4.8-0.4,7.2-0.2
				c0.3,0,0.5,0.1,0.8,0.1c0.2,0,0.4,0,0.5,0.1c-0.2,0-0.2,0,0,0c0.6,0.1,1.1,0.2,1.7,0.3c1.2,0.3,2.4,0.6,3.6,1
				c1.3,0.4,3-0.5,3.3-1.9C647,653.7,646.2,652.3,644.8,651.9L644.8,651.9z"/>
		</g>
	</g>
	<g>
		<g>
			<path d="M645.4,637.4c-5.7-1.2-11.5-1.7-17.4-1.5c-1.4,0-2.7,1.2-2.7,2.7c0.1,1.4,1.2,2.7,2.7,2.7c5.5-0.2,10.7,0.2,15.9,1.3
				c1.4,0.3,2.9-0.4,3.3-1.9C647.6,639.3,646.9,637.7,645.4,637.4L645.4,637.4z"/>
		</g>
	</g>
	<g>
		<g>
			<path d="M649.2,625.8c-7.2-1.2-14.4-2.3-21.6-3.5c-1.4-0.2-2.9,0.4-3.3,1.9c-0.3,1.3,0.4,3,1.9,3.3c7.2,1.2,14.4,2.3,21.6,3.5
				c1.4,0.2,2.9-0.4,3.3-1.9C651.4,627.8,650.6,626,649.2,625.8L649.2,625.8z"/>
		</g>
	</g>
	<g>
		<g>
			<path d="M713.1,501.9c-3.5-2.9-7.7-4.6-12.2-4.8c-1.4-0.1-2.7,1.3-2.7,2.7c0.1,1.5,1.2,2.6,2.7,2.7c0.2,0,0.5,0,0.7,0
				c0.2,0,0.5,0.1,0.7,0.1c-0.4-0.1-0.5-0.1-0.2,0c0.1,0,0.2,0,0.3,0.1c0.2,0,0.4,0.1,0.7,0.1c0.9,0.2,1.7,0.4,2.5,0.8
				c0.1,0,0.2,0.1,0.2,0.1c0.3,0.1,0.2,0.1-0.2-0.1c0,0,0.6,0.3,0.6,0.3c0.4,0.2,0.8,0.4,1.2,0.6c0.4,0.2,0.8,0.5,1.1,0.7
				c0.1,0.1,0.2,0.1,0.3,0.2c0.2,0.2,0.2,0.1-0.1-0.1c0.1,0,0.5,0.4,0.5,0.4c0.5,0.5,1.1,0.8,1.9,0.8c0.7,0,1.4-0.3,1.9-0.8
				C714,504.7,714.3,502.9,713.1,501.9L713.1,501.9z"/>
		</g>
	</g>
	<g>
		<g>
			<path d="M715.1,489.8c-4.2-1.1-8.3-2.1-12.5-3.2c-1.3-0.3-2.9,0.4-3.3,1.9c-0.3,1.4,0.4,2.9,1.9,3.3c4.2,1.1,8.3,2.1,12.5,3.2
				c1.3,0.3,2.9-0.4,3.3-1.9C717.3,491.7,716.6,490.2,715.1,489.8L715.1,489.8z"/>
		</g>
	</g>
	<g>
		<g>
			<path d="M621.5,529.2c-3.3,0.9-6.6,2.5-9.4,4.5c-0.6,0.4-1,0.9-1.2,1.6c-0.2,0.6-0.1,1.5,0.3,2c0.7,1.1,2.4,1.8,3.6,1
				c1.7-1.3,3.6-2.3,5.6-3.2c-0.2,0.1-0.4,0.2-0.6,0.3c1-0.4,2.1-0.8,3.2-1.1c1.3-0.4,2.3-1.9,1.9-3.3
				C624.4,529.7,623,528.8,621.5,529.2L621.5,529.2z"/>
		</g>
	</g>
	<g>
		<g>
			<path d="M620,518.8c-5.3,1.4-10.3,3.8-14.7,7c-1.1,0.8-1.8,2.3-1,3.6c0.7,1.1,2.4,1.8,3.6,1c2.1-1.5,4.3-2.9,6.6-4
				c0.6-0.3,1.1-0.5,1.7-0.8c-0.5,0.2,0.4-0.2,0.5-0.2c0.3-0.1,0.6-0.2,0.9-0.3c1.2-0.4,2.5-0.8,3.7-1.2c1.3-0.4,2.3-1.9,1.9-3.3
				C622.9,519.2,621.5,518.4,620,518.8L620,518.8z"/>
		</g>
	</g>
	<g>
		<g>
			<path d="M656.9,528.4c0.4,4.9-2,10-6.4,12.4c-0.5,0.3-0.7,0.4-1.4,0.5c0.6-0.1-0.6,0-0.2,0c0.3,0-0.1,0-0.1-0.1
				c0.1,0,0.3,0.2,0.4,0.2c0,0,0.1,0.1,0,0.2c0,0-0.1-0.5-0.2-0.6c0,0.1,0,0.2,0-0.1c0-0.2,0-0.4,0-0.6c0-0.4,0-0.7,0.1-1.1
				c0-0.2,0-0.3,0-0.5c0-0.1,0.1-0.6,0-0.4c0.4-2.9,1.3-5.6,2.8-8c0.7-1.2,1.5-2.3,2.3-3.3c0.2-0.3,0.5-0.5,0.7-0.8
				c0.1-0.1,0.4-0.3,0.4-0.4c0-0.2-1.8,0.4-1.8,0.1c0-0.1,0.4,0.6,0.3,0.3c0.2,0.3,0.4,0.6,0.5,0.9c-0.2-0.3,0.1,0.4,0.1,0.5
				c0,0.1,0.2,0.7,0.1,0.6c0,0.3,0,1.3,0,1.8c0-0.4-0.1,0.4-0.1,0.6c-0.1,0.3-0.2,0.7-0.2,1c-0.1,0.3-0.2,0.7-0.3,1
				c-0.1,0.1-0.1,0.3-0.2,0.4c-0.1,0.3-0.1,0.1-0.1,0.3c-0.6,1.3-1.3,2.5-2.1,3.6c0,0-0.4,0.5-0.2,0.3c0.2-0.2-0.1,0.1-0.1,0.1
				c-0.2,0.2-0.5,0.5-0.6,0.5c0,0-0.5,0.3-0.7,0.4c0,0,0.3-0.1,0,0c-0.3,0.1-0.4,0-0.1,0.1c0.3,0.1,0.5,0.1,0.7,0.4
				c0.2,0.1,0.1,0.6,0.1,0c0-0.6,0.1-1,0.3-1.8c0.3-1.5,0.8-2.9,1.4-4.2c0.7-1.4,1.6-3.1,2.6-4c0.2-0.2,0.1-0.1,0,0
				c0.2-0.1,0.4-0.3,0.6-0.4c0.3-0.1,0,0,0,0c0.4-0.3,0.1,0.1-0.1,0c-0.1-0.1-0.2-0.1-0.3-0.1c-0.9-0.5-0.3-0.5-0.4-0.4
				c0,0,0,0.3,0,0c0,0.3,0,0.5,0,0.8c0,0.9,0,1.3-0.2,2c-0.1,0.4-0.2,0.8-0.3,1.2c-0.1,0.3-0.2,0.6-0.3,0.8
				c-0.6,1.2-1.4,2.9-2.6,3.4c0.4-0.1,0.9-0.2,1.3-0.4c0.4,0,1.2,0.8,1.3,1.1c0-0.1,0-0.1,0-0.2c0,0.3,0.1,0.3,0,0.1
				c0-0.4,0.1-1,0.1-1.2c0.2-1.1,0.4-2.3,0.8-3.4c0.3-0.8,0.7-1.4,1.4-2c-0.2,0.2,0.9-0.5,0.5-0.3c0.7-0.3,0.7-0.2,1.2-0.2
				c-0.8-1.3-1.5-2.7-2.3-4c-0.6,0.9-0.8,1.9-1,3c0,0.3-0.1,0.5-0.1,0.8c-0.1,0.5,0.1-0.3,0,0.2c0,0.2-0.1,0.4-0.1,0.6
				c-0.1,0.4,0.2-0.1,0,0c-0.3,0.2,0.3-0.2,0,0c-0.2,0.1,0.3-0.1-0.1,0.1c0.5-0.2,1.1-0.1,1.5,0.3c0,0,0.4,0.5,0.3,0.5
				c0,0,0-0.5,0-0.6c0-0.2,0.1-0.4,0-0.1c0-0.2,0.1-0.4,0.1-0.6c0.1-0.5,0.3-1,0.6-1.3c-0.2,0.2,0.2-0.2,0.2-0.2
				c0.3-0.3-0.3,0.2,0.1,0c0.2-0.1-0.3,0,0.2-0.1c-0.2,0-0.4,0.1-0.1,0c-0.1,0-0.2,0-0.3,0c0.1,0,0.1,0,0.2,0.1c-0.2,0-0.2-0.3,0,0
				c0.1,0.2,0.2,0.1,0,0c0.1,0.1,0.2,0.2,0.3,0.3c-0.3-0.3-0.1,0.1-0.1-0.1c-0.1-0.4,0,0.4,0-0.1c0-0.5-0.1,0.4,0-0.1
				c0.1-0.3,0.1-0.4,0.3-0.6c1.4,1.1,2.8,2.1,4.2,3.2c2.1-3.7-0.7-8.5-4.9-8.6c-1.4,0-2.7,1.3-2.7,2.7c0,1.5,1.2,2.6,2.7,2.7
				c0.3,0,0.3,0,0.1,0c-0.2,0-0.2,0,0,0c0.2,0.1,0.1,0-0.1-0.1c0.1,0,0.1,0.1,0.2,0.1c-0.1,0.1-0.3-0.3,0.1,0.1c0.1,0.1,0.1,0.1,0,0
				c-0.1-0.1-0.1-0.1,0,0.1c0,0,0.1,0.4,0,0c0,0,0.2,0.6,0.1,0.3c0-0.2,0-0.2,0,0.1c0-0.1,0-0.2,0-0.3c0,0.1,0,0.1-0.1,0.2
				c0.1-0.3,0.1-0.3,0,0c-0.6,1.2-0.4,2.6,0.7,3.4c1,0.7,2.6,0.8,3.5-0.2c2.3-2.6,1.1-6.4-2-7.8c-3.5-1.6-6.8,0.9-8.1,4.2
				c-0.5,1.4-0.9,3.3-0.5,4.8c0.5,2,2.4,3.2,4.4,2.9c1.6-0.2,3.1-1.4,3.8-2.8c0.4-0.9,0.6-1.8,0.7-2.8c0.1-0.6,0.1-1.2,0.4-1.6
				c1.1-1.8-0.3-3.9-2.3-4c-2.8-0.2-5.3,1.5-6.9,3.7c-1.6,2.3-2,5.1-2.4,7.8c-0.4,2.9,1.6,6.1,4.9,5c1.2-0.4,2.1-1.5,2.9-2.4
				c0.9-1.1,1.6-2.2,2.1-3.4c1.1-2.5,1.6-5.3,1.2-8c-0.5-3.4-3.9-4.7-6.8-3.2c-2.2,1.1-3.7,3.5-4.8,5.6c-1.2,2.4-2.1,4.9-2.6,7.6
				c-0.2,1.5-0.4,3,0.3,4.4c0.7,1.4,2.1,2.4,3.7,2.5c2.6,0.1,4.8-1.8,6.3-3.8c2.7-3.7,4.8-8.8,3.7-13.4c-0.6-2.5-2.6-5.6-5.5-5.5
				c-2.6,0.1-4.7,3.4-6,5.3c-2.8,4.1-4.5,9.3-4.6,14.3c0,1.7,0.4,3.3,1.5,4.6c1,1.1,2.6,1.6,4,1.5c2.9-0.1,5.4-1.9,7.4-3.8
				c3.8-3.7,5.9-9.1,5.5-14.3c-0.1-1.4-1.1-2.7-2.7-2.7C658.2,525.8,656.8,527,656.9,528.4L656.9,528.4z"/>
		</g>
	</g>
	<g>
		<g>
			<path d="M672.4,529.1c0.2-0.4,0.3-0.7,0.5-1.1c0.2-0.3,0.3-0.6,0.3-1c0.1-0.4,0.1-0.7,0-1.1c-0.1-0.3-0.2-0.6-0.5-0.9
				c-0.2-0.3-0.4-0.5-0.7-0.7c-0.2-0.1-0.4-0.2-0.6-0.3c-0.5-0.1-0.9-0.1-1.4,0c-0.2,0.1-0.4,0.2-0.6,0.3c-0.4,0.2-0.7,0.6-1,1
				c-0.2,0.4-0.3,0.7-0.5,1.1c-0.2,0.3-0.3,0.6-0.3,1c-0.1,0.4-0.1,0.7,0,1.1c0.1,0.3,0.2,0.6,0.5,0.9c0.2,0.3,0.4,0.5,0.7,0.7
				c0.2,0.1,0.4,0.2,0.6,0.3c0.5,0.1,0.9,0.1,1.4,0c0.2-0.1,0.4-0.2,0.6-0.3C671.8,529.9,672.1,529.5,672.4,529.1L672.4,529.1z"/>
		</g>
	</g>
	<g>
		<g>
			<path d="M670,516.9c3.4,0,3.4-5.3,0-5.3C666.6,511.6,666.6,516.9,670,516.9L670,516.9z"/>
		</g>
	</g>
	<g>
		<g>
			<path d="M563.2,441.9c1.5,4.5,0.8,9.7-2.4,13.4c1.4,0.2,2.8,0.4,4.2,0.5c-1.7-3.3-2.4-7.1-1.9-10.8c0.2-1.7,0.7-3.4,1.4-4.9
				c0.1-0.2,0.5-0.7,0.5-0.9c0,0,0.1-0.1,0.1-0.1c-0.3,0.3-0.7,0.3-1.1,0c-1.3-0.3-0.7-0.3-0.6,0.1c0.2,1,0.9,2,1.2,2.9
				c1.3,3.4,2.1,7,0.2,10.1c-0.2,0.4-0.7,0.9-1.1,1.2c-0.5,0.4-1.1,0.3-0.2,0.6c0.8,0.2,0.5,0.3,0.5,0.2c0-0.2-0.3-0.4-0.3-0.6
				c-0.7-1.6-1-3.5-1-5.3c0-1.7,0.4-3.6,1.3-5c0.3-0.5,0.2-0.3,0.1-0.2c0.4-0.8,0.2-0.1,0.1-0.1c-0.1,0-0.5,0-0.6,0
				c-0.2,0,0.1-0.1,0.2,0.1c0.1,0.3,0.7,1.1,0.9,1.6c1.4,3.3,1.5,7.8-0.2,10.7c-0.1,0.3-0.3,0.5-0.4,0.6c0,0-0.4,0.5-0.3,0.3
				c0.1-0.2-0.4,0.2-0.2,0.1c0.1,0,0.3-0.1,0,0c-0.4,0.1,0.2,0.1-0.1,0c-0.3-0.1,0,0,0,0c-0.5-0.6,0.3,0.4-0.3-0.2
				c-0.2-0.2-0.6-0.9-0.7-1.2c-0.3-0.8-0.4-1.6-0.5-2.4c-0.2-2.1-0.2-4.2,0.1-6.2c0.3-1.8,0.8-4.4,1.6-5.7c0.6-0.9,0.1-0.3,0.1-0.2
				c0.2-0.4,0.4,0-0.5,0c0,0-0.8-0.3-0.8-0.4c0,0,0.3,0.5,0.3,0.6c0.4,0.9,0.6,1.9,0.7,2.8c0.1,1.1,0.1,2.3-0.1,3.4
				c-0.1,0.5-0.2,0.8-0.3,1.1c-0.2,0.3-0.4,0.6-0.5,0.7c0.1-0.1-0.2,0.2-0.2,0.1c-0.2-0.3,1.5,0.3,0.9,0c0.3,0.2,0.3,0.6,0.2,0.1
				c0.1,0.3-0.1-0.3-0.1-0.4c-0.3-0.9-0.4-1.7-0.4-2.5c0,0,0-0.6,0.1-0.6c0.1,0-0.9,0.3-0.2,0.2c-0.2,0.1-0.4,0.1-0.6,0.1
				c-0.2,0,0.1,0.1,0,0c-0.2-0.1-0.1-0.1,0.1,0c-0.1-0.1-0.1-0.1-0.2-0.2c0,0,0,0,0.1,0.1c0.1,0.1,0.1,0.1-0.1-0.2
				c-0.1-0.3-0.1-0.6-0.2-0.8c0.3-0.8,0.4-1,0.1-0.6c-0.8,1.2-0.2,3,1,3.6c1.3,0.8,2.8,0.2,3.6-1c2-2.9-1-6.1-4-6.3
				c-3.6-0.2-5.2,3.6-4.9,6.7c0.4,3.2,1.8,7.6,6,6.7c3.3-0.7,4.7-4.2,5.1-7.2c0.2-1.7,0.1-3.3-0.2-5c-0.3-1.7-0.9-3.7-2.1-5
				c-1.3-1.4-3.3-1.9-5-1c-1.5,0.8-2.5,2.3-3.1,3.9c-1.2,3.1-1.8,6.6-1.9,9.9c-0.1,3,0.1,6.5,1.7,9.2c1.7,2.8,5.1,4.2,8,2.4
				c2.7-1.7,3.9-5.2,4.3-8.2c0.5-3.2,0.2-6.5-1-9.6c-1.3-3.2-4.1-6.8-7.9-4.9c-3,1.5-4,5.5-4.3,8.5c-0.4,3.2,0.2,6.5,1.6,9.5
				c0.7,1.5,2,2.8,3.8,2.9c1.8,0.1,3.5-1,4.8-2.2c2.2-2.1,3.2-5.1,3.4-8.1c0.3-3.7-1.2-7.4-2.6-10.7c-0.8-1.9-1.8-4.1-4.3-4
				c-2.1,0-3.7,1.8-4.5,3.6c-3.1,6.7-2.9,14.4,0.6,20.9c0.8,1.4,3.1,1.8,4.2,0.5c4.3-5.1,5.9-12.2,3.7-18.6
				c-0.5-1.4-1.8-2.3-3.3-1.9C563.8,439,562.8,440.5,563.2,441.9L563.2,441.9z"/>
		</g>
	</g>
	<g>
		<g>
			<path d="M582.9,441.9c-0.1-0.3-0.2-0.5-0.3-0.8c-0.1-0.3-0.2-0.6-0.5-0.9c-0.2-0.3-0.4-0.5-0.7-0.7c-0.3-0.2-0.6-0.3-1-0.3
				c-0.4-0.1-0.7-0.1-1.1,0c-0.2,0.1-0.4,0.2-0.6,0.3c-0.4,0.2-0.7,0.6-1,1c-0.1,0.2-0.2,0.4-0.3,0.6c-0.1,0.5-0.1,0.9,0,1.4
				c0.1,0.3,0.2,0.5,0.3,0.8c0.1,0.3,0.2,0.6,0.5,0.9c0.2,0.3,0.4,0.5,0.7,0.7c0.3,0.2,0.6,0.3,1,0.3c0.4,0.1,0.7,0.1,1.1,0
				c0.2-0.1,0.4-0.2,0.6-0.3c0.4-0.2,0.7-0.6,1-1c0.1-0.2,0.2-0.4,0.3-0.6C583,442.8,583,442.3,582.9,441.9L582.9,441.9z"/>
		</g>
	</g>
	<g>
		<g>
			<path d="M575.7,431.7c3.4,0,3.4-5.3,0-5.3C572.3,426.3,572.3,431.7,575.7,431.7L575.7,431.7z"/>
		</g>
	</g>
	<g>
		<g>
			<path d="M566.3,426.4c3.4,0,3.4-5.3,0-5.3C562.9,421.1,562.9,426.4,566.3,426.4L566.3,426.4z"/>
		</g>
	</g>
	<g>
		<g>
			<path d="M927.6,473.5c13.4-6.4,25.5-15.6,34.6-27.4c4.9-6.4,8.1-13.7,10.8-21.3c4.4-12.3,8.3-24.7,12.7-37
				c4.9-13.8,10.1-27.5,15.6-41.2c6.6-16.5,13.7-32.7,21.3-48.7c0.6-1.3,1.3-2.6,1.9-3.9c-1.6-0.2-3.2-0.4-4.9-0.6
				c4.5,12.3,6.3,25.3,5.3,38.3c-0.1,1.8,1.8,2.9,3.4,2.6c23.9-5.3,48.9-5.5,72.8-0.7c6.8,1.4,13.6,3.2,20.2,5.4
				c1,0.3,2.5-0.2,3-1.2c5.8-11.8,10.2-24.1,13.2-36.9c-1.7,0-3.4,0-5.1,0c4.2,14.8,7.9,29.8,10.8,44.8c3.6,18.1,6.2,36.3,7.9,54.6
				c1.9,20.9,2.6,42,2.1,63c-0.5,19.2-2,38.4-4.5,57.5c-2.1,15.9-4.9,31.7-8.5,47.3c-0.4,1.7-0.8,3.4-1.2,5.1
				c-0.8,3.3,4.3,4.7,5.1,1.4c3.6-15.4,6.6-31,8.8-46.7c2.7-18.9,4.5-37.9,5.2-57c0.8-21,0.4-42.1-1.2-63.1c-1.5-19-4-38-7.4-56.8
				c-2.9-15.7-6.5-31.2-10.7-46.6c-0.5-1.7-0.9-3.3-1.4-5c-0.7-2.4-4.5-2.6-5.1,0c-2.9,12.3-7.1,24.2-12.7,35.6c1-0.4,2-0.8,3-1.2
				c-24-7.9-49.7-10.7-74.8-8.1c-7.1,0.7-14.2,1.9-21.1,3.4c1.1,0.9,2.2,1.7,3.4,2.6c1.1-13.4-0.8-27-5.5-39.7
				c-0.7-1.9-3.8-2.9-4.9-0.6c-7.3,15-14.1,30.2-20.4,45.6c-6.2,15.1-12,30.3-17.6,45.6c-4.3,11.9-8.3,23.9-12.4,35.9
				c-0.8,2.4-1.7,4.9-2.6,7.3c-0.4,1-0.8,2-1.2,3.1c-0.2,0.5-0.4,0.9-0.6,1.4c0,0.1-0.3,0.8-0.2,0.5c0.1-0.3-0.2,0.4-0.2,0.5
				c-1.4,3.3-3.1,6.5-5.2,9.5c-0.5,0.8-1.1,1.5-1.6,2.2c-0.1,0.1-0.5,0.6-0.3,0.4c0.2-0.2-0.2,0.2-0.3,0.3c-0.5,0.6-0.9,1.2-1.4,1.7
				c-2.8,3.4-5.9,6.5-9.2,9.4c-5.5,4.8-11.6,8.9-18.1,12.3c-1.3,0.7-2.6,1.3-3.9,2c-1.3,0.6-1.6,2.5-1,3.6
				C924.8,473.9,926.3,474.1,927.6,473.5L927.6,473.5z"/>
		</g>
	</g>
	<g>
		<g>
			<path d="M1139.2,573.2c-1.3,5.7-2.8,11.4-4.3,17c-2.7,10.1-5.6,20.2-8.9,30.2c-3.8,11.7-7.9,23.4-12.8,34.7
				c-4.7,10.9-9.9,21.6-16.5,31.4c-4,6-8.6,11.6-14.1,16.2c-1.8,1.6-3.6,2.9-5.8,4.2c-0.9,0.5-1.8,1.1-2.7,1.5
				c-0.4,0.2-0.8,0.4-1.2,0.6c-0.2,0.1-0.4,0.2-0.6,0.3c-0.1,0-0.7,0.3-0.4,0.2c0.3-0.1-0.2,0.1-0.3,0.1c-0.2,0.1-0.3,0.1-0.5,0.2
				c-0.4,0.1-0.7,0.3-1.1,0.4c-0.6,0.2-1.2,0.4-1.8,0.5c-1.3,0.3-2.7,0.6-4.1,0.7c-6.6,0.6-13.4-1.1-19.8-2.8
				c-10.8-2.9-20.9-7.2-30.8-12.2c-13.6-6.8-26.9-14.2-40.2-21.5c-6.9-3.8-14.1-7.4-20.6-12c-3.5-2.5-6.9-5.2-10-8.1
				c-2.9-2.7-5.5-5.8-8.3-8.6c-7.4-7.5-15.8-13.9-23.7-20.9c-5.7-5.1-11.4-10.3-16.9-15.6c-2.8-2.7-5.5-5.4-8.2-8.2
				c-2-2.1-3.9-4.4-4.7-7.2c-0.7-2.7,0.4-5.2,2.3-7c1.2-1.1,2.4-2.1,4.1-2.8c6-2.5,13.2,0.3,18.6,3c7.6,3.7,14.7,8.4,21.5,13.4
				c5,3.7,9.8,7.7,14.3,11.9c7.7,7.3,14.8,15.3,23.3,21.8c4.2,3.3,8.6,6.4,13.3,9c3.7,2.1,7.6,3.9,11.5,5.6
				c5.9,2.7,11.9,5.2,17.9,7.7c7.5,3.2,15,6.4,22.6,9.4c4.9,1.9,9.9,3.7,15,4.9c3.1,0.7,6.5,1.3,9.7,0.9c2.5-0.3,5-1.1,7.1-2.5
				c2.6-1.8,4.4-4.4,5.9-7.2c2.9-5.6,4.9-11.7,6.9-17.7c2.1-6.2,4-12.5,5.7-18.8c2.1-7.6,3.9-15.2,5.5-22.9c0.3-1.4-0.4-2.9-1.9-3.3
				c-1.3-0.4-3,0.4-3.3,1.9c-3,14.4-6.8,28.5-11.4,42.5c-1.9,5.8-3.8,11.5-6.7,16.8c-0.4,0.7-0.8,1.4-1.3,2.1
				c-0.1,0.1-0.2,0.3-0.3,0.4c-0.1,0.1,0.4-0.4,0,0c-0.2,0.3-0.4,0.5-0.7,0.8c-0.2,0.2-0.4,0.4-0.6,0.6c-0.1,0.1-0.2,0.2-0.3,0.3
				c-0.3,0.3,0.5-0.4,0.1-0.1c-0.4,0.3-0.9,0.6-1.3,0.8c-0.2,0.1-0.4,0.2-0.7,0.3c-0.1,0.1-0.2,0.1-0.3,0.2c-0.5,0.3,0.1,0,0.1,0
				c-0.5,0.2-1,0.4-1.6,0.5c-0.3,0.1-0.5,0.1-0.8,0.2c-0.1,0-0.3,0-0.4,0.1c-0.6,0.1,0.6,0,0,0c-0.6,0-1.2,0.1-1.9,0.1
				c-0.7,0-1.5-0.1-2.2-0.1c-0.1,0-0.8-0.1-0.4,0c0.4,0.1-0.2,0-0.3,0c-0.4-0.1-0.9-0.1-1.3-0.2c-2.1-0.4-4.1-1-6.1-1.6
				c-6.1-1.9-12.1-4.3-18-6.7c-7.4-3-14.8-6.2-22.1-9.4c-8.4-3.6-17.1-7.1-24.9-12c-5.2-3.4-10.2-7.1-14.9-11.3
				c-3.9-3.4-7.5-7.2-11.1-10.8c-9.4-9.5-19.5-17.9-30.8-25.1c-6.9-4.4-14.3-8.9-22.3-10.8c-5.6-1.3-11.5-1-16.3,2.4
				c-2.4,1.7-4.5,3.9-5.7,6.6c-1.5,3.5-1,7.2,0.6,10.6c1.4,2.8,3.6,5.2,5.8,7.5c2.9,2.9,5.8,5.8,8.7,8.6c9,8.6,18.3,16.9,27.8,24.9
				c4.3,3.6,8.5,7.3,12.4,11.4c2.8,2.9,5.4,5.9,8.4,8.6c5.6,5.1,11.8,9.4,18.4,13.1c12,6.8,24.2,13.3,36.4,19.8
				c11.3,6.1,22.6,12.1,34.6,16.7c5.1,2,10.2,3.6,15.5,4.9c7.2,1.8,14.7,3.3,22.1,2.1c7.3-1.2,13.8-5.3,19.3-10
				c10-8.6,17.3-20.1,23.3-31.7c5.9-11.3,10.8-23.1,15.2-35c4.1-11.2,7.8-22.6,11.1-34c2.4-8.2,4.6-16.5,6.7-24.9
				c0.5-2.1,1-4.1,1.5-6.2C1145.1,571.3,1139.9,569.9,1139.2,573.2L1139.2,573.2z"/>
		</g>
	</g>
	<g>
		<g>
			<path d="M787.6,456.6c-0.7,9,7.1,16.5,15.4,18.2c9.4,1.8,18.1-3.8,22.3-12c2.4-4.7,3.5-10.1,3-15.3c-0.1-1.4-1.1-2.7-2.7-2.7
				c-1.3,0-2.8,1.2-2.7,2.7c0.7,7.1-1.9,15-7.7,19.4c-2.9,2.2-6.2,3.3-9.7,3c-3-0.2-6.3-1.7-8.6-3.8c-2.9-2.6-4.4-5.7-4.1-9.4
				c0.1-1.4-1.3-2.7-2.7-2.7C788.7,454,787.7,455.2,787.6,456.6L787.6,456.6z"/>
		</g>
	</g>
	<g>
		<g>
			<path d="M793.6,451.3c4.5-10.6,14.7-18.4,25.8-20.8c11.1-2.4,22.7,1.4,30.9,9.1c4.7,4.4,8.1,9.8,9.9,16c0.9,3.3,6.1,1.9,5.1-1.4
				c-3.6-12.7-13.6-22.9-25.9-27.4c-12.4-4.6-26.5-2.1-37.1,5.6c-6.2,4.5-10.9,10.4-13.9,17.4c-0.6,1.3,0.6,2.9,1.9,3.3
				C791.8,453.6,793,452.7,793.6,451.3L793.6,451.3z"/>
		</g>
	</g>
	<g>
		<g>
			<path d="M1005.8,375.7c12.6-7.6,29-7.8,41.8-0.5c3,1.7,5.7-2.9,2.7-4.6c-14.4-8.2-32.9-8-47.2,0.5
				C1000.2,372.8,1002.8,377.4,1005.8,375.7L1005.8,375.7z"/>
		</g>
	</g>
	<g>
		<g>
			<path d="M1088,380.4c8.8-1.6,18-2.6,26.8-0.6c7,1.6,13.9,5,18.3,10.8c0.9,1.1,2.3,1.7,3.6,1c1.1-0.7,1.8-2.5,1-3.6
				c-5.2-6.8-12.8-11.2-21.1-13.1c-9.9-2.3-20.1-1.3-30,0.6c-1.4,0.3-2.2,2-1.9,3.3C1085.2,380,1086.6,380.6,1088,380.4L1088,380.4z
				"/>
		</g>
	</g>
	<g>
		<g>
			<path d="M1108.3,376.3c-3.3,3.7-5.2,8.6-5.1,13.6c0,1.4,1.2,2.7,2.7,2.7c1.4-0.1,2.7-1.2,2.7-2.7c0-0.5,0-1,0-1.6
				c0-0.3,0-0.5,0.1-0.8c0-0.3,0-0.3,0,0.1c0-0.1,0-0.3,0.1-0.4c0.2-1,0.4-2,0.8-2.9c0.1-0.2,0.1-0.5,0.2-0.6
				c-0.4,0.6,0.1-0.1,0.1-0.3c0.2-0.5,0.5-0.9,0.7-1.4c0.3-0.4,0.5-0.9,0.8-1.3c0.1-0.1,0.2-0.2,0.2-0.3c-0.2,0.3-0.2,0.3-0.1,0.1
				c0.2-0.2,0.3-0.4,0.5-0.6c0.9-1,1.1-2.7,0-3.8C1111.1,375.3,1109.3,375.2,1108.3,376.3L1108.3,376.3z"/>
		</g>
	</g>
	<g>
		<g>
			<path d="M1025.8,366.9c-2.6,2.8-4.1,6.5-4,10.4c0,1.4,1.2,2.7,2.7,2.7c1.4-0.1,2.7-1.2,2.7-2.7c0-0.6,0-1.3,0.1-1.9
				c0,0.2-0.1,0.5-0.1,0.7c0.1-1,0.4-2.1,0.8-3c-0.1,0.2-0.2,0.4-0.3,0.6c0.4-0.9,0.9-1.8,1.5-2.6c-0.1,0.2-0.3,0.4-0.4,0.5
				c0.3-0.3,0.5-0.6,0.8-0.9c1-1,1.1-2.8,0-3.8C1028.6,366,1026.9,365.8,1025.8,366.9L1025.8,366.9z"/>
		</g>
	</g>
	<g>
		<g>
			<path d="M1005.7,374.9c12.6,6.8,27.3,9,41.4,6.3c1.4-0.3,2.2-2,1.9-3.3c-0.4-1.5-1.9-2.1-3.3-1.9c-12.6,2.4-26,0.3-37.3-5.8
				C1005.3,368.7,1002.6,373.3,1005.7,374.9L1005.7,374.9z"/>
		</g>
	</g>
	<g>
		<g>
			<path d="M1087.3,378.9c0.5,4.1,2.8,7.3,6.2,9.5c3.7,2.4,8.1,3.3,12.3,4.3c8.8,2.2,17.9,4.1,27,2.9c1.4-0.2,2.7-1.1,2.7-2.7
				c0-1.3-1.2-2.8-2.7-2.7c-8,1-16-0.4-23.8-2.3c-3.6-0.9-7.5-1.5-10.8-3.1c-2.4-1.1-5.3-3.2-5.7-6.1c-0.2-1.4-1.1-2.7-2.7-2.7
				C1088.7,376.3,1087.1,377.5,1087.3,378.9L1087.3,378.9z"/>
		</g>
	</g>
	<g>
		<g>
			<path d="M1058.2,389.2c-0.3,1.5-0.5,3.2-0.3,4.7c0.3,2.1,1.1,3.9,2.9,5.2c1.5,1.1,3.7,1.3,5.5,0.8c1.8-0.4,3.3-1.5,4.5-2.9
				c1.4-1.7,2.2-3.6,3-5.6c0.2-0.6,0-1.5-0.3-2c-0.3-0.6-1-1.1-1.6-1.2c-0.7-0.2-1.4-0.1-2,0.3c-0.6,0.4-0.9,0.9-1.2,1.6
				c-0.1,0.2-0.2,0.4-0.2,0.6c0,0.1-0.1,0.2-0.1,0.3c0.2-0.4,0.2-0.4,0.1-0.2c-0.2,0.4-0.4,0.8-0.6,1.2c-0.2,0.3-0.4,0.7-0.6,1
				c-0.1,0.2-0.2,0.4-0.4,0.5c-0.2,0.2-0.1,0.2,0.1-0.1c-0.1,0.1-0.1,0.2-0.2,0.3c-0.1,0.1-0.3,0.3-0.4,0.4
				c-0.1,0.1-0.3,0.2-0.4,0.4c0.3-0.3,0.4-0.3,0.2-0.1c-0.1,0.1-0.2,0.1-0.2,0.2c-0.2,0.1-0.3,0.2-0.5,0.3c-0.3,0.1-0.2,0.1,0.2-0.1
				c-0.1,0-0.2,0.1-0.3,0.1c-0.1,0-0.3,0.1-0.4,0.1c-0.1,0-0.2,0-0.3,0.1c-0.3,0-0.2,0,0.3,0c-0.2,0-0.4,0-0.6,0c-0.1,0-0.2,0-0.3,0
				c0.5,0.1,0.6,0.1,0.3,0c-0.1,0-0.4-0.2-0.5-0.2c0.2,0,0.6,0.3,0.1,0c-0.1,0-0.2-0.1-0.2-0.2c0.3,0.3,0.4,0.3,0.2,0.1
				c-0.1-0.1-0.3-0.3-0.4-0.4c0.3,0.4,0.3,0.4,0.2,0.2c0-0.1-0.1-0.2-0.1-0.2c0-0.1-0.1-0.2-0.1-0.2c0.1,0.1,0.1,0.3,0.2,0.4
				c-0.1-0.1-0.1-0.4-0.2-0.5c0-0.2-0.1-0.4-0.1-0.5c0.1,0.5,0.1,0.6,0,0.3c0-0.1,0-0.2,0-0.3c0-0.3,0-0.7,0-1
				c0-0.4,0.1-0.8,0.1-1.2c-0.1,0.9,0,0.2,0,0c0-0.2,0.1-0.4,0.1-0.6c0.1-0.7,0.1-1.4-0.3-2c-0.3-0.6-1-1.1-1.6-1.2
				C1060.1,387,1058.4,387.7,1058.2,389.2L1058.2,389.2z"/>
		</g>
	</g>
	<g>
		<g>
			<path d="M1064.1,398.3c-1.3,6.5-1.5,14.1,2.1,20c1.5,2.4,3.6,4.2,6.2,5.2c3.4,1.2,7.5,0.8,10.4-1.5c3.3-2.5,4.9-6.6,4.8-10.7
				c-0.1-3.4-5.4-3.4-5.3,0c0.1,2.4-0.6,4.5-2.2,6.1c-1.6,1.5-4.1,1.6-6.1,0.9c-0.1,0-0.7-0.3-0.3-0.1c-0.2-0.1-0.4-0.2-0.6-0.3
				c-0.2-0.1-0.4-0.2-0.6-0.4c-0.4-0.2,0.2,0.2-0.2-0.2c-0.4-0.3-0.7-0.7-1-1.1c0.3,0.3-0.1-0.1-0.2-0.2c-0.2-0.2-0.3-0.5-0.5-0.7
				c-0.7-1.1-0.8-1.5-1.2-2.7c-0.3-1-0.6-2.5-0.7-3.3c-0.4-3.2-0.2-6.5,0.5-9.7c0.3-1.4-0.4-2.9-1.9-3.3
				C1066.1,396.1,1064.4,396.9,1064.1,398.3L1064.1,398.3z"/>
		</g>
	</g>
	<g>
		<g>
			<path d="M1063.8,408c-1.8,1.9-3.6,3.8-5.7,5.1c-1.3,0.8-1.8,1-3.2,1.4c-0.3,0.1-0.5,0.1-0.8,0.2c0.5-0.1-0.5,0-0.6,0
				c-0.3,0-0.5,0-0.8,0c-0.2,0-0.4,0-0.5,0c0.2,0,0.2,0,0.1,0c-0.3-0.1-0.6-0.1-0.9-0.2c0,0-0.8-0.3-0.3-0.1
				c-0.3-0.1-0.5-0.3-0.8-0.4c-0.1-0.1-0.2-0.1-0.3-0.2c0.2,0.2,0.2,0.1-0.1-0.1c-0.2-0.1-0.3-0.3-0.5-0.5c-0.2-0.2-0.2-0.2,0,0
				c-0.1-0.1-0.2-0.2-0.2-0.4c-0.1-0.2-0.2-0.4-0.3-0.6c0.3,0.6,0-0.1-0.1-0.3c-0.1-0.2-0.1-0.5-0.2-0.7c0.1,0.6,0,0,0-0.2
				c0-0.3,0-0.6,0-0.9c0,0.5,0,0.2,0-0.1c0.1-0.2,0.1-0.4,0.2-0.6c-0.2,0.6,0.1-0.1,0.2-0.3c0.3-0.5-0.3,0.2,0.1-0.1
				c0.1-0.1,0.2-0.2,0.3-0.3c-0.3,0.2-0.3,0.2,0,0c1.2-0.8,1.7-2.3,1-3.6c-0.7-1.2-2.4-1.7-3.6-1c-4.3,2.8-4.4,9.1-1.1,12.7
				c3.8,4.1,10.5,3.5,14.9,0.9c2.7-1.6,4.9-3.8,7-6c1-1,1-2.7,0-3.8C1066.5,407,1064.7,407,1063.8,408L1063.8,408z"/>
		</g>
	</g>
	<g>
		<g>
			<path d="M835.3,796.4c4.7-0.1,9.3-1,13.7-2.8c0.7-0.3,1.2-0.6,1.6-1.2c0.3-0.6,0.5-1.4,0.3-2c-0.4-1.2-1.9-2.4-3.3-1.9
				c-2,0.8-4.1,1.5-6.2,1.9c-0.5,0.1-1,0.2-1.5,0.3c-0.3,0.1-0.6,0.1-0.9,0.1c0.5-0.1-0.1,0-0.2,0c-1.1,0.1-2.2,0.2-3.3,0.2
				c-1.4,0-2.7,1.2-2.7,2.7C832.7,795.2,833.8,796.5,835.3,796.4L835.3,796.4z"/>
		</g>
	</g>
	<g>
		<g>
			<path d="M927.3,763.2c3.5-1.2,6.6-3,9.5-5.3c0.5-0.4,0.8-1.3,0.8-1.9c0-0.7-0.3-1.4-0.8-1.9c-0.5-0.5-1.2-0.8-1.9-0.8
				c-0.7,0-1.3,0.3-1.9,0.8c-0.2,0.2-0.5,0.4-0.7,0.5c0.2-0.1,0.4-0.3,0.5-0.4c-1.8,1.4-3.7,2.5-5.7,3.4c0.2-0.1,0.4-0.2,0.6-0.3
				c-0.6,0.3-1.3,0.5-1.9,0.7c-1.3,0.4-2.3,1.8-1.9,3.3C924.5,762.7,925.9,763.7,927.3,763.2L927.3,763.2z"/>
		</g>
	</g>
	<g>
		<g>
			<path d="M935.2,770c2.6-0.4,5.2-0.9,7.8-1.3c0.6-0.1,1.3-0.7,1.6-1.2c0.3-0.6,0.5-1.4,0.3-2c-0.2-0.6-0.6-1.3-1.2-1.6
				c-0.7-0.4-1.3-0.4-2-0.3c-2.6,0.4-5.2,0.9-7.8,1.3c-0.6,0.1-1.3,0.7-1.6,1.2c-0.3,0.6-0.5,1.4-0.3,2c0.2,0.6,0.6,1.3,1.2,1.6
				C933.8,770.1,934.5,770.2,935.2,770L935.2,770z"/>
		</g>
	</g>
	<g>
		<g>
			<path d="M1039,331.5c-0.2,2.2-0.1,4.4,0.4,6.6c0.1,0.6,0.7,1.3,1.2,1.6c0.6,0.3,1.4,0.5,2,0.3c0.6-0.2,1.3-0.6,1.6-1.2
				c0.3-0.7,0.4-1.3,0.3-2c-0.1-0.4-0.2-0.8-0.2-1.2c0,0.2,0.1,0.5,0.1,0.7c-0.2-1.5-0.2-3.1,0-4.7c0.1-0.6-0.3-1.4-0.8-1.9
				c-0.5-0.5-1.2-0.8-1.9-0.8c-0.7,0-1.4,0.3-1.9,0.8c-0.1,0.2-0.3,0.4-0.4,0.5C1039.2,330.5,1039,331,1039,331.5L1039,331.5z"/>
		</g>
	</g>
	<g>
		<g>
			<path d="M1053.1,330c0,0.2,0.1,0.4,0.1,0.6C1053.2,330.4,1053.2,330.2,1053.1,330c0.3,2,0.3,4,0.1,6c-0.1,0.6,0.3,1.4,0.8,1.9
				c0.5,0.5,1.2,0.8,1.9,0.8c0.7,0,1.4-0.3,1.9-0.8c0.5-0.5,0.7-1.1,0.8-1.9c0.2-2.5,0.1-5-0.3-7.5c-0.1-0.6-0.7-1.3-1.2-1.6
				c-0.6-0.3-1.4-0.5-2-0.3c-0.6,0.2-1.3,0.6-1.6,1.2C1053,328.7,1053,329.3,1053.1,330L1053.1,330z"/>
		</g>
	</g>
	<g>
		<g>
			<path d="M1070.9,329.4c0.2,1.8,0.2,3.6-0.1,5.4c0-0.2,0.1-0.5,0.1-0.7c-0.2,1.1-0.4,2.3-0.7,3.4c-0.4,1.3,0.5,3,1.9,3.3
				c1.4,0.3,2.9-0.4,3.3-1.9c0.9-3.1,1.2-6.3,0.9-9.5c-0.1-0.7-0.2-1.3-0.8-1.9c-0.5-0.5-1.2-0.8-1.9-0.8
				C1072.3,326.8,1070.8,327.9,1070.9,329.4L1070.9,329.4z"/>
		</g>
	</g>
	<g>
		<g>
			<path d="M1084.4,330.6c0.1,1.4,0,2.7-0.2,4.1c0-0.2,0.1-0.5,0.1-0.7c-0.2,1.2-0.4,2.3-0.8,3.4c-0.4,1.3,0.5,3,1.9,3.3
				c1.4,0.3,2.8-0.4,3.3-1.9c0.8-2.6,1.2-5.5,1-8.2c-0.1-1.4-1.2-2.7-2.7-2.7C1085.7,328,1084.3,329.1,1084.4,330.6L1084.4,330.6z"
				/>
		</g>
	</g>
	<g>
		<g>
			<path d="M1098.2,332.7c0.2,1.7,0.2,3.5,0,5.2c0-0.2,0.1-0.5,0.1-0.7c-0.2,1.1-0.4,2.2-0.7,3.2c-0.4,1.3,0.5,3,1.9,3.3
				c1.4,0.3,2.8-0.4,3.3-1.9c0.9-2.9,1.2-6.1,0.8-9.1c-0.1-0.7-0.2-1.3-0.8-1.9c-0.5-0.5-1.2-0.8-1.9-0.8c-0.7,0-1.4,0.3-1.9,0.8
				C1098.6,331.3,1098.2,332,1098.2,332.7L1098.2,332.7z"/>
		</g>
	</g>
	<g>
		<g>
			<path d="M1111.3,335.5c0,0.2,0.1,0.4,0.1,0.6c0-0.2-0.1-0.5-0.1-0.7c0.2,1.5,0.2,2.9,0,4.4c0-0.2,0.1-0.5,0.1-0.7
				c-0.1,1-0.4,2-0.7,3c-0.4,1.3,0.5,3,1.9,3.3c1.5,0.3,2.8-0.4,3.3-1.9c1-3.1,1.1-6.3,0.6-9.4c-0.1-0.6-0.7-1.3-1.2-1.6
				c-0.6-0.3-1.4-0.5-2-0.3c-0.6,0.2-1.3,0.6-1.6,1.2C1111.2,334.2,1111.2,334.8,1111.3,335.5L1111.3,335.5z"/>
		</g>
	</g>
</g>
<g id="Group_1_1_">
	<path id="Group_3_1_" class="st3" d="M373.4,670.2c2.1,0.2,4.3,0.8,6.4,1.3c2.3,0.5,4.6,0.9,6.9,1.4l15.4,3.2
		c1.3,0.3,2.2,1.4,2.3,2.5c1.2-0.2,2.4,0.4,2.9,1.6c0.5,1.3-0.1,3-1.5,3.5c-2,0.6-3.1,2.4-3.8,4.4c-0.8,2.3-1.1,4.8-1.7,7.2
		c-0.6,2.6-1.4,5.2-2.3,7.7c-0.9,2.5-1.8,5.2-4.5,6.3c-0.9,0.3-1.9,0.2-2.7-0.4c-1.3,0.6-2.8,0.7-4.2,0.4c-1.2-0.3-2.8-1.4-4-1.3
		c-0.9,0.1-1.6-0.2-2.1-0.8c-3-1-5.9-2.4-8.8-3.4c-5.3-1.9-11.1-2-16.6-2.2c-1,0-1.9-1.1-2.2-2c-0.3-1.1,0.1-2,0.9-2.8
		c5.5-5.1,9.7-11.6,12.2-18.6c0.6-1.7,0.9-3.5,1.8-5.1C368.9,671,370.9,670,373.4,670.2z"/>
	<path id="Group_2_1_" class="st1" d="M386.5,698.9c-6.1-0.8-12.1-2.8-17.6-5.7"/>
	<path id="Group_1_2_" class="st1" d="M389.2,686.4c-5.6-0.2-11.1-1.4-16.2-3.7"/>
</g>
<path class="st3" d="M527,704.6c1.4,2,3.9,2.5,6.1,3.2c0.1,0,0.2,0.1,0.4,0.1c0.6-0.3,1.3-0.4,2.1-0.1c3.7,1.4,7.4,2.9,11.2,4.3
	c1.7,0.7,3.9,1.1,4.7,3c0.7,1.7-0.1,3.8-0.6,5.4c-0.4,1.5-1.1,2.9-1.4,4.4c-0.3,1.4-0.4,2.8-0.4,4.2c0,3.1-0.4,6.1-2.9,8.2
	c-1.1,0.9-2.9,0.6-3.7-0.5c-0.6-0.8-0.7-1.7-0.4-2.5c-0.2,0-0.5-0.1-0.7-0.1c-0.5,0.2-1.1,0.2-1.7-0.2c-3.7-2-7.5-3.6-11.5-4.7
	c-2-0.6-4-1-6-1.3c-2-0.4-4-0.8-5.4-2.3c-1.5-1.5-2.2-3.8-1.4-5.8c0.7-1.8,2.5-2.7,3.7-4.1c2.1-2.6,3.4-5.9,3.4-9.2
	C522.2,704.1,525.4,702.3,527,704.6z"/>
<path class="st3" d="M454.5,686.9c1.7,0.2,3.4,0.4,5,0.6c3.4,0.4,6.7,0.9,10,1.4c3.2,0.5,6.4,0.9,9.5,1.7c3.1,0.8,4.9,3.7,3.6,6.8
	c-0.9,2.2-2.8,3.7-3.3,6c-0.7,3-0.6,6.1-1.8,9c-1.3,3.1-4,6-7.5,6.1c-1.1,0-2.2-0.5-2.7-1.4c-3.7-0.9-7.5-1.4-11.3-1.6
	c-0.1,0-0.2,0-0.4,0c-0.9,0.7-2.2,0.6-3,0c-3.7,0.2-7.5,0.6-11-0.3c-1.9-0.5-3.1-2.6-1.7-4.3c3.5-4.4,6.1-9.3,7.6-14.7
	c0.4-1.2,0.6-2.5,0.9-3.8c0.3-1.6,0.4-3.2,1.6-4.4C451.2,686.7,452.9,686.7,454.5,686.9z"/>
<g>
	<g>
		<path d="M428.3,684.5c10.3,2.1,20.6,4,30.9,5.6c6.1,1,12.3,1.8,18.4,2.9c15.6,2.8,30.9,7.2,45.7,12.7
			c12.8,4.7,25.3,10.3,37.4,16.7c3,1.6,5.7-3,2.7-4.6c-19.9-10.6-40.9-19-62.7-25c-6.4-1.8-12.9-3.3-19.4-4.6
			c-5.9-1.1-11.9-2-17.9-2.9c-11.3-1.8-22.5-3.8-33.7-6.1c-1.4-0.3-2.9,0.4-3.3,1.9C426.1,682.5,426.9,684.2,428.3,684.5
			L428.3,684.5z"/>
	</g>
</g>
<g>
	<g>
		<path d="M600.4,758.3c-22-10.9-44.8-20.3-68.2-27.7c-18.3-5.8-37-10.4-55.9-13.5c-8.6-1.4-17.3-2.5-26-3.4
			c-1.4-0.1-2.7,1.3-2.7,2.7c0,1.5,1.2,2.5,2.7,2.7c3.6,0.3,7.3,0.7,10.9,1.2c3.7,0.5,7.1,0.9,11,1.6c8.7,1.4,17.3,3,25.8,5
			c20.7,4.7,41,11.1,60.8,18.9c13.2,5.2,26.2,11,38.9,17.2c1.3,0.6,2.9,0.3,3.6-1C602,760.8,601.7,759,600.4,758.3L600.4,758.3z"/>
	</g>
</g>
<g>
	<g>
		<path d="M469.6,707.3c-5.3-0.9-10.6-0.9-15.9-0.1c-1.4,0.2-2.3,2-1.9,3.3c0.5,1.5,1.8,2.1,3.3,1.9c0,0,0.8-0.1,0.4-0.1
			c0.3,0,0.6-0.1,1-0.1c0.6-0.1,1.1-0.1,1.7-0.1c1.2-0.1,2.3-0.1,3.5-0.1c1.1,0,2.2,0.1,3.4,0.2c0.6,0,1.1,0.1,1.7,0.2
			c0.3,0,0.4,0,0.1,0c0.1,0,0.3,0,0.4,0.1c0.3,0,0.6,0.1,1,0.2c1.4,0.2,2.9-0.4,3.3-1.9C471.7,709.3,471,707.5,469.6,707.3
			L469.6,707.3z"/>
	</g>
</g>
<g>
	<g>
		<path d="M470.5,695.9c-4.3-1-8.8-1.6-13.2-1.8c-1.4,0-2.7,1.3-2.7,2.7c0.1,1.5,1.2,2.6,2.7,2.7c1.1,0,2.1,0.1,3.2,0.2
			c0.5,0,1,0.1,1.5,0.1c0.2,0,0.5,0.1,0.7,0.1c0.2,0,0.3,0,0.5,0.1c0.3,0,0.3,0,0.1,0c-0.3,0,0.4,0.1,0.5,0.1c0.3,0,0.6,0.1,0.8,0.1
			c0.5,0.1,1,0.2,1.4,0.2c1,0.2,2.1,0.4,3.1,0.7c1.4,0.3,2.9-0.4,3.3-1.9C472.6,697.8,471.9,696.3,470.5,695.9L470.5,695.9z"/>
	</g>
</g>
<g>
	<g>
		<path d="M542.1,724.3c-3.8-1.9-7.8-3.6-11.8-5.1c-1.3-0.5-3,0.5-3.3,1.9c-0.3,1.5,0.5,2.7,1.9,3.3c0.9,0.4,1.9,0.7,2.8,1.1
			c0.5,0.2,0.9,0.4,1.4,0.6c0.3,0.1,0.3,0.1,0,0c0.1,0,0.2,0.1,0.3,0.1c0.2,0.1,0.5,0.2,0.7,0.3c1.8,0.8,3.6,1.6,5.4,2.5
			c1.2,0.6,2.9,0.4,3.6-1C543.7,726.8,543.5,725,542.1,724.3L542.1,724.3z"/>
	</g>
</g>
<g>
	<g>
		<path d="M541.8,714.3c-4.5-1.4-9-2.8-13.4-4.1c-1.3-0.4-3,0.5-3.3,1.9c-0.3,1.4,0.4,2.8,1.9,3.3c4.5,1.4,9,2.8,13.4,4.1
			c1.3,0.4,3-0.5,3.3-1.9C544,716.1,543.2,714.7,541.8,714.3L541.8,714.3z"/>
	</g>
</g>
<g id="Group_2_2_">
	<path id="Group_2_3_" class="st1" d="M314.3,631.8c4.8,4.9,18.5,18.1,41.2,29.7c7.3,3.7,14.1,9.5,66.4,19.6
		c6.8,1.3,27.8,5.1,38.6,6.5"/>
	<path id="Group_1_3_" class="st1" d="M450.5,716.5c-22.1-3.8-50.9-2.1-89.3-13.3c-29.6-8.7-53.5-15.7-77-36.1"/>
</g>
</svg>
