<?xml version="1.0" encoding="utf-8"?>
<!-- Generator: Adobe Illustrator 24.0.1, SVG Export Plug-In . SVG Version: 6.00 Build 0)  -->
<svg version="1.1" id="Layer_1" xmlns="http://www.w3.org/2000/svg" xmlns:xlink="http://www.w3.org/1999/xlink" x="0px" y="0px"
	 viewBox="0 0 1600 1200" style="enable-background:new 0 0 1600 1200;" xml:space="preserve">
<style type="text/css">
	.st0{fill:#FF7900;}
	.st1{fill:none;stroke:#000000;stroke-width:4.01;stroke-linecap:round;stroke-linejoin:round;}
	.st2{fill:#4E4E4E;stroke:#000000;stroke-width:4.01;stroke-linecap:round;stroke-linejoin:round;}
	.st3{fill:#FFFFFF;}
	.st4{fill:#FFFFFF;stroke:#000000;stroke-width:4.01;stroke-linecap:round;stroke-linejoin:round;}
	.st5{fill:#FFA400;}
	.st6{fill:#B1B1B1;stroke:#000000;stroke-width:4.01;stroke-linecap:round;stroke-linejoin:round;}
</style>
<g id="Leg_back_1_">
	<g id="Group_2_1_">
		<path id="Group_3_2_" class="st0" d="M1061.4,669.3c-4.9,0.1-9.8,0.6-14.6,1.5c-4.1,0.8-9,1.5-12,4.7c-0.8,0.8-0.8,1.8-0.4,2.7
			c-1.9,2.4-3.4,5-4.6,7.8c-1,2.3-1.8,4.8-1.7,7.2c-0.2,0.7-0.4,1.4-0.6,2.2c-0.9,4,1,7.8,4.6,9.7c3.6,1.9,7.9,2,11.8,2.2
			c3.9,0.2,8.1,0.3,11.8,1.9c1.2,0.5,2.6,0.4,3.3-0.9c0.5-0.8,0.4-2-0.2-2.8c0.5-0.3,0.9-0.8,1.1-1.4c0.3-1.2-0.4-2.7-1.7-3
			c-0.1,0-0.2,0-0.3-0.1c0.1-0.4,0.1-0.9,0.2-1.3c0.6-0.3,1.1-0.8,1.2-1.5c1.4-8,1.5-16,0.2-24c0.6,0,1.3-0.1,1.9-0.1
			C1064.5,674.1,1064.5,669.2,1061.4,669.3z"/>
	</g>
</g>
<g id="Spiral_lines_4">
	<path id="Group_9_3_" class="st1" d="M481.9,416.3c-0.5-14,3-27.9,6.8-41.4c8.6-30.7,20.2-62.9,45.6-82.1c4.5-3.4,10.5-6.4,15.6-4"
		/>
	<path id="Group_8_3_" class="st1" d="M585.9,282c7.2,5.1,11.7,13.8,11.7,22.6"/>
	<path id="Group_7_3_" class="st1" d="M504.4,467.4c11.9,14,33.6,17.7,50.5,10.3c16.9-7.4,28.5-24.4,31.5-42.6
		c0,0,2.1-21.7,2.1-40.7"/>
	<path id="Group_6_3_" class="st1" d="M489.9,293.8c9.1-15,18.6-29.9,30.8-42.3c12.3-12.5,27.7-22.4,45-25.4c3-0.5,6.2-0.8,9,0.2
		c2.2,0.8,4,2.2,5.7,3.7c13.3,11.4,22.8,27.1,26.9,44.1"/>
	<path id="Group_5_3_" class="st1" d="M462.5,351.3c-0.1,3.6-0.9,7.2-1.6,10.7c-4.2,22.1-4.4,45-0.3,67.2"/>
	<path id="Group_4_3_" class="st1" d="M480,485.2c-0.9-2.3-1.8-4.6-2.7-6.9c5.1,14.4,18.1,25.1,32.5,30.1
		c14.4,5.1,30.1,5.2,45.3,3.5"/>
	<path id="Group_3_3_" class="st1" d="M604.3,474.2c6.9-9.6,11.7-20.8,13.8-32.5"/>
	<path id="Group_2_3_" class="st1" d="M510.1,202.2c-28.5,23.5-47.3,57.1-59.2,92.1c-15.4,45.1-20.2,93.8-13.9,141.1"/>
	<path id="Group_1_3_" class="st1" d="M425,294.5c-4.5,19.3-8,38.7-10.4,58.3"/>
</g>
<path id="Group_1_4_" class="st1" d="M975.5,330.1c3.3,15.5,6.7,27.5,8.9,34.7c17.1,56,36.9,77.4,53.6,132.8
	c4.1,13.6,6.7,24.7,7.9,30.5c1.9,7.7,1.1,13.8-2.1,15.7c-2.3,1.3-5.2,0.1-6.5-0.4c-12.2-4.9-20-27.4-22-33.3
	c-16.1-38.8-32.2-77.6-48.3-116.4"/>
<path id="Group_2_4_" class="st2" d="M654.2,353.8c38.3,32.5,84.7,53.6,133,69.1c31.7,9.6,96.8,16.7,97.1,16.3
	c17.1-24.8,31.6-51.4,46.1-78c4-0.3,6.3,3.1,5.6,6.9c-2,11.4-9.6,20.9-13.3,31.4c-0.4,1.1-0.6,3,0.4,4.1c1.9,2.1,7.3,0.2,9.6-0.7
	c0,0,33.5-12.2,59.6-16.9c1-0.2,1.9-0.3,2.5-0.3c3.3-0.3,9-0.9,9.9,1c0.5,1-0.4,2.3-1,3.2c-4.8,6.5-15.5,9.9-20.5,11.7
	c-4.9,1.7-11.9,4.5-20.2,9.2c4.7,0.4,12.6,0.8,22.4,0.3c18-1,32.4-4.8,33.6-1.6c0.3,0.7-0.2,1.5-0.8,2.4c-2,2.7-6.1,7-28.5,10.8
	c-3.3,0.5-6.6,1.2-9.8,1.8c-8.7,1.6-13.1,2.2-14.4,5.4c-0.3,0.7-0.6,1.5-0.3,2.2c1.1,2.5,8.2,1.8,30.3-1.6
	c13.3-2.1,20.3-3.3,21.7-0.6c0.6,1.2-0.1,2.7-0.5,3.6c-3.1,6.5-12.5,7.7-22.7,9.9c-13.6,2.8-28.9,7.2-28.8,8.6
	c0.2,1.5,19.7,4,32.9,0.9c1.9-0.4,8.2-2.1,10.3,0.7c0.6,0.8,0.7,1.7,0.7,2c0.2,4.2-7.9,7.9-10.4,9c-30.3,13.9-94.1,15.8-94.1,15.8
	c-9,0.3-19.1,0.6-29.9,0.8c-14.4,0.2-34.7-0.3-58.7-3.7c-37.4-5.4-64.1-15.1-101.2-28.8c-25.4-9.4-57.9-22.6-95.1-40.9"/>
<path id="Group_1_5_" class="st3" d="M963,390c7.7,19.5,20.9,48.7,29.3,79.3c7.4,27,15.4,56.3,19.1,95.4c2,21,3.2,49,0.3,82.3
	l-53.8,140.3c-21.7,17.4-53.2,18.9-78.9,8.5c-25.7-10.4-46.1-31.3-61.1-54.6c-22.4-34.7-34.3-75.3-40.1-116.2s-5.6-82.3-5.5-123.6
	l3.1-53c3.4-80.3,36.3-156.1,71.4-228.4c10.8-22.2,22.6-45.2,42.8-59.5c-0.5,14.4-2.5,28.7-6.1,42.7c28.2-1.2,56.3-2.5,84.5-3.7
	c3.1-0.1,6.5-0.4,8.8-2.5c1.6-1.5,2.4-3.6,3.1-5.7c3.3-8.9,8.2-18.1,16.8-21.9c-0.8,49.6-2.8,88.6-4,112.4
	c-0.5,9.1-1.5,25.2-11.7,40.8c-2.1,3.3-6.7,3.7-8.1,5.3"/>
<path id="Group_1_6_" class="st4" d="M658.9,356.6c-22.9,19.8-33.2,50-42.5,78.8c-3.8-0.4-7.6-0.8-11.4-1.2c3.6-20,10-39.6,18.7-58
	c6.3-13.3,14.5-26.6,27.3-33.9c3.9,4.4,7.1,9.5,9.5,14.8"/>
<g id="Tail">
	<g id="Group_26">
		<path id="Group_16" class="st0" d="M1176.8,1004c-0.3-1.2-1.8-2.2-3-1.7c-7.7,3-16.2,1.1-23.1-3c-7.4-4.5-13.2-11.2-18.8-17.7
			c-0.9-1-2.5-0.9-3.4,0c-0.8,0.8-0.9,1.8-0.4,2.8c-1,0.6-2,1.1-3,1.6c-0.7-0.7-1.7-1-2.8-0.4c-1.1,0.6-2.2,1.2-3.2,1.9
			c-0.7,0.4-1.3,0.8-2,1.1c-0.6,0.4-1.1,0.7-1.5,1.2c-0.5,0.4-1.1,0.8-1.6,1.2c-0.1,0.1-0.3,0.2-0.4,0.4c-0.7-0.5-1.6-0.7-2.4-0.5
			c-0.5-0.5-1.2-0.7-1.9-0.6c-0.8,0.1-1.5,0.6-1.9,1.3c-0.3,0-0.5,0-0.8,0.1c-0.7-0.4-1.7-0.4-2.4,0c-1.2,0.7-1.4,2.1-0.9,3.3
			c3.4,7.1,6.3,14.4,8.8,21.8c1.1,3.2,2,6.6,3.6,9.6c1.3,2.6,4.4,7.3,7.9,6c1.2-0.4,2-1.6,1.7-2.9c0.2,0,0.5,0,0.8,0
			c0.2,0,0.3-0.1,0.5-0.1c0.3,0.1,0.6,0.2,0.9,0.3c1.3,0.1,2.6-0.5,3.5-1.5c0.1,0,0.1-0.1,0.2-0.1c0.4,0.1,0.8,0.1,1.1,0
			c2.3-0.9,4.5-1.9,6.6-3.1c1.2,1.6,3.5,1.5,5.2,0.6c2.1-1.2,3.9-2.9,5.8-4.4c1.2-0.9,2.4-1.8,3.6-2.7c0.6,0.2,1.2,0.2,1.9-0.3
			c3.4-2.5,6.8-5,10.2-7.5c0.7-0.5,1.2-1.3,1.2-2.1c2.8-0.1,5.6-0.6,8.2-1.7C1176.3,1006.5,1177.2,1005.3,1176.8,1004z"/>
		<path id="Group_7_4_" class="st1" d="M1118.8,1020.8c6.4-2.1,12.4-5.1,18.1-8.7"/>
		<path id="Group_6_4_" class="st1" d="M1121.1,1012.4c3.7-1.7,7.4-3.3,11.1-5"/>
		<path id="Group_5_4_" class="st1" d="M1119.9,1003.9c4.3-1.4,8.4-3.4,12.1-5.9"/>
		<path id="Group_4_4_" class="st1" d="M1118.4,995.1c3-0.9,5.8-2.2,8.4-3.8"/>
		<path id="Group_3_4_" class="st1" d="M1136,1023.7c3.3-1.3,6.3-3.1,9.1-5.3"/>
	</g>
	<g id="Group_25">
		<path id="Group_17" class="st0" d="M1074.3,988.9c-1-3.3-3.7-4.3-6.7-5c-5.9-1.4-12.1-2.9-16.4-7.5c-0.4-0.4-0.9-0.6-1.3-0.7
			c0,0,0,0,0-0.1c-0.5-1.2-2.3-1.5-3.3-0.9c-1.2,0.7-1.4,2.1-0.9,3.3c1.1,2.4,0.7,5.1,0.1,7.6c-0.8,2.8-2,5.5-3.2,8.2
			c-2.6,6.1-5.3,12.2-7.9,18.4c-0.6,1.5-0.2,3,1.4,3.6c4.2,1.5,8.3,3.1,12.4,4.8c1.2,0.9,2.6,1.5,3.7,1.7c0.2,0.1,0.4,0.1,0.7,0.1
			c0.8,0.4,1.6,0.7,2.5,1.1c1.5,0.7,3,1.3,4.5,2c1.8,0.8,3.6,1.7,5.5,0.5c1.2-0.7,1.8-1.9,2.2-3.2c0.6-1.7,1-3.5,1.5-5.3
			c1.8-6.7,3.4-13.4,4.8-20.1C1074.3,994.7,1075.1,991.7,1074.3,988.9z"/>
		<path id="Group_11" class="st1" d="M1043.4,1009c4.9,3.3,10.6,5.4,16.5,6.1"/>
		<path id="Group_10" class="st1" d="M1049.5,1003.6c3.9,2.5,8.2,4.3,12.6,5.4"/>
		<path id="Group_9_4_" class="st1" d="M1053.4,994.7c4.2,3,9.3,4.7,14.5,4.7"/>
		<path id="Group_8_4_" class="st1" d="M1056.5,985.5c3.3,1.2,6.4,2.7,9.3,4.7"/>
	</g>
	<g id="Group_24">
		<path id="Group_18" class="st0" d="M1008.9,945.2c-0.9-1.7-2.2-3.3-3.2-4.9c-1.2-1.8-2.4-3.6-3.6-5.3l-7.9-11.9
			c-0.7-1-1.9-1.4-2.9-1c-0.3-1.1-1.1-1.9-2.3-1.9c-1.2,0-2.5,1.1-2.4,2.4c0.2,1.9-1,3.4-2.4,4.7c-1.7,1.5-3.7,2.6-5.5,3.9
			c-2,1.4-3.9,2.9-5.8,4.5c-1.8,1.6-3.8,3.3-3.7,6c0,0.8,0.5,1.7,1.3,2.1c0,1.3,0.3,2.6,1.1,3.7c0.7,0.9,2.1,1.9,2.4,2.9
			c0.2,0.8,0.8,1.3,1.4,1.5c1.8,2.2,4,4.2,5.9,6.3c3.4,3.8,5.5,8.6,7.6,13.3c0.4,0.9,1.6,1.3,2.4,1.2c1-0.2,1.7-0.8,2-1.7
			c2.4-6.4,6.4-12.1,11.5-16.7c1.2-1.1,2.7-2,3.7-3.2C1009.8,949.2,1009.9,947.1,1008.9,945.2z"/>
		<path id="Group_13" class="st1" d="M980.3,943.9c2.8,4.9,6.5,9.3,10.8,12.9"/>
		<path id="Group_12" class="st1" d="M989.9,937.3c2,4.6,5,8.9,8.7,12.3"/>
	</g>
	<g id="Group_23">
		<path id="Group_19" class="st0" d="M967,882.7c-0.7-1.4-1.5-2.7-2.2-4c-1.5-2.7-3-5.3-4.6-8c-1.5-2.5-2.9-5.2-4.7-7.5
			c-1.7-2.3-4.8-2.9-6.9-0.8c-1.5,1.5-2.1,3.6-3.9,4.9c-2.3,1.6-4.9,2.6-6.9,4.6c-2.2,2.2-3.7,5.4-2.5,8.4c0.4,1,1.2,1.7,2.1,1.8
			c2,2.8,3.7,5.9,5.2,9c0,0.1,0.1,0.2,0.1,0.3c-0.3,1,0.2,2,1,2.6c1.1,3.2,2,6.5,4,9.2c1,1.4,3.2,1.7,4.2,0
			c2.5-4.4,5.8-8.3,9.8-11.4c0.9-0.7,1.9-1.4,2.9-2c1.2-0.8,2.5-1.4,3.2-2.8C968.3,885.4,967.8,884.1,967,882.7z"/>
		<path id="Group_15" class="st1" d="M942.8,878.5c2.3,3.8,4,7.9,5.1,12.2"/>
		<path id="Group_14" class="st1" d="M952,873.8c2.2,3.1,4.1,6.5,5.7,10"/>
	</g>
	<g id="Group_22">
		<path id="Group_20" class="st0" d="M927.3,827.6c-2.1-0.5-3.4-2.5-4.7-4c-0.1-0.1-0.1-0.2-0.2-0.3c0-0.6-0.1-1.2-0.7-1.8
			c-2.5-2.7-4.9-5.3-7.4-8c-1.1-1.2-2.3-2.9-4.1-2.9c-1.7,0-3.2,1.4-4.4,2.4c-1.1,0.9-2.1,1.9-3.2,2.7c-1.1,0.8-2.2,1.3-3.4,1.8
			c-2.6,1.1-5,2.4-6,5.3c-0.4,1.2,0.5,2.6,1.7,3c0.9,0.2,1.7,0,2.2-0.6c0.1,0.2,0.2,0.4,0.3,0.5c0,0.5,0.3,1,0.7,1.4
			c2.9,2.4,5.6,5.1,7.9,8.1c1.2,1.5,2.2,3,3.2,4.6c1,1.6,2.1,3.1,3.8,3.8c1.8,0.7,4,0.6,5.4-0.8c1.2-1.2,1.4-3,2.2-4.5
			c1.4-2.7,3.8-4.9,6.6-6C929.4,831.5,929.9,828.2,927.3,827.6z"/>
		<path id="Group_2_5_" class="st1" d="M904.1,823.5c2.8,2.5,5.4,5.1,7.9,7.8"/>
		<path id="Group_1_7_" class="st1" d="M912.2,819.9c2.7,3.3,5.4,6.6,8.1,9.9"/>
	</g>
	<path id="Group_21" class="st1" d="M848.1,776.6c52.7,46,80.1,88.6,95.5,119.9c7.9,16,18.4,40.7,41.7,70.2
		c17.4,22,31.5,39.8,56.7,52.6c37.9,19.3,83,18.1,112.1,1.9c15-8.3,22.3-18.8,24.8-22.7c3.7-5.7,12.3-19.1,8.3-33.5
		c-0.7-2.5-3.5-12.8-12.2-15.8c-7.6-2.6-15.1,2.1-17.5,3.6c-8.9,5.6-9.1,12.5-15.7,20.7c-9,11.2-21.9,14.8-27.9,16.5
		c-19.8,5.5-37-1.6-52.4-7.9c-5.8-2.4-21.6-9.4-39.1-24.6c-5.6-4.9-16.1-14.7-42.5-54.7c-20.3-30.9-20.7-35.1-32.5-51.1
		c-16.6-22.6-33.6-38.4-45.1-48.1"/>
</g>
<g id="Leg_back">
	<g id="Group_3_5_">
		<path id="Group_3_6_" class="st0" d="M1058.6,609.8c-0.6-0.5-1.6-0.8-2.4-0.6c0.5-1.4,1-2.9,0.7-4.3c-0.4-1.8-2-3.2-3.2-4.5
			c-2.5-2.7-5.2-5.1-8.2-7.3c-0.6-0.5-1.3-0.9-1.9-1.3c0-0.7-0.2-1.4-0.7-1.9c-0.9-0.9-2.5-1-3.4,0c-2.6,2.8-5.3,5.5-7.8,8.3
			c-2.4,2.7-4.3,5.7-4.5,9.4c0,0,0,0,0,0.1c-1.2,3.3-2.1,6.7-1.4,10.2c0.6,3.2,2.8,6,6,7.1c3.2,1.1,7.1,0.5,10.2-0.6
			c0.3-0.1,0.6-0.2,0.9-0.4c1.2,0.6,2.7,0.6,4,0.1c1.8-0.7,3.2-2.1,4.6-3.3c2.6-2.3,5-4.8,7.1-7.6
			C1059.4,612.2,1059.6,610.7,1058.6,609.8z"/>
		<path id="Group_2_6_" class="st1" d="M1033.9,603.7c3,1.6,5.5,4.2,6.9,7.3"/>
		<path id="Group_1_9_" class="st1" d="M1042.5,597.1c2.3,3.1,4.6,6.3,7,9.4"/>
	</g>
	<g id="Group_2_7_">
		<path id="Group_3_7_" class="st0" d="M1050.6,699.5c0.4,0.1,0.7,0,1.1-0.1c0.2,0.2,0.4,0.3,0.7,0.4
			C1051.8,699.8,1051.1,699.7,1050.6,699.5C1050.6,699.6,1050.6,699.5,1050.6,699.5z"/>
		<path id="Group_2_8_" class="st1" d="M1040.7,688.3c0.3,2.9,0.1,6-0.6,8.8"/>
		<path id="Group_1_10_" class="st1" d="M1050,686c0.6,4.7,0.3,9.6-0.9,14.2"/>
	</g>
	<g id="Group_1_11_">
		<path id="Group_4_5_" class="st1" d="M1136.4,705c-5.2,0.3-10.1,3.4-12.4,8c5.9,0.7,12.1-1.7,16-6.2c0.6-0.7,1.2-2,0.4-2.6
			c-0.3-0.3-0.8-0.3-1.2-0.3c-3.1-0.1-6.2-0.2-9.1,0.8c-2.9,1-5.5,3.4-5.8,6.5c0,0.5,0,0.9,0.2,1.3c0.4,0.6,1.2,0.7,1.8,0.7
			c3.8,0.2,7.6-1.3,10.3-4c0.8-0.8,1.5-1.8,1.2-2.9c-0.4-1.2-1.8-1.6-3.1-1.7c-4-0.3-8.1,1.2-11.1,3.9c-1.2,1.1-2.2,2.6-1.7,4.1
			c0.7,2.1,3.7,2.3,5.8,1.7c4.1-1.1,7.9-3.1,11-6c0.9-0.8,1.8-2.3,0.9-3.2c-0.4-0.4-1-0.5-1.6-0.5c-2.7-0.1-5.5,0.8-7.7,2.4
			c-1.4,1-2.5,3.2-1.1,4.2c0.7,0.5,1.6,0.4,2.4,0.3c1.6-0.2,3.5-0.7,4.2-2.2c0.7-1.5-1.8-3.4-2.6-2"/>
		<path id="Group_3_8_" class="st1" d="M1130.3,693.3c0.3,0,0.5,0,0.8,0"/>
		<line id="Group_2_9_" class="st1" x1="1143.3" y1="692.5" x2="1143.6" y2="692.6"/>
		<line id="Group_1_12_" class="st1" x1="1150.9" y1="698.6" x2="1150.8" y2="698"/>
	</g>
	<path id="Group_5_5_" class="st1" d="M963.5,758.5l30.7,6c14.3,2.5,28.7,5,43,7.5c1.4,9.2,3,18.8,8.5,26.2c1,1.4,2.2,2.9,4.2,3.4
		c4.2,1,8.8-3.8,12.7-8.4c7-8.4,10.5-12.6,15.7-23.7c6.5-14,13.9-13.2,63.9-55.1c8.4-7,16-13.6,14.9-21c-0.9-6.3-7.7-11-13.6-12.8
		c-5-1.5-16-2.8-43.4,18.9c-12.2,9.7-28.8,24.9-45.1,47.4c7.5-50,8.3-87.7,7.7-112.1c-0.4-15.2-1.5-32-13.8-41.7
		c-11.3-8.9-26.5-7.4-33.7-6.2"/>
</g>
<g id="Mask_Leg_front_4">
	<path id="Group_14_1_" class="st3" d="M959,787.8c4.8,2.6,4.1,11,9.2,12.9c4.6,1.8,8.7-3.6,10.8-8.1c17.5-36.9,35-73.7,52.6-110.6
		c4.9-10.4,9.9-20.8,14.8-31.2c2-4.2,4-8.6,4.3-13.2c0.1-2-0.3-9.1-5.7-12c-5.1-2.7-10.9,0.5-11.5,0.8l0,0
		c-25.6,16.5-38.6,46.4-50.2,74.6c-5.1,12.4-10.2,24.7-15.3,37.1c-6.8-21.6-11.6-43.9-20.6-64.6c-9-20.7-23.1-40.3-43.4-50.4
		s-47.4-8.1-62.6,8.6"/>
	<path id="Group_15_1_" class="st3" d="M959,787.8c4.8,2.6,4.1,11,9.2,12.9c4.6,1.8,8.7-3.6,10.8-8.1c17.5-36.9,35-73.7,52.6-110.6
		c4.9-10.4,9.9-20.8,14.8-31.2c2-4.2,4-8.6,4.3-13.2c0.1-2-0.3-9.1-5.7-12c-5.1-2.7-10.9,0.5-11.5,0.8l0,0
		c-25.6,16.5-38.6,46.4-50.2,74.6c-5.1,12.4-10.2,24.7-15.3,37.1c-6.8-21.6-11.6-43.9-20.6-64.6c-9-20.7-23.1-40.3-43.4-50.4
		s-47.4-8.1-62.6,8.6"/>
</g>
<path id="Group_1_13_" class="st1" d="M967,393.7c7.7,19.5,16.9,45,25.3,75.6c7.4,27,15.4,56.3,19.1,95.4c2,21,3.2,49,0.3,82.3
	c0,0-1.4,9.9-4.8,16.5"/>
<g id="Mask_Leg_front_2">
	<path id="Group_14_2_" class="st3" d="M959,787.8c4.8,2.6,4.1,11,9.2,12.9c4.6,1.8,8.7-3.6,10.8-8.1c17.5-36.9,35-73.7,52.6-110.6
		c4.9-10.4,9.9-20.8,14.8-31.2c2-4.2,4-8.6,4.3-13.2c0.1-2-0.3-9.1-5.7-12c-5.1-2.7-10.9,0.5-11.5,0.8l0,0
		c-25.6,16.5-38.6,46.4-50.2,74.6c-5.1,12.4-10.2,24.7-15.3,37.1c-6.8-21.6-11.6-43.9-20.6-64.6c-9-20.7-23.1-40.3-43.4-50.4
		s-47.4-8.1-62.6,8.6"/>
	<path id="Group_15_2_" class="st3" d="M959,787.8c4.8,2.6,4.1,11,9.2,12.9c4.6,1.8,8.7-3.6,10.8-8.1c17.5-36.9,35-73.7,52.6-110.6
		c4.9-10.4,9.9-20.8,14.8-31.2c2-4.2,4-8.6,4.3-13.2c0.1-2-0.3-9.1-5.7-12c-5.1-2.7-10.9,0.5-11.5,0.8l0,0
		c-25.6,16.5-38.6,46.4-50.2,74.6c-5.1,12.4-10.2,24.7-15.3,37.1c-6.8-21.6-11.6-43.9-20.6-64.6c-9-20.7-23.1-40.3-43.4-50.4
		s-47.4-8.1-62.6,8.6"/>
</g>
<g id="Belly_fur">
	<path id="Group_28" class="st5" d="M944.2,417.2c-0.9-4.2-2.1-8.3-3.6-12.2c-0.5-1.2-1.6-2.1-3-1.7c-1.1,0.4-2.2,1.7-1.7,3
		c1.6,4,2.8,8.1,3.6,12.2c0.3,1.2,1.8,2.1,3,1.7C943.8,419.7,944.5,418.5,944.2,417.2z"/>
	<path id="Group_27" class="st5" d="M953,393.7c-0.4-0.8-0.8-1.7-1.2-2.5c-0.1-0.2-0.2-0.5-0.3-0.7c0,0,0,0,0-0.1c0,0,0,0,0-0.1
		c-0.2-0.5-0.4-0.9-0.5-1.4c-0.7-1.8-1.2-3.6-1.7-5.4c-0.3-1.2-1.8-2.1-3-1.7c-1.3,0.4-2,1.7-1.7,3c1,3.9,2.4,7.7,4.3,11.3
		c0.6,1.1,2.2,1.6,3.3,0.9C953.3,396.3,953.6,394.9,953,393.7z"/>
	<path id="Group_26_1_" class="st5" d="M971.8,430.9c-1.4-3.5-3-6.9-5-10.2c-0.6-1.1-2.2-1.6-3.3-0.9c-1.1,0.7-1.6,2.1-0.9,3.3
		c0.9,1.5,1.7,3.1,2.5,4.6c0.4,0.8,0.7,1.6,1.1,2.4c0.1,0.2,0.2,0.4,0.3,0.7c0,0,0,0.1,0,0.1c0.2,0.4,0.4,0.9,0.5,1.3
		c0.2,0.6,0.5,1.1,1.1,1.4c0.5,0.3,1.3,0.4,1.9,0.2C971.2,433.5,972.3,432.2,971.8,430.9z"/>
	<path id="Group_25_1_" class="st5" d="M954.4,458c-0.4-0.8-0.8-1.6-1.2-2.4c-0.1-0.2-0.2-0.5-0.3-0.7c0,0,0-0.1,0-0.1c0,0,0,0,0,0
		c-0.2-0.4-0.4-0.9-0.5-1.3c-0.6-1.7-1.2-3.4-1.6-5.2c-0.3-1.2-1.8-2.1-3-1.7c-1.3,0.4-2,1.7-1.7,3c0.9,3.8,2.3,7.4,4.1,10.9
		c0.6,1.1,2.2,1.6,3.3,0.9C954.7,460.6,955.1,459.2,954.4,458z"/>
	<path id="Group_24_1_" class="st5" d="M931.6,446.5c-1.3,0.1-2.4,1.1-2.4,2.4v10.2c0,1.3,1.1,2.5,2.4,2.4c1.3-0.1,2.4-1.1,2.4-2.4
		v-10.2C934,447.7,932.9,446.5,931.6,446.5z"/>
	<path id="Group_23_1_" class="st5" d="M923.4,363.4c-1.3,0.1-2.4,1.1-2.4,2.4v13.3c0,1.3,1.1,2.5,2.4,2.4c1.3-0.1,2.4-1.1,2.4-2.4
		v-13.3C925.9,364.5,924.7,363.3,923.4,363.4z"/>
	<path id="Group_22_1_" class="st5" d="M935.5,347.4c0-0.6-0.2-1.2-0.7-1.7c-0.4-0.4-1.1-0.7-1.7-0.7c-1.2,0.1-2.5,1.1-2.4,2.4
		c0.2,2.6,0.3,5.1,0.5,7.7c0,0.6,0.2,1.2,0.7,1.7c0.4,0.4,1.1,0.7,1.7,0.7c1.2-0.1,2.5-1.1,2.4-2.4
		C935.8,352.6,935.6,350,935.5,347.4z"/>
	<path id="Group_21_1_" class="st5" d="M971.6,450.9c-1-2.9-2-5.8-3-8.7c-0.4-1.2-1.7-2.1-3-1.7c-1.2,0.4-2.1,1.7-1.7,3
		c1,2.9,2,5.8,3,8.7c0.4,1.2,1.7,2.1,3,1.7C971.1,453.5,972.1,452.2,971.6,450.9z"/>
	<path id="Group_20_1_" class="st5" d="M969,504.9c-0.6-3.7-1.5-7.3-2.9-10.7c-0.2-0.6-0.5-1.1-1.1-1.4c-0.5-0.3-1.3-0.4-1.9-0.2
		c-1.1,0.4-2.2,1.7-1.7,3c1.4,3.5,2.3,7.1,2.9,10.7c0.1,0.6,0.6,1.2,1.1,1.4c0.5,0.3,1.3,0.4,1.9,0.2
		C968.7,507.5,969.2,506.3,969,504.9z"/>
	<path id="Group_19_1_" class="st5" d="M947.8,491.6c-0.5-2.2-1-4.4-1.5-6.6c-0.3-1.2-1.8-2.1-3-1.7c-1.3,0.4-2,1.7-1.7,3
		c0.5,2.2,1,4.4,1.5,6.6c0.3,1.2,1.8,2.1,3,1.7C947.4,494.2,948.1,493,947.8,491.6z"/>
	<path id="Group_18_1_" class="st5" d="M962.2,469.7c-0.3-0.5-0.9-1-1.4-1.1c-0.6-0.2-1.3-0.1-1.9,0.2c-0.5,0.3-1,0.8-1.1,1.4
		c-0.2,0.7-0.1,1.3,0.2,1.9c0.1,0.2,0.1,0.3,0.2,0.5c0.4,1.1,0.7,2.2,0.9,3.4c0.1,0.5,0.1,1,0.1,1.6c0,1.3,1.1,2.5,2.4,2.4
		c1.3-0.1,2.4-1.1,2.4-2.4C964.1,474.8,963.4,472.1,962.2,469.7z"/>
	<path id="Group_17_1_" class="st5" d="M983.1,470.2c-0.4-0.6-0.7-1.1-1-1.7c-0.2-0.3-0.3-0.6-0.4-0.9c0,0,0,0,0,0
		c-0.1-0.2-0.1-0.3-0.2-0.5c-0.4-1.2-0.7-2.3-0.9-3.6c0-0.3-0.1-0.5-0.1-0.8c-0.1-1.3-1-2.5-2.4-2.4c-1.2,0.1-2.5,1.1-2.4,2.4
		c0.3,3.5,1.3,7,3.3,9.9c0.7,1.1,2.2,1.6,3.3,0.9C983.3,472.8,983.9,471.3,983.1,470.2z"/>
	<path id="Group_16_1_" class="st5" d="M951.3,538.1c-0.5-1.8-0.9-3.6-1.3-5.5c-0.2-0.9-0.3-1.8-0.5-2.8c0-0.2-0.1-0.4-0.1-0.6
		c0,0,0-0.2,0-0.3c-0.1-0.5-0.1-0.9-0.2-1.4c-0.1-1.3-1-2.5-2.4-2.4c-1.2,0.1-2.6,1.1-2.4,2.4c0.5,4,1.2,8,2.2,11.8
		c0.3,1.2,1.7,2.1,3,1.7C950.9,540.6,951.7,539.4,951.3,538.1z"/>
	<path id="Group_15_3_" class="st5" d="M969.9,521.9c-0.1-0.7-0.2-1.2-0.7-1.7c-0.4-0.4-1.1-0.7-1.7-0.7c-0.6,0-1.3,0.2-1.7,0.7
		c-0.4,0.4-0.8,1.1-0.7,1.7c0.2,1.9,0.3,3.7,0.5,5.6c0.1,0.7,0.2,1.2,0.7,1.7c0.4,0.4,1.1,0.7,1.7,0.7c0.6,0,1.3-0.2,1.7-0.7
		c0.4-0.4,0.8-1.1,0.7-1.7C970.2,525.6,970,523.8,969.9,521.9z"/>
	<path id="Group_14_3_" class="st5" d="M984.9,504.4c-0.2-0.6-0.5-1.1-1.1-1.4c-0.5-0.3-1.3-0.4-1.9-0.2c-0.6,0.2-1.1,0.6-1.4,1.1
		c-0.3,0.5-0.5,1.3-0.2,1.9c0.4,1.2,0.7,2.3,0.9,3.6c0.1,0.6,0.1,1.3,0.1,1.9c0,1.3,1.1,2.5,2.4,2.4c1.3-0.1,2.4-1.1,2.4-2.4
		C986.1,508.9,985.7,506.6,984.9,504.4z"/>
	<path id="Group_13_1_" class="st5" d="M989.6,558.5c-0.7-2.9-1.4-5.8-2-8.7c-0.3-1.2-1.8-2.1-3-1.7c-1.3,0.4-2,1.7-1.7,3
		c0.7,2.9,1.4,5.8,2,8.7c0.3,1.2,1.8,2.1,3,1.7C989.2,561,989.9,559.8,989.6,558.5z"/>
	<path id="Group_12_1_" class="st5" d="M967.6,558.6c-0.1-0.6-0.2-1.2-0.7-1.7c-0.4-0.4-1.1-0.7-1.7-0.7c-1.2,0.1-2.5,1.1-2.4,2.4
		c0.2,2.5,0.4,5.1,0.6,7.6c0.1,0.6,0.2,1.2,0.7,1.7c0.4,0.4,1.1,0.7,1.7,0.7c1.2-0.1,2.5-1.1,2.4-2.4
		C968,563.7,967.8,561.2,967.6,558.6z"/>
	<path id="Group_11_1_" class="st5" d="M944.3,568.6c-0.7-1.9-1.5-3.7-2.2-5.6c-0.2-0.6-0.5-1.1-1.1-1.4c-0.5-0.3-1.3-0.4-1.9-0.2
		c-0.6,0.2-1.1,0.6-1.4,1.1c-0.3,0.5-0.5,1.3-0.2,1.9c0.7,1.9,1.5,3.7,2.2,5.6c0.2,0.6,0.5,1.1,1.1,1.4c0.5,0.3,1.3,0.4,1.9,0.2
		c0.6-0.2,1.1-0.6,1.4-1.1C944.3,570,944.5,569.2,944.3,568.6z"/>
	<path id="Group_10_1_" class="st5" d="M973.8,596.2c-0.7-2.2-1.4-4.4-2.1-6.6c-0.2-0.6-0.6-1.1-1.1-1.4c-0.5-0.3-1.3-0.4-1.9-0.2
		c-1.2,0.4-2.1,1.7-1.7,3c0.7,2.2,1.4,4.4,2.1,6.6c0.2,0.6,0.6,1.1,1.1,1.4c0.5,0.3,1.3,0.4,1.9,0.2
		C973.3,598.8,974.2,597.5,973.8,596.2z"/>
	<path id="Group_9_5_" class="st5" d="M994.1,593.2c-0.5-2.2-1-4.4-1.5-6.6c-0.3-1.2-1.8-2.1-3-1.7c-1.3,0.4-2,1.7-1.7,3
		c0.5,2.2,1,4.4,1.5,6.6c0.3,1.2,1.8,2.1,3,1.7C993.7,595.7,994.4,594.5,994.1,593.2z"/>
	<path id="Group_8_5_" class="st5" d="M996.1,614.5c-0.4-0.4-1.1-0.7-1.7-0.7c-1.3,0.1-2.4,1.1-2.4,2.4v5.6c0,0.6,0.3,1.3,0.7,1.7
		c0.4,0.4,1.1,0.7,1.7,0.7c1.3-0.1,2.4-1.1,2.4-2.4v-5.6C996.8,615.6,996.5,615,996.1,614.5z"/>
	<path id="Group_7_5_" class="st5" d="M983.4,627.3c-0.4-1.2-1.7-2.1-3-1.7c-1.2,0.4-2.1,1.7-1.7,3c0.5,1.5,0.9,3.1,1.1,4.7
		c0,0.2,0.1,0.4,0.1,0.6c0-0.1,0-0.2,0-0.3c0,0.1,0,0.2,0,0.4c0,0.4,0.1,0.8,0.1,1.2c0.1,0.8,0.1,1.6,0.1,2.5c0,1.3,1.1,2.5,2.4,2.4
		c1.3-0.1,2.4-1.1,2.4-2.4C985,634.2,984.5,630.7,983.4,627.3z"/>
	<path id="Group_6_5_" class="st5" d="M957.7,616.3c-0.2-1.2-0.6-2.2-1.1-3.3c-0.2-0.5-0.9-1-1.4-1.1c-0.6-0.2-1.3-0.1-1.9,0.2
		c-0.5,0.3-1,0.8-1.1,1.4c0,0.2-0.1,0.4-0.1,0.6c0,0.3,0.1,0.6,0.2,0.8c0.4,0.9,0.6,1.9,0.8,2.9c0.1,0.6,0.1,1.2,0.1,1.9
		c-0.1,1.3,1.2,2.5,2.4,2.4c1.4-0.1,2.4-1.1,2.4-2.4C958.1,618.7,957.9,617.5,957.7,616.3z"/>
	<path id="Group_5_6_" class="st5" d="M946.3,599.3c-0.4-2.2-0.7-4.4-1.1-6.6c-0.1-0.6-0.6-1.2-1.1-1.4c-0.5-0.3-1.3-0.4-1.9-0.2
		c-0.6,0.2-1.1,0.6-1.4,1.1c-0.3,0.6-0.4,1.2-0.2,1.9c0.4,2.2,0.7,4.4,1.1,6.6c0.1,0.6,0.6,1.2,1.1,1.4c0.5,0.3,1.3,0.4,1.9,0.2
		c0.6-0.2,1.1-0.6,1.4-1.1C946.3,600.5,946.4,600,946.3,599.3z"/>
	<path id="Group_4_6_" class="st5" d="M967.1,606.9l-0.5-3.1c-0.1-0.3-0.2-0.6-0.4-0.8c-0.2-0.3-0.4-0.5-0.7-0.6
		c-0.3-0.2-0.6-0.3-0.9-0.3c-0.3-0.1-0.6-0.1-1,0c-0.6,0.2-1.1,0.6-1.4,1.1c-0.1,0.2-0.2,0.4-0.2,0.6c-0.1,0.4-0.1,0.9,0,1.3
		c0.2,1,0.3,2,0.5,3.1c0.1,0.3,0.2,0.6,0.4,0.8c0.2,0.3,0.4,0.5,0.7,0.6c0.3,0.2,0.6,0.3,0.9,0.3c0.3,0.1,0.6,0.1,1,0
		c0.6-0.2,1.1-0.6,1.4-1.1c0.1-0.2,0.2-0.4,0.2-0.6C967.2,607.8,967.2,607.4,967.1,606.9z"/>
	<path id="Group_3_9_" class="st5" d="M979.3,661l-2.4-11.8c-0.3-1.2-1.8-2.1-3-1.7c-1.3,0.4-2,1.6-1.7,3c0.8,3.9,1.6,7.8,2.4,11.8
		c0.3,1.2,1.8,2.1,3,1.7C978.9,663.6,979.5,662.4,979.3,661z"/>
	<path id="Group_2_10_" class="st5" d="M965.1,660.5c-0.2-0.9-0.4-1.8-0.5-2.6c0-0.2-0.1-0.4-0.1-0.6c0-0.1,0-0.1,0-0.1
		c0,0,0,0,0-0.1c-0.1-0.4-0.1-0.9-0.2-1.3c-0.2-1.8-0.3-3.5-0.3-5.3c0-1.3-1.1-2.5-2.4-2.4c-1.3,0.1-2.4,1.1-2.4,2.4
		c0,3.8,0.4,7.6,1.2,11.3c0.3,1.2,1.8,2.1,3,1.7C964.7,663,965.4,661.8,965.1,660.5z"/>
	<path id="Group_1_14_" class="st5" d="M983.4,689.6l-1.1-5.6c-0.1-0.6-0.6-1.2-1.1-1.4c-0.5-0.3-1.3-0.4-1.9-0.2
		c-0.6,0.2-1.1,0.6-1.4,1.1c-0.3,0.6-0.4,1.2-0.2,1.9c0.4,1.9,0.7,3.7,1.1,5.6c0.1,0.6,0.6,1.2,1.1,1.4c0.5,0.3,1.3,0.4,1.9,0.2
		c0.6-0.2,1.1-0.6,1.4-1.1C983.5,690.8,983.6,690.2,983.4,689.6z"/>
</g>
<g id="Mask_Leg_front_3">
	<path id="Group_14_4_" class="st3" d="M959,787.8c4.8,2.6,4.1,11,9.2,12.9c4.6,1.8,8.7-3.6,10.8-8.1c17.5-36.9,35-73.7,52.6-110.6
		c4.9-10.4,9.9-20.8,14.8-31.2c2-4.2,4-8.6,4.3-13.2c0.1-2-0.3-9.1-5.7-12c-5.1-2.7-10.9,0.5-11.5,0.8l0,0
		c-25.6,16.5-38.6,46.4-50.2,74.6c-5.1,12.4-10.2,24.7-15.3,37.1c-6.8-21.6-11.6-43.9-20.6-64.6c-9-20.7-23.1-40.3-43.4-50.4
		s-47.4-8.1-62.6,8.6"/>
	<path id="Group_15_4_" class="st3" d="M959,787.8c4.8,2.6,4.1,11,9.2,12.9c4.6,1.8,8.7-3.6,10.8-8.1c17.5-36.9,35-73.7,52.6-110.6
		c4.9-10.4,9.9-20.8,14.8-31.2c2-4.2,4-8.6,4.3-13.2c0.1-2-0.3-9.1-5.7-12c-5.1-2.7-10.9,0.5-11.5,0.8l0,0
		c-25.6,16.5-38.6,46.4-50.2,74.6c-5.1,12.4-10.2,24.7-15.3,37.1c-6.8-21.6-11.6-43.9-20.6-64.6c-9-20.7-23.1-40.3-43.4-50.4
		s-47.4-8.1-62.6,8.6"/>
</g>
<g id="Leg_front">
	<g id="Group_16_2_">
		<path id="Group_13_2_" class="st0" d="M944.3,667.5c0.2-0.5,0.1-1.1-0.3-1.8c-2.6-4.6-5.2-9.1-7.9-13.7c-2.1-3.6-4.6-7.1-8.8-8.3
			c-0.3-0.1-0.7-0.1-1.1,0c0-0.1,0.1-0.3,0.1-0.4c2.1-1.8-0.2-5.5-2.8-3.9c-8.8,5.4-17.6,10.7-26.3,16.1
			c-6.3,3.9-12.7,8.1-17.9,13.4c-3,2.4-6,5.1-7.9,8.4c-1.6,2.9-2.2,6.6-1.2,9.8c0.2,4.1,2.6,7.8,6,10.2c4.8,3.4,11.5,3.1,16.9,1.1
			c5.8-2.1,10.6-6,15.6-9.4c5.1-3.5,10.3-6.8,15.8-9.7c6-3.2,12.3-5.8,18.9-7.6C945.6,671.1,945.6,668.6,944.3,667.5z"/>
		<path id="Group_11_2_" class="st1" d="M877.8,684.1c2,1.8,3.8,3.9,5.3,6.2"/>
		<path id="Group_10_2_" class="st1" d="M883,674.7c3.9,3.7,7.1,8.1,9.6,13"/>
		<path id="Group_9_6_" class="st1" d="M889,667.9c4.9,4.9,9.6,10.1,13.9,15.5"/>
		<path id="Group_8_6_" class="st1" d="M898.4,661.2c5.3,3.3,9.7,8,12.5,13.6c0.7,1.4,1.6,3.1,3.1,3.4"/>
		<path id="Group_7_6_" class="st1" d="M911.9,655.3c3.3,4.8,6.7,9.5,10.4,14"/>
		<path id="Group_6_6_" class="st1" d="M922.6,650.8c2.2,3.2,4.4,6.3,6.6,9.5"/>
	</g>
	<g id="Group_17_2_">
		<path id="Group_12_2_" class="st0" d="M963.4,718c-0.1-0.4-0.3-0.7-0.6-1c0.3-0.5,0.4-1.2,0.2-1.7c-3.2-7.8-6.3-15.6-9.5-23.3
			c-0.1-0.3-0.3-0.6-0.5-0.9c0.8-0.6,1.5-1.1,2.3-1.7c1-0.8,0.8-2.6,0-3.4c-1-1-2.4-0.8-3.4,0c-6.2,4.9-12.7,9.4-19.5,13.4
			c-5.6,3.4-11.5,6.6-16.3,11.1c-2.7,2.5-5,5.5-6.5,8.8c-0.3,0.6-0.4,1.3-0.2,1.8c-1,2.7-0.4,5.9,1.3,8.2c2.4,3.4,6.5,4.6,10.5,4.6
			c4.3-0.1,8.6-1.4,12.7-2.7c4.4-1.5,8.7-3.1,13.1-4.7l14.8-5.4C962.9,720.5,963.8,719.3,963.4,718z"/>
		<path id="Group_5_7_" class="st1" d="M920.7,714.7c2,3.6,3.7,7.3,5.1,11.2"/>
		<path id="Group_4_7_" class="st1" d="M929.8,711.7c2.9,3.4,5,7.5,6.1,11.8"/>
		<path id="Group_3_10_" class="st1" d="M941.8,706.2c2.8,4.2,5.1,8.8,6.8,13.6"/>
		<path id="Group_2_11_" class="st1" d="M950.3,699.1c3.4,5.7,6.9,11.3,10.3,17"/>
	</g>
	<g id="Group_1_15_">
		<path id="Group_3_11_" class="st1" d="M1030.8,655.7c-5,1.5-8.9,6.1-9.7,11.3c-0.3,1.7,0.1,3.8,1.7,4.3c0.9,0.3,1.8,0,2.7-0.4
			c4.9-2.2,9-6.4,11.1-11.4c0.1-0.3,0.3-0.7,0.2-1c-0.1-0.5-0.6-0.8-1.1-0.9c-4.5-1.6-8.9,2.5-11.4,6.6c-1,1.6-1.5,4.3,0.3,4.8
			c0.7,0.2,1.5-0.1,2.2-0.5c3-1.7,5.5-4.2,7.3-7.1c0.8-1.4,1.2-3.6-0.4-4.1c-0.5-0.2-1,0-1.5,0.1c-3.2,1-5.9,3.6-7.1,6.7
			c-0.1,0.4-0.3,0.8-0.1,1.1c0.4,0.8,1.5,0.5,2.2,0.1c1.7-0.9,3.4-1.9,4.6-3.4c1.2-1.5,1.8-3.7,0.9-5.4c-0.7,1.1-2.2,1.4-3.2,2.3
			c-1,0.8-1.3,2.8,0,3.2c0.5,0.1,0.9-0.1,1.4-0.2c1.8-0.8,3.5-2.5,3.2-4.4c-0.2-1.9-3.4-3-4.2-1.2c1.2-1.6,4.1-1.2,4.8,0.6"/>
		<path id="Group_2_12_" class="st1" d="M1027.8,646.6c0.3-0.3,0.5-0.5,0.8-0.8"/>
		<line id="Group_1_16_" class="st1" x1="1039.2" y1="642" x2="1040.1" y2="641.8"/>
	</g>
	<path id="Group_15_5_" class="st1" d="M959,787.8c4.8,2.6,4.1,11,9.2,12.9c4.6,1.8,8.7-3.6,10.8-8.1c17.5-36.9,35-73.7,52.6-110.6
		c4.9-10.4,9.9-20.8,14.8-31.2c2-4.2,4-8.6,4.3-13.2c0.1-2-0.3-9.1-5.7-12c-5.1-2.7-10.9,0.5-11.5,0.8l0,0
		c-25.6,16.5-38.6,46.4-50.2,74.6c-5.1,12.4-10.2,24.7-15.3,37.1c-6.8-21.6-11.6-43.9-20.6-64.6c-9-20.7-23.1-40.3-43.4-50.4
		s-47.4-8.1-62.6,8.6"/>
</g>
<g id="Head_spot">
	<path id="Group_5_15_" class="st0" d="M979.3,198.5c-1.6-1.5-3.7-0.3-4.1,1.3c-0.1,0-0.2,0-0.2,0c-0.1,0-0.1,0-0.2,0
		c-0.6-0.6-1.4-0.8-2.3-0.6c-1.5,0.3-2.5,0.5-3.9,0.6c-0.7,0-1.4,0.4-1.8,0.9c-0.9-0.6-2.4-0.7-3.2,0.1c-0.3-0.2-0.6-0.3-0.9-0.3
		c-0.4,0-0.8,0-1.2,0.2c-0.2-0.1-0.4-0.2-0.6-0.2c-0.9-1.4-3.3-1.3-4.2,0.3c-0.2-0.1-0.4-0.1-0.6-0.1c-0.6-0.7-1.5-1.1-2.5-0.9
		c-3.7,0.7-7.5,0.9-11.2,0.3c-1.8-0.3-3.2,1.1-3,2.7c-0.4-0.6-1-1.1-1.8-1.2c-0.4,0-0.9,0-1.3,0.2c-0.5-0.2-1.1-0.3-1.6-0.2
		c-1.3-0.5-2.8-0.4-4.2,0.3c-1.3-0.7-2.8-0.8-4.3-0.2c-0.9-0.5-2-0.6-3.1-0.6l-4.5-0.1c-2.4-0.1-4.7-0.1-7.1-0.2
		c-0.2,0-0.5-0.1-0.7,0c-0.6,0-1.1,0-1.7,0c-0.9,0-1.5,0.4-1.9,0.9c-0.8-0.2-1.7-0.1-2.4,0.4c-0.3-0.2-0.6-0.4-1-0.4
		c-1-0.1-2.1,0.4-2.5,1.3c-1.3-0.3-2.6,0.1-3.7,0.8c-0.9-1.3-3.1-1.8-4.1,0c-3.7,6.5-1.1,14.8,4.2,19.6c6.2,5.7,15.1,6.7,23.1,6.6
		c4.6,0,9.3-0.3,13.9,0c2.2,0.2,4.4,0.6,6.6,1.1c2.4,0.6,4.7,1.1,7.1,0.7c2.2-0.3,4.3-1.1,6.3-2c2.2-0.9,4.4-1.8,6.6-2.7
		c2.3-0.9,4.5-1.9,6.8-2.8c2-0.8,4.1-1.6,5.9-2.7c3.9-2.4,6.1-6.3,7.1-10.7C982,206.8,982.6,201.7,979.3,198.5z"/>
	<path id="Group_4_15_" class="st1" d="M907.6,205.1c0.5,3.7,0.2,7.5-0.8,11.2"/>
	<path id="Group_3_18_" class="st1" d="M929.8,204c0.2,3.4,0.1,6.9-0.2,10.3"/>
	<path id="Group_2_20_" class="st1" d="M947,202.5c0.6,3.7,0.6,7.4,0,11.1"/>
	<path id="Group_1_24_" class="st1" d="M963.5,201.7c1,3.7,1.1,7.7,0.4,11.5"/>
</g>
<g id="Eye_left">
	<path id="Group_3_21_" class="st1" d="M877.5,244.3c12.7-8.2,30.5-7.7,42.7,1.4"/>
	<path id="Group_1_27_" class="st1" d="M876.9,246.7c3.9,2,8.5,2.5,12.9,2.9c10.1,0.9,20.7,1.8,30.2-1.7"/>
</g>
<path id="Group_1_28_" d="M898.2,248.1c-0.3,0-0.6-0.1-1-0.2c-1-0.5-1.3-1.7-0.8-2.7c0.7-1.3,0.7-3-0.1-4.2c-0.6-1-0.2-2.2,0.7-2.7
	c1-0.6,2.2-0.2,2.7,0.7c1.4,2.5,1.5,5.7,0.1,8.2C899.6,247.7,898.9,248.1,898.2,248.1z"/>
<path id="Group_6_11_" class="st0" d="M827.9,386c-0.5-1.1-1.1-2.1-1.9-3c0-0.1-0.1-0.1-0.1-0.2c-0.9-1.7-2.4-2.8-4.1-3.6
	c-3.5-1.7-7.3-2.7-11.2-3c-1.4-0.1-2.7-0.1-4.1,0c-0.2-0.1-0.5-0.1-0.7-0.1c-5.4,0-11.8,0.2-16.2-3.4c-0.9-0.7-2.2-0.9-3,0
	c-0.7,0.7-0.9,2.3,0,3c0.5,0.4,0.9,0.7,1.4,1c-1,0.3-1.9,1-2.4,2.1c-0.7,1.5-0.9,3.2-1.2,4.7c-0.4,1.8-0.7,3.5-1,5.3
	c-0.5,3.3-0.9,6.7-1.2,10c-0.8,0.2-1.4,0.7-1.6,1.5c-0.3,1,0.4,2.4,1.5,2.6c5.5,1,11,0.9,16.4-0.4c5.9-0.1,11.8-0.3,17.6-0.5
	c0.6,0,1.1,0,1.7-0.1c0.5,0,1.1,0,1.6,0c3.6-0.1,7.5-1.5,9.2-4.9C830.4,393.9,829.4,389.4,827.9,386z"/>
<g>
	<path class="st0" d="M832.2,512c-3.8-2.9-8.2-5-12.9-6c-5.1-1.1-10.4-1.1-15.6-0.9c-9.1,0.2-20.1,0.7-26.8-6.6
		c-2.1-2.3-5.5,1.1-3.4,3.4c0.2,0.2,0.5,0.5,0.7,0.7c0,0.1,0,0.3,0,0.4c-0.2,7.7-0.4,15.5-0.7,23.2c0,0.1,0,0.3,0,0.4
		c-2.8-0.6-3.9,3.8-1,4.7c9.4,3.2,19.4,4.8,29.3,4.8c5,0,10.1-0.4,15.1-1.3c4.5-0.7,9.2-1.7,13.3-3.5c3.4-1.5,7-4.2,7.8-8.1
		C838.9,518.4,835.8,514.7,832.2,512z M799.5,531c0.1-0.2,0.1-0.4,0.2-0.6c0.1,0.2,0.3,0.4,0.4,0.6c0,0.1,0.1,0.1,0.1,0.2
		c-0.3,0-0.5,0-0.8,0C799.5,531.1,799.5,531.1,799.5,531z M784.9,527.4C785,527.4,785,527.5,784.9,527.4
		C785,527.5,785,527.5,784.9,527.4c0.3,0.8,0.8,1.5,1.7,1.8c0.2,0.1,0.4,0.1,0.5,0.2c0.2,0.2,0.4,0.5,0.7,0.6
		c-1.1-0.2-2.2-0.4-3.3-0.6c0.3-0.4,0.4-0.8,0.4-1.3C785,527.9,784.9,527.7,784.9,527.4z"/>
	<path class="st5" d="M994.5,245.7c0.1-0.6,0.1-1.2,0.1-1.8c0-2.7-1-5.3-2.6-7.5c-0.2-0.8-0.7-1.4-1.5-1.7c-0.2-0.2-0.4-0.4-0.7-0.6
		c-6.9-5.8-16.2-4.7-24.4-2.9c-8.1,1.8-16.5,5.2-21,12.6c-1,1.7,0.3,3.3,1.8,3.5c0.4,3.5,3,6.7,5.9,8.7c4,2.8,9,3.8,13.8,4.4
		c0.9,0.1,1.8,0.2,2.7,0.2c1.3,0.1,2.6,0.2,3.9,0.2c2.9,0.1,5.8,0,8.7-0.2c4.8-0.2,9.2-1.7,11.9-5.9
		C994.8,252,995.2,248.7,994.5,245.7z M953.6,246.4c-0.7-1.3-0.1-2,1.3-2.9c5.3-3.4,11.3-5,17.4-6.1c0.7-0.1,3.7,1,4.8,0.8
		c0.3-0.1,0.6-0.1,0.9-0.2c0.1,0,0.3,0,0.4-0.1c0.5-0.1,8,1.7,9.7,2.7c-0.6,1-0.4,2.2,0.3,3c0.3,0.4,0.6,0.9,0.8,1.3
		c-7.8,7.5-20.3,9.7-30.2,5.1C958.3,249.8,954.4,247.8,953.6,246.4z"/>
	<path class="st5" d="M961,271.9c-0.9-2.4-2.9-3.8-5.2-4.7c-2.1-0.8-4.8-1.4-6.5,0.4c-1.1,1.1-1.3,2.5-1.3,4c0,1.2,0,2.4,0.4,3.5
		c0.4,1,0.9,2,1.8,2.7c0.8,0.7,1.7,1.2,2.7,1.4c1.2,0.3,2.5,0.2,3.7-0.1c1.1,0,2.1-0.5,2.9-1.3C961.1,276.4,961.7,273.8,961,271.9z"
		/>
	<g>
		<path class="st5" d="M935.7,271.8C935.7,271.8,935.6,271.9,935.7,271.8c-0.1,0.1-0.1,0.1-0.1,0.2c0,0,0,0,0,0.1
			C935.6,271.9,935.7,271.8,935.7,271.8z"/>
		<path class="st5" d="M942.7,268.3c-0.1-1.1-0.5-2.2-1.3-3c-0.9-1-2.3-1.5-3.7-1.5c-1.4,0.1-2.6,0.7-3.8,1.4c-1,0.6-1.9,1.2-2.8,2
			c-1.7,1.5-3,3.8-2.8,6.2c0.1,2.5,1.7,4.8,4.2,5.5c2.5,0.7,5.3-0.3,7-2.1c1.8-1.8,2.6-4.2,3.4-6.6
			C943.2,269.5,943.1,268.8,942.7,268.3z M935.8,271.9c-0.1,0.1-0.1,0.1-0.2,0.2c0,0,0,0,0-0.1c0,0,0,0,0,0c0,0,0,0,0,0c0,0,0,0,0,0
			c0,0,0,0,0,0c0,0,0-0.1,0-0.1c0-0.1,0.1-0.1,0.1-0.1c0,0,0-0.1,0.1-0.1c0.1-0.1,0.2-0.3,0.3-0.4c0.1-0.1,0.6-0.4,0.3-0.3
			c0.2-0.1,0.3-0.2,0.5-0.3C936.5,271.2,936.2,271.6,935.8,271.9z"/>
	</g>
	<path class="st1" d="M952.5,244.7c10.7-6.3,24.4-7.3,35.9-2.4"/>
	<path class="st1" d="M973.2,241.8c1.2,2.1,1.5,4.6,0.9,6.9"/>
	<path class="st1" d="M953,246.3c5.2,2.1,10.6,3.7,16.2,4.6c1.6,0.3,3.2,0.5,4.8,0.5c5.7,0.1,11.5-2.4,15.3-6.7"/>
</g>
<g id="Back_spots">
	<g id="Group_2_13_">
		<path id="Group_8_7_" class="st0" d="M878,637.6c-0.3-5.4-3.4-10.1-8.2-11.6c-0.9-0.6-1.9-1.1-3-1.5c-6.1-2.3-12.7-0.5-18.2,2.3
			c-6,3.1-11.3,7.5-16.7,11.4c-4.1,3-8.2,6-12.3,9c-9.2,5.3-18.5,10.3-28.5,13.8c-1.6,0.6-3.2,1.1-4.9,1.6c-2.6,0.8-2,4.5,0.3,4.8
			c-0.2,0.5-0.3,1-0.2,1.6c0.4,1.6,1.3,2.8,2.7,3.7c1.1,4.7,2.2,9.3,3.4,14c0.2,0.9,0.9,1.4,1.7,1.6c0.5,1.1,1.1,2.2,1.7,3.2
			c-0.1,0-0.2,0-0.3,0c-3.1,0-3.1,4.8,0,4.8c0.1,0,0.1,0,0.2,0c-1,1.8,1.1,4.5,3.4,3.2c6.7-3.7,13.5-7.4,20.2-11
			c5.4-2.8,10.8-5.6,16.1-8.6c12.3-7,24.2-15,34.1-25.2C874,650.2,878.4,644.4,878,637.6z"/>
		<path id="Group_7_7_" class="st1" d="M794.3,671.9c1.8,5.4,4,10.6,6.6,15.7"/>
		<path id="Group_6_7_" class="st1" d="M803.9,668.1c2,5.5,4.6,10.7,7.7,15.7"/>
		<path id="Group_5_8_" class="st1" d="M818.1,665c1.4,4.5,3.9,8.6,7.2,12"/>
		<path id="Group_4_8_" class="st1" d="M830,659.2c1.5,4,4.1,7.5,7.5,10.1"/>
		<path id="Group_3_12_" class="st1" d="M842.2,652.7c1.6,2.9,4.2,5.2,7.2,6.5"/>
		<path id="Group_2_14_" class="st1" d="M854.1,641.9c2.7,2,5.5,4,8.2,6"/>
		<path id="Group_1_17_" class="st1" d="M865.2,632.1c1.7,2.2,4,3.9,6.5,5"/>
	</g>
	<g id="Group_3_13_">
		<path id="Group_6_8_" class="st0" d="M837.1,572.2c-4-3.2-9-4.1-14-4.2c-5.1-0.1-10.2,0.2-15.2,0.5c-10.9,0.6-22.5,1.1-32.6-3.8
			c-1.2-0.6-2.6-0.3-3.3,0.9c-0.6,1.1-0.3,2.7,0.9,3.3c0.7,0.4,1.5,0.7,2.2,1c-0.9,0.4-1.6,1.2-1.5,2.2c1.5,13.3,2.9,26.7,4.4,40
			c0.1,1,0.6,1.9,1.5,2.2c-1.1,0.3-2.1,0.5-3.2,0.8c-3,0.7-1.7,5.4,1.3,4.7c10.2-2.3,20.1-5.6,29.7-9.8c4.7-2.1,9.4-4.4,13.9-6.9
			c4.4-2.5,8.8-5,12.8-8.1c3.4-2.7,6.8-6.1,7.7-10.5C842.6,579.7,840.7,575.2,837.1,572.2z"/>
		<path id="Group_5_9_" class="st1" d="M781,578.5c0.3,6.7,1.1,13.4,2.4,19.9"/>
		<path id="Group_4_9_" class="st1" d="M791.9,580.4c-0.3,4.8,0.6,9.7,2.6,14.1"/>
		<path id="Group_3_14_" class="st1" d="M801.2,580.8c0.1,2.3,0.4,4.7,0.9,7c0.3,1.6,1,3.4,2.5,3.9"/>
		<path id="Group_2_15_" class="st1" d="M813.6,580.4c0.9,3,1.8,5.9,2.7,8.9"/>
		<path id="Group_1_18_" class="st1" d="M826.9,578.9c0.6,2.3,1.5,4.5,2.6,6.6"/>
	</g>
	<g id="Group_4_10_">
		<path id="Group_5_10_" class="st0" d="M784.9,527.4C785,527.4,785,527.5,784.9,527.4C785,527.5,785,527.5,784.9,527.4
			c0.3,0.8,0.8,1.5,1.7,1.8c0.2,0.1,0.4,0.1,0.5,0.2c0.2,0.2,0.4,0.5,0.7,0.6c-1.1-0.2-2.2-0.4-3.3-0.6c0.3-0.4,0.4-0.8,0.4-1.3
			C785,527.9,784.9,527.7,784.9,527.4z"/>
		<path id="Group_4_11_" class="st1" d="M786,517.3c-0.2,4-0.1,7.9,0.2,11.9"/>
		<path id="Group_3_15_" class="st1" d="M797.1,514.6c-0.4,4.9-0.2,9.7,0.5,14.6"/>
		<path id="Group_2_16_" class="st1" d="M807.6,515.4c0,4.3,0.7,8.6,1.9,12.7"/>
		<path id="Group_1_19_" class="st1" d="M821.9,516.2c0.6,3.6,1.5,7.2,2.6,10.7"/>
	</g>
	<g id="Group_1_20_">
		<path id="Group_6_9_" class="st0" d="M819.6,379.9C819.6,379.9,819.6,379.9,819.6,379.9C819.6,379.9,819.6,379.9,819.6,379.9
			C819.6,379.9,819.6,379.9,819.6,379.9z"/>
		<path id="Group_5_11_" class="st1" d="M792.9,383.4c-0.4,3.7-1.1,7.4-2,11.1"/>
		<path id="Group_4_12_" class="st1" d="M800.9,383.4c0.1,3-0.5,6-1.7,8.7"/>
		<path id="Group_2_17_" class="st1" d="M809.7,384.1c-0.2,1.4,0,2.7-0.1,4.1c-0.1,1.3-0.6,2.6-1.4,3.7"/>
		<path id="Group_1_21_" class="st1" d="M819.9,386.6c0.2,2.1-0.1,4.2-0.6,6.2"/>
	</g>
	<g id="Group_5_12_">
		<path id="Group_5_13_" class="st0" d="M867.7,327.6c-3.6-3.6-8.7-5.4-13.5-6.5c-5.2-1.3-10.4-2.2-15.4-4.1
			c-5.6-2.1-11-4.9-15.9-8.5c-3.9-2.8-7.9-6.9-7.9-12c0-3.1-4.8-3.1-4.8,0c0,1.7,0.3,3.4,0.8,4.9c-0.6,0.3-1.1,0.9-1.4,1.5
			c-0.2,0.5-0.4,1.1-0.6,1.6c-1.5,0.3-2.8,2.1-1.9,3.7c0.1,0.2,0.2,0.3,0.3,0.5c-1.6,4-3.1,8-4.7,12c-0.6,1.4-1.1,2.8-1.7,4.3
			c-0.6,1.4-1.3,2.9-1.5,4.4c-0.2,1,0,2.1,0.5,3c-1,0.1-1.9,0.9-2.2,1.8c-0.4,1.4,0.5,2.5,1.7,3c10.9,4,21.9,8.1,33.3,10.8
			c5.7,1.3,11.4,2.3,17.2,2.8c4.8,0.4,10,0.8,14.5-1c4.5-1.7,7.7-5.3,8-10.2C873,335.1,870.7,330.7,867.7,327.6z"/>
		<path id="Group_4_13_" class="st1" d="M814.8,317.7c-1.9,3.9-3.7,7.8-5.6,11.8"/>
		<path id="Group_3_16_" class="st1" d="M823.9,323c-1.5,3.3-2.7,6.7-3.7,10.2"/>
		<path id="Group_2_18_" class="st1" d="M840,328c-1.1,3.1-1.9,6.3-2.5,9.5"/>
		<path id="Group_1_22_" class="st1" d="M856.8,332.1c-0.2,1.9-0.1,3.9,0.3,5.7"/>
	</g>
	<g id="Group_6_10_">
		<path id="Group_5_14_" class="st0" d="M876.2,279.9c-1.9-3.6-5.4-6.2-8.8-8.1c-3.6-2-7.3-3.8-10.9-5.7
			c-8.2-4.3-16.2-9.2-22.2-16.3c-0.9-1-2.5-0.9-3.4,0c-1,1-0.9,2.4,0,3.4c0.2,0.2,0.4,0.4,0.6,0.6c-0.1,0.1-0.2,0.2-0.3,0.4
			c-2.5,3.6-4.7,7.3-6.5,11.3c-1.6,3.6-3.4,7.6-3.1,11.6c-0.9,0-1.9,0.5-2.3,1.2c-0.7,1.2-0.2,2.5,0.9,3.3c6.9,5.1,14.6,9,22.8,11.6
			c4,1.3,8.2,2.2,12.4,2.8c4.2,0.6,8.6,1.1,12.8,0.7c4.1-0.5,7.6-2.5,9.1-6.6C878.4,286.9,877.8,283,876.2,279.9z"/>
		<path id="Group_4_14_" class="st1" d="M837,266.8c-1.7,3.8-3.9,7.5-6.5,10.7"/>
		<path id="Group_3_17_" class="st1" d="M846.6,272.9c-1.4,3.5-3,6.9-5,10.1"/>
		<path id="Group_2_19_" class="st1" d="M858,280.9c-0.7,2.7-1.7,5.4-2.9,7.9"/>
		<path id="Group_1_23_" class="st1" d="M868.6,284.3c-0.1,1.7-0.5,3.4-1.1,5"/>
	</g>
</g>
<g id="Body_outline">
	<path id="Group_1_31_" class="st1" d="M817.9,741.1c-22.4-34.7-34.3-75.3-40.1-116.2c-5.8-40.9-5.6-82.3-5.5-123.6l3.1-53
		c3.4-80.3,36.3-156.1,71.4-228.4c10.8-22.2,22.6-45.2,42.8-59.5c-0.5,14.4-2.5,28.7-6.1,42.7c28.2-1.2,56.3-2.5,84.5-3.7
		c3.1-0.1,6.5-0.4,8.8-2.5c1.6-1.5,2.4-3.6,3.1-5.7c3.3-8.9,8.2-18.1,16.8-21.9c-0.8,49.6-2.8,88.6-4,112.4
		c-0.5,9.1-1.5,25.2-11.7,40.8c-2.1,3.3-4.2,5.8-5.6,7.4"/>
	<path id="Group_2_22_" class="st1" d="M957.9,787.3c-21.7,17.4-53.2,18.9-78.9,8.5c-25.7-10.4-46.1-31.3-61.1-54.6"/>
</g>
<path id="Group_2_23_" class="st6" d="M557.3,350.4c38.5,32.3,84.9,53.1,133.3,68.4c31.7,9.4,96.9,16.1,97.1,15.7
	c17-24.9,31.4-51.6,45.7-78.3c4-0.3,6.3,3.1,5.7,6.9c-2,11.4-9.5,20.9-13.1,31.5c-0.4,1.1-0.6,3,0.4,4.1c1.9,2.1,7.3,0.1,9.6-0.7
	c0,0,33.4-12.3,59.5-17.2c1-0.2,1.9-0.3,2.5-0.3c3.3-0.4,9-1,9.9,0.9c0.5,1-0.4,2.3-1,3.2c-4.8,6.5-15.5,10-20.4,11.8
	c-4.9,1.8-11.9,4.6-20.1,9.3c4.7,0.4,12.6,0.7,22.4,0.1c18-1.1,32.4-5,33.6-1.7c0.3,0.7-0.2,1.5-0.8,2.4c-2,2.7-6.1,7.1-28.5,10.9
	c-3.3,0.6-6.5,1.3-9.8,1.9c-8.7,1.6-13.1,2.3-14.4,5.4c-0.3,0.7-0.6,1.5-0.3,2.2c1.1,2.5,8.3,1.8,30.3-1.7
	c13.3-2.1,20.3-3.4,21.7-0.7c0.6,1.2-0.1,2.7-0.5,3.6c-3.1,6.5-12.4,7.8-22.7,10c-13.6,2.9-28.9,7.3-28.7,8.7
	c0.2,1.5,19.7,3.9,32.9,0.8c1.9-0.5,8.2-2.1,10.3,0.7c0.6,0.8,0.7,1.7,0.7,2c0.2,4.2-7.9,7.9-10.3,9.1c-30.2,14-94,16.3-94,16.3
	c-9,0.3-19,0.7-29.9,1c-14.4,0.3-34.7-0.1-58.8-3.4c-37.5-5.2-64.2-14.8-101.3-28.3c-25.4-9.3-58.1-22.3-95.3-40.4"/>
<path id="Group_1_32_" class="st3" d="M836.7,397.2c27.4,42.1,50.1,87.2,67.4,134.3c1.3,3.7,2.8,7.5,5.7,10.1
	c2.9,2.6,7.8,3.5,10.6,0.8c1.3-1.2,1.9-2.8,2.4-4.5c2-7.5-0.1-15.4-2.4-22.9c-15.6-51.9-36.7-102.1-62.8-149.6"/>
<path id="Group_1_33_" class="st4" d="M559.1,351.5c-19.5,17-28.2,43-36,67.6c-3.2-0.3-6.5-0.7-9.7-1c3-17.2,8.3-33.9,15.8-49.7
	c5.4-11.4,12.3-22.8,23.2-29.1c3.3,3.8,6.1,8.1,8.2,12.6"/>
<path id="Group_1_34_" class="st1" d="M836.7,397.2c27.4,42.1,50.1,87.2,67.4,134.3c1.3,3.7,2.8,7.5,5.7,10.1
	c2.9,2.6,7.8,3.5,10.6,0.8c1.3-1.2,1.9-2.8,2.4-4.5c2-7.5-0.1-15.4-2.4-22.9c-15.6-51.9-36.7-102.1-62.8-149.6"/>
<g id="Nose">
	<path id="Group_3_23_" class="st1" d="M939.7,260.2c0.7,2.3,3.5,3.9,5.8,3.2c2.4-0.7,3.9-3.4,3.2-5.8"/>
	<path id="Group_2_21_" class="st1" d="M944.6,266c-1.4,3.7-3.4,7.2-5.8,10.4c0.3-0.4,0.6-0.9,0.9-1.3"/>
	<path id="Group_1_30_" class="st1" d="M946.1,265.3c1.5,4.4,3.9,8.4,7.1,11.8"/>
</g>
</svg>
