<?xml version="1.0" encoding="utf-8"?>
<!-- Generator: Adobe Illustrator 24.0.1, SVG Export Plug-In . SVG Version: 6.00 Build 0)  -->
<svg version="1.1" id="Layer_1" xmlns="http://www.w3.org/2000/svg" xmlns:xlink="http://www.w3.org/1999/xlink" x="0px" y="0px"
	 viewBox="0 0 1600 1200" style="enable-background:new 0 0 1600 1200;" xml:space="preserve">
<style type="text/css">
	.st0{fill:none;stroke:#000000;stroke-width:4.01;stroke-linecap:round;stroke-linejoin:round;}
</style>
<g>
	<g id="Wave">
		<path id="Group_3_1_" class="st0" d="M629,320.1c8,5.9,21.6,5.3,30-1.3c8.4-6.6,18.9-14.7,28.6-10.2c4,1.8,6.9,5.5,11.1,6.9
			c9.6,3.1,17.6-7.2,25.4-13.6c11.6-9.4,29.2-10.5,42-2.8c6.7,4.1,12.6,10.5,20.4,11.1c8.4,0.7,16.4-5.6,24.8-4.2
			c6.8,1.1,11.8,7,17.8,10.4s21.3,4.6,31.4-5.4"/>
	</g>
</g>
<g>
	<g>
		<path d="M905.5,385.7c1.6-15.2-3.9-30.1-12.1-42.7c-8.4-12.8-19.4-23.8-31.2-33.4c-23.5-19-51.6-32.6-81.3-38.3
			c-30.4-5.9-62.2-3.5-91.3,7c-14.6,5.2-28.4,12.4-41,21.5c-12.7,9.2-24.3,20.4-31.5,34.4c-7.4,14.6-10,31.1-10.4,47.3
			c-0.4,14.9,1.3,29.9,4.7,44.4c6.9,29,21.2,56.3,41.3,78.4c20.2,22.2,46.4,38.6,74.8,47.9c28.6,9.4,60,11.7,89.5,5.1
			c15.1-3.4,29.8-9.3,42.4-18.3c12.2-8.8,22-20.4,29.3-33.5c16.2-29.2,19.4-63,19.3-95.8c0-8.8-0.3-17.6-0.6-26.5
			c-0.1-2.6-4.1-2.6-4,0c1.1,33.6,2,68.2-9.3,100.4c-4.8,13.6-11.7,26.7-21.2,37.6c-9.8,11.3-22.3,20-36.2,25.7
			c-27.3,11.3-58.6,12.5-87.4,6.8c-28.5-5.6-55.7-18.4-78-37.1c-22.3-18.8-39.4-43.4-49.6-70.7c-5.1-13.6-8.6-27.8-10.1-42.2
			c-1.6-15-1.5-30.6,1.5-45.4c1.6-7.8,4-15.4,7.6-22.4c3.5-6.8,8.1-12.9,13.3-18.4c10.5-11,23.3-19.8,36.8-26.8
			c26.7-13.9,57.3-20.2,87.4-18.4c29.5,1.8,58.2,11.5,83.1,27.2c12.5,7.9,24.2,17.2,34.5,27.9c10.3,10.6,19.4,23.1,23.7,37.4
			c2,6.8,2.8,13.8,2.1,20.9C901.2,388.3,905.2,388.3,905.5,385.7L905.5,385.7z"/>
	</g>
</g>
<g>
	<g>
		<path d="M676.6,526.7c-6.1,6.1-7.2,15.5-4.7,23.4c2.7,8.9,9.8,15.5,17.2,20.7c7.8,5.4,16.4,9.9,25.1,13.8c8.8,4,17.8,7.3,27.1,9.9
			c18.3,5.1,37.5,7.3,56.4,5.4c9.4-0.9,18.8-2.8,27.8-5.9c8.7-3,17.4-6.8,24.8-12.4c7.1-5.3,13.2-12.3,15.7-21
			c2.2-7.7,1.6-16.6-2.8-23.5c-1.1-1.7-2.4-3.2-3.9-4.5c-1.9-1.7-4.8,1.1-2.8,2.8c5.6,5.1,7.5,12.9,6.5,20.2
			c-1.1,8-5.7,14.9-11.7,20.2c-6.5,5.7-14.4,9.7-22.4,12.7c-8.4,3.2-17.1,5.5-26,6.7c-17.7,2.6-35.9,1.2-53.2-2.8
			c-17.8-4.1-34.8-11.1-50.6-20.2c-7.5-4.3-15.2-9.3-20-16.6c-4.1-6.2-6-14.8-2.7-21.8c0.8-1.6,1.8-3.1,3.1-4.4
			C681.3,527.7,678.5,524.9,676.6,526.7L676.6,526.7z"/>
	</g>
</g>
<g>
	<g>
		<path d="M684.5,524.1c-1.6-31.5,0-63.2,5.1-94.4c1.4-8.8,3.1-17.5,5-26.2c-1.2,0.2-2.4,0.3-3.7,0.5c4.3,6.9,6.8,14.7,7,22.9
			c0,1.7,1.6,2.3,3,1.7c25.5-10.9,54.2-14.6,81.7-10.5c7.8,1.2,15.6,2.9,23.2,5.3c1.3,0.4,2.5-0.7,2.5-1.9
			c0.1-11.4,0.2-22.7,0.3-34.1c-0.8,0.6-1.7,1.3-2.5,1.9c7.5,1.8,9.8,11.4,11.8,17.7c3.4,10.2,6.7,20.4,10.1,30.5
			c6.7,20.4,13.3,40.7,19.9,61.1c3.7,11.5,7.5,23.1,11.2,34.6c0.8,2.4,4.7,1.4,3.9-1.1c-6.7-20.9-13.5-41.7-20.3-62.6
			c-6.8-20.9-13.7-41.8-20.6-62.8c-2.6-8-5.5-19.2-15-21.4c-1.3-0.3-2.5,0.6-2.5,1.9c-0.1,11.4-0.2,22.7-0.3,34.1
			c0.8-0.6,1.7-1.3,2.5-1.9c-27.4-8.6-57.1-9.2-85-2.2c-7.9,2-15.5,4.6-23,7.8c1,0.6,2,1.2,3,1.7c-0.2-8.8-2.8-17.4-7.5-24.9
			c-0.9-1.4-3.3-1.3-3.7,0.5c-6.9,31.2-10.6,63.1-10.8,95c-0.1,8.9,0.1,17.8,0.6,26.7C680.6,526.6,684.6,526.7,684.5,524.1
			L684.5,524.1z"/>
	</g>
</g>
<g>
	<g>
		<path d="M691.8,572.3c1.3,26.3,2.6,52.7,3.9,79c1.3,26.3,2.6,52.7,3.9,79c1.3,26,2,52.1,4.4,78.1c0.6,6.5,1.3,12.9,2.3,19.3
			c0.5,3.2,1,6.4,1.5,9.6c0.5,2.8,0.8,5.9,1.8,8.6c0.7,2,2,4.3,4.2,5c2.2,0.7,4.4-0.3,5.6-2.2c1.3-2.1,1.3-4.7,1.5-7.1
			c0.2-3.2,0.4-6.4,0.6-9.6c1.6-26.3,3.3-52.5,4.9-78.8c0.2-3.3,0.4-6.6,0.6-9.9c0.2-2.6-3.8-2.6-4,0c-1.6,25.4-3.2,50.9-4.7,76.3
			c-0.4,6.3-0.8,12.7-1.2,19c-0.1,1.6-0.2,3.1-0.3,4.7c-0.1,1-0.1,2-0.5,2.9c-0.8,1.8-2,0.3-2.5-0.9c-1.1-2.3-1.3-5.1-1.7-7.5
			c-0.6-3-1.1-6-1.5-9.1c-0.9-6.2-1.7-12.5-2.3-18.8c-2.4-25-3.1-50.2-4.4-75.3c-1.3-25.5-2.5-51-3.8-76.6s-2.5-51-3.8-76.6
			c-0.2-3.1-0.3-6.3-0.5-9.4C695.6,569.7,691.6,569.7,691.8,572.3L691.8,572.3z"/>
	</g>
</g>
<g>
	<g>
		<path d="M723.7,785.8c14.7,13.7,32.7,23.7,52.1,28.8c5.5,1.5,11.1,2.5,16.8,3.2c1.1,0.1,2-1,2-2c0-1.2-0.9-1.9-2-2
			c-19.1-2.3-37.5-9.5-53.3-20.5c-4.5-3.1-8.8-6.6-12.8-10.3C724.7,781.2,721.8,784,723.7,785.8L723.7,785.8z"/>
	</g>
</g>
<g>
	<g>
		<path d="M786.6,747.1c1.1,16.6,2.3,33.2,3.6,49.8c1.4,16.7,2.8,33.4,4.5,50c0.5,5.3,1,12.5,6.2,15.6c2.8,1.6,6.3,1.3,8.8-0.6
			c2.9-2.1,4.4-5.3,5-8.7c0.6-3.9,0.5-7.8,0.6-11.7c0.1-4.2,0.2-8.5,0.3-12.7c0.2-8.3,0.4-16.6,0.6-24.9c0.4-16.8,0.8-33.5,1.1-50.3
			c0-2.1,0.1-4.1,0.1-6.2c0.1-2.6-4-2.6-4,0c-0.6,31.9-1.4,63.7-2.3,95.6c-0.1,3.6,0.1,7.4-0.8,10.9c-0.7,2.6-2.5,5.5-5.5,5.7
			c-5.2,0.4-5.9-7.9-6.2-11.4c-1.6-15.8-3-31.7-4.3-47.5c-1.5-17.8-2.8-35.7-3.9-53.6C790.5,744.5,786.5,744.5,786.6,747.1
			L786.6,747.1z"/>
	</g>
</g>
<g>
	<g>
		<path d="M862.4,835.3c-3.3,0-6.7,0.1-10,0.1c-3,0-6-0.1-9,0.2c-2.2,0.2-4.5,0.6-6.3,1.9c-1.9,1.4-3,3.7-2.6,6.1
			c0.8,4.3,6,6.4,9.8,7c6.2,0.9,12.5,1.1,18.7,1.4c24.6,1.4,49.4,2.8,73.9-0.2c6.8-0.8,13.6-2,20.4-3.6c1.6-0.4,3.2-0.8,4.8-1.2
			c1.5-0.4,3.1-0.7,4.5-1.5c2.5-1.3,4.3-4.2,2.2-6.7c-1.7-1.9-4.5,0.9-2.8,2.8c-0.5-0.6,0.1-0.6-0.4-0.3c-0.4,0.2-0.6,0.5-1,0.7
			c-1.1,0.6-2.5,0.8-3.8,1.1c-2.6,0.7-5.2,1.3-7.8,1.9c-5.4,1.2-10.8,2.1-16.3,2.7c-10.9,1.3-21.9,1.8-32.9,1.7
			c-11.1,0-22.2-0.5-33.3-1.1c-5.6-0.3-11.2-0.6-16.8-1c-2.8-0.2-5.6-0.4-8.3-0.7c-1.8-0.2-3.6-0.8-5.1-1.7
			c-1.1-0.7-2.4-1.8-1.7-3.3c0.7-1.6,3.1-1.9,4.6-2c3-0.2,6.1-0.1,9.1-0.2c3.3,0,6.7-0.1,10-0.1C865,839.3,865,835.3,862.4,835.3
			L862.4,835.3z"/>
	</g>
</g>
<g>
	<g>
		<path d="M863.3,834.7c-7.8-11.4-12.9-24.4-15.3-37.9c-2.4-13.5-2-27.5,1.1-40.9c3-13.4,8.7-26.2,17-37.3
			c8.6-11.5,20.5-21.1,34.1-26c6.6-2.4,13.7-3.6,20.8-3.1c3.5,0.3,7,1,10.4,2.1c2.8,1,6.1,2.2,9.1,1.2c1.6-0.6,2.7-1.7,3.3-3.3
			c0.4-1-0.4-2.2-1.4-2.5c-1.1-0.3-2.1,0.4-2.5,1.4c-0.3,0.8-1.7,0.7-2.5,0.7c-1.5-0.1-2.9-0.6-4.2-1.1c-3.5-1.3-7.1-2-10.7-2.4
			c-7.2-0.8-14.6,0.3-21.5,2.5c-14.2,4.6-26.7,13.9-36,25.5c-8.8,11-15.2,23.9-18.8,37.5c-3.6,13.5-4.5,27.8-2.7,41.7
			c1.8,13.9,6.3,27.5,13.6,39.5c0.9,1.5,1.9,3,2.9,4.4C861.3,838.8,864.8,836.8,863.3,834.7L863.3,834.7z"/>
	</g>
</g>
<g>
	<g>
		<path d="M866.7,551.8c17.4,2.6,34.1,8.3,49.4,17c15.9,9,29.4,21.1,41.5,34.6c22.9,25.5,41.8,54.6,56.3,85.6
			c14.4,30.8,24.4,63.7,29.6,97.3c5.2,33.9,5.8,69-0.1,102.8c-5.8,33.5-18.6,66.8-41.3,92.5c-20.9,23.7-49.8,41.4-81.5,45.5
			c-15.5,2-33.5,1.6-47.4-6.5c-13.2-7.6-19.6-23.6-15.6-38.3c3.9-14.3,18-23.8,32.6-23.8c15.6,0.1,26.7,12.4,39.4,19.7
			c6.5,3.7,13.8,6.1,21.4,5.7c8.1-0.4,15.9-3.4,22.8-7.7c13.4-8.3,24.2-20.9,32.5-34.1c16.5-26,23.9-57.9,20.4-88.5
			c-0.8-7.4-2.3-14.8-4.4-21.9c-0.3-1.1-1.4-1.7-2.5-1.4c-14.7,3.6-29.6,5.7-44.7,6.1c-2.6,0.1-2.6,4.1,0,4
			c15.4-0.4,30.8-2.5,45.8-6.2c-0.8-0.5-1.6-0.9-2.5-1.4c9,30.7,5.8,64.4-7.9,93.3c-6.9,14.5-16.4,28.1-28.4,38.8
			c-12.6,11.3-29.9,19.6-46.6,11.9c-13.7-6.3-24.2-19.3-39.6-21.8c-14.2-2.3-29.2,3.9-37.5,15.7c-8.3,11.9-8,28.7-0.4,40.9
			c8.8,14.3,26,19.1,41.8,20.1c32,2.1,63.5-10.7,87.9-30.9c26.4-21.8,43.7-52.3,53.3-84.9c9.9-33.8,11.9-69.7,9.1-104.7
			c-2.8-34.6-10.7-68.9-23.2-101.3c-12.5-32.3-29.6-62.8-50.8-90.3c-11.2-14.5-23.3-28.5-37.5-40.1c-13.6-11.2-29.1-19.8-45.7-25.5
			c-8.2-2.8-16.7-4.9-25.4-6.2C865.2,547.6,864.1,551.5,866.7,551.8L866.7,551.8z"/>
	</g>
</g>
<g>
	<g>
		<path d="M820,820.2c10.6,3.8,22.3,4,32.9,0.6c2.5-0.8,1.4-4.6-1.1-3.9c-10.1,3.2-20.9,2.9-30.8-0.6
			C818.6,815.5,817.6,819.4,820,820.2L820,820.2z"/>
	</g>
</g>
<g>
	<g>
		<path d="M706.3,462.6c6.1-8,18.3-10.2,27-5.3c2.2,1.3,4.3-2.2,2-3.5c-10.7-6.1-25-3-32.4,6.7c-0.7,0.9-0.1,2.2,0.7,2.7
			C704.6,463.9,705.6,463.4,706.3,462.6L706.3,462.6z"/>
	</g>
</g>
<g>
	<g>
		<path d="M778.5,452.4c11.4-7.2,26.3-8.4,38.6-2.8c1,0.4,2.2,0.3,2.7-0.7c0.5-0.9,0.3-2.3-0.7-2.7c-13.6-6.1-29.9-5.2-42.6,2.8
			C774.3,450.3,776.3,453.7,778.5,452.4L778.5,452.4z"/>
	</g>
</g>
<g>
	<g>
		<path d="M800,447.1c0.5,1.8,0.9,3.6,1.4,5.4c0.3,1,1.4,1.7,2.5,1.4c1.1-0.3,1.7-1.4,1.4-2.5c-0.5-1.8-0.9-3.6-1.4-5.4
			c-0.3-1-1.4-1.7-2.5-1.4C800.4,445,799.7,446,800,447.1L800,447.1z"/>
	</g>
</g>
<g>
	<g>
		<path d="M719.6,454.3c0,3.7,0,7.4,0,11c0,1,0.9,2.1,2,2c1.1,0,2-0.9,2-2c0-1.1,0-2.3,0-3.4c0-1-0.9-2.1-2-2c-1.1,0-2,0.9-2,2
			c0,1.1,0,2.3,0,3.4c1.3,0,2.7,0,4,0c0-3.7,0-7.4,0-11c0-1-0.9-2.1-2-2C720.5,452.4,719.6,453.2,719.6,454.3L719.6,454.3z"/>
	</g>
</g>
<g>
	<g>
		<path d="M704.8,465.6c10.8,8.3,28.4,4.1,34.5-8c1.2-2.3-2.3-4.3-3.5-2c-5.2,10.3-19.9,13.5-29.1,6.5c-0.9-0.7-2.2-0.1-2.7,0.7
			C703.5,463.9,703.9,465,704.8,465.6L704.8,465.6z"/>
	</g>
</g>
<g>
	<g>
		<path d="M777.8,452.1c4.1,2.3,8.4,4.2,12.8,5.6c4,1.2,8.2,2.3,12.4,2.4c6,0.1,14.1-2.1,15.1-9.1c0.2-1.1-0.3-2.2-1.4-2.5
			c-0.9-0.3-2.3,0.3-2.5,1.4c-0.8,5.5-7.7,6.4-12.2,6.1c-3.6-0.2-7.3-1.2-10.8-2.3c-4-1.3-7.8-3-11.5-5.1
			C777.6,447.3,775.6,450.8,777.8,452.1L777.8,452.1z"/>
	</g>
</g>
<g>
	<g>
		<path d="M755.2,462.7c-0.3,1.4-0.1,2.9,0.8,4.1c1,1.3,2.3,2.1,3.9,2.2c0.7,0.1,1.4-0.4,1.7-1c1.4-2.8,1.8-6,1.1-9.1
			c-0.3-1-1.5-1.7-2.5-1.4c-1.1,0.3-1.7,1.4-1.4,2.5c0.1,0.3,0.1,0.6,0.2,0.9c0,0.2,0,0.2,0-0.1c0,0.1,0,0.2,0,0.3
			c0,0.1,0,0.3,0,0.4c0,0.6,0,1.3,0,1.9c-0.1,0.5,0.1-0.4,0,0c0,0.1-0.1,0.3-0.1,0.4c-0.1,0.3-0.1,0.6-0.2,0.9
			c-0.1,0.3-0.2,0.6-0.3,0.9c-0.2,0.5,0.2-0.3,0,0.1c-0.1,0.2-0.1,0.3-0.2,0.5c0.6-0.3,1.2-0.7,1.7-1c-0.4,0,0.5,0.1,0.1,0
			c-0.1,0-0.2-0.1-0.3-0.1c-0.3-0.1,0.4,0.2,0.2,0.1c-0.1,0-0.1-0.1-0.2-0.1c-0.1-0.1-0.2-0.1-0.3-0.2c0.4,0.2,0.3,0.2,0.1,0.1
			c-0.1-0.1-0.1-0.1-0.2-0.2c-0.3-0.3,0.2,0.3,0.1,0.1c-0.1-0.2-0.2-0.3-0.3-0.5c-0.2-0.3,0.1,0.5,0,0.1c0-0.1-0.1-0.2-0.1-0.2
			c0-0.1,0-0.2-0.1-0.2c0.2,0.4,0,0.4,0,0.1c0-0.1,0-0.2,0-0.3c0-0.4-0.1,0.5,0,0.1c0.2-1-0.3-2.2-1.4-2.5
			C756.6,461.1,755.4,461.6,755.2,462.7L755.2,462.7z"/>
	</g>
</g>
<g>
	<g>
		<path d="M758.4,469c0.5,2.4,1,4.8,1,7.2c0,1.1-0.2,2.2-0.6,3.2c-0.2,0.7-0.7,1.4-1.2,1.9c-0.7,0.7-1,0.9-2,1.4
			c-0.4,0.2-1.4,0.4-1.8,0.4c-0.2,0-0.4,0-0.6,0c0.4,0-0.3-0.1-0.4-0.1c-0.1,0-0.6-0.2-0.2-0.1c-0.2-0.1-0.3-0.2-0.5-0.3
			c-0.2-0.1-0.2-0.1-0.1,0c-0.2-0.2-0.4-0.3-0.6-0.4c-0.2-0.1-0.5-0.2-0.8-0.2c0.6,0,1,0.3,1.2,0.8c0.1,0.5-0.2,1-0.6,1.2
			c-1.3,0.7-1.9-0.5-1.5-1.5c-0.4,1-0.3,2.1,0.7,2.7c0.8,0.5,2.3,0.3,2.7-0.7c0.5-1.2,0.4-2.5-0.5-3.5c-0.9-0.9-2.4-1.2-3.5-0.5
			c-1.1,0.7-1.5,2-1.2,3.2c0.3,1.3,1.4,2,2.7,2.2c-0.5-0.2-0.9-0.4-1.4-0.6c1.9,1.5,4.1,2,6.4,1.4c2-0.5,4-1.8,5.3-3.4
			c3.6-4.4,2.5-10.5,1.3-15.6c-0.2-1.1-1.5-1.7-2.5-1.4C758.7,466.9,758.2,468,758.4,469L758.4,469z"/>
	</g>
</g>
<g>
	<g>
		<path d="M760.4,473.4c-0.4,4.9,3.2,10,8.1,10.9c5,0.9,9.9-2,11.7-6.7c0.4-1-0.4-2.2-1.4-2.5c-1.1-0.3-2.1,0.4-2.5,1.4
			c-0.1,0.4,0,0-0.1,0.3c-0.1,0.2-0.2,0.4-0.3,0.6c-0.3,0.5-0.3,0.5-0.6,0.8c-0.6,0.7-1,1-1.8,1.4c-0.4,0.2-0.7,0.3-0.9,0.4
			c-0.4,0.1-0.8,0.2-1.2,0.3c-0.4,0.1,0.1,0-0.3,0c-0.2,0-0.4,0-0.6,0c-0.2,0-0.4,0-0.6,0c-0.2,0-0.3,0-0.1,0c-0.1,0-0.2,0-0.3-0.1
			c-3.2-0.7-5.3-3.8-5-7c0.1-1.1-1-2-2-2C761.2,471.4,760.5,472.3,760.4,473.4L760.4,473.4z"/>
	</g>
</g>
<g>
	<g>
		<path d="M769.6,359.9c3-9,14.9-13.7,23.3-9.3c2.3,1.2,4.3-2.3,2-3.5c-10.8-5.7-25.3,0.2-29.2,11.7
			C764.9,361.3,768.8,362.3,769.6,359.9L769.6,359.9z"/>
	</g>
</g>
<g>
	<g>
		<path d="M767.5,357.9c0.2,7.1,7.4,11.7,14.1,11.4c8.1-0.4,14.1-7,18.4-13.1c-1.2-0.2-2.4-0.3-3.7-0.5c2.6,7.2,12.7,9.4,17.4,2.9
			c2-2.7,2.5-6.6,1.3-9.8c-0.3-0.9-0.8-2-1.7-2.5c-1-0.6-2.5-0.3-3.6-0.2c-2.4,0.2-4.6,0.9-6.7,2c0.9,0.9,1.8,1.8,2.7,2.7
			c2.9-5,3.6-11,1.9-16.4c-0.3-1.1-1.4-1.6-2.5-1.4c-3.4,0.5-5.8,3.2-7.1,6.2c-0.7,1.6-1.2,3.3-1.6,5.1c-0.2,0.8-0.3,1.7-0.5,2.5
			c-0.1,0.4-0.1,0.8-0.2,1.2c0,0.2-0.1,0.4-0.1,0.6c0,0.1,0,0.2-0.1,0.3c-0.1,0.3,0,0.2,0.1-0.1c0.3-0.1,0.7-0.2,1-0.3
			c-0.1,0-0.1,0-0.2,0c0.3,0.1,0.7,0.2,1,0.3c0.2,0.5,0.3,0.9,0.5,1.4c-0.2,0.3-0.3,0.6-0.5,0.9c0,0,0.1-0.1,0.1-0.1
			c-0.3,0.2-0.6,0.3-0.9,0.5c0.1,0,0.1,0,0.2,0c1.1-0.2,1.7-1.5,1.4-2.5c-0.3-1.2-1.4-1.6-2.5-1.4c-3.2,0.4-1.7,5.7,1.4,4.9
			c2.7-0.7,2.5-4.3,2.9-6.5c0.7-3.6,1.8-8.5,6.1-9.1c-0.8-0.5-1.6-0.9-2.5-1.4c1.4,4.5,0.9,9.3-1.5,13.3c-1,1.8,1,3.6,2.7,2.7
			c2.3-1.2,4.7-1.7,7.2-1.6c-0.6-0.3-1.2-0.7-1.7-1c1.9,2.8,1.2,7.2-1.9,8.9c-3,1.7-7.4-0.1-8.5-3.3c-0.6-1.7-2.7-1.9-3.7-0.5
			c-3.4,4.8-8.1,10.4-14.3,11.1c-4.5,0.5-10.5-2.3-10.7-7.4C771.4,355.3,767.4,355.3,767.5,357.9L767.5,357.9z"/>
	</g>
</g>
<g>
	<g>
		<path d="M839.1,393.1c4.9-5.5,12.9-7.8,19.9-5.5c6.8,2.2,11.9,8.9,12.5,16c0.2,2.6,4.2,2.6,4,0c-0.6-6.9-4.3-13.2-10-17.1
			c-5.6-3.9-13-4.7-19.5-2.5c-3.7,1.3-7.1,3.4-9.7,6.4C834.5,392.2,837.3,395,839.1,393.1L839.1,393.1z"/>
	</g>
</g>
<g>
	<g>
		<path d="M836.5,388.4c0-3.1-0.9-6.2-2.7-8.7c-1.6-2.3-4-4.4-6.9-3.1c-2.4,1.1-3.8,3.9-3.4,6.5c0.5,2.9,2.7,5,4.9,6.7
			c-0.1-0.8-0.2-1.6-0.3-2.4c-2.5,4.4-5.4,10.5-2,15.3c2.4,3.3,7.7,5.2,10.9,1.8c0.6-0.6,1.1-1.8,2-2c0.9-0.1,2,0.7,2.7,1.2
			c1.9,1.3,3.5,2.9,5.6,3.9c3.9,1.9,8.4,2.4,12.6,1.6c4.8-0.9,9.1-3.5,12.1-7.4c0.7-0.9,0.1-2.2-0.7-2.7c-1-0.6-2.1-0.1-2.7,0.7
			c-4.2,5.6-12.5,7.3-18.8,4.6c-3.6-1.5-6.2-5.5-10.3-5.8c-1-0.1-2,0.1-2.9,0.6c-1,0.6-1.6,1.5-2.4,2.3c-0.9,1-2.1,0.9-3.3,0.3
			c-4.8-2.7-1.4-8.9,0.5-12.4c0.4-0.7,0.4-1.9-0.3-2.4c-1.3-1-2.8-2.2-3.5-3.7c-0.4-0.8-0.5-2.6,0.7-3c1.1-0.3,2.3,2,2.7,2.7
			c0.9,1.7,1.4,3.6,1.4,5.5C832.5,391,836.5,391,836.5,388.4L836.5,388.4z"/>
	</g>
</g>
<g>
	<g>
		<path d="M853.5,399.3c0.4,0,0.8,0,1.3,0c0.3,0,0.5,0,0.8-0.2c0.2-0.1,0.5-0.2,0.6-0.4c0.2-0.2,0.3-0.4,0.4-0.6
			c0.1-0.2,0.2-0.5,0.2-0.8c0-0.2,0-0.4-0.1-0.5c-0.1-0.3-0.3-0.6-0.5-0.9c-0.1-0.1-0.3-0.2-0.4-0.3c-0.3-0.2-0.6-0.3-1-0.3
			c-0.4,0-0.8,0-1.3,0c-0.3,0-0.5,0-0.8,0.2c-0.2,0.1-0.5,0.2-0.6,0.4c-0.2,0.2-0.3,0.4-0.4,0.6c-0.1,0.2-0.2,0.5-0.2,0.8
			c0,0.2,0,0.4,0.1,0.5c0.1,0.3,0.3,0.6,0.5,0.9c0.1,0.1,0.3,0.2,0.4,0.3C852.8,399.2,853.1,399.3,853.5,399.3L853.5,399.3z"/>
	</g>
</g>
<g>
	<g>
		<path d="M786.3,357.4c2.6,0,2.6-4,0-4C783.7,353.4,783.7,357.4,786.3,357.4L786.3,357.4z"/>
	</g>
</g>
<g>
	<g>
		<path d="M670.5,368.1c-0.7-6,2-12.2,6.9-15.8c4.8-3.6,11.3-4,16.7-1.5c3,1.4,5.6,3.6,7.4,6.5c1.3,2.2,4.8,0.2,3.5-2
			c-3.8-6.2-10.9-10.1-18.2-10.1c-7.5,0-14.2,4.3-17.8,10.8c-2,3.7-3,7.9-2.5,12.1c0.1,1.1,0.8,2,2,2
			C669.5,370.1,670.6,369.1,670.5,368.1L670.5,368.1z"/>
	</g>
</g>
<g>
	<g>
		<path d="M669.5,371.6c6.8,4.8,15.2,9,23.8,7.4c7.1-1.3,13.5-6.9,14-14.4c-1.2,0.3-2.5,0.7-3.7,1c2.9,4.3,7.6,6.9,12.8,6.8
			c0.6,0,1.5-0.4,1.7-1c2.8-6.7-2-14.9-9.4-15.3c0.6,1,1.2,2,1.7,3c2.2-2.9,3.8-6.2,4.7-9.7c0.8-3.1,1.5-6.9,0.4-10
			c-1.1-3-4.2-5.1-7.2-3c-1.3,1-2.1,2.4-2.7,3.9c-0.8,1.7-1.4,3.5-1.9,5.4c-1,4.2-1.1,8.4-0.3,12.6c0.2,1.1,1.5,1.7,2.5,1.4
			c1.1-0.3,1.6-1.4,1.4-2.5c-0.6-3.5-0.5-7.1,0.3-10.5c0.2-0.9,2.1-7.7,3.5-7.2c0.8,0.3,0.9,2.2,1,2.9c0,1.7-0.2,3.4-0.5,5.1
			c-0.8,3.5-2.3,6.7-4.5,9.6c-1,1.3,0.4,3,1.7,3c4.1,0.2,7.6,5.3,6,9.2c0.6-0.3,1.2-0.7,1.7-1c-3.7,0-7.3-1.8-9.3-4.9
			c-1.1-1.7-3.6-1-3.7,1c-0.4,5.8-6.2,9.8-11.6,10.6c-7.3,1-14.4-3.1-20.2-7.1C669.4,366.6,667.4,370.1,669.5,371.6L669.5,371.6z"/>
	</g>
</g>
<g>
	<g>
		<path d="M683,360.5c0-0.4,0-0.8,0-1.3c0-0.3,0-0.5-0.2-0.8c-0.1-0.2-0.2-0.5-0.4-0.6c-0.2-0.2-0.4-0.3-0.6-0.4
			c-0.2-0.1-0.5-0.2-0.8-0.2c-0.2,0-0.4,0-0.5,0.1c-0.3,0.1-0.6,0.3-0.9,0.5c-0.1,0.1-0.2,0.3-0.3,0.4c-0.2,0.3-0.3,0.6-0.3,1
			c0,0.4,0,0.8,0,1.3c0,0.3,0,0.5,0.2,0.8c0.1,0.2,0.2,0.5,0.4,0.6c0.2,0.2,0.4,0.3,0.6,0.4c0.2,0.1,0.5,0.2,0.8,0.2
			c0.2,0,0.4,0,0.5-0.1c0.3-0.1,0.6-0.3,0.9-0.5c0.1-0.1,0.2-0.3,0.3-0.4C682.9,361.2,683,360.8,683,360.5L683,360.5z"/>
	</g>
</g>
</svg>
