<?xml version="1.0" encoding="utf-8"?>
<svg xmlns="http://www.w3.org/2000/svg" viewBox="0 0 48 48" width="480" height="480">
  <path fill="#3f51b5" d="M24,44C12.972,44,4,35.028,4,24S12.972,4,24,4s20,8.972,20,20S35.028,44,24,44z" />
  <path fill="#1a237e" d="M21 18c0 1.656-1.344 3-3 3s-3-1.344-3-3 1.344-3 3-3S21 16.344 21 18zM33 18c0 1.656-1.344 3-3 3s-3-1.344-3-3 1.344-3 3-3S33 16.344 33 18zM21 30c0 1.656-1.344 3-3 3s-3-1.344-3-3 1.344-3 3-3S21 28.344 21 30zM33 30c0 1.656-1.344 3-3 3s-3-1.344-3-3 1.344-3 3-3S33 28.344 33 30z" />
  <path fill="#fff" d="M19,30.016c-0.258,0-0.512-0.098-0.707-0.289c-0.391-0.391-0.391-1.023,0-1.418l10-10.016c0.391-0.391,1.023-0.391,1.414,0s0.391,1.023,0,1.414l-10,10.016C19.512,29.918,19.258,30.016,19,30.016z" />
  <path fill="#fff" d="M29,30.016c0.258,0,0.512-0.098,0.707-0.289c0.391-0.391,0.391-1.023,0-1.418l-10-10.016c-0.391-0.391-1.023-0.391-1.414,0s-0.391,1.023,0,1.414l10,10.016C28.488,29.918,28.742,30.016,29,30.016z" />
</svg>