<svg enable-background="new 0 0 2101.656 1789.868" height="1790" viewBox="0 0 2101.656 1789.868" width="2102" xmlns="http://www.w3.org/2000/svg"><path d="m2089.6 1408.496c-9.032 92.839-26.046 192.039-91.514 258.489-73.169 74.273-186.404 87.76-290.361 95.748-441.914 33.959-888.18 44.686-1326.732-19.437-85.337-12.47-172.733-28.695-245.586-74.843-120.057-76.044-134.792-203.439-135.362-332.447-.721-163.914 6.843-329.873 52.037-488.378 58.104-203.782 188.607-397.702 383.92-479.882 187.468-78.879 407.53-46.313 594.779-125.693 88.618-37.562 165.046-98.281 246.348-149.796 19.094-12.1 38.75-23.767 58.9-34.494 4.777-2.553 9.581-5.044 14.413-7.474 61.57-31.001 127.477-52.366 195.731-50.129 64.885 2.128 127.1 25.963 181.154 62.565 4.873 3.287 9.677 6.692 14.413 10.192 19.725 14.571 38.221 30.823 55.214 48.289 66.34 68.2 112.069 153.749 149.673 241.145 140.592 326.744 177.406 692.107 142.973 1046.145z" fill="#ffb400"/><path d="m1844.831 1568.141c-203.724 45.617-407.448 45.617-611.172 0-28.522-325.835-28.522-651.67 0-977.505 203.724-45.617 407.448-45.617 611.172 0 28.521 325.836 28.521 651.671 0 977.505z" fill="#f04e23"/><path d="m1539.245 1564.811c-88.91 0-179.25-9.138-268.51-27.159l-2.024-.409-.169-2.058c-12.429-151.39-18.731-304.741-18.731-455.796s6.302-304.406 18.731-455.796l.169-2.058 2.024-.409c89.26-18.021 179.6-27.159 268.51-27.159s179.25 9.138 268.51 27.159l2.023.409.169 2.058c12.429 151.394 18.731 304.745 18.731 455.796s-6.302 304.402-18.731 455.796l-.169 2.058-2.023.409c-89.261 18.021-179.6 27.159-268.51 27.159zm-265.4-32.135c88.247 17.681 177.524 26.644 265.4 26.644s177.153-8.963 265.399-26.644c12.306-150.579 18.544-303.068 18.544-453.287s-6.239-302.709-18.544-453.287c-88.246-17.681-177.524-26.644-265.399-26.644s-177.153 8.963-265.4 26.644c-12.306 150.575-18.544 303.064-18.544 453.287s6.238 302.712 18.544 453.287z" fill="#ffb400"/><ellipse cx="1539.245" cy="1081.835" fill="#ffb400" rx="7.073" ry="440.445"/><ellipse cx="1538.486" cy="843.844" fill="#ffb400" rx="256.308" ry="7.073"/><ellipse cx="1538.486" cy="1081.835" fill="#ffb400" rx="256.308" ry="7.073"/><ellipse cx="1538.486" cy="1319.826" fill="#ffb400" rx="256.308" ry="7.073"/><path d="m1770.588 304.75c-154.735.382-309.47.382-464.204 0-4.642-12.744-4.642-25.488 0-38.232 154.734-.382 309.469-.382 464.204 0 4.642 12.744 4.642 25.488 0 38.232z" fill="#fff"/><g fill="#f04e23"><path d="m1360.848 309.167c-11.744 3.608-23.487 3.608-35.231 0-2.701-15.688-2.701-31.376 0-47.064 11.744-3.608 23.487-3.608 35.231 0 2.701 15.687 2.701 31.375 0 47.064z"/><path d="m1752.151 309.167c-11.744 3.608-23.487 3.608-35.231 0-2.701-15.688-2.701-31.376 0-47.064 11.744-3.608 23.487-3.608 35.231 0 2.701 15.687 2.701 31.375 0 47.064z"/><path d="m1350.441 50.289c.144 77.314.144 154.628 0 231.942-4.804 2.319-9.609 2.319-14.413 0-.14-74.823-.144-149.645-.014-224.468 4.791-4.711 9.6-7.377 14.427-7.474z"/><path d="m1741.758 72.917c.125 69.771.118 139.542-.019 209.314-4.804 2.195-9.609 2.195-14.413 0-.144-73.169-.144-146.337 0-219.506 4.867 1.061 9.678 4.73 14.432 10.192z"/><path d="m309.241 1566.281c-9.476 0-17.158-7.682-17.158-17.158v-601.903c0-9.476 7.682-17.158 17.158-17.158s17.158 7.682 17.158 17.158v601.902c0 9.477-7.682 17.159-17.158 17.159z"/><path d="m909.393 1566.281c-9.476 0-17.158-7.682-17.158-17.158v-601.903c0-9.476 7.682-17.158 17.158-17.158s17.158 7.682 17.158 17.158v601.902c0 9.477-7.682 17.159-17.158 17.159z"/><path d="m909.393 1018.302h-600.152c-7.581 0-13.726-6.145-13.726-13.726s6.145-13.726 13.726-13.726h600.151c7.581 0 13.726 6.145 13.726 13.726.001 7.581-6.144 13.726-13.725 13.726z"/><path d="m378.392 1567.653h-138.302c-7.581 0-13.726-6.145-13.726-13.726s6.145-13.726 13.726-13.726h138.302c7.581 0 13.726 6.145 13.726 13.726s-6.145 13.726-13.726 13.726z"/><path d="m736.245 827.581h-501.321c-7.581 0-13.726-6.145-13.726-13.726s6.145-13.726 13.726-13.726h501.321c7.581 0 13.726 6.145 13.726 13.726s-6.145 13.726-13.726 13.726z"/><path d="m1075.482 655.116h-501.321c-7.581 0-13.726-6.145-13.726-13.726s6.145-13.726 13.726-13.726h501.321c7.581 0 13.726 6.145 13.726 13.726s-6.145 13.726-13.726 13.726z"/><path d="m978.543 1567.653h-138.301c-7.581 0-13.726-6.145-13.726-13.726s6.145-13.726 13.726-13.726h138.302c7.581 0 13.726 6.145 13.726 13.726s-6.145 13.726-13.727 13.726z"/></g><circle cx="240.09" cy="1583.991" fill="#04294f" r="19.736"/><circle cx="378.392" cy="1583.991" fill="#04294f" r="19.736"/><circle cx="840.242" cy="1583.991" fill="#04294f" r="19.736"/><circle cx="978.544" cy="1583.991" fill="#04294f" r="19.736"/><path d="m1484.644 824.993h-161.62c-13.361 0-24.192-10.831-24.192-24.192 0-13.361 10.831-24.192 24.192-24.192h161.62c13.361 0 24.192 10.831 24.192 24.192-.001 13.361-10.832 24.192-24.192 24.192z" fill="#ffb400"/><path d="m1484.644 776.61h-161.62c-13.361 0-24.192-10.831-24.192-24.192 0-13.361 10.831-24.192 24.192-24.192h161.62c13.361 0 24.192 10.831 24.192 24.192-.001 13.361-10.832 24.192-24.192 24.192z" fill="#ffb400"/><path d="m1484.644 728.227h-161.62c-13.361 0-24.192-10.831-24.192-24.192 0-13.361 10.831-24.192 24.192-24.192h161.62c13.361 0 24.192 10.831 24.192 24.192-.001 13.361-10.832 24.192-24.192 24.192z" fill="#ffb400"/><path d="m1484.644 1056.227h-161.62c-13.361 0-24.192-10.831-24.192-24.192 0-13.361 10.831-24.192 24.192-24.192h161.62c13.361 0 24.192 10.831 24.192 24.192-.001 13.361-10.832 24.192-24.192 24.192z" fill="#04294f"/><path d="m1484.644 1007.844h-161.62c-13.361 0-24.192-10.831-24.192-24.192 0-13.361 10.831-24.192 24.192-24.192h161.62c13.361 0 24.192 10.831 24.192 24.192-.001 13.361-10.832 24.192-24.192 24.192z" fill="#04294f"/><path d="m1484.644 959.461h-161.62c-13.361 0-24.192-10.831-24.192-24.192 0-13.361 10.831-24.192 24.192-24.192h161.62c13.361 0 24.192 10.831 24.192 24.192-.001 13.361-10.832 24.192-24.192 24.192z" fill="#fff"/><path d="m1484.644 1305.216h-161.62c-13.361 0-24.192-10.831-24.192-24.192 0-13.361 10.831-24.192 24.192-24.192h161.62c13.361 0 24.192 10.831 24.192 24.192-.001 13.361-10.832 24.192-24.192 24.192z" fill="#04294f"/><path d="m1484.644 1256.833h-161.62c-13.361 0-24.192-10.831-24.192-24.192 0-13.361 10.831-24.192 24.192-24.192h161.62c13.361 0 24.192 10.831 24.192 24.192-.001 13.361-10.832 24.192-24.192 24.192z" fill="#ffb400"/><path d="m1484.644 1208.449h-161.62c-13.361 0-24.192-10.831-24.192-24.192 0-13.361 10.831-24.192 24.192-24.192h161.62c13.361 0 24.192 10.831 24.192 24.192-.001 13.362-10.832 24.192-24.192 24.192z" fill="#04294f"/><path d="m1751.266 1056.227h-161.62c-13.361 0-24.192-10.831-24.192-24.192 0-13.361 10.831-24.192 24.192-24.192h161.62c13.361 0 24.192 10.831 24.192 24.192-.001 13.361-10.832 24.192-24.192 24.192z" fill="#ffb400"/><path d="m1751.266 1007.844h-161.62c-13.361 0-24.192-10.831-24.192-24.192 0-13.361 10.831-24.192 24.192-24.192h161.62c13.361 0 24.192 10.831 24.192 24.192-.001 13.361-10.832 24.192-24.192 24.192z" fill="#ffb400"/><path d="m1751.266 959.461h-161.62c-13.361 0-24.192-10.831-24.192-24.192 0-13.361 10.831-24.192 24.192-24.192h161.62c13.361 0 24.192 10.831 24.192 24.192-.001 13.361-10.832 24.192-24.192 24.192z" fill="#ffb400"/><path d="m1762.143 824.993h-183.375c-7.353 0-13.314-5.961-13.314-13.314 0-7.353 5.961-13.314 13.314-13.314h183.375c7.353 0 13.314 5.961 13.314 13.314 0 7.353-5.961 13.314-13.314 13.314z" fill="#04294f"/><path d="m1762.143 798.365h-183.375c-7.353 0-13.314-5.961-13.314-13.314 0-7.353 5.961-13.314 13.314-13.314h183.375c7.353 0 13.314 5.961 13.314 13.314 0 7.352-5.961 13.314-13.314 13.314z" fill="#ffb400"/><path d="m1762.143 771.736h-183.375c-7.353 0-13.314-5.961-13.314-13.314 0-7.353 5.961-13.314 13.314-13.314h183.375c7.353 0 13.314 5.961 13.314 13.314 0 7.353-5.961 13.314-13.314 13.314z" fill="#04294f"/><path d="m1762.143 745.107h-183.375c-7.353 0-13.314-5.961-13.314-13.314 0-7.353 5.961-13.314 13.314-13.314h183.375c7.353 0 13.314 5.961 13.314 13.314 0 7.353-5.961 13.314-13.314 13.314z" fill="#fff"/><path d="m1762.143 1301.398h-183.375c-7.353 0-13.314-5.961-13.314-13.314 0-7.353 5.961-13.314 13.314-13.314h183.375c7.353 0 13.314 5.961 13.314 13.314 0 7.353-5.961 13.314-13.314 13.314z" fill="#fff"/><path d="m1762.143 1274.77h-183.375c-7.353 0-13.314-5.961-13.314-13.314 0-7.353 5.961-13.314 13.314-13.314h183.375c7.353 0 13.314 5.961 13.314 13.314 0 7.352-5.961 13.314-13.314 13.314z" fill="#fff"/><path d="m1762.143 1248.141h-183.375c-7.353 0-13.314-5.961-13.314-13.314 0-7.353 5.961-13.314 13.314-13.314h183.375c7.353 0 13.314 5.961 13.314 13.314 0 7.353-5.961 13.314-13.314 13.314z" fill="#fff"/><path d="m1762.143 1221.512h-183.375c-7.353 0-13.314-5.961-13.314-13.314 0-7.353 5.961-13.314 13.314-13.314h183.375c7.353 0 13.314 5.961 13.314 13.314 0 7.353-5.961 13.314-13.314 13.314z" fill="#ffb400"/><path d="m1762.143 1194.883h-183.375c-7.353 0-13.314-5.961-13.314-13.314 0-7.353 5.961-13.314 13.314-13.314h183.375c7.353 0 13.314 5.961 13.314 13.314 0 7.353-5.961 13.314-13.314 13.314z" fill="#fff"/><path d="m1762.143 1168.254h-183.375c-7.353 0-13.314-5.961-13.314-13.314 0-7.353 5.961-13.314 13.314-13.314h183.375c7.353 0 13.314 5.961 13.314 13.314 0 7.353-5.961 13.314-13.314 13.314z" fill="#fff"/><path d="m1495.521 1510.695h-183.375c-7.353 0-13.314-5.961-13.314-13.314 0-7.353 5.961-13.314 13.314-13.314h183.375c7.353 0 13.314 5.961 13.314 13.314 0 7.353-5.961 13.314-13.314 13.314z" fill="#fff"/><path d="m1495.521 1484.067h-183.375c-7.353 0-13.314-5.961-13.314-13.314 0-7.353 5.961-13.314 13.314-13.314h183.375c7.353 0 13.314 5.961 13.314 13.314 0 7.352-5.961 13.314-13.314 13.314z" fill="#ffb400"/><path d="m1469.641 1385.95v19.951c0 3.239-2.073 6.122-5.141 7.151-18.51 6.184-37.013 6.184-55.523 0-3.075-1.029-5.141-3.912-5.141-7.151v-19.951c0 3.239 2.066 6.122 5.141 7.151 18.51 6.184 37.013 6.184 55.523 0 3.068-1.029 5.141-3.912 5.141-7.151z" fill="#04294f"/><path d="m1469.641 1232.64v153.31c0 3.239-2.073 6.122-5.141 7.151-18.51 6.184-37.013 6.184-55.523 0-3.075-1.03-5.141-3.912-5.141-7.151v-153.31z" fill="#ffb400"/><path d="m837.723 1173.645c7.664-1.589 15.328-3.417 22.992-5.487 7.202-1.945 12.227-8.447 12.227-15.907v-8.295c0-40.337-23.508-75.177-57.57-91.582-3.647-1.757-7.879.904-7.879 4.952v28.786c0 25.165-20.401 45.566-45.566 45.566-25.165 0-45.566-20.401-45.566-45.566v-28.786c0-4.048-4.232-6.708-7.879-4.952-34.061 16.405-57.57 51.246-57.57 91.582v8.294c0 7.408 4.941 13.938 12.093 15.87 8.327 2.249 16.654 4.211 24.981 5.895.539 7.404 2.15 14.511 4.682 21.164 6.305 16.564 4.106 35.292-6.495 49.495-9.338 12.511-14.866 28.03-14.866 44.842v152.277c0 7.07 4.517 13.353 11.218 15.607 52.933 17.802 105.867 17.802 158.8 0 6.701-2.254 11.218-8.536 11.218-15.607v-152.277c0-16.299-5.196-31.384-14.022-43.689-10.39-14.487-12.368-33.237-5.829-49.821 2.764-7 4.499-14.515 5.031-22.361z" fill="#04294f"/><path d="m485.584 1074.532h-67.385c-5.875 0-10.638-4.763-10.638-10.638s4.763-10.638 10.638-10.638h67.385c5.875 0 10.638 4.763 10.638 10.638 0 5.876-4.762 10.638-10.638 10.638z" fill="#f04e23"/><path d="m452.713 1074.532c-5.875 0-10.638-4.763-10.638-10.638v-74.123c0-5.875 4.763-10.638 10.638-10.638s10.638 4.763 10.638 10.638v74.123c0 5.876-4.762 10.638-10.638 10.638z" fill="#f04e23"/><path d="m651.318 1074.532h-91.132c-5.875 0-10.638-4.763-10.638-10.638s4.763-10.638 10.638-10.638h91.132c5.875 0 10.638 4.763 10.638 10.638 0 5.876-4.763 10.638-10.638 10.638z" fill="#04294f"/><path d="m606.574 1074.532c-5.875 0-10.638-4.763-10.638-10.638v-74.123c0-5.875 4.763-10.638 10.638-10.638s10.638 4.763 10.638 10.638v74.123c0 5.876-4.763 10.638-10.638 10.638z" fill="#04294f"/><path d="m806.32 1074.532h-91.132c-5.875 0-10.638-4.763-10.638-10.638s4.763-10.638 10.638-10.638h91.132c5.875 0 10.638 4.763 10.638 10.638-0 5.876-4.763 10.638-10.638 10.638z" fill="#04294f"/><path d="m761.576 1074.532c-5.875 0-10.638-4.763-10.638-10.638v-74.123c0-5.875 4.763-10.638 10.638-10.638s10.638 4.763 10.638 10.638v74.123c0 5.876-4.763 10.638-10.638 10.638z" fill="#04294f"/><path d="m681.548 1173.645c7.664-1.589 15.328-3.417 22.992-5.487 7.202-1.945 12.227-8.447 12.227-15.907v-8.295c0-40.337-23.508-75.177-57.57-91.582-3.647-1.757-7.879.904-7.879 4.952v28.786c0 25.165-20.401 45.566-45.566 45.566-25.165 0-45.566-20.401-45.566-45.566v-28.786c0-4.048-4.232-6.708-7.879-4.952-34.061 16.405-57.57 51.246-57.57 91.582v8.294c0 7.408 4.941 13.938 12.093 15.87 8.327 2.249 16.654 4.211 24.981 5.895.539 7.404 2.15 14.511 4.682 21.164 6.305 16.564 4.106 35.292-6.495 49.495-9.337 12.511-14.866 28.03-14.866 44.842v152.277c0 7.07 4.517 13.353 11.218 15.607 52.933 17.802 105.867 17.802 158.8 0 6.701-2.254 11.218-8.536 11.218-15.607v-152.277c0-16.299-5.196-31.384-14.022-43.689-10.39-14.487-12.368-33.237-5.829-49.821 2.763-7 4.499-14.515 5.031-22.361z" fill="#f04e23"/><path d="m550.636 1147.745c0-42.598-25.9-79.005-62.467-93.638-2.031-.813-4.305.137-5.222 2.123-3.888 8.426-16.322 14.59-31.065 14.59-14.58 0-26.9-6.029-30.931-14.312-.949-1.951-3.218-2.853-5.224-2.027-36.086 14.869-61.561 51.02-61.561 93.264v.034c0 1.934 1.423 3.579 3.337 3.849 10.266 1.446 20.532 2.652 30.798 3.63v64.166c0 1.816 1.213 3.404 2.96 3.899 40.759 11.549 81.518 11.549 122.277 0 1.748-.495 2.96-2.083 2.96-3.899v-64.166c10.266-.977 20.532-2.184 30.798-3.63 1.915-.27 3.337-1.915 3.337-3.849v-.034z" fill="#04294f"/><path d="m680.697 559.11c7.644-12.715 23.56-21.369 36.734-15.352 7.71 3.521 13.855 11.554 22.27 11.68 6.297.095 11.978-4.435 18.274-4.56 9.676-.194 16.513 9.579 21.017 18.521 3.568 7.081 6.806 14.343 9.699 21.752 1.095 2.804 2.123 6.08.734 8.739-1.274 2.44-4.104 3.408-6.679 4.115-27.508 7.558-56.385 9.573-84.623 6.043-9.452-1.182-26.832-.025-27.32-12.493-.485-12.407 3.613-27.996 9.894-38.445z" fill="#f04e23"/><path d="m722.296 629.048c-28.297 0-55.798-6.514-80.088-19.038-4.378-2.257-6.098-7.636-3.84-12.015 2.257-4.379 7.637-6.099 12.015-3.84 49.075 25.302 113.055 21.936 159.206-8.375 4.117-2.704 9.647-1.559 12.352 2.559 2.704 4.117 1.559 9.647-2.559 12.352-25.452 16.716-55.658 26.434-87.354 28.101-3.25.17-6.499.256-9.732.256z" fill="#f04e23"/><path d="m869.561 558.226c7.644-12.715 23.56-21.369 36.734-15.352 7.71 3.521 13.855 11.554 22.27 11.68 6.297.095 11.978-4.435 18.274-4.56 9.676-.194 16.513 9.579 21.017 18.521 3.568 7.081 6.806 14.343 9.699 21.752 1.095 2.804 2.123 6.08.734 8.739-1.274 2.44-4.104 3.408-6.679 4.115-27.508 7.558-56.385 9.573-84.623 6.043-9.452-1.182-26.832-.025-27.32-12.493-.486-12.408 3.612-27.997 9.894-38.445z" fill="#f04e23"/><path d="m911.159 628.163c-28.297 0-55.798-6.514-80.088-19.038-4.378-2.257-6.098-7.636-3.84-12.015 2.257-4.379 7.637-6.099 12.015-3.84 49.075 25.302 113.055 21.936 159.206-8.375 4.117-2.704 9.647-1.559 12.352 2.559 2.704 4.117 1.559 9.647-2.559 12.352-25.452 16.716-55.658 26.434-87.354 28.101-3.25.171-6.499.256-9.732.256z" fill="#f04e23"/><path d="m776.545 559.11c7.644-12.715 23.56-21.369 36.734-15.352 7.71 3.521 13.855 11.554 22.27 11.68 6.297.095 11.978-4.435 18.274-4.56 9.676-.194 16.513 9.579 21.017 18.521 3.568 7.081 6.806 14.343 9.699 21.752 1.095 2.804 2.123 6.08.734 8.739-1.274 2.44-4.104 3.408-6.679 4.115-27.508 7.558-56.385 9.573-84.623 6.043-9.452-1.182-26.832-.025-27.32-12.493-.485-12.407 3.612-27.996 9.894-38.445z" fill="#04294f"/><path d="m818.144 629.048c-28.297 0-55.798-6.514-80.088-19.038-4.378-2.257-6.098-7.636-3.84-12.015 2.257-4.379 7.636-6.099 12.015-3.84 49.075 25.302 113.055 21.936 159.206-8.375 4.117-2.704 9.647-1.559 12.352 2.559 2.704 4.117 1.559 9.647-2.559 12.352-25.452 16.716-55.658 26.434-87.353 28.101-3.251.17-6.5.256-9.733.256z" fill="#04294f"/><path d="m600.872 801.395c-2.955-13.952-4.113-27.904-3.474-41.856.316-6.852 5.966-13.035 13.026-15.06 16.217-4.582 32.148-9.204 47.466-13.465 2.45-.683 4.996-.696 7.452-.042 15.258 4.063 31.099 8.488 47.229 12.891 7.126 1.977 12.884 8.207 13.228 15.117.695 14.138-.454 28.276-3.448 42.414-40.493 2.754-80.986 2.754-121.479.001z" fill="#f04e23"/><path d="m577.534 780.376h83.906v22.649h-103.806c-6.258 0-10.549-4.562-8.256-8.775 4.557-8.371 15.724-13.874 28.156-13.874z" fill="#f04e23"/><path d="m523.685 801.395c-2.955-13.952-4.113-27.904-3.474-41.856.316-6.852 5.966-13.035 13.027-15.06 16.217-4.582 32.148-9.204 47.466-13.465 2.45-.683 4.996-.696 7.452-.042 15.258 4.063 31.099 8.488 47.229 12.891 7.126 1.977 12.884 8.207 13.227 15.117.696 14.138-.454 28.276-3.448 42.414-40.494 2.754-80.987 2.754-121.479.001z" fill="#04294f"/><path d="m500.346 780.376h83.906v22.649h-103.806c-6.258 0-10.549-4.562-8.256-8.775 4.557-8.371 15.724-13.874 28.156-13.874z" fill="#04294f"/><path d="m390.669 801.395c2.955-13.952 4.113-27.904 3.474-41.856-.316-6.852-5.966-13.035-13.027-15.06-16.217-4.582-32.148-9.204-47.466-13.465-2.45-.683-4.996-.696-7.452-.042-15.258 4.063-31.099 8.488-47.229 12.891-7.126 1.977-12.884 8.207-13.228 15.117-.696 14.138.454 28.276 3.448 42.414 40.494 2.754 80.987 2.754 121.48.001z" fill="#f04e23"/><path d="m414.007 780.376h-83.906v22.649h103.806c6.258 0 10.549-4.562 8.256-8.775-4.557-8.371-15.724-13.874-28.156-13.874z" fill="#f04e23"/></svg>